M48
; DRILL file {KiCad 9.0.3} date 2026-01-04T16:05:18+0700
; FORMAT={-:-/ absolute / metric / decimal}
; #@! TF.CreationDate,2026-01-04T16:05:18+07:00
; #@! TF.GenerationSoftware,Kicad,Pcbnew,9.0.3
; #@! TF.FileFunction,Plated,1,2,PTH
FMAT,2
METRIC
; #@! TA.AperFunction,Plated,PTH,ViaDrill
T1C0.300
; #@! TA.AperFunction,Plated,PTH,ComponentDrill
T2C0.800
; #@! TA.AperFunction,Plated,PTH,ComponentDrill
T3C0.950
; #@! TA.AperFunction,Plated,PTH,ComponentDrill
T4C0.980
; #@! TA.AperFunction,Plated,PTH,ComponentDrill
T5C1.000
; #@! TA.AperFunction,Plated,PTH,ComponentDrill
T6C1.300
; #@! TA.AperFunction,Plated,PTH,ComponentDrill
T7C1.320
%
G90
G05
T1
X160.122Y-70.514
X178.257Y-127.84
X186.915Y-126.924
T2
X133.909Y-70.79
X133.909Y-73.33
X133.909Y-75.87
X133.909Y-78.41
X133.909Y-80.95
X133.909Y-83.49
X133.909Y-86.03
X133.909Y-88.57
X133.909Y-91.11
X133.909Y-93.65
X133.909Y-96.19
X133.909Y-98.73
X133.909Y-101.27
X133.909Y-103.81
X133.909Y-106.35
X133.909Y-108.89
X133.909Y-111.43
X133.909Y-113.97
X133.909Y-116.51
X133.909Y-119.05
X133.909Y-121.59
X133.909Y-124.13
X156.769Y-78.41
X156.769Y-80.95
X156.769Y-83.49
X156.769Y-86.03
X156.769Y-88.57
X156.769Y-91.11
X156.769Y-93.65
X156.769Y-96.19
X156.769Y-98.73
X156.769Y-101.27
X156.769Y-103.81
X156.769Y-106.35
X156.769Y-108.89
X156.769Y-111.43
X156.769Y-113.97
X156.769Y-116.51
X156.769Y-119.05
X156.769Y-121.59
X156.769Y-124.13
X156.772Y-70.793
X156.772Y-73.333
X156.772Y-75.873
T3
X132.973Y-141.783
X135.473Y-141.783
X137.973Y-141.783
X144.828Y-141.901
X147.328Y-141.901
X149.828Y-141.901
X152.328Y-141.901
X154.828Y-141.901
X157.328Y-141.901
X159.828Y-141.901
X162.328Y-141.901
X164.828Y-141.901
X167.328Y-141.901
X169.828Y-141.901
X196.655Y-64.286
X196.655Y-66.786
X196.655Y-69.286
X196.655Y-71.786
X196.655Y-74.286
X196.655Y-76.786
T5
X161.539Y-131.039
X162.331Y-89.26
X162.331Y-91.8
X162.331Y-94.34
X162.331Y-96.88
X162.331Y-99.42
X164.287Y-68.453
X164.287Y-70.993
X164.287Y-73.533
X164.287Y-76.073
X166.539Y-131.039
X184.81Y-82.652
X184.81Y-123.292
X202.59Y-82.652
X202.59Y-123.292
T6
X177.176Y-138.921
X182.176Y-138.921
T7
X162.718Y-103.84
X162.718Y-106.38
X162.718Y-108.92
X162.718Y-111.46
X162.718Y-114.0
X162.718Y-116.54
X162.718Y-119.08
X162.718Y-121.62
X177.958Y-103.84
X177.958Y-106.38
X177.958Y-108.92
X177.958Y-111.46
X177.958Y-114.0
X177.958Y-116.54
X177.958Y-119.08
X177.958Y-121.62
T4
G00X189.598Y-134.075
M15
G01X189.598Y-138.975
M16
G05
G00X196.698Y-134.075
M15
G01X196.698Y-138.975
M16
G05
M30
