%TF.GenerationSoftware,KiCad,Pcbnew,9.0.3*%
%TF.CreationDate,2025-12-20T12:47:06+07:00*%
%TF.ProjectId,shield,73686965-6c64-42e6-9b69-6361645f7063,rev?*%
%TF.SameCoordinates,Original*%
%TF.FileFunction,Copper,L2,Bot*%
%TF.FilePolarity,Positive*%
%FSLAX46Y46*%
G04 Gerber Fmt 4.6, Leading zero omitted, Abs format (unit mm)*
G04 Created by KiCad (PCBNEW 9.0.3) date 2025-12-20 12:47:06*
%MOMM*%
%LPD*%
G01*
G04 APERTURE LIST*
G04 Aperture macros list*
%AMRoundRect*
0 Rectangle with rounded corners*
0 $1 Rounding radius*
0 $2 $3 $4 $5 $6 $7 $8 $9 X,Y pos of 4 corners*
0 Add a 4 corners polygon primitive as box body*
4,1,4,$2,$3,$4,$5,$6,$7,$8,$9,$2,$3,0*
0 Add four circle primitives for the rounded corners*
1,1,$1+$1,$2,$3*
1,1,$1+$1,$4,$5*
1,1,$1+$1,$6,$7*
1,1,$1+$1,$8,$9*
0 Add four rect primitives between the rounded corners*
20,1,$1+$1,$2,$3,$4,$5,0*
20,1,$1+$1,$4,$5,$6,$7,0*
20,1,$1+$1,$6,$7,$8,$9,0*
20,1,$1+$1,$8,$9,$2,$3,0*%
G04 Aperture macros list end*
%TA.AperFunction,ComponentPad*%
%ADD10RoundRect,0.250000X-1.050000X-1.050000X1.050000X-1.050000X1.050000X1.050000X-1.050000X1.050000X0*%
%TD*%
%TA.AperFunction,ComponentPad*%
%ADD11C,2.600000*%
%TD*%
%TA.AperFunction,ComponentPad*%
%ADD12RoundRect,0.250000X1.350000X1.350000X-1.350000X1.350000X-1.350000X-1.350000X1.350000X-1.350000X0*%
%TD*%
%TA.AperFunction,ComponentPad*%
%ADD13C,3.200000*%
%TD*%
%TA.AperFunction,ComponentPad*%
%ADD14R,1.700000X1.700000*%
%TD*%
%TA.AperFunction,ComponentPad*%
%ADD15C,1.700000*%
%TD*%
%TA.AperFunction,ComponentPad*%
%ADD16RoundRect,0.250000X0.550000X0.550000X-0.550000X0.550000X-0.550000X-0.550000X0.550000X-0.550000X0*%
%TD*%
%TA.AperFunction,ComponentPad*%
%ADD17C,1.600000*%
%TD*%
%TA.AperFunction,ComponentPad*%
%ADD18RoundRect,0.250000X-1.350000X-1.350000X1.350000X-1.350000X1.350000X1.350000X-1.350000X1.350000X0*%
%TD*%
%TA.AperFunction,ComponentPad*%
%ADD19RoundRect,0.250000X0.600000X0.725000X-0.600000X0.725000X-0.600000X-0.725000X0.600000X-0.725000X0*%
%TD*%
%TA.AperFunction,ComponentPad*%
%ADD20O,1.700000X1.950000*%
%TD*%
%TA.AperFunction,ComponentPad*%
%ADD21RoundRect,0.250000X-0.550000X-0.550000X0.550000X-0.550000X0.550000X0.550000X-0.550000X0.550000X0*%
%TD*%
%TA.AperFunction,ComponentPad*%
%ADD22RoundRect,0.250000X0.750000X0.750000X-0.750000X0.750000X-0.750000X-0.750000X0.750000X-0.750000X0*%
%TD*%
%TA.AperFunction,ComponentPad*%
%ADD23C,2.000000*%
%TD*%
%TA.AperFunction,ComponentPad*%
%ADD24R,2.540000X2.540000*%
%TD*%
%TA.AperFunction,ComponentPad*%
%ADD25C,2.540000*%
%TD*%
G04 APERTURE END LIST*
D10*
%TO.P,J4,1,Pin_1*%
%TO.N,Net-(D2-A)*%
X190768600Y-139389900D03*
D11*
%TO.P,J4,2,Pin_2*%
%TO.N,GND*%
X195768600Y-139389900D03*
%TD*%
D12*
%TO.P,D1,1,K*%
%TO.N,Net-(D1-K)*%
X193471800Y-123367800D03*
D13*
%TO.P,D1,2,A*%
%TO.N,VCC*%
X178231800Y-123367800D03*
%TD*%
D14*
%TO.P,J8,1,Pin_1*%
%TO.N,+3V3*%
X158496400Y-124135200D03*
D15*
%TO.P,J8,2,Pin_2*%
%TO.N,unconnected-(J8-Pin_2-Pad2)*%
X158496400Y-121595200D03*
%TO.P,J8,3,Pin_3*%
%TO.N,unconnected-(J8-Pin_3-Pad3)*%
X158496400Y-119055200D03*
%TO.P,J8,4,Pin_4*%
%TO.N,/GPIO4*%
X158496400Y-116515200D03*
%TO.P,J8,5,Pin_5*%
%TO.N,/GPIO5*%
X158496400Y-113975200D03*
%TO.P,J8,6,Pin_6*%
%TO.N,/GPIO6*%
X158496400Y-111435200D03*
%TO.P,J8,7,Pin_7*%
%TO.N,/GPIO7*%
X158496400Y-108895200D03*
%TO.P,J8,8,Pin_8*%
%TO.N,/GPIO15*%
X158496400Y-106355200D03*
%TO.P,J8,9,Pin_9*%
%TO.N,/GPIO16*%
X158496400Y-103815200D03*
%TO.P,J8,10,Pin_10*%
%TO.N,/GPIO17*%
X158496400Y-101275200D03*
%TO.P,J8,11,Pin_11*%
%TO.N,/GPIO18*%
X158496400Y-98735200D03*
%TO.P,J8,12,Pin_12*%
%TO.N,/GPIO8*%
X158496400Y-96195200D03*
%TO.P,J8,13,Pin_13*%
%TO.N,unconnected-(J8-Pin_13-Pad13)*%
X158496400Y-93655200D03*
%TO.P,J8,14,Pin_14*%
%TO.N,unconnected-(J8-Pin_14-Pad14)*%
X158496400Y-91115200D03*
%TO.P,J8,15,Pin_15*%
%TO.N,/GPIO9*%
X158496400Y-88575200D03*
%TO.P,J8,16,Pin_16*%
%TO.N,/GPIO10*%
X158496400Y-86035200D03*
%TO.P,J8,17,Pin_17*%
%TO.N,/GPIO11+SDA*%
X158496400Y-83495200D03*
%TO.P,J8,18,Pin_18*%
%TO.N,/GPIO12+SCL*%
X158496400Y-80955200D03*
%TO.P,J8,19,Pin_19*%
%TO.N,/GPIO13*%
X158496400Y-78415200D03*
%TO.P,J8,20,Pin_20*%
%TO.N,/GPIO14*%
X158496400Y-75875200D03*
%TO.P,J8,21,Pin_21*%
%TO.N,+5V*%
X158496400Y-73335200D03*
%TO.P,J8,22,Pin_22*%
%TO.N,GND*%
X158496400Y-70795200D03*
%TD*%
D16*
%TO.P,C3,1*%
%TO.N,VCC*%
X167854513Y-117322600D03*
D17*
%TO.P,C3,2*%
%TO.N,GND*%
X165354513Y-117322600D03*
%TD*%
D18*
%TO.P,D2,1,K*%
%TO.N,VCC*%
X178130200Y-130022600D03*
D13*
%TO.P,D2,2,A*%
%TO.N,Net-(D2-A)*%
X193370200Y-130022600D03*
%TD*%
D10*
%TO.P,J15,1,Pin_1*%
%TO.N,Net-(D1-K)*%
X178627400Y-139339100D03*
D11*
%TO.P,J15,2,Pin_2*%
%TO.N,GND*%
X183627400Y-139339100D03*
%TD*%
D19*
%TO.P,J13,1,Pin_1*%
%TO.N,/M1*%
X140285800Y-141088600D03*
D20*
%TO.P,J13,2,Pin_2*%
%TO.N,GND*%
X137785800Y-141088600D03*
%TO.P,J13,3,Pin_3*%
%TO.N,/GPIO8*%
X135285800Y-141088600D03*
%TO.P,J13,4,Pin_4*%
%TO.N,/GPIO9*%
X132785800Y-141088600D03*
%TO.P,J13,5,Pin_5*%
%TO.N,+5V*%
X130285800Y-141088600D03*
%TO.P,J13,6,Pin_6*%
%TO.N,/M2*%
X127785800Y-141088600D03*
%TD*%
D14*
%TO.P,J6,1,Pin_1*%
%TO.N,GND*%
X192785600Y-74940000D03*
D15*
%TO.P,J6,2,Pin_2*%
%TO.N,+5V*%
X192785600Y-77480000D03*
%TO.P,J6,3,Pin_3*%
%TO.N,/GPIO12+SCL*%
X192785600Y-80020000D03*
%TO.P,J6,4,Pin_4*%
%TO.N,/GPIO11+SDA*%
X192785600Y-82560000D03*
%TD*%
D14*
%TO.P,J5,1,Pin_1*%
%TO.N,GND*%
X124231400Y-81076800D03*
D15*
%TO.P,J5,2,Pin_2*%
%TO.N,+5V*%
X124231400Y-78536800D03*
%TO.P,J5,3,Pin_3*%
%TO.N,/GPIO2*%
X124231400Y-75996800D03*
%TO.P,J5,4,Pin_4*%
%TO.N,/GPIO13*%
X124231400Y-73456800D03*
%TO.P,J5,5,Pin_5*%
%TO.N,/GPIO14*%
X124231400Y-70916800D03*
%TD*%
D19*
%TO.P,J3,1,Pin_1*%
%TO.N,GND*%
X120940200Y-128591800D03*
D20*
%TO.P,J3,2,Pin_2*%
%TO.N,+5V*%
X118440200Y-128591800D03*
%TO.P,J3,3,Pin_3*%
%TO.N,/GPIO1*%
X115940200Y-128591800D03*
%TD*%
D10*
%TO.P,J14,1,Pin_1*%
%TO.N,/M1*%
X115965600Y-138907300D03*
D11*
%TO.P,J14,2,Pin_2*%
%TO.N,/M2*%
X120965600Y-138907300D03*
%TD*%
D14*
%TO.P,J2,1,Pin_1*%
%TO.N,+3V3*%
X192684800Y-99182400D03*
D15*
%TO.P,J2,2,Pin_2*%
%TO.N,GND*%
X192684800Y-96642400D03*
%TO.P,J2,3,Pin_3*%
%TO.N,/GPIO12+SCL*%
X192684800Y-94102400D03*
%TO.P,J2,4,Pin_4*%
%TO.N,/GPIO11+SDA*%
X192684800Y-91562400D03*
%TO.P,J2,5,Pin_5*%
%TO.N,/GPIO10*%
X192684800Y-89022400D03*
%TD*%
D14*
%TO.P,J9,1,Pin_1*%
%TO.N,GND*%
X131726400Y-124135200D03*
D15*
%TO.P,J9,2,Pin_2*%
%TO.N,unconnected-(J9-Pin_2-Pad2)*%
X131726400Y-121595200D03*
%TO.P,J9,3,Pin_3*%
%TO.N,unconnected-(J9-Pin_3-Pad3)*%
X131726400Y-119055200D03*
%TO.P,J9,4,Pin_4*%
%TO.N,/GPIO1*%
X131726400Y-116515200D03*
%TO.P,J9,5,Pin_5*%
%TO.N,/GPIO2*%
X131726400Y-113975200D03*
%TO.P,J9,6,Pin_6*%
%TO.N,unconnected-(J9-Pin_6-Pad6)*%
X131726400Y-111435200D03*
%TO.P,J9,7,Pin_7*%
%TO.N,unconnected-(J9-Pin_7-Pad7)*%
X131726400Y-108895200D03*
%TO.P,J9,8,Pin_8*%
%TO.N,unconnected-(J9-Pin_8-Pad8)*%
X131726400Y-106355200D03*
%TO.P,J9,9,Pin_9*%
%TO.N,unconnected-(J9-Pin_9-Pad9)*%
X131726400Y-103815200D03*
%TO.P,J9,10,Pin_10*%
%TO.N,unconnected-(J9-Pin_10-Pad10)*%
X131726400Y-101275200D03*
%TO.P,J9,11,Pin_11*%
%TO.N,unconnected-(J9-Pin_11-Pad11)*%
X131726400Y-98735200D03*
%TO.P,J9,12,Pin_12*%
%TO.N,unconnected-(J9-Pin_12-Pad12)*%
X131726400Y-96195200D03*
%TO.P,J9,13,Pin_13*%
%TO.N,unconnected-(J9-Pin_13-Pad13)*%
X131726400Y-93655200D03*
%TO.P,J9,14,Pin_14*%
%TO.N,unconnected-(J9-Pin_14-Pad14)*%
X131726400Y-91115200D03*
%TO.P,J9,15,Pin_15*%
%TO.N,unconnected-(J9-Pin_15-Pad15)*%
X131726400Y-88575200D03*
%TO.P,J9,16,Pin_16*%
%TO.N,unconnected-(J9-Pin_16-Pad16)*%
X131726400Y-86035200D03*
%TO.P,J9,17,Pin_17*%
%TO.N,unconnected-(J9-Pin_17-Pad17)*%
X131726400Y-83495200D03*
%TO.P,J9,18,Pin_18*%
%TO.N,unconnected-(J9-Pin_18-Pad18)*%
X131726400Y-80955200D03*
%TO.P,J9,19,Pin_19*%
%TO.N,unconnected-(J9-Pin_19-Pad19)*%
X131726400Y-78415200D03*
%TO.P,J9,20,Pin_20*%
%TO.N,unconnected-(J9-Pin_20-Pad20)*%
X131726400Y-75875200D03*
%TO.P,J9,21,Pin_21*%
%TO.N,GND*%
X131726400Y-73335200D03*
%TO.P,J9,22,Pin_22*%
X131726400Y-70795200D03*
%TD*%
D21*
%TO.P,C5,1*%
%TO.N,+5V*%
X165114088Y-64871600D03*
D17*
%TO.P,C5,2*%
%TO.N,GND*%
X167614088Y-64871600D03*
%TD*%
D19*
%TO.P,J1,1,Pin_1*%
%TO.N,/GPIO4*%
X171937400Y-141410400D03*
D20*
%TO.P,J1,2,Pin_2*%
%TO.N,/GPIO5*%
X169437400Y-141410400D03*
%TO.P,J1,3,Pin_3*%
%TO.N,/GPIO6*%
X166937400Y-141410400D03*
%TO.P,J1,4,Pin_4*%
%TO.N,/GPIO7*%
X164437400Y-141410400D03*
%TO.P,J1,5,Pin_5*%
%TO.N,/GPIO15*%
X161937400Y-141410400D03*
%TO.P,J1,6,Pin_6*%
%TO.N,/GPIO16*%
X159437400Y-141410400D03*
%TO.P,J1,7,Pin_7*%
%TO.N,/GPIO17*%
X156937400Y-141410400D03*
%TO.P,J1,8,Pin_8*%
%TO.N,/GPIO18*%
X154437400Y-141410400D03*
%TO.P,J1,9,Pin_9*%
%TO.N,unconnected-(J1-Pin_9-Pad9)*%
X151937400Y-141410400D03*
%TO.P,J1,10,Pin_10*%
%TO.N,+5V*%
X149437400Y-141410400D03*
%TO.P,J1,11,Pin_11*%
%TO.N,GND*%
X146937400Y-141410400D03*
%TD*%
D22*
%TO.P,C1,1*%
%TO.N,VCC*%
X171014400Y-125806200D03*
D23*
%TO.P,C1,2*%
%TO.N,GND*%
X166014400Y-125806200D03*
%TD*%
D24*
%TO.P,U1,1,Vin*%
%TO.N,VCC*%
X165100000Y-111023400D03*
D25*
%TO.P,U1,2,GND*%
%TO.N,GND*%
X182880000Y-111023400D03*
%TO.P,U1,3,GND*%
X182880000Y-70383400D03*
%TO.P,U1,4,Vout*%
%TO.N,+5V*%
X165100000Y-70383400D03*
%TD*%
%TA.AperFunction,Conductor*%
%TO.N,GND*%
G36*
X200344091Y-60161807D02*
G01*
X200380055Y-60211307D01*
X200384900Y-60241900D01*
X200384900Y-146666500D01*
X200365993Y-146724691D01*
X200316493Y-146760655D01*
X200285900Y-146765500D01*
X109289300Y-146765500D01*
X109231109Y-146746593D01*
X109195145Y-146697093D01*
X109190300Y-146666500D01*
X109190300Y-140857309D01*
X126435300Y-140857309D01*
X126435300Y-141319890D01*
X126468552Y-141529838D01*
X126534243Y-141732012D01*
X126630748Y-141921415D01*
X126630750Y-141921419D01*
X126755691Y-142093386D01*
X126755693Y-142093388D01*
X126755696Y-142093392D01*
X126906008Y-142243704D01*
X126906011Y-142243706D01*
X126906013Y-142243708D01*
X127077980Y-142368649D01*
X127077984Y-142368651D01*
X127267388Y-142465157D01*
X127469557Y-142530846D01*
X127469558Y-142530846D01*
X127469561Y-142530847D01*
X127679510Y-142564100D01*
X127679513Y-142564100D01*
X127892090Y-142564100D01*
X128102038Y-142530847D01*
X128102039Y-142530846D01*
X128102043Y-142530846D01*
X128304212Y-142465157D01*
X128493616Y-142368651D01*
X128665592Y-142243704D01*
X128815904Y-142093392D01*
X128940851Y-141921416D01*
X128947589Y-141908190D01*
X128990853Y-141864925D01*
X129051285Y-141855352D01*
X129105802Y-141883129D01*
X129124011Y-141908191D01*
X129130749Y-141921416D01*
X129130750Y-141921419D01*
X129255691Y-142093386D01*
X129255693Y-142093388D01*
X129255696Y-142093392D01*
X129406008Y-142243704D01*
X129406011Y-142243706D01*
X129406013Y-142243708D01*
X129577980Y-142368649D01*
X129577984Y-142368651D01*
X129767388Y-142465157D01*
X129969557Y-142530846D01*
X129969558Y-142530846D01*
X129969561Y-142530847D01*
X130179510Y-142564100D01*
X130179513Y-142564100D01*
X130392090Y-142564100D01*
X130602038Y-142530847D01*
X130602039Y-142530846D01*
X130602043Y-142530846D01*
X130804212Y-142465157D01*
X130993616Y-142368651D01*
X131165592Y-142243704D01*
X131315904Y-142093392D01*
X131440851Y-141921416D01*
X131447589Y-141908190D01*
X131490853Y-141864925D01*
X131551285Y-141855352D01*
X131605802Y-141883129D01*
X131624011Y-141908191D01*
X131630749Y-141921416D01*
X131630750Y-141921419D01*
X131755691Y-142093386D01*
X131755693Y-142093388D01*
X131755696Y-142093392D01*
X131906008Y-142243704D01*
X131906011Y-142243706D01*
X131906013Y-142243708D01*
X132077980Y-142368649D01*
X132077984Y-142368651D01*
X132267388Y-142465157D01*
X132469557Y-142530846D01*
X132469558Y-142530846D01*
X132469561Y-142530847D01*
X132679510Y-142564100D01*
X132679513Y-142564100D01*
X132892090Y-142564100D01*
X133102038Y-142530847D01*
X133102039Y-142530846D01*
X133102043Y-142530846D01*
X133304212Y-142465157D01*
X133493616Y-142368651D01*
X133665592Y-142243704D01*
X133815904Y-142093392D01*
X133940851Y-141921416D01*
X133947589Y-141908190D01*
X133990853Y-141864925D01*
X134051285Y-141855352D01*
X134105802Y-141883129D01*
X134124011Y-141908191D01*
X134130749Y-141921416D01*
X134130750Y-141921419D01*
X134255691Y-142093386D01*
X134255693Y-142093388D01*
X134255696Y-142093392D01*
X134406008Y-142243704D01*
X134406011Y-142243706D01*
X134406013Y-142243708D01*
X134577980Y-142368649D01*
X134577984Y-142368651D01*
X134767388Y-142465157D01*
X134969557Y-142530846D01*
X134969558Y-142530846D01*
X134969561Y-142530847D01*
X135179510Y-142564100D01*
X135179513Y-142564100D01*
X135392090Y-142564100D01*
X135602038Y-142530847D01*
X135602039Y-142530846D01*
X135602043Y-142530846D01*
X135804212Y-142465157D01*
X135993616Y-142368651D01*
X136165592Y-142243704D01*
X136315904Y-142093392D01*
X136440851Y-141921416D01*
X136537357Y-141732012D01*
X136598032Y-141545272D01*
X136633995Y-141495775D01*
X136692186Y-141476867D01*
X136750376Y-141495774D01*
X136783650Y-141537981D01*
X136855301Y-141710960D01*
X136855308Y-141710974D01*
X136970205Y-141882929D01*
X137116470Y-142029194D01*
X137288425Y-142144091D01*
X137288439Y-142144098D01*
X137479527Y-142223250D01*
X137682381Y-142263599D01*
X137682386Y-142263600D01*
X137685799Y-142263600D01*
X137685800Y-142263599D01*
X137685800Y-141553561D01*
X137723265Y-141563600D01*
X137848335Y-141563600D01*
X137885800Y-141553561D01*
X137885800Y-142263599D01*
X137885801Y-142263600D01*
X137889214Y-142263600D01*
X137889218Y-142263599D01*
X138092072Y-142223250D01*
X138283160Y-142144098D01*
X138283174Y-142144091D01*
X138455129Y-142029194D01*
X138601394Y-141882929D01*
X138716291Y-141710974D01*
X138716300Y-141710957D01*
X138744836Y-141642064D01*
X138784572Y-141595538D01*
X138844066Y-141581254D01*
X138900595Y-141604668D01*
X138932564Y-141656837D01*
X138935300Y-141679948D01*
X138935300Y-141863616D01*
X138945799Y-141966388D01*
X138945802Y-141966400D01*
X139000987Y-142132936D01*
X139093085Y-142282252D01*
X139093086Y-142282253D01*
X139093088Y-142282256D01*
X139217144Y-142406312D01*
X139217146Y-142406313D01*
X139217147Y-142406314D01*
X139231541Y-142415192D01*
X139366466Y-142498414D01*
X139533003Y-142553599D01*
X139635791Y-142564100D01*
X140935808Y-142564099D01*
X140935816Y-142564099D01*
X141038588Y-142553600D01*
X141038588Y-142553599D01*
X141038597Y-142553599D01*
X141205134Y-142498414D01*
X141354456Y-142406312D01*
X141478512Y-142282256D01*
X141570614Y-142132934D01*
X141625799Y-141966397D01*
X141630394Y-141921416D01*
X141636300Y-141863616D01*
X141636300Y-141181981D01*
X145887400Y-141181981D01*
X145887400Y-141310399D01*
X145887401Y-141310400D01*
X146472439Y-141310400D01*
X146462400Y-141347865D01*
X146462400Y-141472935D01*
X146472439Y-141510400D01*
X145887401Y-141510400D01*
X145887400Y-141510401D01*
X145887400Y-141638818D01*
X145927749Y-141841672D01*
X146006901Y-142032760D01*
X146006908Y-142032774D01*
X146121805Y-142204729D01*
X146268070Y-142350994D01*
X146440025Y-142465891D01*
X146440039Y-142465898D01*
X146631127Y-142545050D01*
X146833981Y-142585399D01*
X146833986Y-142585400D01*
X146837399Y-142585400D01*
X146837400Y-142585399D01*
X146837400Y-141875361D01*
X146874865Y-141885400D01*
X146999935Y-141885400D01*
X147037400Y-141875361D01*
X147037400Y-142585399D01*
X147037401Y-142585400D01*
X147040814Y-142585400D01*
X147040818Y-142585399D01*
X147243672Y-142545050D01*
X147434760Y-142465898D01*
X147434774Y-142465891D01*
X147606729Y-142350994D01*
X147752994Y-142204729D01*
X147867891Y-142032774D01*
X147867898Y-142032760D01*
X147939549Y-141859781D01*
X147979286Y-141813256D01*
X148038780Y-141798972D01*
X148095308Y-141822387D01*
X148125167Y-141867073D01*
X148142825Y-141921416D01*
X148185843Y-142053812D01*
X148282348Y-142243215D01*
X148282350Y-142243219D01*
X148407291Y-142415186D01*
X148407293Y-142415188D01*
X148407296Y-142415192D01*
X148557608Y-142565504D01*
X148557611Y-142565506D01*
X148557613Y-142565508D01*
X148729580Y-142690449D01*
X148729584Y-142690451D01*
X148918988Y-142786957D01*
X149121157Y-142852646D01*
X149121158Y-142852646D01*
X149121161Y-142852647D01*
X149331110Y-142885900D01*
X149331113Y-142885900D01*
X149543690Y-142885900D01*
X149753638Y-142852647D01*
X149753639Y-142852646D01*
X149753643Y-142852646D01*
X149955812Y-142786957D01*
X150145216Y-142690451D01*
X150317192Y-142565504D01*
X150467504Y-142415192D01*
X150592094Y-142243708D01*
X150592449Y-142243219D01*
X150592449Y-142243218D01*
X150592451Y-142243216D01*
X150599189Y-142229990D01*
X150642453Y-142186725D01*
X150702885Y-142177152D01*
X150757402Y-142204929D01*
X150775611Y-142229991D01*
X150782349Y-142243216D01*
X150782350Y-142243219D01*
X150907291Y-142415186D01*
X150907293Y-142415188D01*
X150907296Y-142415192D01*
X151057608Y-142565504D01*
X151057611Y-142565506D01*
X151057613Y-142565508D01*
X151229580Y-142690449D01*
X151229584Y-142690451D01*
X151418988Y-142786957D01*
X151621157Y-142852646D01*
X151621158Y-142852646D01*
X151621161Y-142852647D01*
X151831110Y-142885900D01*
X151831113Y-142885900D01*
X152043690Y-142885900D01*
X152253638Y-142852647D01*
X152253639Y-142852646D01*
X152253643Y-142852646D01*
X152455812Y-142786957D01*
X152645216Y-142690451D01*
X152817192Y-142565504D01*
X152967504Y-142415192D01*
X153092094Y-142243708D01*
X153092449Y-142243219D01*
X153092449Y-142243218D01*
X153092451Y-142243216D01*
X153099189Y-142229990D01*
X153142453Y-142186725D01*
X153202885Y-142177152D01*
X153257402Y-142204929D01*
X153275611Y-142229991D01*
X153282349Y-142243216D01*
X153282350Y-142243219D01*
X153407291Y-142415186D01*
X153407293Y-142415188D01*
X153407296Y-142415192D01*
X153557608Y-142565504D01*
X153557611Y-142565506D01*
X153557613Y-142565508D01*
X153729580Y-142690449D01*
X153729584Y-142690451D01*
X153918988Y-142786957D01*
X154121157Y-142852646D01*
X154121158Y-142852646D01*
X154121161Y-142852647D01*
X154331110Y-142885900D01*
X154331113Y-142885900D01*
X154543690Y-142885900D01*
X154753638Y-142852647D01*
X154753639Y-142852646D01*
X154753643Y-142852646D01*
X154955812Y-142786957D01*
X155145216Y-142690451D01*
X155317192Y-142565504D01*
X155467504Y-142415192D01*
X155592094Y-142243708D01*
X155592449Y-142243219D01*
X155592449Y-142243218D01*
X155592451Y-142243216D01*
X155599189Y-142229990D01*
X155642453Y-142186725D01*
X155702885Y-142177152D01*
X155757402Y-142204929D01*
X155775611Y-142229991D01*
X155782349Y-142243216D01*
X155782350Y-142243219D01*
X155907291Y-142415186D01*
X155907293Y-142415188D01*
X155907296Y-142415192D01*
X156057608Y-142565504D01*
X156057611Y-142565506D01*
X156057613Y-142565508D01*
X156229580Y-142690449D01*
X156229584Y-142690451D01*
X156418988Y-142786957D01*
X156621157Y-142852646D01*
X156621158Y-142852646D01*
X156621161Y-142852647D01*
X156831110Y-142885900D01*
X156831113Y-142885900D01*
X157043690Y-142885900D01*
X157253638Y-142852647D01*
X157253639Y-142852646D01*
X157253643Y-142852646D01*
X157455812Y-142786957D01*
X157645216Y-142690451D01*
X157817192Y-142565504D01*
X157967504Y-142415192D01*
X158092094Y-142243708D01*
X158092449Y-142243219D01*
X158092449Y-142243218D01*
X158092451Y-142243216D01*
X158099189Y-142229990D01*
X158142453Y-142186725D01*
X158202885Y-142177152D01*
X158257402Y-142204929D01*
X158275611Y-142229991D01*
X158282349Y-142243216D01*
X158282350Y-142243219D01*
X158407291Y-142415186D01*
X158407293Y-142415188D01*
X158407296Y-142415192D01*
X158557608Y-142565504D01*
X158557611Y-142565506D01*
X158557613Y-142565508D01*
X158729580Y-142690449D01*
X158729584Y-142690451D01*
X158918988Y-142786957D01*
X159121157Y-142852646D01*
X159121158Y-142852646D01*
X159121161Y-142852647D01*
X159331110Y-142885900D01*
X159331113Y-142885900D01*
X159543690Y-142885900D01*
X159753638Y-142852647D01*
X159753639Y-142852646D01*
X159753643Y-142852646D01*
X159955812Y-142786957D01*
X160145216Y-142690451D01*
X160317192Y-142565504D01*
X160467504Y-142415192D01*
X160592094Y-142243708D01*
X160592449Y-142243219D01*
X160592449Y-142243218D01*
X160592451Y-142243216D01*
X160599189Y-142229990D01*
X160642453Y-142186725D01*
X160702885Y-142177152D01*
X160757402Y-142204929D01*
X160775611Y-142229991D01*
X160782349Y-142243216D01*
X160782350Y-142243219D01*
X160907291Y-142415186D01*
X160907293Y-142415188D01*
X160907296Y-142415192D01*
X161057608Y-142565504D01*
X161057611Y-142565506D01*
X161057613Y-142565508D01*
X161229580Y-142690449D01*
X161229584Y-142690451D01*
X161418988Y-142786957D01*
X161621157Y-142852646D01*
X161621158Y-142852646D01*
X161621161Y-142852647D01*
X161831110Y-142885900D01*
X161831113Y-142885900D01*
X162043690Y-142885900D01*
X162253638Y-142852647D01*
X162253639Y-142852646D01*
X162253643Y-142852646D01*
X162455812Y-142786957D01*
X162645216Y-142690451D01*
X162817192Y-142565504D01*
X162967504Y-142415192D01*
X163092094Y-142243708D01*
X163092449Y-142243219D01*
X163092449Y-142243218D01*
X163092451Y-142243216D01*
X163099189Y-142229990D01*
X163142453Y-142186725D01*
X163202885Y-142177152D01*
X163257402Y-142204929D01*
X163275611Y-142229991D01*
X163282349Y-142243216D01*
X163282350Y-142243219D01*
X163407291Y-142415186D01*
X163407293Y-142415188D01*
X163407296Y-142415192D01*
X163557608Y-142565504D01*
X163557611Y-142565506D01*
X163557613Y-142565508D01*
X163729580Y-142690449D01*
X163729584Y-142690451D01*
X163918988Y-142786957D01*
X164121157Y-142852646D01*
X164121158Y-142852646D01*
X164121161Y-142852647D01*
X164331110Y-142885900D01*
X164331113Y-142885900D01*
X164543690Y-142885900D01*
X164753638Y-142852647D01*
X164753639Y-142852646D01*
X164753643Y-142852646D01*
X164955812Y-142786957D01*
X165145216Y-142690451D01*
X165317192Y-142565504D01*
X165467504Y-142415192D01*
X165592094Y-142243708D01*
X165592449Y-142243219D01*
X165592449Y-142243218D01*
X165592451Y-142243216D01*
X165599189Y-142229990D01*
X165642453Y-142186725D01*
X165702885Y-142177152D01*
X165757402Y-142204929D01*
X165775611Y-142229991D01*
X165782349Y-142243216D01*
X165782350Y-142243219D01*
X165907291Y-142415186D01*
X165907293Y-142415188D01*
X165907296Y-142415192D01*
X166057608Y-142565504D01*
X166057611Y-142565506D01*
X166057613Y-142565508D01*
X166229580Y-142690449D01*
X166229584Y-142690451D01*
X166418988Y-142786957D01*
X166621157Y-142852646D01*
X166621158Y-142852646D01*
X166621161Y-142852647D01*
X166831110Y-142885900D01*
X166831113Y-142885900D01*
X167043690Y-142885900D01*
X167253638Y-142852647D01*
X167253639Y-142852646D01*
X167253643Y-142852646D01*
X167455812Y-142786957D01*
X167645216Y-142690451D01*
X167817192Y-142565504D01*
X167967504Y-142415192D01*
X168092094Y-142243708D01*
X168092449Y-142243219D01*
X168092449Y-142243218D01*
X168092451Y-142243216D01*
X168099189Y-142229990D01*
X168142453Y-142186725D01*
X168202885Y-142177152D01*
X168257402Y-142204929D01*
X168275611Y-142229991D01*
X168282349Y-142243216D01*
X168282350Y-142243219D01*
X168407291Y-142415186D01*
X168407293Y-142415188D01*
X168407296Y-142415192D01*
X168557608Y-142565504D01*
X168557611Y-142565506D01*
X168557613Y-142565508D01*
X168729580Y-142690449D01*
X168729584Y-142690451D01*
X168918988Y-142786957D01*
X169121157Y-142852646D01*
X169121158Y-142852646D01*
X169121161Y-142852647D01*
X169331110Y-142885900D01*
X169331113Y-142885900D01*
X169543690Y-142885900D01*
X169753638Y-142852647D01*
X169753639Y-142852646D01*
X169753643Y-142852646D01*
X169955812Y-142786957D01*
X170145216Y-142690451D01*
X170317192Y-142565504D01*
X170467504Y-142415192D01*
X170472222Y-142408696D01*
X170521717Y-142372731D01*
X170582903Y-142372726D01*
X170632406Y-142408686D01*
X170646292Y-142435741D01*
X170652586Y-142454735D01*
X170744685Y-142604052D01*
X170744686Y-142604053D01*
X170744688Y-142604056D01*
X170868744Y-142728112D01*
X171018066Y-142820214D01*
X171184603Y-142875399D01*
X171287391Y-142885900D01*
X172587408Y-142885899D01*
X172587416Y-142885899D01*
X172690188Y-142875400D01*
X172690188Y-142875399D01*
X172690197Y-142875399D01*
X172856734Y-142820214D01*
X173006056Y-142728112D01*
X173130112Y-142604056D01*
X173222214Y-142454734D01*
X173277399Y-142288197D01*
X173287900Y-142185409D01*
X173287899Y-140635392D01*
X173287899Y-140635383D01*
X173277400Y-140532611D01*
X173277399Y-140532609D01*
X173277399Y-140532603D01*
X173222214Y-140366066D01*
X173154192Y-140255784D01*
X173130114Y-140216747D01*
X173130113Y-140216746D01*
X173130112Y-140216744D01*
X173006056Y-140092688D01*
X173006053Y-140092686D01*
X173006052Y-140092685D01*
X172856736Y-140000587D01*
X172856735Y-140000586D01*
X172856734Y-140000586D01*
X172690197Y-139945401D01*
X172690194Y-139945400D01*
X172587416Y-139934900D01*
X171287383Y-139934900D01*
X171184611Y-139945399D01*
X171184599Y-139945402D01*
X171018063Y-140000587D01*
X170868747Y-140092685D01*
X170744685Y-140216747D01*
X170652586Y-140366063D01*
X170646292Y-140385059D01*
X170610039Y-140434348D01*
X170551739Y-140452914D01*
X170493660Y-140433667D01*
X170472225Y-140412106D01*
X170467504Y-140405608D01*
X170317192Y-140255296D01*
X170317188Y-140255293D01*
X170317186Y-140255291D01*
X170145219Y-140130350D01*
X170145215Y-140130348D01*
X169955812Y-140033843D01*
X169753638Y-139968152D01*
X169543690Y-139934900D01*
X169543687Y-139934900D01*
X169331113Y-139934900D01*
X169331110Y-139934900D01*
X169121161Y-139968152D01*
X168918987Y-140033843D01*
X168729584Y-140130348D01*
X168729580Y-140130350D01*
X168557613Y-140255291D01*
X168407291Y-140405613D01*
X168282350Y-140577580D01*
X168282348Y-140577584D01*
X168275610Y-140590810D01*
X168232345Y-140634075D01*
X168171913Y-140643646D01*
X168117396Y-140615869D01*
X168099190Y-140590810D01*
X168092451Y-140577584D01*
X168092449Y-140577580D01*
X167967508Y-140405613D01*
X167967505Y-140405610D01*
X167967504Y-140405608D01*
X167817192Y-140255296D01*
X167817188Y-140255293D01*
X167817186Y-140255291D01*
X167645219Y-140130350D01*
X167645215Y-140130348D01*
X167455812Y-140033843D01*
X167253638Y-139968152D01*
X167043690Y-139934900D01*
X167043687Y-139934900D01*
X166831113Y-139934900D01*
X166831110Y-139934900D01*
X166621161Y-139968152D01*
X166418987Y-140033843D01*
X166229584Y-140130348D01*
X166229580Y-140130350D01*
X166057613Y-140255291D01*
X165907291Y-140405613D01*
X165782350Y-140577580D01*
X165782348Y-140577584D01*
X165775610Y-140590810D01*
X165732345Y-140634075D01*
X165671913Y-140643646D01*
X165617396Y-140615869D01*
X165599190Y-140590810D01*
X165592451Y-140577584D01*
X165592449Y-140577580D01*
X165467508Y-140405613D01*
X165467505Y-140405610D01*
X165467504Y-140405608D01*
X165317192Y-140255296D01*
X165317188Y-140255293D01*
X165317186Y-140255291D01*
X165145219Y-140130350D01*
X165145215Y-140130348D01*
X164955812Y-140033843D01*
X164753638Y-139968152D01*
X164543690Y-139934900D01*
X164543687Y-139934900D01*
X164331113Y-139934900D01*
X164331110Y-139934900D01*
X164121161Y-139968152D01*
X163918987Y-140033843D01*
X163729584Y-140130348D01*
X163729580Y-140130350D01*
X163557613Y-140255291D01*
X163407291Y-140405613D01*
X163282350Y-140577580D01*
X163282348Y-140577584D01*
X163275610Y-140590810D01*
X163232345Y-140634075D01*
X163171913Y-140643646D01*
X163117396Y-140615869D01*
X163099190Y-140590810D01*
X163092451Y-140577584D01*
X163092449Y-140577580D01*
X162967508Y-140405613D01*
X162967505Y-140405610D01*
X162967504Y-140405608D01*
X162817192Y-140255296D01*
X162817188Y-140255293D01*
X162817186Y-140255291D01*
X162645219Y-140130350D01*
X162645215Y-140130348D01*
X162455812Y-140033843D01*
X162253638Y-139968152D01*
X162043690Y-139934900D01*
X162043687Y-139934900D01*
X161831113Y-139934900D01*
X161831110Y-139934900D01*
X161621161Y-139968152D01*
X161418987Y-140033843D01*
X161229584Y-140130348D01*
X161229580Y-140130350D01*
X161057613Y-140255291D01*
X160907291Y-140405613D01*
X160782350Y-140577580D01*
X160782348Y-140577584D01*
X160775610Y-140590810D01*
X160732345Y-140634075D01*
X160671913Y-140643646D01*
X160617396Y-140615869D01*
X160599190Y-140590810D01*
X160592451Y-140577584D01*
X160592449Y-140577580D01*
X160467508Y-140405613D01*
X160467505Y-140405610D01*
X160467504Y-140405608D01*
X160317192Y-140255296D01*
X160317188Y-140255293D01*
X160317186Y-140255291D01*
X160145219Y-140130350D01*
X160145215Y-140130348D01*
X159955812Y-140033843D01*
X159753638Y-139968152D01*
X159543690Y-139934900D01*
X159543687Y-139934900D01*
X159331113Y-139934900D01*
X159331110Y-139934900D01*
X159121161Y-139968152D01*
X158918987Y-140033843D01*
X158729584Y-140130348D01*
X158729580Y-140130350D01*
X158557613Y-140255291D01*
X158407291Y-140405613D01*
X158282350Y-140577580D01*
X158282348Y-140577584D01*
X158275610Y-140590810D01*
X158232345Y-140634075D01*
X158171913Y-140643646D01*
X158117396Y-140615869D01*
X158099190Y-140590810D01*
X158092451Y-140577584D01*
X158092449Y-140577580D01*
X157967508Y-140405613D01*
X157967505Y-140405610D01*
X157967504Y-140405608D01*
X157817192Y-140255296D01*
X157817188Y-140255293D01*
X157817186Y-140255291D01*
X157645219Y-140130350D01*
X157645215Y-140130348D01*
X157455812Y-140033843D01*
X157253638Y-139968152D01*
X157043690Y-139934900D01*
X157043687Y-139934900D01*
X156831113Y-139934900D01*
X156831110Y-139934900D01*
X156621161Y-139968152D01*
X156418987Y-140033843D01*
X156229584Y-140130348D01*
X156229580Y-140130350D01*
X156057613Y-140255291D01*
X155907291Y-140405613D01*
X155782350Y-140577580D01*
X155782348Y-140577584D01*
X155775610Y-140590810D01*
X155732345Y-140634075D01*
X155671913Y-140643646D01*
X155617396Y-140615869D01*
X155599190Y-140590810D01*
X155592451Y-140577584D01*
X155592449Y-140577580D01*
X155467508Y-140405613D01*
X155467505Y-140405610D01*
X155467504Y-140405608D01*
X155317192Y-140255296D01*
X155317188Y-140255293D01*
X155317186Y-140255291D01*
X155145219Y-140130350D01*
X155145215Y-140130348D01*
X154955812Y-140033843D01*
X154753638Y-139968152D01*
X154543690Y-139934900D01*
X154543687Y-139934900D01*
X154331113Y-139934900D01*
X154331110Y-139934900D01*
X154121161Y-139968152D01*
X153918987Y-140033843D01*
X153729584Y-140130348D01*
X153729580Y-140130350D01*
X153557613Y-140255291D01*
X153407291Y-140405613D01*
X153282350Y-140577580D01*
X153282348Y-140577584D01*
X153275610Y-140590810D01*
X153232345Y-140634075D01*
X153171913Y-140643646D01*
X153117396Y-140615869D01*
X153099190Y-140590810D01*
X153092451Y-140577584D01*
X153092449Y-140577580D01*
X152967508Y-140405613D01*
X152967505Y-140405610D01*
X152967504Y-140405608D01*
X152817192Y-140255296D01*
X152817188Y-140255293D01*
X152817186Y-140255291D01*
X152645219Y-140130350D01*
X152645215Y-140130348D01*
X152455812Y-140033843D01*
X152253638Y-139968152D01*
X152043690Y-139934900D01*
X152043687Y-139934900D01*
X151831113Y-139934900D01*
X151831110Y-139934900D01*
X151621161Y-139968152D01*
X151418987Y-140033843D01*
X151229584Y-140130348D01*
X151229580Y-140130350D01*
X151057613Y-140255291D01*
X150907291Y-140405613D01*
X150782350Y-140577580D01*
X150782348Y-140577584D01*
X150775610Y-140590810D01*
X150732345Y-140634075D01*
X150671913Y-140643646D01*
X150617396Y-140615869D01*
X150599190Y-140590810D01*
X150592451Y-140577584D01*
X150592449Y-140577580D01*
X150467508Y-140405613D01*
X150467505Y-140405610D01*
X150467504Y-140405608D01*
X150317192Y-140255296D01*
X150317188Y-140255293D01*
X150317186Y-140255291D01*
X150145219Y-140130350D01*
X150145215Y-140130348D01*
X149955812Y-140033843D01*
X149753638Y-139968152D01*
X149543690Y-139934900D01*
X149543687Y-139934900D01*
X149331113Y-139934900D01*
X149331110Y-139934900D01*
X149121161Y-139968152D01*
X148918987Y-140033843D01*
X148729584Y-140130348D01*
X148729580Y-140130350D01*
X148557613Y-140255291D01*
X148407291Y-140405613D01*
X148282350Y-140577580D01*
X148282348Y-140577584D01*
X148185843Y-140766987D01*
X148125168Y-140953725D01*
X148089204Y-141003225D01*
X148031013Y-141022132D01*
X147972822Y-141003225D01*
X147939549Y-140961018D01*
X147867898Y-140788039D01*
X147867891Y-140788025D01*
X147752994Y-140616070D01*
X147606729Y-140469805D01*
X147434774Y-140354908D01*
X147434760Y-140354901D01*
X147243672Y-140275749D01*
X147040818Y-140235400D01*
X147037401Y-140235400D01*
X147037400Y-140235401D01*
X147037400Y-140945438D01*
X146999935Y-140935400D01*
X146874865Y-140935400D01*
X146837400Y-140945438D01*
X146837400Y-140235401D01*
X146837399Y-140235400D01*
X146833981Y-140235400D01*
X146631127Y-140275749D01*
X146440039Y-140354901D01*
X146440025Y-140354908D01*
X146268070Y-140469805D01*
X146121805Y-140616070D01*
X146006908Y-140788025D01*
X146006901Y-140788039D01*
X145927749Y-140979127D01*
X145887400Y-141181981D01*
X141636300Y-141181981D01*
X141636300Y-141177121D01*
X141636299Y-140313583D01*
X141625800Y-140210811D01*
X141625799Y-140210809D01*
X141625799Y-140210803D01*
X141570614Y-140044266D01*
X141490958Y-139915122D01*
X141478514Y-139894947D01*
X141478513Y-139894946D01*
X141478512Y-139894944D01*
X141354456Y-139770888D01*
X141354453Y-139770886D01*
X141354452Y-139770885D01*
X141205136Y-139678787D01*
X141205135Y-139678786D01*
X141205134Y-139678786D01*
X141038597Y-139623601D01*
X141038594Y-139623600D01*
X140935816Y-139613100D01*
X139635783Y-139613100D01*
X139533011Y-139623599D01*
X139532999Y-139623602D01*
X139366463Y-139678787D01*
X139217147Y-139770885D01*
X139093085Y-139894947D01*
X139000987Y-140044263D01*
X138945800Y-140210805D01*
X138935300Y-140313583D01*
X138935300Y-140497248D01*
X138916393Y-140555439D01*
X138866893Y-140591403D01*
X138805707Y-140591403D01*
X138756207Y-140555439D01*
X138744836Y-140535134D01*
X138716298Y-140466239D01*
X138716291Y-140466225D01*
X138601394Y-140294270D01*
X138455129Y-140148005D01*
X138283174Y-140033108D01*
X138283160Y-140033101D01*
X138092072Y-139953949D01*
X137889218Y-139913600D01*
X137885801Y-139913600D01*
X137885800Y-139913601D01*
X137885800Y-140623638D01*
X137848335Y-140613600D01*
X137723265Y-140613600D01*
X137685800Y-140623638D01*
X137685800Y-139913601D01*
X137685799Y-139913600D01*
X137682381Y-139913600D01*
X137479527Y-139953949D01*
X137288439Y-140033101D01*
X137288425Y-140033108D01*
X137116470Y-140148005D01*
X136970205Y-140294270D01*
X136855308Y-140466225D01*
X136855301Y-140466239D01*
X136783650Y-140639218D01*
X136743913Y-140685744D01*
X136684418Y-140700027D01*
X136627890Y-140676612D01*
X136598032Y-140631927D01*
X136537357Y-140445188D01*
X136440851Y-140255784D01*
X136440849Y-140255780D01*
X136315908Y-140083813D01*
X136315906Y-140083811D01*
X136315904Y-140083808D01*
X136165592Y-139933496D01*
X136165588Y-139933493D01*
X136165586Y-139933491D01*
X135993619Y-139808550D01*
X135993615Y-139808548D01*
X135804212Y-139712043D01*
X135602038Y-139646352D01*
X135392090Y-139613100D01*
X135392087Y-139613100D01*
X135179513Y-139613100D01*
X135179510Y-139613100D01*
X134969561Y-139646352D01*
X134767387Y-139712043D01*
X134577984Y-139808548D01*
X134577980Y-139808550D01*
X134406013Y-139933491D01*
X134255691Y-140083813D01*
X134130750Y-140255780D01*
X134130748Y-140255784D01*
X134124010Y-140269010D01*
X134080745Y-140312275D01*
X134020313Y-140321846D01*
X133965796Y-140294069D01*
X133947590Y-140269010D01*
X133940851Y-140255784D01*
X133940849Y-140255780D01*
X133815908Y-140083813D01*
X133815906Y-140083811D01*
X133815904Y-140083808D01*
X133665592Y-139933496D01*
X133665588Y-139933493D01*
X133665586Y-139933491D01*
X133493619Y-139808550D01*
X133493615Y-139808548D01*
X133304212Y-139712043D01*
X133102038Y-139646352D01*
X132892090Y-139613100D01*
X132892087Y-139613100D01*
X132679513Y-139613100D01*
X132679510Y-139613100D01*
X132469561Y-139646352D01*
X132267387Y-139712043D01*
X132077984Y-139808548D01*
X132077980Y-139808550D01*
X131906013Y-139933491D01*
X131755691Y-140083813D01*
X131630750Y-140255780D01*
X131630748Y-140255784D01*
X131624010Y-140269010D01*
X131580745Y-140312275D01*
X131520313Y-140321846D01*
X131465796Y-140294069D01*
X131447590Y-140269010D01*
X131440851Y-140255784D01*
X131440849Y-140255780D01*
X131315908Y-140083813D01*
X131315906Y-140083811D01*
X131315904Y-140083808D01*
X131165592Y-139933496D01*
X131165588Y-139933493D01*
X131165586Y-139933491D01*
X130993619Y-139808550D01*
X130993615Y-139808548D01*
X130804212Y-139712043D01*
X130602038Y-139646352D01*
X130392090Y-139613100D01*
X130392087Y-139613100D01*
X130179513Y-139613100D01*
X130179510Y-139613100D01*
X129969561Y-139646352D01*
X129767387Y-139712043D01*
X129577984Y-139808548D01*
X129577980Y-139808550D01*
X129406013Y-139933491D01*
X129255691Y-140083813D01*
X129130750Y-140255780D01*
X129130748Y-140255784D01*
X129124010Y-140269010D01*
X129080745Y-140312275D01*
X129020313Y-140321846D01*
X128965796Y-140294069D01*
X128947590Y-140269010D01*
X128940851Y-140255784D01*
X128940849Y-140255780D01*
X128815908Y-140083813D01*
X128815906Y-140083811D01*
X128815904Y-140083808D01*
X128665592Y-139933496D01*
X128665588Y-139933493D01*
X128665586Y-139933491D01*
X128493619Y-139808550D01*
X128493615Y-139808548D01*
X128304212Y-139712043D01*
X128102038Y-139646352D01*
X127892090Y-139613100D01*
X127892087Y-139613100D01*
X127679513Y-139613100D01*
X127679510Y-139613100D01*
X127469561Y-139646352D01*
X127267387Y-139712043D01*
X127077984Y-139808548D01*
X127077980Y-139808550D01*
X126906013Y-139933491D01*
X126755691Y-140083813D01*
X126630750Y-140255780D01*
X126630748Y-140255784D01*
X126534243Y-140445187D01*
X126468552Y-140647361D01*
X126435300Y-140857309D01*
X109190300Y-140857309D01*
X109190300Y-137807283D01*
X114165100Y-137807283D01*
X114165100Y-140007316D01*
X114175599Y-140110088D01*
X114175600Y-140110095D01*
X114175601Y-140110097D01*
X114226565Y-140263897D01*
X114230787Y-140276636D01*
X114322885Y-140425952D01*
X114322886Y-140425953D01*
X114322888Y-140425956D01*
X114446944Y-140550012D01*
X114446946Y-140550013D01*
X114446947Y-140550014D01*
X114492584Y-140578163D01*
X114596266Y-140642114D01*
X114762803Y-140697299D01*
X114865591Y-140707800D01*
X117065608Y-140707799D01*
X117065616Y-140707799D01*
X117168388Y-140697300D01*
X117168388Y-140697299D01*
X117168397Y-140697299D01*
X117334934Y-140642114D01*
X117484256Y-140550012D01*
X117608312Y-140425956D01*
X117700414Y-140276634D01*
X117755599Y-140110097D01*
X117766100Y-140007309D01*
X117766099Y-138789287D01*
X119165100Y-138789287D01*
X119165100Y-139025312D01*
X119195906Y-139259306D01*
X119195906Y-139259311D01*
X119256993Y-139487292D01*
X119347313Y-139705344D01*
X119347316Y-139705349D01*
X119456780Y-139894947D01*
X119465329Y-139909753D01*
X119609002Y-140096992D01*
X119609004Y-140096994D01*
X119609008Y-140096999D01*
X119775901Y-140263892D01*
X119775905Y-140263895D01*
X119775907Y-140263897D01*
X119909053Y-140366063D01*
X119963150Y-140407573D01*
X120167551Y-140525584D01*
X120167552Y-140525584D01*
X120167555Y-140525586D01*
X120329583Y-140592700D01*
X120385607Y-140615906D01*
X120613586Y-140676993D01*
X120847589Y-140707800D01*
X120847590Y-140707800D01*
X121083610Y-140707800D01*
X121083611Y-140707800D01*
X121317614Y-140676993D01*
X121545593Y-140615906D01*
X121763649Y-140525584D01*
X121968050Y-140407573D01*
X122155299Y-140263892D01*
X122322192Y-140096999D01*
X122465873Y-139909750D01*
X122583884Y-139705349D01*
X122674206Y-139487293D01*
X122735293Y-139259314D01*
X122766100Y-139025311D01*
X122766100Y-138789289D01*
X122735293Y-138555286D01*
X122674206Y-138327307D01*
X122674205Y-138327304D01*
X122652315Y-138274456D01*
X122637663Y-138239083D01*
X176826900Y-138239083D01*
X176826900Y-140439116D01*
X176837399Y-140541888D01*
X176837400Y-140541895D01*
X176837401Y-140541897D01*
X176889800Y-140700027D01*
X176892587Y-140708436D01*
X176984685Y-140857752D01*
X176984686Y-140857753D01*
X176984688Y-140857756D01*
X177108744Y-140981812D01*
X177108746Y-140981813D01*
X177108747Y-140981814D01*
X177180490Y-141026065D01*
X177258066Y-141073914D01*
X177424603Y-141129099D01*
X177527391Y-141139600D01*
X179727408Y-141139599D01*
X179727416Y-141139599D01*
X179830188Y-141129100D01*
X179830188Y-141129099D01*
X179830197Y-141129099D01*
X179996734Y-141073914D01*
X180146056Y-140981812D01*
X180270112Y-140857756D01*
X180362214Y-140708434D01*
X180417399Y-140541897D01*
X180420549Y-140511060D01*
X180427900Y-140439116D01*
X180427900Y-140429462D01*
X180427900Y-139843988D01*
X180427900Y-139221043D01*
X182127400Y-139221043D01*
X182127400Y-139457156D01*
X182164334Y-139690352D01*
X182164335Y-139690356D01*
X182237292Y-139914893D01*
X182237294Y-139914896D01*
X182344483Y-140125268D01*
X182483263Y-140316282D01*
X182496029Y-140329048D01*
X183102129Y-139722946D01*
X183122512Y-139753451D01*
X183213049Y-139843988D01*
X183243551Y-139864368D01*
X182637451Y-140470470D01*
X182650217Y-140483236D01*
X182841231Y-140622016D01*
X183051603Y-140729205D01*
X183051606Y-140729207D01*
X183276143Y-140802164D01*
X183276147Y-140802165D01*
X183509344Y-140839100D01*
X183745456Y-140839100D01*
X183978652Y-140802165D01*
X183978656Y-140802164D01*
X184203193Y-140729207D01*
X184203196Y-140729205D01*
X184413568Y-140622016D01*
X184604585Y-140483234D01*
X184617348Y-140470470D01*
X184011247Y-139864369D01*
X184041751Y-139843988D01*
X184132288Y-139753451D01*
X184152669Y-139722947D01*
X184758770Y-140329048D01*
X184771534Y-140316285D01*
X184910316Y-140125268D01*
X185017505Y-139914896D01*
X185017507Y-139914893D01*
X185090464Y-139690356D01*
X185090465Y-139690352D01*
X185127400Y-139457156D01*
X185127400Y-139221043D01*
X185090465Y-138987847D01*
X185090464Y-138987843D01*
X185017507Y-138763306D01*
X185017505Y-138763303D01*
X184910316Y-138552931D01*
X184771536Y-138361917D01*
X184758770Y-138349151D01*
X184152668Y-138955251D01*
X184132288Y-138924749D01*
X184041751Y-138834212D01*
X184011246Y-138813829D01*
X184535194Y-138289883D01*
X188968100Y-138289883D01*
X188968100Y-140489916D01*
X188978599Y-140592688D01*
X188978600Y-140592695D01*
X188978601Y-140592697D01*
X189023835Y-140729205D01*
X189033787Y-140759236D01*
X189125885Y-140908552D01*
X189125886Y-140908553D01*
X189125888Y-140908556D01*
X189249944Y-141032612D01*
X189399266Y-141124714D01*
X189565803Y-141179899D01*
X189668591Y-141190400D01*
X191868608Y-141190399D01*
X191868616Y-141190399D01*
X191971388Y-141179900D01*
X191971388Y-141179899D01*
X191971397Y-141179899D01*
X192137934Y-141124714D01*
X192287256Y-141032612D01*
X192411312Y-140908556D01*
X192503414Y-140759234D01*
X192558599Y-140592697D01*
X192564592Y-140534034D01*
X192569100Y-140489916D01*
X192569100Y-140480262D01*
X192569100Y-139894788D01*
X192569100Y-139271843D01*
X194268600Y-139271843D01*
X194268600Y-139507956D01*
X194305534Y-139741152D01*
X194305535Y-139741156D01*
X194378492Y-139965693D01*
X194378494Y-139965696D01*
X194485683Y-140176068D01*
X194624463Y-140367082D01*
X194637229Y-140379848D01*
X195243329Y-139773746D01*
X195263712Y-139804251D01*
X195354249Y-139894788D01*
X195384751Y-139915168D01*
X194778651Y-140521270D01*
X194791417Y-140534036D01*
X194982431Y-140672816D01*
X195192803Y-140780005D01*
X195192806Y-140780007D01*
X195417343Y-140852964D01*
X195417347Y-140852965D01*
X195650544Y-140889900D01*
X195886656Y-140889900D01*
X196119852Y-140852965D01*
X196119856Y-140852964D01*
X196344393Y-140780007D01*
X196344396Y-140780005D01*
X196554768Y-140672816D01*
X196745785Y-140534034D01*
X196758548Y-140521270D01*
X196152447Y-139915169D01*
X196182951Y-139894788D01*
X196273488Y-139804251D01*
X196293869Y-139773747D01*
X196899970Y-140379848D01*
X196912734Y-140367085D01*
X197051516Y-140176068D01*
X197158705Y-139965696D01*
X197158707Y-139965693D01*
X197231664Y-139741156D01*
X197231665Y-139741152D01*
X197268600Y-139507956D01*
X197268600Y-139271843D01*
X197231665Y-139038647D01*
X197231664Y-139038643D01*
X197158707Y-138814106D01*
X197158705Y-138814103D01*
X197051516Y-138603731D01*
X196912736Y-138412717D01*
X196899970Y-138399951D01*
X196293868Y-139006051D01*
X196273488Y-138975549D01*
X196182951Y-138885012D01*
X196152446Y-138864629D01*
X196758548Y-138258529D01*
X196745782Y-138245763D01*
X196554768Y-138106983D01*
X196344396Y-137999794D01*
X196344393Y-137999792D01*
X196119856Y-137926835D01*
X196119852Y-137926834D01*
X195886656Y-137889900D01*
X195650544Y-137889900D01*
X195417347Y-137926834D01*
X195417343Y-137926835D01*
X195192806Y-137999792D01*
X195192803Y-137999794D01*
X194982431Y-138106983D01*
X194791414Y-138245765D01*
X194778650Y-138258528D01*
X195384752Y-138864630D01*
X195354249Y-138885012D01*
X195263712Y-138975549D01*
X195243330Y-139006052D01*
X194637228Y-138399950D01*
X194624465Y-138412714D01*
X194485683Y-138603731D01*
X194378494Y-138814103D01*
X194378492Y-138814106D01*
X194305535Y-139038643D01*
X194305534Y-139038647D01*
X194268600Y-139271843D01*
X192569100Y-139271843D01*
X192569099Y-138289892D01*
X192569099Y-138289891D01*
X192569099Y-138289883D01*
X192558600Y-138187111D01*
X192558599Y-138187109D01*
X192558599Y-138187103D01*
X192503414Y-138020566D01*
X192414267Y-137876035D01*
X192411314Y-137871247D01*
X192411313Y-137871246D01*
X192411312Y-137871244D01*
X192287256Y-137747188D01*
X192287253Y-137747186D01*
X192287252Y-137747185D01*
X192137936Y-137655087D01*
X192137935Y-137655086D01*
X192137934Y-137655086D01*
X191971397Y-137599901D01*
X191971394Y-137599900D01*
X191868616Y-137589400D01*
X189668583Y-137589400D01*
X189565811Y-137599899D01*
X189565799Y-137599902D01*
X189399263Y-137655087D01*
X189249947Y-137747185D01*
X189125885Y-137871247D01*
X189033787Y-138020563D01*
X188978600Y-138187105D01*
X188968100Y-138289883D01*
X184535194Y-138289883D01*
X184617348Y-138207729D01*
X184604582Y-138194963D01*
X184413568Y-138056183D01*
X184203196Y-137948994D01*
X184203193Y-137948992D01*
X183978656Y-137876035D01*
X183978652Y-137876034D01*
X183745456Y-137839100D01*
X183509344Y-137839100D01*
X183276147Y-137876034D01*
X183276143Y-137876035D01*
X183051606Y-137948992D01*
X183051603Y-137948994D01*
X182841231Y-138056183D01*
X182650214Y-138194965D01*
X182637450Y-138207728D01*
X183243552Y-138813830D01*
X183213049Y-138834212D01*
X183122512Y-138924749D01*
X183102130Y-138955252D01*
X182496028Y-138349150D01*
X182483265Y-138361914D01*
X182344483Y-138552931D01*
X182237294Y-138763303D01*
X182237292Y-138763306D01*
X182164335Y-138987843D01*
X182164334Y-138987847D01*
X182127400Y-139221043D01*
X180427900Y-139221043D01*
X180427899Y-138239092D01*
X180427899Y-138239091D01*
X180427899Y-138239083D01*
X180417400Y-138136311D01*
X180417399Y-138136309D01*
X180417399Y-138136303D01*
X180362214Y-137969766D01*
X180270112Y-137820444D01*
X180146056Y-137696388D01*
X180146053Y-137696386D01*
X180146052Y-137696385D01*
X179996736Y-137604287D01*
X179996735Y-137604286D01*
X179996734Y-137604286D01*
X179830197Y-137549101D01*
X179830194Y-137549100D01*
X179727416Y-137538600D01*
X177527383Y-137538600D01*
X177424611Y-137549099D01*
X177424599Y-137549102D01*
X177258063Y-137604287D01*
X177108747Y-137696385D01*
X176984685Y-137820447D01*
X176892587Y-137969763D01*
X176837400Y-138136305D01*
X176826900Y-138239083D01*
X122637663Y-138239083D01*
X122583886Y-138109255D01*
X122583884Y-138109251D01*
X122465873Y-137904850D01*
X122465870Y-137904846D01*
X122322197Y-137717607D01*
X122322195Y-137717605D01*
X122322192Y-137717601D01*
X122155299Y-137550708D01*
X122155294Y-137550704D01*
X122155292Y-137550702D01*
X121968053Y-137407029D01*
X121936209Y-137388644D01*
X121763649Y-137289016D01*
X121763644Y-137289013D01*
X121545592Y-137198693D01*
X121389877Y-137156970D01*
X121317614Y-137137607D01*
X121317611Y-137137606D01*
X121317609Y-137137606D01*
X121083612Y-137106800D01*
X121083611Y-137106800D01*
X120847589Y-137106800D01*
X120847587Y-137106800D01*
X120613593Y-137137606D01*
X120613588Y-137137606D01*
X120385607Y-137198693D01*
X120167555Y-137289013D01*
X119963146Y-137407029D01*
X119775907Y-137550702D01*
X119609002Y-137717607D01*
X119465329Y-137904846D01*
X119347313Y-138109255D01*
X119256993Y-138327307D01*
X119195906Y-138555288D01*
X119195906Y-138555293D01*
X119165100Y-138789287D01*
X117766099Y-138789287D01*
X117766099Y-137807292D01*
X117766099Y-137807291D01*
X117766099Y-137807283D01*
X117755600Y-137704511D01*
X117755599Y-137704509D01*
X117755599Y-137704503D01*
X117700414Y-137537966D01*
X117608312Y-137388644D01*
X117484256Y-137264588D01*
X117484253Y-137264586D01*
X117484252Y-137264585D01*
X117334936Y-137172487D01*
X117334935Y-137172486D01*
X117334934Y-137172486D01*
X117168397Y-137117301D01*
X117168394Y-137117300D01*
X117065616Y-137106800D01*
X114865583Y-137106800D01*
X114762811Y-137117299D01*
X114762799Y-137117302D01*
X114596263Y-137172487D01*
X114446947Y-137264585D01*
X114322885Y-137388647D01*
X114230787Y-137537963D01*
X114175600Y-137704505D01*
X114165100Y-137807283D01*
X109190300Y-137807283D01*
X109190300Y-128360509D01*
X114589700Y-128360509D01*
X114589700Y-128823090D01*
X114622952Y-129033038D01*
X114688643Y-129235212D01*
X114785148Y-129424615D01*
X114785150Y-129424619D01*
X114910091Y-129596586D01*
X114910093Y-129596588D01*
X114910096Y-129596592D01*
X115060408Y-129746904D01*
X115060411Y-129746906D01*
X115060413Y-129746908D01*
X115232380Y-129871849D01*
X115232384Y-129871851D01*
X115421788Y-129968357D01*
X115623957Y-130034046D01*
X115623958Y-130034046D01*
X115623961Y-130034047D01*
X115833910Y-130067300D01*
X115833913Y-130067300D01*
X116046490Y-130067300D01*
X116256438Y-130034047D01*
X116256439Y-130034046D01*
X116256443Y-130034046D01*
X116458612Y-129968357D01*
X116648016Y-129871851D01*
X116819992Y-129746904D01*
X116970304Y-129596592D01*
X117095251Y-129424616D01*
X117101989Y-129411390D01*
X117145253Y-129368125D01*
X117205685Y-129358552D01*
X117260202Y-129386329D01*
X117278411Y-129411391D01*
X117285149Y-129424616D01*
X117285150Y-129424619D01*
X117410091Y-129596586D01*
X117410093Y-129596588D01*
X117410096Y-129596592D01*
X117560408Y-129746904D01*
X117560411Y-129746906D01*
X117560413Y-129746908D01*
X117732380Y-129871849D01*
X117732384Y-129871851D01*
X117921788Y-129968357D01*
X118123957Y-130034046D01*
X118123958Y-130034046D01*
X118123961Y-130034047D01*
X118333910Y-130067300D01*
X118333913Y-130067300D01*
X118546490Y-130067300D01*
X118756438Y-130034047D01*
X118756439Y-130034046D01*
X118756443Y-130034046D01*
X118958612Y-129968357D01*
X119148016Y-129871851D01*
X119319992Y-129746904D01*
X119470304Y-129596592D01*
X119595251Y-129424616D01*
X119691757Y-129235212D01*
X119697045Y-129218936D01*
X119733006Y-129169437D01*
X119791196Y-129150527D01*
X119849387Y-129169432D01*
X119885353Y-129218930D01*
X119890200Y-129249526D01*
X119890200Y-129371003D01*
X119893050Y-129401400D01*
X119893050Y-129401402D01*
X119937854Y-129529447D01*
X120018407Y-129638590D01*
X120018409Y-129638592D01*
X120127552Y-129719145D01*
X120255598Y-129763949D01*
X120285989Y-129766799D01*
X120840198Y-129766799D01*
X120840200Y-129766798D01*
X120840200Y-129056761D01*
X120877665Y-129066800D01*
X121002735Y-129066800D01*
X121040200Y-129056761D01*
X121040200Y-129766798D01*
X121040201Y-129766799D01*
X121594403Y-129766799D01*
X121624800Y-129763949D01*
X121624802Y-129763949D01*
X121752847Y-129719145D01*
X121861990Y-129638592D01*
X121861992Y-129638590D01*
X121942545Y-129529447D01*
X121987349Y-129401401D01*
X121990199Y-129371011D01*
X121990200Y-129371010D01*
X121990200Y-128691801D01*
X121990199Y-128691800D01*
X121405161Y-128691800D01*
X121415200Y-128654335D01*
X121415200Y-128622583D01*
X176029700Y-128622583D01*
X176029700Y-131422616D01*
X176040199Y-131525388D01*
X176040200Y-131525395D01*
X176040201Y-131525397D01*
X176066654Y-131605228D01*
X176095387Y-131691936D01*
X176187485Y-131841252D01*
X176187486Y-131841253D01*
X176187488Y-131841256D01*
X176311544Y-131965312D01*
X176460866Y-132057414D01*
X176627403Y-132112599D01*
X176730191Y-132123100D01*
X179530208Y-132123099D01*
X179530216Y-132123099D01*
X179632988Y-132112600D01*
X179632988Y-132112599D01*
X179632997Y-132112599D01*
X179799534Y-132057414D01*
X179948856Y-131965312D01*
X180072912Y-131841256D01*
X180165014Y-131691934D01*
X180220199Y-131525397D01*
X180230700Y-131422609D01*
X180230699Y-129884926D01*
X191269700Y-129884926D01*
X191269700Y-130160274D01*
X191305640Y-130433266D01*
X191344453Y-130578121D01*
X191376904Y-130699231D01*
X191482274Y-130953616D01*
X191482277Y-130953621D01*
X191619951Y-131192079D01*
X191787572Y-131410528D01*
X191982272Y-131605228D01*
X192200721Y-131772849D01*
X192439179Y-131910523D01*
X192439180Y-131910523D01*
X192439183Y-131910525D01*
X192571455Y-131965314D01*
X192693568Y-132015895D01*
X192959534Y-132087160D01*
X193232526Y-132123100D01*
X193232527Y-132123100D01*
X193507873Y-132123100D01*
X193507874Y-132123100D01*
X193780866Y-132087160D01*
X194046832Y-132015895D01*
X194301221Y-131910523D01*
X194539679Y-131772849D01*
X194758128Y-131605228D01*
X194952828Y-131410528D01*
X195120449Y-131192079D01*
X195258123Y-130953621D01*
X195363495Y-130699232D01*
X195434760Y-130433266D01*
X195470700Y-130160274D01*
X195470700Y-129884926D01*
X195434760Y-129611934D01*
X195363495Y-129345968D01*
X195258123Y-129091579D01*
X195120449Y-128853121D01*
X194952828Y-128634672D01*
X194758128Y-128439972D01*
X194645126Y-128353263D01*
X194539682Y-128272353D01*
X194301216Y-128134674D01*
X194046831Y-128029304D01*
X193908581Y-127992261D01*
X193780866Y-127958040D01*
X193780859Y-127958039D01*
X193507875Y-127922100D01*
X193507874Y-127922100D01*
X193232526Y-127922100D01*
X193232524Y-127922100D01*
X192959540Y-127958039D01*
X192959538Y-127958039D01*
X192959534Y-127958040D01*
X192859005Y-127984976D01*
X192693568Y-128029304D01*
X192439183Y-128134674D01*
X192200717Y-128272353D01*
X191982275Y-128439969D01*
X191787569Y-128634675D01*
X191619953Y-128853117D01*
X191482274Y-129091583D01*
X191376904Y-129345968D01*
X191332576Y-129511405D01*
X191305640Y-129611934D01*
X191305639Y-129611938D01*
X191305639Y-129611940D01*
X191271422Y-129871849D01*
X191269700Y-129884926D01*
X180230699Y-129884926D01*
X180230699Y-128622592D01*
X180230699Y-128622591D01*
X180230699Y-128622583D01*
X180220200Y-128519811D01*
X180220199Y-128519809D01*
X180220199Y-128519803D01*
X180165014Y-128353266D01*
X180072912Y-128203944D01*
X179948856Y-128079888D01*
X179948853Y-128079886D01*
X179948852Y-128079885D01*
X179799536Y-127987787D01*
X179799535Y-127987786D01*
X179799534Y-127987786D01*
X179632997Y-127932601D01*
X179632994Y-127932600D01*
X179530216Y-127922100D01*
X176730183Y-127922100D01*
X176627411Y-127932599D01*
X176627399Y-127932602D01*
X176460863Y-127987787D01*
X176311547Y-128079885D01*
X176187485Y-128203947D01*
X176095387Y-128353263D01*
X176040200Y-128519805D01*
X176029700Y-128622583D01*
X121415200Y-128622583D01*
X121415200Y-128529265D01*
X121405161Y-128491800D01*
X121990198Y-128491800D01*
X121990199Y-128491799D01*
X121990199Y-127812596D01*
X121987349Y-127782199D01*
X121987349Y-127782197D01*
X121942545Y-127654152D01*
X121861992Y-127545009D01*
X121861990Y-127545007D01*
X121752847Y-127464454D01*
X121624801Y-127419650D01*
X121594411Y-127416800D01*
X121040201Y-127416800D01*
X121040200Y-127416801D01*
X121040200Y-128126838D01*
X121002735Y-128116800D01*
X120877665Y-128116800D01*
X120840200Y-128126838D01*
X120840200Y-127416801D01*
X120840199Y-127416800D01*
X120285996Y-127416800D01*
X120255599Y-127419650D01*
X120255597Y-127419650D01*
X120127552Y-127464454D01*
X120018409Y-127545007D01*
X120018407Y-127545009D01*
X119937854Y-127654152D01*
X119893050Y-127782198D01*
X119890200Y-127812588D01*
X119890200Y-127934070D01*
X119871293Y-127992261D01*
X119821793Y-128028225D01*
X119760607Y-128028225D01*
X119711107Y-127992261D01*
X119697045Y-127964663D01*
X119694893Y-127958040D01*
X119691757Y-127948388D01*
X119595251Y-127758984D01*
X119595249Y-127758980D01*
X119470308Y-127587013D01*
X119470306Y-127587011D01*
X119470304Y-127587008D01*
X119319992Y-127436696D01*
X119319988Y-127436693D01*
X119319986Y-127436691D01*
X119148019Y-127311750D01*
X119148015Y-127311748D01*
X118958612Y-127215243D01*
X118756438Y-127149552D01*
X118546490Y-127116300D01*
X118546487Y-127116300D01*
X118333913Y-127116300D01*
X118333910Y-127116300D01*
X118123961Y-127149552D01*
X117921787Y-127215243D01*
X117732384Y-127311748D01*
X117732380Y-127311750D01*
X117560413Y-127436691D01*
X117410091Y-127587013D01*
X117285150Y-127758980D01*
X117285148Y-127758984D01*
X117278410Y-127772210D01*
X117235145Y-127815475D01*
X117174713Y-127825046D01*
X117120196Y-127797269D01*
X117101990Y-127772210D01*
X117095251Y-127758984D01*
X117095249Y-127758980D01*
X116970308Y-127587013D01*
X116970306Y-127587011D01*
X116970304Y-127587008D01*
X116819992Y-127436696D01*
X116819988Y-127436693D01*
X116819986Y-127436691D01*
X116648019Y-127311750D01*
X116648015Y-127311748D01*
X116458612Y-127215243D01*
X116256438Y-127149552D01*
X116046490Y-127116300D01*
X116046487Y-127116300D01*
X115833913Y-127116300D01*
X115833910Y-127116300D01*
X115623961Y-127149552D01*
X115421787Y-127215243D01*
X115232384Y-127311748D01*
X115232380Y-127311750D01*
X115060413Y-127436691D01*
X114910091Y-127587013D01*
X114785150Y-127758980D01*
X114785148Y-127758984D01*
X114688643Y-127948387D01*
X114622952Y-128150561D01*
X114589700Y-128360509D01*
X109190300Y-128360509D01*
X109190300Y-125711754D01*
X164814400Y-125711754D01*
X164814400Y-125900645D01*
X164843946Y-126087196D01*
X164902314Y-126266835D01*
X164988067Y-126435136D01*
X164988069Y-126435140D01*
X165095782Y-126583394D01*
X165596610Y-126082565D01*
X165614301Y-126113207D01*
X165707393Y-126206299D01*
X165738032Y-126223988D01*
X165237204Y-126724816D01*
X165385459Y-126832530D01*
X165385463Y-126832532D01*
X165553764Y-126918285D01*
X165733403Y-126976653D01*
X165919955Y-127006200D01*
X166108845Y-127006200D01*
X166295396Y-126976653D01*
X166475035Y-126918285D01*
X166643334Y-126832533D01*
X166791594Y-126724815D01*
X166290767Y-126223988D01*
X166321407Y-126206299D01*
X166414499Y-126113207D01*
X166432188Y-126082567D01*
X166933015Y-126583394D01*
X167040733Y-126435134D01*
X167126485Y-126266835D01*
X167184853Y-126087196D01*
X167214400Y-125900645D01*
X167214400Y-125711754D01*
X167184853Y-125525203D01*
X167126485Y-125345564D01*
X167040733Y-125177264D01*
X166956888Y-125061862D01*
X166956887Y-125061860D01*
X166933016Y-125029004D01*
X166432188Y-125529832D01*
X166414499Y-125499193D01*
X166321407Y-125406101D01*
X166290765Y-125388410D01*
X166672993Y-125006183D01*
X169513900Y-125006183D01*
X169513900Y-126606216D01*
X169524399Y-126708988D01*
X169524402Y-126709000D01*
X169579587Y-126875536D01*
X169671685Y-127024852D01*
X169671686Y-127024853D01*
X169671688Y-127024856D01*
X169795744Y-127148912D01*
X169795746Y-127148913D01*
X169795747Y-127148914D01*
X169796785Y-127149554D01*
X169945066Y-127241014D01*
X170111603Y-127296199D01*
X170214391Y-127306700D01*
X171814408Y-127306699D01*
X171814416Y-127306699D01*
X171917188Y-127296200D01*
X171917188Y-127296199D01*
X171917197Y-127296199D01*
X172083734Y-127241014D01*
X172233056Y-127148912D01*
X172357112Y-127024856D01*
X172449214Y-126875534D01*
X172504399Y-126708997D01*
X172514900Y-126606209D01*
X172514899Y-125006192D01*
X172514899Y-125006191D01*
X172514899Y-125006183D01*
X172504400Y-124903411D01*
X172504399Y-124903409D01*
X172504399Y-124903403D01*
X172449214Y-124736866D01*
X172357112Y-124587544D01*
X172233056Y-124463488D01*
X172233053Y-124463486D01*
X172233052Y-124463485D01*
X172083736Y-124371387D01*
X172083735Y-124371386D01*
X172083734Y-124371386D01*
X171917197Y-124316201D01*
X171917194Y-124316200D01*
X171814416Y-124305700D01*
X170214383Y-124305700D01*
X170111611Y-124316199D01*
X170111599Y-124316202D01*
X169945063Y-124371387D01*
X169795747Y-124463485D01*
X169671685Y-124587547D01*
X169579587Y-124736863D01*
X169524400Y-124903405D01*
X169513900Y-125006183D01*
X166672993Y-125006183D01*
X166791594Y-124887582D01*
X166643340Y-124779869D01*
X166643336Y-124779867D01*
X166475035Y-124694114D01*
X166295396Y-124635746D01*
X166108845Y-124606200D01*
X165919955Y-124606200D01*
X165733403Y-124635746D01*
X165553764Y-124694114D01*
X165385463Y-124779867D01*
X165385459Y-124779869D01*
X165237204Y-124887582D01*
X165738032Y-125388410D01*
X165707393Y-125406101D01*
X165614301Y-125499193D01*
X165596610Y-125529832D01*
X165095782Y-125029004D01*
X164988069Y-125177259D01*
X164988067Y-125177263D01*
X164902314Y-125345564D01*
X164843946Y-125525203D01*
X164814400Y-125711754D01*
X109190300Y-125711754D01*
X109190300Y-70810509D01*
X122880900Y-70810509D01*
X122880900Y-71023090D01*
X122914152Y-71233038D01*
X122979843Y-71435212D01*
X123076348Y-71624615D01*
X123076350Y-71624619D01*
X123201291Y-71796586D01*
X123201293Y-71796588D01*
X123201296Y-71796592D01*
X123351608Y-71946904D01*
X123351611Y-71946906D01*
X123351613Y-71946908D01*
X123523580Y-72071849D01*
X123523584Y-72071851D01*
X123576062Y-72098590D01*
X123619327Y-72141855D01*
X123628898Y-72202287D01*
X123601120Y-72256804D01*
X123576062Y-72275010D01*
X123523584Y-72301748D01*
X123523580Y-72301750D01*
X123351613Y-72426691D01*
X123201291Y-72577013D01*
X123076350Y-72748980D01*
X123076348Y-72748984D01*
X122979843Y-72938387D01*
X122914152Y-73140561D01*
X122880900Y-73350509D01*
X122880900Y-73563090D01*
X122914152Y-73773038D01*
X122979843Y-73975212D01*
X123076348Y-74164615D01*
X123076350Y-74164619D01*
X123201291Y-74336586D01*
X123201293Y-74336588D01*
X123201296Y-74336592D01*
X123351608Y-74486904D01*
X123351611Y-74486906D01*
X123351613Y-74486908D01*
X123523580Y-74611849D01*
X123523584Y-74611851D01*
X123576062Y-74638590D01*
X123619327Y-74681855D01*
X123628898Y-74742287D01*
X123601120Y-74796804D01*
X123576062Y-74815010D01*
X123523584Y-74841748D01*
X123523580Y-74841750D01*
X123351613Y-74966691D01*
X123201291Y-75117013D01*
X123076350Y-75288980D01*
X123076348Y-75288984D01*
X122979843Y-75478387D01*
X122914152Y-75680561D01*
X122880900Y-75890509D01*
X122880900Y-76103090D01*
X122914152Y-76313038D01*
X122979843Y-76515212D01*
X123076348Y-76704615D01*
X123076350Y-76704619D01*
X123201291Y-76876586D01*
X123201293Y-76876588D01*
X123201296Y-76876592D01*
X123351608Y-77026904D01*
X123351611Y-77026906D01*
X123351613Y-77026908D01*
X123523580Y-77151849D01*
X123523584Y-77151851D01*
X123576062Y-77178590D01*
X123619327Y-77221855D01*
X123628898Y-77282287D01*
X123601120Y-77336804D01*
X123576062Y-77355010D01*
X123523584Y-77381748D01*
X123523580Y-77381750D01*
X123351613Y-77506691D01*
X123201291Y-77657013D01*
X123076350Y-77828980D01*
X123076348Y-77828984D01*
X122979843Y-78018387D01*
X122914152Y-78220561D01*
X122880900Y-78430509D01*
X122880900Y-78643090D01*
X122914152Y-78853038D01*
X122979843Y-79055212D01*
X123076348Y-79244615D01*
X123076350Y-79244619D01*
X123201291Y-79416586D01*
X123201293Y-79416588D01*
X123201296Y-79416592D01*
X123351608Y-79566904D01*
X123351611Y-79566906D01*
X123351613Y-79566908D01*
X123523580Y-79691849D01*
X123523584Y-79691851D01*
X123712988Y-79788357D01*
X123852370Y-79833645D01*
X123901870Y-79869609D01*
X123920777Y-79927800D01*
X123901870Y-79985991D01*
X123852370Y-80021955D01*
X123821777Y-80026800D01*
X123361699Y-80026800D01*
X123303363Y-80038403D01*
X123237210Y-80082606D01*
X123237206Y-80082610D01*
X123193003Y-80148763D01*
X123181400Y-80207099D01*
X123181400Y-80976799D01*
X123181401Y-80976800D01*
X123740557Y-80976800D01*
X123731400Y-81010974D01*
X123731400Y-81142626D01*
X123740557Y-81176800D01*
X123181401Y-81176800D01*
X123181400Y-81176801D01*
X123181400Y-81946500D01*
X123193003Y-82004836D01*
X123237206Y-82070989D01*
X123237210Y-82070993D01*
X123303363Y-82115196D01*
X123361699Y-82126799D01*
X123361703Y-82126800D01*
X124131399Y-82126800D01*
X124131400Y-82126799D01*
X124131400Y-81567642D01*
X124165574Y-81576800D01*
X124297226Y-81576800D01*
X124331400Y-81567642D01*
X124331400Y-82126799D01*
X124331401Y-82126800D01*
X125101097Y-82126800D01*
X125101100Y-82126799D01*
X125159436Y-82115196D01*
X125225589Y-82070993D01*
X125225593Y-82070989D01*
X125269796Y-82004836D01*
X125281399Y-81946500D01*
X125281400Y-81946497D01*
X125281400Y-81176801D01*
X125281399Y-81176800D01*
X124722243Y-81176800D01*
X124731400Y-81142626D01*
X124731400Y-81010974D01*
X124722243Y-80976800D01*
X125281399Y-80976800D01*
X125281400Y-80976799D01*
X125281400Y-80207102D01*
X125281399Y-80207099D01*
X125269796Y-80148763D01*
X125225593Y-80082610D01*
X125225589Y-80082606D01*
X125159436Y-80038403D01*
X125101100Y-80026800D01*
X124641023Y-80026800D01*
X124582832Y-80007893D01*
X124546868Y-79958393D01*
X124546868Y-79897207D01*
X124582832Y-79847707D01*
X124610429Y-79833645D01*
X124749812Y-79788357D01*
X124939216Y-79691851D01*
X124948371Y-79685200D01*
X125106585Y-79570251D01*
X125111192Y-79566904D01*
X125261504Y-79416592D01*
X125386451Y-79244616D01*
X125482957Y-79055212D01*
X125548646Y-78853043D01*
X125548647Y-78853038D01*
X125581900Y-78643090D01*
X125581900Y-78430509D01*
X125548647Y-78220561D01*
X125548646Y-78220557D01*
X125482957Y-78018388D01*
X125386451Y-77828984D01*
X125386449Y-77828980D01*
X125261508Y-77657013D01*
X125261506Y-77657011D01*
X125261504Y-77657008D01*
X125111192Y-77506696D01*
X125111188Y-77506693D01*
X125111186Y-77506691D01*
X124939219Y-77381750D01*
X124939215Y-77381748D01*
X124908304Y-77365998D01*
X124886736Y-77355009D01*
X124843473Y-77311746D01*
X124833901Y-77251314D01*
X124861678Y-77196797D01*
X124886735Y-77178591D01*
X124939216Y-77151851D01*
X124948371Y-77145200D01*
X125106585Y-77030251D01*
X125111192Y-77026904D01*
X125261504Y-76876592D01*
X125386451Y-76704616D01*
X125482957Y-76515212D01*
X125548646Y-76313043D01*
X125548647Y-76313038D01*
X125581900Y-76103090D01*
X125581900Y-75890509D01*
X125564478Y-75780510D01*
X125562641Y-75768909D01*
X130375900Y-75768909D01*
X130375900Y-75981490D01*
X130409152Y-76191438D01*
X130474843Y-76393612D01*
X130571348Y-76583015D01*
X130571350Y-76583019D01*
X130696291Y-76754986D01*
X130696293Y-76754988D01*
X130696296Y-76754992D01*
X130846608Y-76905304D01*
X130846611Y-76905306D01*
X130846613Y-76905308D01*
X131018580Y-77030249D01*
X131018584Y-77030251D01*
X131071062Y-77056990D01*
X131114327Y-77100255D01*
X131123898Y-77160687D01*
X131096120Y-77215204D01*
X131071062Y-77233410D01*
X131018584Y-77260148D01*
X131018580Y-77260150D01*
X130846613Y-77385091D01*
X130696291Y-77535413D01*
X130571350Y-77707380D01*
X130571348Y-77707384D01*
X130474843Y-77896787D01*
X130409152Y-78098961D01*
X130375900Y-78308909D01*
X130375900Y-78521490D01*
X130409152Y-78731438D01*
X130474843Y-78933612D01*
X130571348Y-79123015D01*
X130571350Y-79123019D01*
X130696291Y-79294986D01*
X130696293Y-79294988D01*
X130696296Y-79294992D01*
X130846608Y-79445304D01*
X130846611Y-79445306D01*
X130846613Y-79445308D01*
X131018580Y-79570249D01*
X131018584Y-79570251D01*
X131071062Y-79596990D01*
X131114327Y-79640255D01*
X131123898Y-79700687D01*
X131096120Y-79755204D01*
X131071062Y-79773410D01*
X131018584Y-79800148D01*
X131018580Y-79800150D01*
X130846613Y-79925091D01*
X130696291Y-80075413D01*
X130571350Y-80247380D01*
X130571348Y-80247384D01*
X130474843Y-80436787D01*
X130409152Y-80638961D01*
X130375900Y-80848909D01*
X130375900Y-81061490D01*
X130409152Y-81271438D01*
X130474843Y-81473612D01*
X130571348Y-81663015D01*
X130571350Y-81663019D01*
X130696291Y-81834986D01*
X130696293Y-81834988D01*
X130696296Y-81834992D01*
X130846608Y-81985304D01*
X130846611Y-81985306D01*
X130846613Y-81985308D01*
X131018580Y-82110249D01*
X131018584Y-82110251D01*
X131071062Y-82136990D01*
X131114327Y-82180255D01*
X131123898Y-82240687D01*
X131096120Y-82295204D01*
X131071062Y-82313410D01*
X131018584Y-82340148D01*
X131018580Y-82340150D01*
X130846613Y-82465091D01*
X130696291Y-82615413D01*
X130571350Y-82787380D01*
X130571348Y-82787384D01*
X130474843Y-82976787D01*
X130409152Y-83178961D01*
X130375900Y-83388909D01*
X130375900Y-83601490D01*
X130409152Y-83811438D01*
X130474843Y-84013612D01*
X130571348Y-84203015D01*
X130571350Y-84203019D01*
X130696291Y-84374986D01*
X130696293Y-84374988D01*
X130696296Y-84374992D01*
X130846608Y-84525304D01*
X130846611Y-84525306D01*
X130846613Y-84525308D01*
X131018580Y-84650249D01*
X131018584Y-84650251D01*
X131071062Y-84676990D01*
X131114327Y-84720255D01*
X131123898Y-84780687D01*
X131096120Y-84835204D01*
X131071062Y-84853410D01*
X131018584Y-84880148D01*
X131018580Y-84880150D01*
X130846613Y-85005091D01*
X130696291Y-85155413D01*
X130571350Y-85327380D01*
X130571348Y-85327384D01*
X130474843Y-85516787D01*
X130409152Y-85718961D01*
X130375900Y-85928909D01*
X130375900Y-86141490D01*
X130409152Y-86351438D01*
X130474843Y-86553612D01*
X130571348Y-86743015D01*
X130571350Y-86743019D01*
X130696291Y-86914986D01*
X130696293Y-86914988D01*
X130696296Y-86914992D01*
X130846608Y-87065304D01*
X130846611Y-87065306D01*
X130846613Y-87065308D01*
X131018580Y-87190249D01*
X131018584Y-87190251D01*
X131071062Y-87216990D01*
X131114327Y-87260255D01*
X131123898Y-87320687D01*
X131096120Y-87375204D01*
X131071062Y-87393410D01*
X131018584Y-87420148D01*
X131018580Y-87420150D01*
X130846613Y-87545091D01*
X130696291Y-87695413D01*
X130571350Y-87867380D01*
X130571348Y-87867384D01*
X130474843Y-88056787D01*
X130409152Y-88258961D01*
X130375900Y-88468909D01*
X130375900Y-88681490D01*
X130409152Y-88891438D01*
X130474843Y-89093612D01*
X130571348Y-89283015D01*
X130571350Y-89283019D01*
X130696291Y-89454986D01*
X130696293Y-89454988D01*
X130696296Y-89454992D01*
X130846608Y-89605304D01*
X130846611Y-89605306D01*
X130846613Y-89605308D01*
X131018580Y-89730249D01*
X131018584Y-89730251D01*
X131071062Y-89756990D01*
X131114327Y-89800255D01*
X131123898Y-89860687D01*
X131096120Y-89915204D01*
X131071062Y-89933410D01*
X131018584Y-89960148D01*
X131018580Y-89960150D01*
X130846613Y-90085091D01*
X130696291Y-90235413D01*
X130571350Y-90407380D01*
X130571348Y-90407384D01*
X130474843Y-90596787D01*
X130409152Y-90798961D01*
X130375900Y-91008909D01*
X130375900Y-91221490D01*
X130409152Y-91431438D01*
X130474843Y-91633612D01*
X130571348Y-91823015D01*
X130571350Y-91823019D01*
X130696291Y-91994986D01*
X130696293Y-91994988D01*
X130696296Y-91994992D01*
X130846608Y-92145304D01*
X130846611Y-92145306D01*
X130846613Y-92145308D01*
X131018580Y-92270249D01*
X131018584Y-92270251D01*
X131071062Y-92296990D01*
X131114327Y-92340255D01*
X131123898Y-92400687D01*
X131096120Y-92455204D01*
X131071062Y-92473410D01*
X131018584Y-92500148D01*
X131018580Y-92500150D01*
X130846613Y-92625091D01*
X130696291Y-92775413D01*
X130571350Y-92947380D01*
X130571348Y-92947384D01*
X130474843Y-93136787D01*
X130409152Y-93338961D01*
X130375900Y-93548909D01*
X130375900Y-93761490D01*
X130409152Y-93971438D01*
X130474843Y-94173612D01*
X130571348Y-94363015D01*
X130571350Y-94363019D01*
X130696291Y-94534986D01*
X130696293Y-94534988D01*
X130696296Y-94534992D01*
X130846608Y-94685304D01*
X130846611Y-94685306D01*
X130846613Y-94685308D01*
X131018580Y-94810249D01*
X131018584Y-94810251D01*
X131071062Y-94836990D01*
X131114327Y-94880255D01*
X131123898Y-94940687D01*
X131096120Y-94995204D01*
X131071062Y-95013410D01*
X131018584Y-95040148D01*
X131018580Y-95040150D01*
X130846613Y-95165091D01*
X130696291Y-95315413D01*
X130571350Y-95487380D01*
X130571348Y-95487384D01*
X130474843Y-95676787D01*
X130409152Y-95878961D01*
X130375900Y-96088909D01*
X130375900Y-96301490D01*
X130409152Y-96511438D01*
X130474843Y-96713612D01*
X130571348Y-96903015D01*
X130571350Y-96903019D01*
X130696291Y-97074986D01*
X130696293Y-97074988D01*
X130696296Y-97074992D01*
X130846608Y-97225304D01*
X130846611Y-97225306D01*
X130846613Y-97225308D01*
X131018580Y-97350249D01*
X131018584Y-97350251D01*
X131071062Y-97376990D01*
X131114327Y-97420255D01*
X131123898Y-97480687D01*
X131096120Y-97535204D01*
X131071062Y-97553410D01*
X131018584Y-97580148D01*
X131018580Y-97580150D01*
X130846613Y-97705091D01*
X130696291Y-97855413D01*
X130571350Y-98027380D01*
X130571348Y-98027384D01*
X130474843Y-98216787D01*
X130409152Y-98418961D01*
X130375900Y-98628909D01*
X130375900Y-98841490D01*
X130409152Y-99051438D01*
X130474843Y-99253612D01*
X130571348Y-99443015D01*
X130571350Y-99443019D01*
X130696291Y-99614986D01*
X130696293Y-99614988D01*
X130696296Y-99614992D01*
X130846608Y-99765304D01*
X130846611Y-99765306D01*
X130846613Y-99765308D01*
X131018580Y-99890249D01*
X131018584Y-99890251D01*
X131071062Y-99916990D01*
X131114327Y-99960255D01*
X131123898Y-100020687D01*
X131096120Y-100075204D01*
X131071062Y-100093410D01*
X131018584Y-100120148D01*
X131018580Y-100120150D01*
X130846613Y-100245091D01*
X130696291Y-100395413D01*
X130571350Y-100567380D01*
X130571348Y-100567384D01*
X130474843Y-100756787D01*
X130409152Y-100958961D01*
X130375900Y-101168909D01*
X130375900Y-101381490D01*
X130409152Y-101591438D01*
X130474843Y-101793612D01*
X130571348Y-101983015D01*
X130571350Y-101983019D01*
X130696291Y-102154986D01*
X130696293Y-102154988D01*
X130696296Y-102154992D01*
X130846608Y-102305304D01*
X130846611Y-102305306D01*
X130846613Y-102305308D01*
X131018580Y-102430249D01*
X131018584Y-102430251D01*
X131071062Y-102456990D01*
X131114327Y-102500255D01*
X131123898Y-102560687D01*
X131096120Y-102615204D01*
X131071062Y-102633410D01*
X131018584Y-102660148D01*
X131018580Y-102660150D01*
X130846613Y-102785091D01*
X130696291Y-102935413D01*
X130571350Y-103107380D01*
X130571348Y-103107384D01*
X130474843Y-103296787D01*
X130409152Y-103498961D01*
X130375900Y-103708909D01*
X130375900Y-103921490D01*
X130409152Y-104131438D01*
X130474843Y-104333612D01*
X130571348Y-104523015D01*
X130571350Y-104523019D01*
X130696291Y-104694986D01*
X130696293Y-104694988D01*
X130696296Y-104694992D01*
X130846608Y-104845304D01*
X130846611Y-104845306D01*
X130846613Y-104845308D01*
X131018580Y-104970249D01*
X131018584Y-104970251D01*
X131071062Y-104996990D01*
X131114327Y-105040255D01*
X131123898Y-105100687D01*
X131096120Y-105155204D01*
X131071062Y-105173410D01*
X131018584Y-105200148D01*
X131018580Y-105200150D01*
X130846613Y-105325091D01*
X130696291Y-105475413D01*
X130571350Y-105647380D01*
X130571348Y-105647384D01*
X130474843Y-105836787D01*
X130409152Y-106038961D01*
X130375900Y-106248909D01*
X130375900Y-106461490D01*
X130409152Y-106671438D01*
X130474843Y-106873612D01*
X130571348Y-107063015D01*
X130571350Y-107063019D01*
X130696291Y-107234986D01*
X130696293Y-107234988D01*
X130696296Y-107234992D01*
X130846608Y-107385304D01*
X130846611Y-107385306D01*
X130846613Y-107385308D01*
X131018580Y-107510249D01*
X131018584Y-107510251D01*
X131071062Y-107536990D01*
X131114327Y-107580255D01*
X131123898Y-107640687D01*
X131096120Y-107695204D01*
X131071062Y-107713410D01*
X131018584Y-107740148D01*
X131018580Y-107740150D01*
X130846613Y-107865091D01*
X130696291Y-108015413D01*
X130571350Y-108187380D01*
X130571348Y-108187384D01*
X130474843Y-108376787D01*
X130409152Y-108578961D01*
X130375900Y-108788909D01*
X130375900Y-109001490D01*
X130409152Y-109211438D01*
X130474843Y-109413612D01*
X130571348Y-109603015D01*
X130571350Y-109603019D01*
X130696291Y-109774986D01*
X130696293Y-109774988D01*
X130696296Y-109774992D01*
X130846608Y-109925304D01*
X130846611Y-109925306D01*
X130846613Y-109925308D01*
X131018580Y-110050249D01*
X131018584Y-110050251D01*
X131071062Y-110076990D01*
X131114327Y-110120255D01*
X131123898Y-110180687D01*
X131096120Y-110235204D01*
X131071062Y-110253410D01*
X131018584Y-110280148D01*
X131018580Y-110280150D01*
X130846613Y-110405091D01*
X130696291Y-110555413D01*
X130571350Y-110727380D01*
X130571348Y-110727384D01*
X130474843Y-110916787D01*
X130409152Y-111118961D01*
X130375900Y-111328909D01*
X130375900Y-111541490D01*
X130409152Y-111751438D01*
X130474843Y-111953612D01*
X130571348Y-112143015D01*
X130571350Y-112143019D01*
X130696291Y-112314986D01*
X130696293Y-112314988D01*
X130696296Y-112314992D01*
X130846608Y-112465304D01*
X130846611Y-112465306D01*
X130846613Y-112465308D01*
X131018580Y-112590249D01*
X131018584Y-112590251D01*
X131071062Y-112616990D01*
X131114327Y-112660255D01*
X131123898Y-112720687D01*
X131096120Y-112775204D01*
X131071062Y-112793410D01*
X131018584Y-112820148D01*
X131018580Y-112820150D01*
X130846613Y-112945091D01*
X130696291Y-113095413D01*
X130571350Y-113267380D01*
X130571348Y-113267384D01*
X130474843Y-113456787D01*
X130409152Y-113658961D01*
X130375900Y-113868909D01*
X130375900Y-114081490D01*
X130409152Y-114291438D01*
X130474843Y-114493612D01*
X130571348Y-114683015D01*
X130571350Y-114683019D01*
X130696291Y-114854986D01*
X130696293Y-114854988D01*
X130696296Y-114854992D01*
X130846608Y-115005304D01*
X130846611Y-115005306D01*
X130846613Y-115005308D01*
X131018580Y-115130249D01*
X131018584Y-115130251D01*
X131071062Y-115156990D01*
X131114327Y-115200255D01*
X131123898Y-115260687D01*
X131096120Y-115315204D01*
X131071062Y-115333410D01*
X131018584Y-115360148D01*
X131018580Y-115360150D01*
X130846613Y-115485091D01*
X130696291Y-115635413D01*
X130571350Y-115807380D01*
X130571348Y-115807384D01*
X130474843Y-115996787D01*
X130409152Y-116198961D01*
X130375900Y-116408909D01*
X130375900Y-116621490D01*
X130409152Y-116831438D01*
X130474843Y-117033612D01*
X130571348Y-117223015D01*
X130571350Y-117223019D01*
X130696291Y-117394986D01*
X130696293Y-117394988D01*
X130696296Y-117394992D01*
X130846608Y-117545304D01*
X130846611Y-117545306D01*
X130846613Y-117545308D01*
X131018580Y-117670249D01*
X131018584Y-117670251D01*
X131071062Y-117696990D01*
X131114327Y-117740255D01*
X131123898Y-117800687D01*
X131096120Y-117855204D01*
X131071062Y-117873410D01*
X131018584Y-117900148D01*
X131018580Y-117900150D01*
X130846613Y-118025091D01*
X130696291Y-118175413D01*
X130571350Y-118347380D01*
X130571348Y-118347384D01*
X130474843Y-118536787D01*
X130409152Y-118738961D01*
X130375900Y-118948909D01*
X130375900Y-119161490D01*
X130409152Y-119371438D01*
X130474843Y-119573612D01*
X130571348Y-119763015D01*
X130571350Y-119763019D01*
X130696291Y-119934986D01*
X130696293Y-119934988D01*
X130696296Y-119934992D01*
X130846608Y-120085304D01*
X130846611Y-120085306D01*
X130846613Y-120085308D01*
X131018580Y-120210249D01*
X131018584Y-120210251D01*
X131071062Y-120236990D01*
X131114327Y-120280255D01*
X131123898Y-120340687D01*
X131096120Y-120395204D01*
X131071062Y-120413410D01*
X131018584Y-120440148D01*
X131018580Y-120440150D01*
X130846613Y-120565091D01*
X130696291Y-120715413D01*
X130571350Y-120887380D01*
X130571348Y-120887384D01*
X130474843Y-121076787D01*
X130409152Y-121278961D01*
X130375900Y-121488909D01*
X130375900Y-121701490D01*
X130409152Y-121911438D01*
X130474843Y-122113612D01*
X130571348Y-122303015D01*
X130571350Y-122303019D01*
X130696291Y-122474986D01*
X130696292Y-122474987D01*
X130696296Y-122474992D01*
X130846608Y-122625304D01*
X130846611Y-122625306D01*
X130846613Y-122625308D01*
X131018580Y-122750249D01*
X131018584Y-122750251D01*
X131207988Y-122846757D01*
X131347370Y-122892045D01*
X131396870Y-122928009D01*
X131415777Y-122986200D01*
X131396870Y-123044391D01*
X131347370Y-123080355D01*
X131316777Y-123085200D01*
X130856699Y-123085200D01*
X130798363Y-123096803D01*
X130732210Y-123141006D01*
X130732206Y-123141010D01*
X130688003Y-123207163D01*
X130676400Y-123265499D01*
X130676400Y-124035199D01*
X130676401Y-124035200D01*
X131235557Y-124035200D01*
X131226400Y-124069374D01*
X131226400Y-124201026D01*
X131235557Y-124235200D01*
X130676401Y-124235200D01*
X130676400Y-124235201D01*
X130676400Y-125004900D01*
X130688003Y-125063236D01*
X130732206Y-125129389D01*
X130732210Y-125129393D01*
X130798363Y-125173596D01*
X130856699Y-125185199D01*
X130856703Y-125185200D01*
X131626399Y-125185200D01*
X131626400Y-125185199D01*
X131626400Y-124626042D01*
X131660574Y-124635200D01*
X131792226Y-124635200D01*
X131826400Y-124626042D01*
X131826400Y-125185199D01*
X131826401Y-125185200D01*
X132596097Y-125185200D01*
X132596100Y-125185199D01*
X132654436Y-125173596D01*
X132720589Y-125129393D01*
X132720593Y-125129389D01*
X132764796Y-125063236D01*
X132776399Y-125004900D01*
X132776400Y-125004897D01*
X132776400Y-124235201D01*
X132776399Y-124235200D01*
X132217243Y-124235200D01*
X132226400Y-124201026D01*
X132226400Y-124069374D01*
X132217243Y-124035200D01*
X132776399Y-124035200D01*
X132776400Y-124035199D01*
X132776400Y-123265502D01*
X132776399Y-123265499D01*
X132764796Y-123207163D01*
X132720593Y-123141010D01*
X132720589Y-123141006D01*
X132654436Y-123096803D01*
X132596100Y-123085200D01*
X132136023Y-123085200D01*
X132077832Y-123066293D01*
X132041868Y-123016793D01*
X132041868Y-122955607D01*
X132077832Y-122906107D01*
X132105429Y-122892045D01*
X132244812Y-122846757D01*
X132434216Y-122750251D01*
X132606192Y-122625304D01*
X132756504Y-122474992D01*
X132881451Y-122303016D01*
X132977957Y-122113612D01*
X133043646Y-121911443D01*
X133051001Y-121865005D01*
X133076900Y-121701490D01*
X133076900Y-121488909D01*
X133043647Y-121278961D01*
X133043646Y-121278957D01*
X132977957Y-121076788D01*
X132881451Y-120887384D01*
X132881449Y-120887380D01*
X132756508Y-120715413D01*
X132756506Y-120715411D01*
X132756504Y-120715408D01*
X132606192Y-120565096D01*
X132606188Y-120565093D01*
X132606186Y-120565091D01*
X132434219Y-120440150D01*
X132434215Y-120440148D01*
X132403304Y-120424398D01*
X132381736Y-120413409D01*
X132338473Y-120370146D01*
X132328901Y-120309714D01*
X132356678Y-120255197D01*
X132381735Y-120236991D01*
X132434216Y-120210251D01*
X132606192Y-120085304D01*
X132756504Y-119934992D01*
X132881451Y-119763016D01*
X132977957Y-119573612D01*
X133043646Y-119371443D01*
X133076900Y-119161487D01*
X133076900Y-118948913D01*
X133076900Y-118948909D01*
X133043647Y-118738961D01*
X133043646Y-118738957D01*
X132977957Y-118536788D01*
X132881451Y-118347384D01*
X132881449Y-118347380D01*
X132756508Y-118175413D01*
X132756506Y-118175411D01*
X132756504Y-118175408D01*
X132606192Y-118025096D01*
X132606188Y-118025093D01*
X132606186Y-118025091D01*
X132434219Y-117900150D01*
X132434215Y-117900148D01*
X132403304Y-117884398D01*
X132381736Y-117873409D01*
X132338473Y-117830146D01*
X132328901Y-117769714D01*
X132356678Y-117715197D01*
X132381735Y-117696991D01*
X132434216Y-117670251D01*
X132472165Y-117642680D01*
X132606186Y-117545308D01*
X132606192Y-117545304D01*
X132756504Y-117394992D01*
X132881451Y-117223016D01*
X132977957Y-117033612D01*
X133043646Y-116831443D01*
X133052574Y-116775073D01*
X133076900Y-116621490D01*
X133076900Y-116408909D01*
X133043647Y-116198961D01*
X133037449Y-116179885D01*
X132977957Y-115996788D01*
X132881451Y-115807384D01*
X132881449Y-115807380D01*
X132756508Y-115635413D01*
X132756506Y-115635411D01*
X132756504Y-115635408D01*
X132606192Y-115485096D01*
X132606188Y-115485093D01*
X132606186Y-115485091D01*
X132434219Y-115360150D01*
X132434215Y-115360148D01*
X132403304Y-115344398D01*
X132381736Y-115333409D01*
X132338473Y-115290146D01*
X132328901Y-115229714D01*
X132356678Y-115175197D01*
X132381735Y-115156991D01*
X132434216Y-115130251D01*
X132606192Y-115005304D01*
X132756504Y-114854992D01*
X132881451Y-114683016D01*
X132977957Y-114493612D01*
X133043646Y-114291443D01*
X133076900Y-114081487D01*
X133076900Y-113868913D01*
X133076900Y-113868909D01*
X133043647Y-113658961D01*
X133043646Y-113658957D01*
X132977957Y-113456788D01*
X132881451Y-113267384D01*
X132881449Y-113267380D01*
X132756508Y-113095413D01*
X132756506Y-113095411D01*
X132756504Y-113095408D01*
X132606192Y-112945096D01*
X132606188Y-112945093D01*
X132606186Y-112945091D01*
X132434219Y-112820150D01*
X132434215Y-112820148D01*
X132382695Y-112793898D01*
X132381736Y-112793409D01*
X132338473Y-112750146D01*
X132328901Y-112689714D01*
X132356678Y-112635197D01*
X132381735Y-112616991D01*
X132434216Y-112590251D01*
X132606192Y-112465304D01*
X132756504Y-112314992D01*
X132881451Y-112143016D01*
X132977957Y-111953612D01*
X133043646Y-111751443D01*
X133076900Y-111541487D01*
X133076900Y-111328913D01*
X133076900Y-111328909D01*
X133043647Y-111118961D01*
X133043646Y-111118957D01*
X132977957Y-110916788D01*
X132881451Y-110727384D01*
X132881449Y-110727380D01*
X132756508Y-110555413D01*
X132756506Y-110555411D01*
X132756504Y-110555408D01*
X132606192Y-110405096D01*
X132606188Y-110405093D01*
X132606186Y-110405091D01*
X132434219Y-110280150D01*
X132434215Y-110280148D01*
X132403304Y-110264398D01*
X132381736Y-110253409D01*
X132338473Y-110210146D01*
X132328901Y-110149714D01*
X132356678Y-110095197D01*
X132381735Y-110076991D01*
X132434216Y-110050251D01*
X132606192Y-109925304D01*
X132756504Y-109774992D01*
X132881451Y-109603016D01*
X132977957Y-109413612D01*
X133043646Y-109211443D01*
X133076900Y-109001487D01*
X133076900Y-108788913D01*
X133076900Y-108788909D01*
X133043647Y-108578961D01*
X133043646Y-108578957D01*
X132977957Y-108376788D01*
X132881451Y-108187384D01*
X132881449Y-108187380D01*
X132756508Y-108015413D01*
X132756506Y-108015411D01*
X132756504Y-108015408D01*
X132606192Y-107865096D01*
X132606188Y-107865093D01*
X132606186Y-107865091D01*
X132434219Y-107740150D01*
X132434215Y-107740148D01*
X132403304Y-107724398D01*
X132381736Y-107713409D01*
X132338473Y-107670146D01*
X132328901Y-107609714D01*
X132356678Y-107555197D01*
X132381735Y-107536991D01*
X132434216Y-107510251D01*
X132606192Y-107385304D01*
X132756504Y-107234992D01*
X132881451Y-107063016D01*
X132977957Y-106873612D01*
X133043646Y-106671443D01*
X133076900Y-106461487D01*
X133076900Y-106248913D01*
X133076900Y-106248909D01*
X133043647Y-106038961D01*
X133043646Y-106038957D01*
X132977957Y-105836788D01*
X132881451Y-105647384D01*
X132881449Y-105647380D01*
X132756508Y-105475413D01*
X132756506Y-105475411D01*
X132756504Y-105475408D01*
X132606192Y-105325096D01*
X132606188Y-105325093D01*
X132606186Y-105325091D01*
X132434219Y-105200150D01*
X132434215Y-105200148D01*
X132403304Y-105184398D01*
X132381736Y-105173409D01*
X132338473Y-105130146D01*
X132328901Y-105069714D01*
X132356678Y-105015197D01*
X132381735Y-104996991D01*
X132434216Y-104970251D01*
X132606192Y-104845304D01*
X132756504Y-104694992D01*
X132881451Y-104523016D01*
X132977957Y-104333612D01*
X133043646Y-104131443D01*
X133076900Y-103921487D01*
X133076900Y-103708913D01*
X133076900Y-103708909D01*
X133043647Y-103498961D01*
X133043646Y-103498957D01*
X132977957Y-103296788D01*
X132881451Y-103107384D01*
X132881449Y-103107380D01*
X132756508Y-102935413D01*
X132756506Y-102935411D01*
X132756504Y-102935408D01*
X132606192Y-102785096D01*
X132606188Y-102785093D01*
X132606186Y-102785091D01*
X132434219Y-102660150D01*
X132434215Y-102660148D01*
X132403304Y-102644398D01*
X132381736Y-102633409D01*
X132338473Y-102590146D01*
X132328901Y-102529714D01*
X132356678Y-102475197D01*
X132381735Y-102456991D01*
X132434216Y-102430251D01*
X132606192Y-102305304D01*
X132756504Y-102154992D01*
X132881451Y-101983016D01*
X132977957Y-101793612D01*
X133043646Y-101591443D01*
X133076900Y-101381487D01*
X133076900Y-101168913D01*
X133076900Y-101168909D01*
X133043647Y-100958961D01*
X133043646Y-100958957D01*
X132977957Y-100756788D01*
X132881451Y-100567384D01*
X132881449Y-100567380D01*
X132756508Y-100395413D01*
X132756506Y-100395411D01*
X132756504Y-100395408D01*
X132606192Y-100245096D01*
X132606188Y-100245093D01*
X132606186Y-100245091D01*
X132434219Y-100120150D01*
X132434215Y-100120148D01*
X132403304Y-100104398D01*
X132381736Y-100093409D01*
X132338473Y-100050146D01*
X132328901Y-99989714D01*
X132356678Y-99935197D01*
X132381735Y-99916991D01*
X132434216Y-99890251D01*
X132606192Y-99765304D01*
X132756504Y-99614992D01*
X132881451Y-99443016D01*
X132977957Y-99253612D01*
X133043646Y-99051443D01*
X133076900Y-98841487D01*
X133076900Y-98628913D01*
X133076900Y-98628909D01*
X133043647Y-98418961D01*
X133009044Y-98312465D01*
X132977957Y-98216788D01*
X132881451Y-98027384D01*
X132881449Y-98027380D01*
X132756508Y-97855413D01*
X132756506Y-97855411D01*
X132756504Y-97855408D01*
X132606192Y-97705096D01*
X132606188Y-97705093D01*
X132606186Y-97705091D01*
X132434219Y-97580150D01*
X132434215Y-97580148D01*
X132403304Y-97564398D01*
X132381736Y-97553409D01*
X132338473Y-97510146D01*
X132328901Y-97449714D01*
X132356678Y-97395197D01*
X132381735Y-97376991D01*
X132434216Y-97350251D01*
X132606192Y-97225304D01*
X132756504Y-97074992D01*
X132881451Y-96903016D01*
X132977957Y-96713612D01*
X133043646Y-96511443D01*
X133076900Y-96301487D01*
X133076900Y-96088913D01*
X133076900Y-96088909D01*
X133043647Y-95878961D01*
X133026702Y-95826810D01*
X132977957Y-95676788D01*
X132881451Y-95487384D01*
X132881449Y-95487380D01*
X132756508Y-95315413D01*
X132756506Y-95315411D01*
X132756504Y-95315408D01*
X132606192Y-95165096D01*
X132606188Y-95165093D01*
X132606186Y-95165091D01*
X132434219Y-95040150D01*
X132434215Y-95040148D01*
X132403304Y-95024398D01*
X132381736Y-95013409D01*
X132338473Y-94970146D01*
X132328901Y-94909714D01*
X132356678Y-94855197D01*
X132381735Y-94836991D01*
X132434216Y-94810251D01*
X132606192Y-94685304D01*
X132756504Y-94534992D01*
X132881451Y-94363016D01*
X132977957Y-94173612D01*
X133043646Y-93971443D01*
X133076900Y-93761487D01*
X133076900Y-93548913D01*
X133076900Y-93548909D01*
X133043647Y-93338961D01*
X133005843Y-93222613D01*
X132977957Y-93136788D01*
X132881451Y-92947384D01*
X132881449Y-92947380D01*
X132756508Y-92775413D01*
X132756506Y-92775411D01*
X132756504Y-92775408D01*
X132606192Y-92625096D01*
X132606188Y-92625093D01*
X132606186Y-92625091D01*
X132434219Y-92500150D01*
X132434215Y-92500148D01*
X132403304Y-92484398D01*
X132381736Y-92473409D01*
X132338473Y-92430146D01*
X132328901Y-92369714D01*
X132356678Y-92315197D01*
X132381735Y-92296991D01*
X132434216Y-92270251D01*
X132606192Y-92145304D01*
X132756504Y-91994992D01*
X132881451Y-91823016D01*
X132977957Y-91633612D01*
X133043646Y-91431443D01*
X133076900Y-91221487D01*
X133076900Y-91008913D01*
X133076900Y-91008909D01*
X133043647Y-90798961D01*
X133005843Y-90682613D01*
X132977957Y-90596788D01*
X132881451Y-90407384D01*
X132881449Y-90407380D01*
X132756508Y-90235413D01*
X132756506Y-90235411D01*
X132756504Y-90235408D01*
X132606192Y-90085096D01*
X132606188Y-90085093D01*
X132606186Y-90085091D01*
X132434219Y-89960150D01*
X132434215Y-89960148D01*
X132403304Y-89944398D01*
X132381736Y-89933409D01*
X132338473Y-89890146D01*
X132328901Y-89829714D01*
X132356678Y-89775197D01*
X132381735Y-89756991D01*
X132434216Y-89730251D01*
X132606192Y-89605304D01*
X132756504Y-89454992D01*
X132881451Y-89283016D01*
X132977957Y-89093612D01*
X133043646Y-88891443D01*
X133076900Y-88681487D01*
X133076900Y-88468913D01*
X133076900Y-88468909D01*
X133043647Y-88258961D01*
X133005843Y-88142613D01*
X132977957Y-88056788D01*
X132881451Y-87867384D01*
X132881449Y-87867380D01*
X132756508Y-87695413D01*
X132756506Y-87695411D01*
X132756504Y-87695408D01*
X132606192Y-87545096D01*
X132606188Y-87545093D01*
X132606186Y-87545091D01*
X132434219Y-87420150D01*
X132434215Y-87420148D01*
X132403304Y-87404398D01*
X132381736Y-87393409D01*
X132338473Y-87350146D01*
X132328901Y-87289714D01*
X132356678Y-87235197D01*
X132381735Y-87216991D01*
X132434216Y-87190251D01*
X132606192Y-87065304D01*
X132756504Y-86914992D01*
X132881451Y-86743016D01*
X132977957Y-86553612D01*
X133043646Y-86351443D01*
X133076900Y-86141487D01*
X133076900Y-85928913D01*
X133076900Y-85928909D01*
X133043647Y-85718961D01*
X133043646Y-85718957D01*
X132977957Y-85516788D01*
X132881451Y-85327384D01*
X132881449Y-85327380D01*
X132756508Y-85155413D01*
X132756506Y-85155411D01*
X132756504Y-85155408D01*
X132606192Y-85005096D01*
X132606188Y-85005093D01*
X132606186Y-85005091D01*
X132434219Y-84880150D01*
X132434215Y-84880148D01*
X132403304Y-84864398D01*
X132381736Y-84853409D01*
X132338473Y-84810146D01*
X132328901Y-84749714D01*
X132356678Y-84695197D01*
X132381735Y-84676991D01*
X132434216Y-84650251D01*
X132606192Y-84525304D01*
X132756504Y-84374992D01*
X132881451Y-84203016D01*
X132977957Y-84013612D01*
X133043646Y-83811443D01*
X133058913Y-83715051D01*
X133076900Y-83601490D01*
X133076900Y-83388909D01*
X133043647Y-83178961D01*
X133043646Y-83178957D01*
X132977957Y-82976788D01*
X132881451Y-82787384D01*
X132881449Y-82787380D01*
X132756508Y-82615413D01*
X132756506Y-82615411D01*
X132756504Y-82615408D01*
X132606192Y-82465096D01*
X132606188Y-82465093D01*
X132606186Y-82465091D01*
X132434219Y-82340150D01*
X132434215Y-82340148D01*
X132403304Y-82324398D01*
X132381736Y-82313409D01*
X132338473Y-82270146D01*
X132328901Y-82209714D01*
X132356678Y-82155197D01*
X132381735Y-82136991D01*
X132434216Y-82110251D01*
X132606192Y-81985304D01*
X132756504Y-81834992D01*
X132881451Y-81663016D01*
X132977957Y-81473612D01*
X133043646Y-81271443D01*
X133043647Y-81271438D01*
X133076900Y-81061490D01*
X133076900Y-80848909D01*
X133043647Y-80638961D01*
X133043646Y-80638957D01*
X132977957Y-80436788D01*
X132881451Y-80247384D01*
X132881449Y-80247380D01*
X132756508Y-80075413D01*
X132756506Y-80075411D01*
X132756504Y-80075408D01*
X132606192Y-79925096D01*
X132606188Y-79925093D01*
X132606186Y-79925091D01*
X132434219Y-79800150D01*
X132434215Y-79800148D01*
X132403304Y-79784398D01*
X132381736Y-79773409D01*
X132338473Y-79730146D01*
X132328901Y-79669714D01*
X132356678Y-79615197D01*
X132381735Y-79596991D01*
X132434216Y-79570251D01*
X132438818Y-79566908D01*
X132528723Y-79501588D01*
X132606192Y-79445304D01*
X132756504Y-79294992D01*
X132881451Y-79123016D01*
X132977957Y-78933612D01*
X133043646Y-78731443D01*
X133043647Y-78731438D01*
X133076900Y-78521490D01*
X133076900Y-78308909D01*
X133043647Y-78098961D01*
X133017467Y-78018387D01*
X132977957Y-77896788D01*
X132881451Y-77707384D01*
X132881449Y-77707380D01*
X132756508Y-77535413D01*
X132756506Y-77535411D01*
X132756504Y-77535408D01*
X132606192Y-77385096D01*
X132606188Y-77385093D01*
X132606186Y-77385091D01*
X132434219Y-77260150D01*
X132434215Y-77260148D01*
X132403304Y-77244398D01*
X132381736Y-77233409D01*
X132338473Y-77190146D01*
X132328901Y-77129714D01*
X132356678Y-77075197D01*
X132381735Y-77056991D01*
X132434216Y-77030251D01*
X132438818Y-77026908D01*
X132528723Y-76961588D01*
X132606192Y-76905304D01*
X132756504Y-76754992D01*
X132881451Y-76583016D01*
X132977957Y-76393612D01*
X133043646Y-76191443D01*
X133057640Y-76103090D01*
X133076900Y-75981490D01*
X133076900Y-75768909D01*
X133043647Y-75558961D01*
X133004994Y-75440000D01*
X132977957Y-75356788D01*
X132881451Y-75167384D01*
X132881449Y-75167380D01*
X132756508Y-74995413D01*
X132756506Y-74995411D01*
X132756504Y-74995408D01*
X132606192Y-74845096D01*
X132606188Y-74845093D01*
X132606186Y-74845091D01*
X132434219Y-74720150D01*
X132434215Y-74720148D01*
X132244812Y-74623643D01*
X132042638Y-74557952D01*
X131988216Y-74549333D01*
X131933699Y-74521555D01*
X131905922Y-74467039D01*
X131915493Y-74406607D01*
X131958758Y-74363342D01*
X131984390Y-74354454D01*
X132032671Y-74344850D01*
X132223760Y-74265698D01*
X132223766Y-74265695D01*
X132395733Y-74150791D01*
X132398150Y-74148373D01*
X132002766Y-73752989D01*
X132033407Y-73735299D01*
X132126499Y-73642207D01*
X132144189Y-73611566D01*
X132539573Y-74006950D01*
X132541991Y-74004533D01*
X132656895Y-73832566D01*
X132656898Y-73832560D01*
X132736050Y-73641472D01*
X132776399Y-73438618D01*
X132776400Y-73438613D01*
X132776400Y-73231784D01*
X132776399Y-73231782D01*
X132775828Y-73228909D01*
X157145900Y-73228909D01*
X157145900Y-73441490D01*
X157179152Y-73651438D01*
X157244843Y-73853612D01*
X157341348Y-74043015D01*
X157341350Y-74043019D01*
X157466291Y-74214986D01*
X157466293Y-74214988D01*
X157466296Y-74214992D01*
X157616608Y-74365304D01*
X157616611Y-74365306D01*
X157616613Y-74365308D01*
X157788580Y-74490249D01*
X157788584Y-74490251D01*
X157841062Y-74516990D01*
X157884327Y-74560255D01*
X157893898Y-74620687D01*
X157866120Y-74675204D01*
X157841062Y-74693410D01*
X157788584Y-74720148D01*
X157788580Y-74720150D01*
X157616613Y-74845091D01*
X157466291Y-74995413D01*
X157341350Y-75167380D01*
X157341348Y-75167384D01*
X157244843Y-75356787D01*
X157179152Y-75558961D01*
X157145900Y-75768909D01*
X157145900Y-75981490D01*
X157179152Y-76191438D01*
X157244843Y-76393612D01*
X157341348Y-76583015D01*
X157341350Y-76583019D01*
X157466291Y-76754986D01*
X157466293Y-76754988D01*
X157466296Y-76754992D01*
X157616608Y-76905304D01*
X157616611Y-76905306D01*
X157616613Y-76905308D01*
X157788580Y-77030249D01*
X157788584Y-77030251D01*
X157841062Y-77056990D01*
X157884327Y-77100255D01*
X157893898Y-77160687D01*
X157866120Y-77215204D01*
X157841062Y-77233410D01*
X157788584Y-77260148D01*
X157788580Y-77260150D01*
X157616613Y-77385091D01*
X157466291Y-77535413D01*
X157341350Y-77707380D01*
X157341348Y-77707384D01*
X157244843Y-77896787D01*
X157179152Y-78098961D01*
X157145900Y-78308909D01*
X157145900Y-78521490D01*
X157179152Y-78731438D01*
X157244843Y-78933612D01*
X157341348Y-79123015D01*
X157341350Y-79123019D01*
X157466291Y-79294986D01*
X157466293Y-79294988D01*
X157466296Y-79294992D01*
X157616608Y-79445304D01*
X157616611Y-79445306D01*
X157616613Y-79445308D01*
X157788580Y-79570249D01*
X157788584Y-79570251D01*
X157841062Y-79596990D01*
X157884327Y-79640255D01*
X157893898Y-79700687D01*
X157866120Y-79755204D01*
X157841062Y-79773410D01*
X157788584Y-79800148D01*
X157788580Y-79800150D01*
X157616613Y-79925091D01*
X157466291Y-80075413D01*
X157341350Y-80247380D01*
X157341348Y-80247384D01*
X157244843Y-80436787D01*
X157179152Y-80638961D01*
X157145900Y-80848909D01*
X157145900Y-81061490D01*
X157179152Y-81271438D01*
X157244843Y-81473612D01*
X157341348Y-81663015D01*
X157341350Y-81663019D01*
X157466291Y-81834986D01*
X157466293Y-81834988D01*
X157466296Y-81834992D01*
X157616608Y-81985304D01*
X157616611Y-81985306D01*
X157616613Y-81985308D01*
X157788580Y-82110249D01*
X157788584Y-82110251D01*
X157841062Y-82136990D01*
X157884327Y-82180255D01*
X157893898Y-82240687D01*
X157866120Y-82295204D01*
X157841062Y-82313410D01*
X157788584Y-82340148D01*
X157788580Y-82340150D01*
X157616613Y-82465091D01*
X157466291Y-82615413D01*
X157341350Y-82787380D01*
X157341348Y-82787384D01*
X157244843Y-82976787D01*
X157179152Y-83178961D01*
X157145900Y-83388909D01*
X157145900Y-83601490D01*
X157179152Y-83811438D01*
X157244843Y-84013612D01*
X157341348Y-84203015D01*
X157341350Y-84203019D01*
X157466291Y-84374986D01*
X157466293Y-84374988D01*
X157466296Y-84374992D01*
X157616608Y-84525304D01*
X157616611Y-84525306D01*
X157616613Y-84525308D01*
X157788580Y-84650249D01*
X157788584Y-84650251D01*
X157841062Y-84676990D01*
X157884327Y-84720255D01*
X157893898Y-84780687D01*
X157866120Y-84835204D01*
X157841062Y-84853410D01*
X157788584Y-84880148D01*
X157788580Y-84880150D01*
X157616613Y-85005091D01*
X157466291Y-85155413D01*
X157341350Y-85327380D01*
X157341348Y-85327384D01*
X157244843Y-85516787D01*
X157179152Y-85718961D01*
X157145900Y-85928909D01*
X157145900Y-86141490D01*
X157179152Y-86351438D01*
X157244843Y-86553612D01*
X157341348Y-86743015D01*
X157341350Y-86743019D01*
X157466291Y-86914986D01*
X157466293Y-86914988D01*
X157466296Y-86914992D01*
X157616608Y-87065304D01*
X157616611Y-87065306D01*
X157616613Y-87065308D01*
X157788580Y-87190249D01*
X157788584Y-87190251D01*
X157841062Y-87216990D01*
X157884327Y-87260255D01*
X157893898Y-87320687D01*
X157866120Y-87375204D01*
X157841062Y-87393410D01*
X157788584Y-87420148D01*
X157788580Y-87420150D01*
X157616613Y-87545091D01*
X157466291Y-87695413D01*
X157341350Y-87867380D01*
X157341348Y-87867384D01*
X157244843Y-88056787D01*
X157179152Y-88258961D01*
X157145900Y-88468909D01*
X157145900Y-88681490D01*
X157179152Y-88891438D01*
X157244843Y-89093612D01*
X157341348Y-89283015D01*
X157341350Y-89283019D01*
X157466291Y-89454986D01*
X157466293Y-89454988D01*
X157466296Y-89454992D01*
X157616608Y-89605304D01*
X157616611Y-89605306D01*
X157616613Y-89605308D01*
X157788580Y-89730249D01*
X157788584Y-89730251D01*
X157841062Y-89756990D01*
X157884327Y-89800255D01*
X157893898Y-89860687D01*
X157866120Y-89915204D01*
X157841062Y-89933410D01*
X157788584Y-89960148D01*
X157788580Y-89960150D01*
X157616613Y-90085091D01*
X157466291Y-90235413D01*
X157341350Y-90407380D01*
X157341348Y-90407384D01*
X157244843Y-90596787D01*
X157179152Y-90798961D01*
X157145900Y-91008909D01*
X157145900Y-91221490D01*
X157179152Y-91431438D01*
X157244843Y-91633612D01*
X157341348Y-91823015D01*
X157341350Y-91823019D01*
X157466291Y-91994986D01*
X157466293Y-91994988D01*
X157466296Y-91994992D01*
X157616608Y-92145304D01*
X157616611Y-92145306D01*
X157616613Y-92145308D01*
X157788580Y-92270249D01*
X157788584Y-92270251D01*
X157841062Y-92296990D01*
X157884327Y-92340255D01*
X157893898Y-92400687D01*
X157866120Y-92455204D01*
X157841062Y-92473410D01*
X157788584Y-92500148D01*
X157788580Y-92500150D01*
X157616613Y-92625091D01*
X157466291Y-92775413D01*
X157341350Y-92947380D01*
X157341348Y-92947384D01*
X157244843Y-93136787D01*
X157179152Y-93338961D01*
X157145900Y-93548909D01*
X157145900Y-93761490D01*
X157179152Y-93971438D01*
X157244843Y-94173612D01*
X157341348Y-94363015D01*
X157341350Y-94363019D01*
X157466291Y-94534986D01*
X157466293Y-94534988D01*
X157466296Y-94534992D01*
X157616608Y-94685304D01*
X157616611Y-94685306D01*
X157616613Y-94685308D01*
X157788580Y-94810249D01*
X157788584Y-94810251D01*
X157841062Y-94836990D01*
X157884327Y-94880255D01*
X157893898Y-94940687D01*
X157866120Y-94995204D01*
X157841062Y-95013410D01*
X157788584Y-95040148D01*
X157788580Y-95040150D01*
X157616613Y-95165091D01*
X157466291Y-95315413D01*
X157341350Y-95487380D01*
X157341348Y-95487384D01*
X157244843Y-95676787D01*
X157179152Y-95878961D01*
X157145900Y-96088909D01*
X157145900Y-96301490D01*
X157179152Y-96511438D01*
X157244843Y-96713612D01*
X157341348Y-96903015D01*
X157341350Y-96903019D01*
X157466291Y-97074986D01*
X157466293Y-97074988D01*
X157466296Y-97074992D01*
X157616608Y-97225304D01*
X157616611Y-97225306D01*
X157616613Y-97225308D01*
X157788580Y-97350249D01*
X157788584Y-97350251D01*
X157841062Y-97376990D01*
X157884327Y-97420255D01*
X157893898Y-97480687D01*
X157866120Y-97535204D01*
X157841062Y-97553410D01*
X157788584Y-97580148D01*
X157788580Y-97580150D01*
X157616613Y-97705091D01*
X157466291Y-97855413D01*
X157341350Y-98027380D01*
X157341348Y-98027384D01*
X157244843Y-98216787D01*
X157179152Y-98418961D01*
X157145900Y-98628909D01*
X157145900Y-98841490D01*
X157179152Y-99051438D01*
X157244843Y-99253612D01*
X157341348Y-99443015D01*
X157341350Y-99443019D01*
X157466291Y-99614986D01*
X157466293Y-99614988D01*
X157466296Y-99614992D01*
X157616608Y-99765304D01*
X157616611Y-99765306D01*
X157616613Y-99765308D01*
X157788580Y-99890249D01*
X157788584Y-99890251D01*
X157841062Y-99916990D01*
X157884327Y-99960255D01*
X157893898Y-100020687D01*
X157866120Y-100075204D01*
X157841062Y-100093410D01*
X157788584Y-100120148D01*
X157788580Y-100120150D01*
X157616613Y-100245091D01*
X157466291Y-100395413D01*
X157341350Y-100567380D01*
X157341348Y-100567384D01*
X157244843Y-100756787D01*
X157179152Y-100958961D01*
X157145900Y-101168909D01*
X157145900Y-101381490D01*
X157179152Y-101591438D01*
X157244843Y-101793612D01*
X157341348Y-101983015D01*
X157341350Y-101983019D01*
X157466291Y-102154986D01*
X157466293Y-102154988D01*
X157466296Y-102154992D01*
X157616608Y-102305304D01*
X157616611Y-102305306D01*
X157616613Y-102305308D01*
X157788580Y-102430249D01*
X157788584Y-102430251D01*
X157841062Y-102456990D01*
X157884327Y-102500255D01*
X157893898Y-102560687D01*
X157866120Y-102615204D01*
X157841062Y-102633410D01*
X157788584Y-102660148D01*
X157788580Y-102660150D01*
X157616613Y-102785091D01*
X157466291Y-102935413D01*
X157341350Y-103107380D01*
X157341348Y-103107384D01*
X157244843Y-103296787D01*
X157179152Y-103498961D01*
X157145900Y-103708909D01*
X157145900Y-103921490D01*
X157179152Y-104131438D01*
X157244843Y-104333612D01*
X157341348Y-104523015D01*
X157341350Y-104523019D01*
X157466291Y-104694986D01*
X157466293Y-104694988D01*
X157466296Y-104694992D01*
X157616608Y-104845304D01*
X157616611Y-104845306D01*
X157616613Y-104845308D01*
X157788580Y-104970249D01*
X157788584Y-104970251D01*
X157841062Y-104996990D01*
X157884327Y-105040255D01*
X157893898Y-105100687D01*
X157866120Y-105155204D01*
X157841062Y-105173410D01*
X157788584Y-105200148D01*
X157788580Y-105200150D01*
X157616613Y-105325091D01*
X157466291Y-105475413D01*
X157341350Y-105647380D01*
X157341348Y-105647384D01*
X157244843Y-105836787D01*
X157179152Y-106038961D01*
X157145900Y-106248909D01*
X157145900Y-106461490D01*
X157179152Y-106671438D01*
X157244843Y-106873612D01*
X157341348Y-107063015D01*
X157341350Y-107063019D01*
X157466291Y-107234986D01*
X157466293Y-107234988D01*
X157466296Y-107234992D01*
X157616608Y-107385304D01*
X157616611Y-107385306D01*
X157616613Y-107385308D01*
X157788580Y-107510249D01*
X157788584Y-107510251D01*
X157841062Y-107536990D01*
X157884327Y-107580255D01*
X157893898Y-107640687D01*
X157866120Y-107695204D01*
X157841062Y-107713410D01*
X157788584Y-107740148D01*
X157788580Y-107740150D01*
X157616613Y-107865091D01*
X157466291Y-108015413D01*
X157341350Y-108187380D01*
X157341348Y-108187384D01*
X157244843Y-108376787D01*
X157179152Y-108578961D01*
X157145900Y-108788909D01*
X157145900Y-109001490D01*
X157179152Y-109211438D01*
X157244843Y-109413612D01*
X157341348Y-109603015D01*
X157341350Y-109603019D01*
X157466291Y-109774986D01*
X157466293Y-109774988D01*
X157466296Y-109774992D01*
X157616608Y-109925304D01*
X157616611Y-109925306D01*
X157616613Y-109925308D01*
X157788580Y-110050249D01*
X157788584Y-110050251D01*
X157841062Y-110076990D01*
X157884327Y-110120255D01*
X157893898Y-110180687D01*
X157866120Y-110235204D01*
X157841062Y-110253410D01*
X157788584Y-110280148D01*
X157788580Y-110280150D01*
X157616613Y-110405091D01*
X157466291Y-110555413D01*
X157341350Y-110727380D01*
X157341348Y-110727384D01*
X157244843Y-110916787D01*
X157179152Y-111118961D01*
X157145900Y-111328909D01*
X157145900Y-111541490D01*
X157179152Y-111751438D01*
X157244843Y-111953612D01*
X157341348Y-112143015D01*
X157341350Y-112143019D01*
X157466291Y-112314986D01*
X157466293Y-112314988D01*
X157466296Y-112314992D01*
X157616608Y-112465304D01*
X157616611Y-112465306D01*
X157616613Y-112465308D01*
X157788580Y-112590249D01*
X157788584Y-112590251D01*
X157841062Y-112616990D01*
X157884327Y-112660255D01*
X157893898Y-112720687D01*
X157866120Y-112775204D01*
X157841062Y-112793410D01*
X157788584Y-112820148D01*
X157788580Y-112820150D01*
X157616613Y-112945091D01*
X157466291Y-113095413D01*
X157341350Y-113267380D01*
X157341348Y-113267384D01*
X157244843Y-113456787D01*
X157179152Y-113658961D01*
X157145900Y-113868909D01*
X157145900Y-114081490D01*
X157179152Y-114291438D01*
X157244843Y-114493612D01*
X157341348Y-114683015D01*
X157341350Y-114683019D01*
X157466291Y-114854986D01*
X157466293Y-114854988D01*
X157466296Y-114854992D01*
X157616608Y-115005304D01*
X157616611Y-115005306D01*
X157616613Y-115005308D01*
X157788580Y-115130249D01*
X157788584Y-115130251D01*
X157841062Y-115156990D01*
X157884327Y-115200255D01*
X157893898Y-115260687D01*
X157866120Y-115315204D01*
X157841062Y-115333410D01*
X157788584Y-115360148D01*
X157788580Y-115360150D01*
X157616613Y-115485091D01*
X157466291Y-115635413D01*
X157341350Y-115807380D01*
X157341348Y-115807384D01*
X157244843Y-115996787D01*
X157179152Y-116198961D01*
X157145900Y-116408909D01*
X157145900Y-116621490D01*
X157179152Y-116831438D01*
X157244843Y-117033612D01*
X157341348Y-117223015D01*
X157341350Y-117223019D01*
X157466291Y-117394986D01*
X157466293Y-117394988D01*
X157466296Y-117394992D01*
X157616608Y-117545304D01*
X157616611Y-117545306D01*
X157616613Y-117545308D01*
X157788580Y-117670249D01*
X157788584Y-117670251D01*
X157841062Y-117696990D01*
X157884327Y-117740255D01*
X157893898Y-117800687D01*
X157866120Y-117855204D01*
X157841062Y-117873410D01*
X157788584Y-117900148D01*
X157788580Y-117900150D01*
X157616613Y-118025091D01*
X157466291Y-118175413D01*
X157341350Y-118347380D01*
X157341348Y-118347384D01*
X157244843Y-118536787D01*
X157179152Y-118738961D01*
X157145900Y-118948909D01*
X157145900Y-119161490D01*
X157179152Y-119371438D01*
X157244843Y-119573612D01*
X157341348Y-119763015D01*
X157341350Y-119763019D01*
X157466291Y-119934986D01*
X157466293Y-119934988D01*
X157466296Y-119934992D01*
X157616608Y-120085304D01*
X157616611Y-120085306D01*
X157616613Y-120085308D01*
X157788580Y-120210249D01*
X157788584Y-120210251D01*
X157841062Y-120236990D01*
X157884327Y-120280255D01*
X157893898Y-120340687D01*
X157866120Y-120395204D01*
X157841062Y-120413410D01*
X157788584Y-120440148D01*
X157788580Y-120440150D01*
X157616613Y-120565091D01*
X157466291Y-120715413D01*
X157341350Y-120887380D01*
X157341348Y-120887384D01*
X157244843Y-121076787D01*
X157179152Y-121278961D01*
X157145900Y-121488909D01*
X157145900Y-121701490D01*
X157179152Y-121911438D01*
X157244843Y-122113612D01*
X157341348Y-122303015D01*
X157341350Y-122303019D01*
X157466291Y-122474986D01*
X157466292Y-122474987D01*
X157466296Y-122474992D01*
X157612460Y-122621156D01*
X157640236Y-122675671D01*
X157630665Y-122736103D01*
X157587400Y-122779368D01*
X157553037Y-122789591D01*
X157538917Y-122791109D01*
X157538914Y-122791109D01*
X157404070Y-122841402D01*
X157288858Y-122927650D01*
X157288850Y-122927658D01*
X157202602Y-123042870D01*
X157152310Y-123177711D01*
X157152309Y-123177717D01*
X157146675Y-123230124D01*
X157145900Y-123237329D01*
X157145900Y-125033066D01*
X157145901Y-125033070D01*
X157152308Y-125092680D01*
X157152309Y-125092685D01*
X157202602Y-125227529D01*
X157264725Y-125310514D01*
X157288854Y-125342746D01*
X157288857Y-125342748D01*
X157288858Y-125342749D01*
X157404070Y-125428997D01*
X157538911Y-125479289D01*
X157538912Y-125479289D01*
X157538917Y-125479291D01*
X157598527Y-125485700D01*
X159394272Y-125485699D01*
X159453883Y-125479291D01*
X159579712Y-125432360D01*
X159588729Y-125428997D01*
X159588729Y-125428996D01*
X159588731Y-125428996D01*
X159703946Y-125342746D01*
X159790196Y-125227531D01*
X159805518Y-125186452D01*
X159840489Y-125092688D01*
X159840490Y-125092685D01*
X159840491Y-125092683D01*
X159846900Y-125033073D01*
X159846899Y-123237328D01*
X159846125Y-123230126D01*
X176131300Y-123230126D01*
X176131300Y-123505474D01*
X176167240Y-123778466D01*
X176206053Y-123923321D01*
X176238504Y-124044431D01*
X176343874Y-124298816D01*
X176481553Y-124537282D01*
X176534436Y-124606200D01*
X176649172Y-124755728D01*
X176843872Y-124950428D01*
X177062321Y-125118049D01*
X177300779Y-125255723D01*
X177300780Y-125255723D01*
X177300783Y-125255725D01*
X177433055Y-125310514D01*
X177555168Y-125361095D01*
X177821134Y-125432360D01*
X178094126Y-125468300D01*
X178094127Y-125468300D01*
X178369473Y-125468300D01*
X178369474Y-125468300D01*
X178642466Y-125432360D01*
X178908432Y-125361095D01*
X179162821Y-125255723D01*
X179401279Y-125118049D01*
X179619728Y-124950428D01*
X179814428Y-124755728D01*
X179982049Y-124537279D01*
X180119723Y-124298821D01*
X180225095Y-124044432D01*
X180296360Y-123778466D01*
X180332300Y-123505474D01*
X180332300Y-123230126D01*
X180296360Y-122957134D01*
X180225095Y-122691168D01*
X180218676Y-122675671D01*
X180119725Y-122436783D01*
X180119723Y-122436779D01*
X179982049Y-122198321D01*
X179814428Y-121979872D01*
X179802339Y-121967783D01*
X191371300Y-121967783D01*
X191371300Y-124767816D01*
X191381799Y-124870588D01*
X191381800Y-124870595D01*
X191381801Y-124870597D01*
X191435640Y-125033073D01*
X191436987Y-125037136D01*
X191529085Y-125186452D01*
X191529086Y-125186453D01*
X191529088Y-125186456D01*
X191653144Y-125310512D01*
X191802466Y-125402614D01*
X191969003Y-125457799D01*
X192071791Y-125468300D01*
X194871808Y-125468299D01*
X194871816Y-125468299D01*
X194974588Y-125457800D01*
X194974588Y-125457799D01*
X194974597Y-125457799D01*
X195141134Y-125402614D01*
X195290456Y-125310512D01*
X195414512Y-125186456D01*
X195506614Y-125037134D01*
X195561799Y-124870597D01*
X195572300Y-124767809D01*
X195572299Y-121967792D01*
X195572299Y-121967791D01*
X195572299Y-121967783D01*
X195561800Y-121865011D01*
X195561799Y-121865009D01*
X195561799Y-121865003D01*
X195506614Y-121698466D01*
X195414512Y-121549144D01*
X195290456Y-121425088D01*
X195290453Y-121425086D01*
X195290452Y-121425085D01*
X195141136Y-121332987D01*
X195141135Y-121332986D01*
X195141134Y-121332986D01*
X194974597Y-121277801D01*
X194974594Y-121277800D01*
X194871816Y-121267300D01*
X192071783Y-121267300D01*
X191969011Y-121277799D01*
X191968999Y-121277802D01*
X191802463Y-121332987D01*
X191653147Y-121425085D01*
X191529085Y-121549147D01*
X191436987Y-121698463D01*
X191381800Y-121865005D01*
X191371300Y-121967783D01*
X179802339Y-121967783D01*
X179619728Y-121785172D01*
X179401279Y-121617551D01*
X179162821Y-121479877D01*
X179162816Y-121479874D01*
X178908431Y-121374504D01*
X178787321Y-121342053D01*
X178642466Y-121303240D01*
X178642459Y-121303239D01*
X178369475Y-121267300D01*
X178369474Y-121267300D01*
X178094126Y-121267300D01*
X178094124Y-121267300D01*
X177821140Y-121303239D01*
X177821138Y-121303239D01*
X177821134Y-121303240D01*
X177720605Y-121330176D01*
X177555168Y-121374504D01*
X177300783Y-121479874D01*
X177062317Y-121617553D01*
X176843875Y-121785169D01*
X176649169Y-121979875D01*
X176481553Y-122198317D01*
X176343874Y-122436783D01*
X176238504Y-122691168D01*
X176196815Y-122846757D01*
X176167240Y-122957134D01*
X176167239Y-122957138D01*
X176167239Y-122957140D01*
X176138201Y-123177711D01*
X176131300Y-123230126D01*
X159846125Y-123230126D01*
X159840491Y-123177717D01*
X159810312Y-123096803D01*
X159790197Y-123042870D01*
X159703949Y-122927658D01*
X159703948Y-122927657D01*
X159703946Y-122927654D01*
X159595882Y-122846757D01*
X159588729Y-122841402D01*
X159453888Y-122791110D01*
X159453871Y-122791106D01*
X159439758Y-122789589D01*
X159383923Y-122764568D01*
X159353459Y-122711506D01*
X159360002Y-122650671D01*
X159380339Y-122621156D01*
X159526504Y-122474992D01*
X159651451Y-122303016D01*
X159747957Y-122113612D01*
X159813646Y-121911443D01*
X159821001Y-121865005D01*
X159846900Y-121701490D01*
X159846900Y-121488909D01*
X159813647Y-121278961D01*
X159813646Y-121278957D01*
X159747957Y-121076788D01*
X159651451Y-120887384D01*
X159651449Y-120887380D01*
X159526508Y-120715413D01*
X159526506Y-120715411D01*
X159526504Y-120715408D01*
X159376192Y-120565096D01*
X159376188Y-120565093D01*
X159376186Y-120565091D01*
X159204219Y-120440150D01*
X159204215Y-120440148D01*
X159173304Y-120424398D01*
X159151736Y-120413409D01*
X159108473Y-120370146D01*
X159098901Y-120309714D01*
X159126678Y-120255197D01*
X159151735Y-120236991D01*
X159204216Y-120210251D01*
X159376192Y-120085304D01*
X159526504Y-119934992D01*
X159651451Y-119763016D01*
X159747957Y-119573612D01*
X159813646Y-119371443D01*
X159846900Y-119161487D01*
X159846900Y-118948913D01*
X159846900Y-118948909D01*
X159813647Y-118738961D01*
X159813646Y-118738957D01*
X159747957Y-118536788D01*
X159651451Y-118347384D01*
X159651449Y-118347380D01*
X159526508Y-118175413D01*
X159526506Y-118175411D01*
X159526504Y-118175408D01*
X159376192Y-118025096D01*
X159376188Y-118025093D01*
X159376186Y-118025091D01*
X159204219Y-117900150D01*
X159204215Y-117900148D01*
X159173304Y-117884398D01*
X159151736Y-117873409D01*
X159108473Y-117830146D01*
X159098901Y-117769714D01*
X159126678Y-117715197D01*
X159151735Y-117696991D01*
X159204216Y-117670251D01*
X159242165Y-117642680D01*
X159376186Y-117545308D01*
X159376192Y-117545304D01*
X159526504Y-117394992D01*
X159650659Y-117224106D01*
X164354513Y-117224106D01*
X164354513Y-117421093D01*
X164392942Y-117614288D01*
X164392942Y-117614290D01*
X164468322Y-117796275D01*
X164468325Y-117796281D01*
X164576905Y-117958782D01*
X165009927Y-117525760D01*
X165034433Y-117568206D01*
X165108907Y-117642680D01*
X165151349Y-117667184D01*
X164718329Y-118100205D01*
X164880837Y-118208790D01*
X165062823Y-118284170D01*
X165256019Y-118322599D01*
X165256023Y-118322600D01*
X165453003Y-118322600D01*
X165453006Y-118322599D01*
X165646201Y-118284170D01*
X165646203Y-118284170D01*
X165828188Y-118208790D01*
X165990695Y-118100205D01*
X165557674Y-117667184D01*
X165600119Y-117642680D01*
X165674593Y-117568206D01*
X165699097Y-117525761D01*
X166132118Y-117958782D01*
X166240703Y-117796275D01*
X166316083Y-117614290D01*
X166316083Y-117614288D01*
X166354512Y-117421093D01*
X166354513Y-117421090D01*
X166354513Y-117224109D01*
X166354512Y-117224106D01*
X166316083Y-117030911D01*
X166316083Y-117030909D01*
X166240703Y-116848924D01*
X166191357Y-116775073D01*
X166156284Y-116722583D01*
X166554013Y-116722583D01*
X166554013Y-117922616D01*
X166564512Y-118025388D01*
X166564513Y-118025395D01*
X166564514Y-118025397D01*
X166614224Y-118175413D01*
X166619700Y-118191936D01*
X166711798Y-118341252D01*
X166711799Y-118341253D01*
X166711801Y-118341256D01*
X166835857Y-118465312D01*
X166985179Y-118557414D01*
X167151716Y-118612599D01*
X167254504Y-118623100D01*
X168454521Y-118623099D01*
X168454529Y-118623099D01*
X168557301Y-118612600D01*
X168557301Y-118612599D01*
X168557310Y-118612599D01*
X168723847Y-118557414D01*
X168873169Y-118465312D01*
X168997225Y-118341256D01*
X169089327Y-118191934D01*
X169144512Y-118025397D01*
X169155013Y-117922609D01*
X169155012Y-116722592D01*
X169155012Y-116722591D01*
X169155012Y-116722583D01*
X169144513Y-116619811D01*
X169144512Y-116619809D01*
X169144512Y-116619803D01*
X169089327Y-116453266D01*
X168997225Y-116303944D01*
X168873169Y-116179888D01*
X168873166Y-116179886D01*
X168873165Y-116179885D01*
X168723849Y-116087787D01*
X168723848Y-116087786D01*
X168723847Y-116087786D01*
X168557310Y-116032601D01*
X168557307Y-116032600D01*
X168454529Y-116022100D01*
X167254496Y-116022100D01*
X167151724Y-116032599D01*
X167151712Y-116032602D01*
X166985176Y-116087787D01*
X166835860Y-116179885D01*
X166711798Y-116303947D01*
X166619700Y-116453263D01*
X166564513Y-116619805D01*
X166554013Y-116722583D01*
X166156284Y-116722583D01*
X166132118Y-116686416D01*
X165699097Y-117119436D01*
X165674593Y-117076994D01*
X165600119Y-117002520D01*
X165557673Y-116978014D01*
X165990696Y-116544992D01*
X165828194Y-116436412D01*
X165828188Y-116436409D01*
X165646202Y-116361029D01*
X165453006Y-116322600D01*
X165256019Y-116322600D01*
X165062824Y-116361029D01*
X165062822Y-116361029D01*
X164880839Y-116436408D01*
X164880827Y-116436414D01*
X164718329Y-116544993D01*
X165151351Y-116978015D01*
X165108907Y-117002520D01*
X165034433Y-117076994D01*
X165009928Y-117119438D01*
X164576906Y-116686416D01*
X164468327Y-116848914D01*
X164468321Y-116848926D01*
X164392942Y-117030909D01*
X164392942Y-117030911D01*
X164354513Y-117224106D01*
X159650659Y-117224106D01*
X159651451Y-117223016D01*
X159747957Y-117033612D01*
X159813646Y-116831443D01*
X159822574Y-116775073D01*
X159846900Y-116621490D01*
X159846900Y-116408909D01*
X159813647Y-116198961D01*
X159807449Y-116179885D01*
X159747957Y-115996788D01*
X159651451Y-115807384D01*
X159651449Y-115807380D01*
X159526508Y-115635413D01*
X159526506Y-115635411D01*
X159526504Y-115635408D01*
X159376192Y-115485096D01*
X159376188Y-115485093D01*
X159376186Y-115485091D01*
X159204219Y-115360150D01*
X159204215Y-115360148D01*
X159173304Y-115344398D01*
X159151736Y-115333409D01*
X159108473Y-115290146D01*
X159098901Y-115229714D01*
X159126678Y-115175197D01*
X159151735Y-115156991D01*
X159204216Y-115130251D01*
X159376192Y-115005304D01*
X159526504Y-114854992D01*
X159651451Y-114683016D01*
X159747957Y-114493612D01*
X159813646Y-114291443D01*
X159846900Y-114081487D01*
X159846900Y-113868913D01*
X159846900Y-113868909D01*
X159813647Y-113658961D01*
X159813646Y-113658957D01*
X159747957Y-113456788D01*
X159651451Y-113267384D01*
X159651449Y-113267380D01*
X159526508Y-113095413D01*
X159526506Y-113095411D01*
X159526504Y-113095408D01*
X159376192Y-112945096D01*
X159376188Y-112945093D01*
X159376186Y-112945091D01*
X159204219Y-112820150D01*
X159204215Y-112820148D01*
X159152695Y-112793898D01*
X159151736Y-112793409D01*
X159108473Y-112750146D01*
X159098901Y-112689714D01*
X159126678Y-112635197D01*
X159151735Y-112616991D01*
X159204216Y-112590251D01*
X159376192Y-112465304D01*
X159526504Y-112314992D01*
X159651451Y-112143016D01*
X159747957Y-111953612D01*
X159813646Y-111751443D01*
X159846900Y-111541487D01*
X159846900Y-111328913D01*
X159846900Y-111328909D01*
X159813647Y-111118961D01*
X159813646Y-111118957D01*
X159747957Y-110916788D01*
X159651451Y-110727384D01*
X159651449Y-110727380D01*
X159526508Y-110555413D01*
X159526506Y-110555411D01*
X159526504Y-110555408D01*
X159376192Y-110405096D01*
X159376188Y-110405093D01*
X159376186Y-110405091D01*
X159204219Y-110280150D01*
X159204215Y-110280148D01*
X159173304Y-110264398D01*
X159151736Y-110253409D01*
X159108473Y-110210146D01*
X159098901Y-110149714D01*
X159126678Y-110095197D01*
X159151735Y-110076991D01*
X159204216Y-110050251D01*
X159376192Y-109925304D01*
X159526504Y-109774992D01*
X159576971Y-109705529D01*
X163329500Y-109705529D01*
X163329500Y-112341266D01*
X163329501Y-112341270D01*
X163335908Y-112400880D01*
X163335909Y-112400885D01*
X163386202Y-112535729D01*
X163460664Y-112635197D01*
X163472454Y-112650946D01*
X163472457Y-112650948D01*
X163472458Y-112650949D01*
X163587670Y-112737197D01*
X163722511Y-112787489D01*
X163722512Y-112787489D01*
X163722517Y-112787491D01*
X163782127Y-112793900D01*
X166417872Y-112793899D01*
X166477483Y-112787491D01*
X166544907Y-112762343D01*
X166612329Y-112737197D01*
X166612329Y-112737196D01*
X166612331Y-112737196D01*
X166727546Y-112650946D01*
X166813796Y-112535731D01*
X166829585Y-112493400D01*
X166864089Y-112400888D01*
X166864090Y-112400885D01*
X166864091Y-112400883D01*
X166870500Y-112341273D01*
X166870499Y-110907704D01*
X181410000Y-110907704D01*
X181410000Y-111139095D01*
X181446194Y-111367621D01*
X181517697Y-111587684D01*
X181622741Y-111793845D01*
X181758748Y-111981042D01*
X181769841Y-111992135D01*
X182462210Y-111299765D01*
X182479901Y-111330407D01*
X182572993Y-111423499D01*
X182603632Y-111441188D01*
X181911264Y-112133558D01*
X181922357Y-112144651D01*
X182109554Y-112280658D01*
X182315715Y-112385702D01*
X182535778Y-112457205D01*
X182764305Y-112493400D01*
X182995695Y-112493400D01*
X183224221Y-112457205D01*
X183444284Y-112385702D01*
X183650445Y-112280658D01*
X183837645Y-112144649D01*
X183848736Y-112133558D01*
X183156366Y-111441189D01*
X183187007Y-111423499D01*
X183280099Y-111330407D01*
X183297789Y-111299766D01*
X183990158Y-111992135D01*
X184001249Y-111981045D01*
X184137258Y-111793845D01*
X184242302Y-111587684D01*
X184313805Y-111367621D01*
X184350000Y-111139095D01*
X184350000Y-110907704D01*
X184313805Y-110679178D01*
X184242302Y-110459115D01*
X184137258Y-110252954D01*
X184001251Y-110065757D01*
X183990158Y-110054664D01*
X183297788Y-110747032D01*
X183280099Y-110716393D01*
X183187007Y-110623301D01*
X183156365Y-110605610D01*
X183848735Y-109913241D01*
X183837642Y-109902148D01*
X183650445Y-109766141D01*
X183444284Y-109661097D01*
X183224221Y-109589594D01*
X182995695Y-109553400D01*
X182764305Y-109553400D01*
X182535778Y-109589594D01*
X182315715Y-109661097D01*
X182109554Y-109766141D01*
X181922356Y-109902147D01*
X181911263Y-109913240D01*
X182603633Y-110605610D01*
X182572993Y-110623301D01*
X182479901Y-110716393D01*
X182462210Y-110747033D01*
X181769840Y-110054663D01*
X181758747Y-110065756D01*
X181622741Y-110252954D01*
X181517697Y-110459115D01*
X181446194Y-110679178D01*
X181410000Y-110907704D01*
X166870499Y-110907704D01*
X166870499Y-109705528D01*
X166864091Y-109645917D01*
X166864089Y-109645911D01*
X166813797Y-109511070D01*
X166727549Y-109395858D01*
X166727548Y-109395857D01*
X166727546Y-109395854D01*
X166727541Y-109395850D01*
X166612329Y-109309602D01*
X166477488Y-109259310D01*
X166477483Y-109259309D01*
X166477481Y-109259308D01*
X166477477Y-109259308D01*
X166446249Y-109255950D01*
X166417873Y-109252900D01*
X166417870Y-109252900D01*
X163782133Y-109252900D01*
X163782129Y-109252900D01*
X163782128Y-109252901D01*
X163774949Y-109253672D01*
X163722519Y-109259308D01*
X163722514Y-109259309D01*
X163587670Y-109309602D01*
X163472458Y-109395850D01*
X163472450Y-109395858D01*
X163386202Y-109511070D01*
X163335910Y-109645911D01*
X163335908Y-109645922D01*
X163329500Y-109705529D01*
X159576971Y-109705529D01*
X159651451Y-109603016D01*
X159747957Y-109413612D01*
X159813646Y-109211443D01*
X159846900Y-109001487D01*
X159846900Y-108788913D01*
X159846900Y-108788909D01*
X159813647Y-108578961D01*
X159813646Y-108578957D01*
X159747957Y-108376788D01*
X159651451Y-108187384D01*
X159651449Y-108187380D01*
X159526508Y-108015413D01*
X159526506Y-108015411D01*
X159526504Y-108015408D01*
X159376192Y-107865096D01*
X159376188Y-107865093D01*
X159376186Y-107865091D01*
X159204219Y-107740150D01*
X159204215Y-107740148D01*
X159173304Y-107724398D01*
X159151736Y-107713409D01*
X159108473Y-107670146D01*
X159098901Y-107609714D01*
X159126678Y-107555197D01*
X159151735Y-107536991D01*
X159204216Y-107510251D01*
X159376192Y-107385304D01*
X159526504Y-107234992D01*
X159651451Y-107063016D01*
X159747957Y-106873612D01*
X159813646Y-106671443D01*
X159846900Y-106461487D01*
X159846900Y-106248913D01*
X159846900Y-106248909D01*
X159813647Y-106038961D01*
X159813646Y-106038957D01*
X159747957Y-105836788D01*
X159651451Y-105647384D01*
X159651449Y-105647380D01*
X159526508Y-105475413D01*
X159526506Y-105475411D01*
X159526504Y-105475408D01*
X159376192Y-105325096D01*
X159376188Y-105325093D01*
X159376186Y-105325091D01*
X159204219Y-105200150D01*
X159204215Y-105200148D01*
X159173304Y-105184398D01*
X159151736Y-105173409D01*
X159108473Y-105130146D01*
X159098901Y-105069714D01*
X159126678Y-105015197D01*
X159151735Y-104996991D01*
X159204216Y-104970251D01*
X159376192Y-104845304D01*
X159526504Y-104694992D01*
X159651451Y-104523016D01*
X159747957Y-104333612D01*
X159813646Y-104131443D01*
X159846900Y-103921487D01*
X159846900Y-103708913D01*
X159846900Y-103708909D01*
X159813647Y-103498961D01*
X159813646Y-103498957D01*
X159747957Y-103296788D01*
X159651451Y-103107384D01*
X159651449Y-103107380D01*
X159526508Y-102935413D01*
X159526506Y-102935411D01*
X159526504Y-102935408D01*
X159376192Y-102785096D01*
X159376188Y-102785093D01*
X159376186Y-102785091D01*
X159204219Y-102660150D01*
X159204215Y-102660148D01*
X159173304Y-102644398D01*
X159151736Y-102633409D01*
X159108473Y-102590146D01*
X159098901Y-102529714D01*
X159126678Y-102475197D01*
X159151735Y-102456991D01*
X159204216Y-102430251D01*
X159376192Y-102305304D01*
X159526504Y-102154992D01*
X159651451Y-101983016D01*
X159747957Y-101793612D01*
X159813646Y-101591443D01*
X159846900Y-101381487D01*
X159846900Y-101168913D01*
X159846900Y-101168909D01*
X159813647Y-100958961D01*
X159813646Y-100958957D01*
X159747957Y-100756788D01*
X159651451Y-100567384D01*
X159651449Y-100567380D01*
X159526508Y-100395413D01*
X159526506Y-100395411D01*
X159526504Y-100395408D01*
X159376192Y-100245096D01*
X159376188Y-100245093D01*
X159376186Y-100245091D01*
X159204219Y-100120150D01*
X159204215Y-100120148D01*
X159173304Y-100104398D01*
X159151736Y-100093409D01*
X159108473Y-100050146D01*
X159098901Y-99989714D01*
X159126678Y-99935197D01*
X159151735Y-99916991D01*
X159204216Y-99890251D01*
X159376192Y-99765304D01*
X159526504Y-99614992D01*
X159651451Y-99443016D01*
X159747957Y-99253612D01*
X159813646Y-99051443D01*
X159846900Y-98841487D01*
X159846900Y-98628913D01*
X159846900Y-98628909D01*
X159824730Y-98488942D01*
X159813646Y-98418957D01*
X159794697Y-98360640D01*
X159779046Y-98312468D01*
X159779046Y-98312465D01*
X159747960Y-98216794D01*
X159747958Y-98216791D01*
X159747957Y-98216790D01*
X159747957Y-98216788D01*
X159651451Y-98027384D01*
X159651449Y-98027380D01*
X159526508Y-97855413D01*
X159526506Y-97855411D01*
X159526504Y-97855408D01*
X159376192Y-97705096D01*
X159376188Y-97705093D01*
X159376186Y-97705091D01*
X159204219Y-97580150D01*
X159204215Y-97580148D01*
X159173304Y-97564398D01*
X159151736Y-97553409D01*
X159108473Y-97510146D01*
X159098901Y-97449714D01*
X159126678Y-97395197D01*
X159151735Y-97376991D01*
X159204216Y-97350251D01*
X159376192Y-97225304D01*
X159526504Y-97074992D01*
X159651451Y-96903016D01*
X159747957Y-96713612D01*
X159813646Y-96511443D01*
X159846900Y-96301487D01*
X159846900Y-96088913D01*
X159846900Y-96088909D01*
X159813647Y-95878961D01*
X159796702Y-95826810D01*
X159747957Y-95676788D01*
X159651451Y-95487384D01*
X159651449Y-95487380D01*
X159526508Y-95315413D01*
X159526506Y-95315411D01*
X159526504Y-95315408D01*
X159376192Y-95165096D01*
X159376188Y-95165093D01*
X159376186Y-95165091D01*
X159204219Y-95040150D01*
X159204215Y-95040148D01*
X159173304Y-95024398D01*
X159151736Y-95013409D01*
X159108473Y-94970146D01*
X159098901Y-94909714D01*
X159126678Y-94855197D01*
X159151735Y-94836991D01*
X159204216Y-94810251D01*
X159376192Y-94685304D01*
X159526504Y-94534992D01*
X159651451Y-94363016D01*
X159747957Y-94173612D01*
X159813646Y-93971443D01*
X159846900Y-93761487D01*
X159846900Y-93548913D01*
X159846900Y-93548909D01*
X159813647Y-93338961D01*
X159775843Y-93222613D01*
X159747957Y-93136788D01*
X159651451Y-92947384D01*
X159651449Y-92947380D01*
X159526508Y-92775413D01*
X159526506Y-92775411D01*
X159526504Y-92775408D01*
X159376192Y-92625096D01*
X159376188Y-92625093D01*
X159376186Y-92625091D01*
X159204219Y-92500150D01*
X159204215Y-92500148D01*
X159173304Y-92484398D01*
X159151736Y-92473409D01*
X159108473Y-92430146D01*
X159098901Y-92369714D01*
X159126678Y-92315197D01*
X159151735Y-92296991D01*
X159204216Y-92270251D01*
X159376192Y-92145304D01*
X159526504Y-91994992D01*
X159651451Y-91823016D01*
X159747957Y-91633612D01*
X159813646Y-91431443D01*
X159846900Y-91221487D01*
X159846900Y-91008913D01*
X159846900Y-91008909D01*
X159813647Y-90798961D01*
X159775843Y-90682613D01*
X159747957Y-90596788D01*
X159651451Y-90407384D01*
X159651449Y-90407380D01*
X159526508Y-90235413D01*
X159526506Y-90235411D01*
X159526504Y-90235408D01*
X159376192Y-90085096D01*
X159376188Y-90085093D01*
X159376186Y-90085091D01*
X159204219Y-89960150D01*
X159204215Y-89960148D01*
X159173304Y-89944398D01*
X159151736Y-89933409D01*
X159108473Y-89890146D01*
X159098901Y-89829714D01*
X159126678Y-89775197D01*
X159151735Y-89756991D01*
X159204216Y-89730251D01*
X159376192Y-89605304D01*
X159526504Y-89454992D01*
X159651451Y-89283016D01*
X159747957Y-89093612D01*
X159805631Y-88916109D01*
X191334300Y-88916109D01*
X191334300Y-89128690D01*
X191367552Y-89338638D01*
X191433243Y-89540812D01*
X191529748Y-89730215D01*
X191529750Y-89730219D01*
X191654691Y-89902186D01*
X191654693Y-89902188D01*
X191654696Y-89902192D01*
X191805008Y-90052504D01*
X191805011Y-90052506D01*
X191805013Y-90052508D01*
X191976980Y-90177449D01*
X191976984Y-90177451D01*
X192029462Y-90204190D01*
X192072727Y-90247455D01*
X192082298Y-90307887D01*
X192054520Y-90362404D01*
X192029462Y-90380610D01*
X191976984Y-90407348D01*
X191976980Y-90407350D01*
X191805013Y-90532291D01*
X191654691Y-90682613D01*
X191529750Y-90854580D01*
X191529748Y-90854584D01*
X191433243Y-91043987D01*
X191367552Y-91246161D01*
X191334300Y-91456109D01*
X191334300Y-91668690D01*
X191367552Y-91878638D01*
X191433243Y-92080812D01*
X191529748Y-92270215D01*
X191529750Y-92270219D01*
X191654691Y-92442186D01*
X191654693Y-92442188D01*
X191654696Y-92442192D01*
X191805008Y-92592504D01*
X191805011Y-92592506D01*
X191805013Y-92592508D01*
X191976980Y-92717449D01*
X191976984Y-92717451D01*
X192029462Y-92744190D01*
X192072727Y-92787455D01*
X192082298Y-92847887D01*
X192054520Y-92902404D01*
X192029462Y-92920610D01*
X191976984Y-92947348D01*
X191976980Y-92947350D01*
X191805013Y-93072291D01*
X191654691Y-93222613D01*
X191529750Y-93394580D01*
X191529748Y-93394584D01*
X191433243Y-93583987D01*
X191367552Y-93786161D01*
X191334300Y-93996109D01*
X191334300Y-94208690D01*
X191367552Y-94418638D01*
X191433243Y-94620812D01*
X191529748Y-94810215D01*
X191529750Y-94810219D01*
X191654691Y-94982186D01*
X191654693Y-94982188D01*
X191654696Y-94982192D01*
X191805008Y-95132504D01*
X191805011Y-95132506D01*
X191805013Y-95132508D01*
X191976980Y-95257449D01*
X191976984Y-95257451D01*
X192166388Y-95353957D01*
X192368557Y-95419646D01*
X192368558Y-95419646D01*
X192368561Y-95419647D01*
X192408374Y-95425952D01*
X192422982Y-95428266D01*
X192477499Y-95456043D01*
X192505277Y-95510559D01*
X192495706Y-95570991D01*
X192452442Y-95614256D01*
X192426812Y-95623144D01*
X192378532Y-95632748D01*
X192378528Y-95632749D01*
X192187439Y-95711901D01*
X192187430Y-95711905D01*
X192015465Y-95826810D01*
X192013048Y-95829225D01*
X192408433Y-96224610D01*
X192377793Y-96242301D01*
X192284701Y-96335393D01*
X192267010Y-96366033D01*
X191871625Y-95970648D01*
X191869210Y-95973065D01*
X191754305Y-96145030D01*
X191754301Y-96145039D01*
X191675149Y-96336127D01*
X191634800Y-96538981D01*
X191634800Y-96745818D01*
X191675149Y-96948672D01*
X191754301Y-97139760D01*
X191754308Y-97139774D01*
X191869205Y-97311729D01*
X191871626Y-97314150D01*
X192267010Y-96918765D01*
X192284701Y-96949407D01*
X192377793Y-97042499D01*
X192408432Y-97060188D01*
X192013049Y-97455573D01*
X192015470Y-97457994D01*
X192187425Y-97572891D01*
X192187439Y-97572898D01*
X192352904Y-97641436D01*
X192399429Y-97681173D01*
X192413713Y-97740667D01*
X192390298Y-97797195D01*
X192338129Y-97829165D01*
X192315018Y-97831900D01*
X191786933Y-97831900D01*
X191786929Y-97831900D01*
X191786928Y-97831901D01*
X191779749Y-97832672D01*
X191727319Y-97838308D01*
X191727314Y-97838309D01*
X191592470Y-97888602D01*
X191477258Y-97974850D01*
X191477250Y-97974858D01*
X191391002Y-98090070D01*
X191340710Y-98224911D01*
X191340708Y-98224922D01*
X191334300Y-98284529D01*
X191334300Y-100080266D01*
X191334301Y-100080270D01*
X191340708Y-100139880D01*
X191340709Y-100139885D01*
X191391002Y-100274729D01*
X191477250Y-100389941D01*
X191477254Y-100389946D01*
X191477257Y-100389948D01*
X191477258Y-100389949D01*
X191592470Y-100476197D01*
X191727311Y-100526489D01*
X191727312Y-100526489D01*
X191727317Y-100526491D01*
X191786927Y-100532900D01*
X193582672Y-100532899D01*
X193642283Y-100526491D01*
X193709707Y-100501343D01*
X193777129Y-100476197D01*
X193777129Y-100476196D01*
X193777131Y-100476196D01*
X193892346Y-100389946D01*
X193978596Y-100274731D01*
X194028891Y-100139883D01*
X194035300Y-100080273D01*
X194035299Y-98284528D01*
X194028891Y-98224917D01*
X194025859Y-98216787D01*
X193978597Y-98090070D01*
X193892349Y-97974858D01*
X193892348Y-97974857D01*
X193892346Y-97974854D01*
X193892341Y-97974850D01*
X193777129Y-97888602D01*
X193642288Y-97838310D01*
X193642283Y-97838309D01*
X193642281Y-97838308D01*
X193642277Y-97838308D01*
X193611049Y-97834950D01*
X193582673Y-97831900D01*
X193582670Y-97831900D01*
X193054582Y-97831900D01*
X192996391Y-97812993D01*
X192960427Y-97763493D01*
X192960427Y-97702307D01*
X192996391Y-97652807D01*
X193016696Y-97641436D01*
X193182160Y-97572898D01*
X193182166Y-97572895D01*
X193354133Y-97457991D01*
X193356550Y-97455573D01*
X192961166Y-97060189D01*
X192991807Y-97042499D01*
X193084899Y-96949407D01*
X193102589Y-96918766D01*
X193497973Y-97314150D01*
X193500391Y-97311733D01*
X193615295Y-97139766D01*
X193615298Y-97139760D01*
X193694450Y-96948672D01*
X193734799Y-96745818D01*
X193734800Y-96745813D01*
X193734800Y-96538986D01*
X193734799Y-96538981D01*
X193694450Y-96336127D01*
X193615298Y-96145039D01*
X193615291Y-96145025D01*
X193500394Y-95973070D01*
X193497973Y-95970649D01*
X193102588Y-96366032D01*
X193084899Y-96335393D01*
X192991807Y-96242301D01*
X192961165Y-96224610D01*
X193356550Y-95829226D01*
X193354129Y-95826805D01*
X193182174Y-95711908D01*
X193182160Y-95711901D01*
X192991071Y-95632749D01*
X192991065Y-95632747D01*
X192942788Y-95623144D01*
X192889404Y-95593247D01*
X192863789Y-95537682D01*
X192875727Y-95477672D01*
X192920657Y-95436140D01*
X192946614Y-95428266D01*
X192978432Y-95423227D01*
X193001038Y-95419647D01*
X193001039Y-95419646D01*
X193001043Y-95419646D01*
X193203212Y-95353957D01*
X193392616Y-95257451D01*
X193564592Y-95132504D01*
X193714904Y-94982192D01*
X193839851Y-94810216D01*
X193936357Y-94620812D01*
X194002046Y-94418643D01*
X194035300Y-94208687D01*
X194035300Y-93996113D01*
X194035300Y-93996109D01*
X194002047Y-93786161D01*
X193994030Y-93761487D01*
X193936357Y-93583988D01*
X193839851Y-93394584D01*
X193839849Y-93394580D01*
X193714908Y-93222613D01*
X193714906Y-93222611D01*
X193714904Y-93222608D01*
X193564592Y-93072296D01*
X193564588Y-93072293D01*
X193564586Y-93072291D01*
X193392619Y-92947350D01*
X193392615Y-92947348D01*
X193361704Y-92931598D01*
X193340136Y-92920609D01*
X193296873Y-92877346D01*
X193287301Y-92816914D01*
X193315078Y-92762397D01*
X193340135Y-92744191D01*
X193392616Y-92717451D01*
X193564592Y-92592504D01*
X193714904Y-92442192D01*
X193839851Y-92270216D01*
X193936357Y-92080812D01*
X194002046Y-91878643D01*
X194035300Y-91668687D01*
X194035300Y-91456113D01*
X194035300Y-91456109D01*
X194002047Y-91246161D01*
X193994030Y-91221487D01*
X193936357Y-91043988D01*
X193839851Y-90854584D01*
X193839849Y-90854580D01*
X193714908Y-90682613D01*
X193714906Y-90682611D01*
X193714904Y-90682608D01*
X193564592Y-90532296D01*
X193564588Y-90532293D01*
X193564586Y-90532291D01*
X193392619Y-90407350D01*
X193392615Y-90407348D01*
X193361704Y-90391598D01*
X193340136Y-90380609D01*
X193296873Y-90337346D01*
X193287301Y-90276914D01*
X193315078Y-90222397D01*
X193340135Y-90204191D01*
X193392616Y-90177451D01*
X193564592Y-90052504D01*
X193714904Y-89902192D01*
X193839851Y-89730216D01*
X193936357Y-89540812D01*
X194002046Y-89338643D01*
X194035300Y-89128687D01*
X194035300Y-88916113D01*
X194035300Y-88916109D01*
X194002047Y-88706161D01*
X193994030Y-88681487D01*
X193936357Y-88503988D01*
X193839851Y-88314584D01*
X193839849Y-88314580D01*
X193714908Y-88142613D01*
X193714906Y-88142611D01*
X193714904Y-88142608D01*
X193564592Y-87992296D01*
X193564588Y-87992293D01*
X193564586Y-87992291D01*
X193392619Y-87867350D01*
X193392615Y-87867348D01*
X193203212Y-87770843D01*
X193001038Y-87705152D01*
X192791090Y-87671900D01*
X192791087Y-87671900D01*
X192578513Y-87671900D01*
X192578510Y-87671900D01*
X192368561Y-87705152D01*
X192166387Y-87770843D01*
X191976984Y-87867348D01*
X191976980Y-87867350D01*
X191805013Y-87992291D01*
X191654691Y-88142613D01*
X191529750Y-88314580D01*
X191529748Y-88314584D01*
X191433243Y-88503987D01*
X191367552Y-88706161D01*
X191334300Y-88916109D01*
X159805631Y-88916109D01*
X159813646Y-88891443D01*
X159846900Y-88681487D01*
X159846900Y-88468913D01*
X159846900Y-88468909D01*
X159813647Y-88258961D01*
X159775843Y-88142613D01*
X159747957Y-88056788D01*
X159651451Y-87867384D01*
X159651449Y-87867380D01*
X159526508Y-87695413D01*
X159526506Y-87695411D01*
X159526504Y-87695408D01*
X159376192Y-87545096D01*
X159376188Y-87545093D01*
X159376186Y-87545091D01*
X159204219Y-87420150D01*
X159204215Y-87420148D01*
X159173304Y-87404398D01*
X159151736Y-87393409D01*
X159108473Y-87350146D01*
X159098901Y-87289714D01*
X159126678Y-87235197D01*
X159151735Y-87216991D01*
X159204216Y-87190251D01*
X159376192Y-87065304D01*
X159526504Y-86914992D01*
X159651451Y-86743016D01*
X159747957Y-86553612D01*
X159813646Y-86351443D01*
X159846900Y-86141487D01*
X159846900Y-85928913D01*
X159846900Y-85928909D01*
X159813647Y-85718961D01*
X159813646Y-85718957D01*
X159747957Y-85516788D01*
X159651451Y-85327384D01*
X159651449Y-85327380D01*
X159526508Y-85155413D01*
X159526506Y-85155411D01*
X159526504Y-85155408D01*
X159376192Y-85005096D01*
X159376188Y-85005093D01*
X159376186Y-85005091D01*
X159204219Y-84880150D01*
X159204215Y-84880148D01*
X159173304Y-84864398D01*
X159151736Y-84853409D01*
X159108473Y-84810146D01*
X159098901Y-84749714D01*
X159126678Y-84695197D01*
X159151735Y-84676991D01*
X159204216Y-84650251D01*
X159376192Y-84525304D01*
X159526504Y-84374992D01*
X159651451Y-84203016D01*
X159747957Y-84013612D01*
X159813646Y-83811443D01*
X159828913Y-83715051D01*
X159846900Y-83601490D01*
X159846900Y-83388909D01*
X159813647Y-83178961D01*
X159813646Y-83178957D01*
X159747957Y-82976788D01*
X159651451Y-82787384D01*
X159651449Y-82787380D01*
X159526508Y-82615413D01*
X159526506Y-82615411D01*
X159526504Y-82615408D01*
X159376192Y-82465096D01*
X159376188Y-82465093D01*
X159376186Y-82465091D01*
X159204219Y-82340150D01*
X159204215Y-82340148D01*
X159173304Y-82324398D01*
X159151736Y-82313409D01*
X159108473Y-82270146D01*
X159098901Y-82209714D01*
X159126678Y-82155197D01*
X159151735Y-82136991D01*
X159204216Y-82110251D01*
X159376192Y-81985304D01*
X159526504Y-81834992D01*
X159651451Y-81663016D01*
X159747957Y-81473612D01*
X159813646Y-81271443D01*
X159813647Y-81271438D01*
X159846900Y-81061490D01*
X159846900Y-80848909D01*
X159813647Y-80638961D01*
X159813646Y-80638957D01*
X159747957Y-80436788D01*
X159651451Y-80247384D01*
X159651449Y-80247380D01*
X159526508Y-80075413D01*
X159526506Y-80075411D01*
X159526504Y-80075408D01*
X159376192Y-79925096D01*
X159376188Y-79925093D01*
X159376186Y-79925091D01*
X159204219Y-79800150D01*
X159204215Y-79800148D01*
X159173304Y-79784398D01*
X159151736Y-79773409D01*
X159108473Y-79730146D01*
X159098901Y-79669714D01*
X159126678Y-79615197D01*
X159151735Y-79596991D01*
X159204216Y-79570251D01*
X159208818Y-79566908D01*
X159298723Y-79501588D01*
X159376192Y-79445304D01*
X159526504Y-79294992D01*
X159651451Y-79123016D01*
X159747957Y-78933612D01*
X159813646Y-78731443D01*
X159813647Y-78731438D01*
X159846900Y-78521490D01*
X159846900Y-78308909D01*
X159813647Y-78098961D01*
X159787467Y-78018387D01*
X159747957Y-77896788D01*
X159651451Y-77707384D01*
X159651449Y-77707380D01*
X159526508Y-77535413D01*
X159526506Y-77535411D01*
X159526504Y-77535408D01*
X159376192Y-77385096D01*
X159376188Y-77385093D01*
X159376186Y-77385091D01*
X159360520Y-77373709D01*
X191435100Y-77373709D01*
X191435100Y-77586290D01*
X191468352Y-77796238D01*
X191534043Y-77998412D01*
X191630548Y-78187815D01*
X191630550Y-78187819D01*
X191755491Y-78359786D01*
X191755493Y-78359788D01*
X191755496Y-78359792D01*
X191905808Y-78510104D01*
X191905811Y-78510106D01*
X191905813Y-78510108D01*
X192077780Y-78635049D01*
X192077784Y-78635051D01*
X192130262Y-78661790D01*
X192173527Y-78705055D01*
X192183098Y-78765487D01*
X192155320Y-78820004D01*
X192130262Y-78838210D01*
X192077784Y-78864948D01*
X192077780Y-78864950D01*
X191905813Y-78989891D01*
X191755491Y-79140213D01*
X191630550Y-79312180D01*
X191630548Y-79312184D01*
X191534043Y-79501587D01*
X191468352Y-79703761D01*
X191435100Y-79913709D01*
X191435100Y-80126290D01*
X191468352Y-80336238D01*
X191534043Y-80538412D01*
X191630548Y-80727815D01*
X191630550Y-80727819D01*
X191755491Y-80899786D01*
X191755493Y-80899788D01*
X191755496Y-80899792D01*
X191905808Y-81050104D01*
X191905811Y-81050106D01*
X191905813Y-81050108D01*
X192077780Y-81175049D01*
X192077784Y-81175051D01*
X192130262Y-81201790D01*
X192173527Y-81245055D01*
X192183098Y-81305487D01*
X192155320Y-81360004D01*
X192130262Y-81378210D01*
X192077784Y-81404948D01*
X192077780Y-81404950D01*
X191905813Y-81529891D01*
X191755491Y-81680213D01*
X191630550Y-81852180D01*
X191630548Y-81852184D01*
X191534043Y-82041587D01*
X191468352Y-82243761D01*
X191435100Y-82453709D01*
X191435100Y-82666290D01*
X191468352Y-82876238D01*
X191534043Y-83078412D01*
X191630548Y-83267815D01*
X191630550Y-83267819D01*
X191755491Y-83439786D01*
X191755493Y-83439788D01*
X191755496Y-83439792D01*
X191905808Y-83590104D01*
X191905811Y-83590106D01*
X191905813Y-83590108D01*
X192077780Y-83715049D01*
X192077784Y-83715051D01*
X192267188Y-83811557D01*
X192469357Y-83877246D01*
X192469358Y-83877246D01*
X192469361Y-83877247D01*
X192679310Y-83910500D01*
X192679313Y-83910500D01*
X192891890Y-83910500D01*
X193101838Y-83877247D01*
X193101839Y-83877246D01*
X193101843Y-83877246D01*
X193304012Y-83811557D01*
X193493416Y-83715051D01*
X193665392Y-83590104D01*
X193815704Y-83439792D01*
X193940651Y-83267816D01*
X194037157Y-83078412D01*
X194102846Y-82876243D01*
X194136100Y-82666287D01*
X194136100Y-82453713D01*
X194136100Y-82453709D01*
X194102847Y-82243761D01*
X194096816Y-82225200D01*
X194037157Y-82041588D01*
X193940651Y-81852184D01*
X193940649Y-81852180D01*
X193815708Y-81680213D01*
X193815706Y-81680211D01*
X193815704Y-81680208D01*
X193665392Y-81529896D01*
X193665388Y-81529893D01*
X193665386Y-81529891D01*
X193493419Y-81404950D01*
X193493415Y-81404948D01*
X193451922Y-81383807D01*
X193440936Y-81378209D01*
X193397673Y-81334946D01*
X193388101Y-81274514D01*
X193415878Y-81219997D01*
X193440935Y-81201791D01*
X193493416Y-81175051D01*
X193538046Y-81142626D01*
X193649720Y-81061490D01*
X193665392Y-81050104D01*
X193815704Y-80899792D01*
X193940651Y-80727816D01*
X194037157Y-80538412D01*
X194102846Y-80336243D01*
X194123301Y-80207099D01*
X194136100Y-80126290D01*
X194136100Y-79913709D01*
X194102847Y-79703761D01*
X194096816Y-79685200D01*
X194037157Y-79501588D01*
X193940651Y-79312184D01*
X193940649Y-79312180D01*
X193815708Y-79140213D01*
X193815706Y-79140211D01*
X193815704Y-79140208D01*
X193665392Y-78989896D01*
X193665388Y-78989893D01*
X193665386Y-78989891D01*
X193493419Y-78864950D01*
X193493415Y-78864948D01*
X193462504Y-78849198D01*
X193440936Y-78838209D01*
X193397673Y-78794946D01*
X193388101Y-78734514D01*
X193415878Y-78679997D01*
X193440935Y-78661791D01*
X193493416Y-78635051D01*
X193665392Y-78510104D01*
X193815704Y-78359792D01*
X193916861Y-78220561D01*
X193940649Y-78187819D01*
X193940651Y-78187816D01*
X194037157Y-77998412D01*
X194102846Y-77796243D01*
X194136100Y-77586287D01*
X194136100Y-77373713D01*
X194136100Y-77373709D01*
X194102847Y-77163761D01*
X194096816Y-77145200D01*
X194037157Y-76961588D01*
X193940651Y-76772184D01*
X193940649Y-76772180D01*
X193815708Y-76600213D01*
X193815706Y-76600211D01*
X193815704Y-76600208D01*
X193665392Y-76449896D01*
X193665388Y-76449893D01*
X193665386Y-76449891D01*
X193493419Y-76324950D01*
X193493415Y-76324948D01*
X193304012Y-76228443D01*
X193190138Y-76191443D01*
X193164629Y-76183154D01*
X193115130Y-76147191D01*
X193096223Y-76089000D01*
X193115130Y-76030809D01*
X193164630Y-75994845D01*
X193195223Y-75990000D01*
X193655297Y-75990000D01*
X193655300Y-75989999D01*
X193713636Y-75978396D01*
X193779789Y-75934193D01*
X193779793Y-75934189D01*
X193823996Y-75868036D01*
X193835599Y-75809700D01*
X193835600Y-75809697D01*
X193835600Y-75040001D01*
X193835599Y-75040000D01*
X193276443Y-75040000D01*
X193285600Y-75005826D01*
X193285600Y-74874174D01*
X193276443Y-74840000D01*
X193835599Y-74840000D01*
X193835600Y-74839999D01*
X193835600Y-74070302D01*
X193835599Y-74070299D01*
X193823996Y-74011963D01*
X193779793Y-73945810D01*
X193779789Y-73945806D01*
X193713636Y-73901603D01*
X193655300Y-73890000D01*
X192885601Y-73890000D01*
X192885600Y-73890001D01*
X192885600Y-74449157D01*
X192851426Y-74440000D01*
X192719774Y-74440000D01*
X192685600Y-74449157D01*
X192685600Y-73890001D01*
X192685599Y-73890000D01*
X191915899Y-73890000D01*
X191857563Y-73901603D01*
X191791410Y-73945806D01*
X191791406Y-73945810D01*
X191747203Y-74011963D01*
X191735600Y-74070299D01*
X191735600Y-74839999D01*
X191735601Y-74840000D01*
X192294757Y-74840000D01*
X192285600Y-74874174D01*
X192285600Y-75005826D01*
X192294757Y-75040000D01*
X191735601Y-75040000D01*
X191735600Y-75040001D01*
X191735600Y-75809700D01*
X191747203Y-75868036D01*
X191791406Y-75934189D01*
X191791410Y-75934193D01*
X191857563Y-75978396D01*
X191915899Y-75989999D01*
X191915903Y-75990000D01*
X192375977Y-75990000D01*
X192434168Y-76008907D01*
X192470132Y-76058407D01*
X192470132Y-76119593D01*
X192434168Y-76169093D01*
X192406570Y-76183154D01*
X192381077Y-76191438D01*
X192267187Y-76228443D01*
X192077784Y-76324948D01*
X192077780Y-76324950D01*
X191905813Y-76449891D01*
X191755491Y-76600213D01*
X191630550Y-76772180D01*
X191630548Y-76772184D01*
X191534043Y-76961587D01*
X191468352Y-77163761D01*
X191435100Y-77373709D01*
X159360520Y-77373709D01*
X159204219Y-77260150D01*
X159204215Y-77260148D01*
X159173304Y-77244398D01*
X159151736Y-77233409D01*
X159108473Y-77190146D01*
X159098901Y-77129714D01*
X159126678Y-77075197D01*
X159151735Y-77056991D01*
X159204216Y-77030251D01*
X159208818Y-77026908D01*
X159298723Y-76961588D01*
X159376192Y-76905304D01*
X159526504Y-76754992D01*
X159651451Y-76583016D01*
X159747957Y-76393612D01*
X159813646Y-76191443D01*
X159827640Y-76103090D01*
X159846900Y-75981490D01*
X159846900Y-75768909D01*
X159813647Y-75558961D01*
X159774994Y-75440000D01*
X159747957Y-75356788D01*
X159651451Y-75167384D01*
X159651449Y-75167380D01*
X159526508Y-74995413D01*
X159526506Y-74995411D01*
X159526504Y-74995408D01*
X159376192Y-74845096D01*
X159376188Y-74845093D01*
X159376186Y-74845091D01*
X159204219Y-74720150D01*
X159204215Y-74720148D01*
X159173304Y-74704398D01*
X159151736Y-74693409D01*
X159108473Y-74650146D01*
X159098901Y-74589714D01*
X159126678Y-74535197D01*
X159151735Y-74516991D01*
X159204216Y-74490251D01*
X159208818Y-74486908D01*
X159319343Y-74406607D01*
X159376192Y-74365304D01*
X159526504Y-74214992D01*
X159651451Y-74043016D01*
X159652087Y-74041765D01*
X159662928Y-74020493D01*
X159723504Y-73901603D01*
X159747957Y-73853612D01*
X159813646Y-73651443D01*
X159827640Y-73563090D01*
X159846900Y-73441490D01*
X159846900Y-73228909D01*
X159813647Y-73018961D01*
X159765011Y-72869275D01*
X159747957Y-72816788D01*
X159651451Y-72627384D01*
X159651449Y-72627380D01*
X159526508Y-72455413D01*
X159526506Y-72455411D01*
X159526504Y-72455408D01*
X159376192Y-72305096D01*
X159376188Y-72305093D01*
X159376186Y-72305091D01*
X159204219Y-72180150D01*
X159204215Y-72180148D01*
X159014812Y-72083643D01*
X158812638Y-72017952D01*
X158758216Y-72009333D01*
X158703699Y-71981555D01*
X158675922Y-71927039D01*
X158685493Y-71866607D01*
X158728758Y-71823342D01*
X158754390Y-71814454D01*
X158802671Y-71804850D01*
X158993760Y-71725698D01*
X158993766Y-71725695D01*
X159165733Y-71610791D01*
X159168150Y-71608373D01*
X158772766Y-71212989D01*
X158803407Y-71195299D01*
X158896499Y-71102207D01*
X158914189Y-71071566D01*
X159309573Y-71466950D01*
X159311991Y-71464533D01*
X159426895Y-71292566D01*
X159426898Y-71292560D01*
X159506050Y-71101472D01*
X159546399Y-70898618D01*
X159546400Y-70898613D01*
X159546400Y-70691786D01*
X159546399Y-70691781D01*
X159506050Y-70488927D01*
X159428622Y-70302000D01*
X159428621Y-70301998D01*
X159426900Y-70297842D01*
X159426891Y-70297825D01*
X159406531Y-70267354D01*
X163329500Y-70267354D01*
X163329500Y-70499445D01*
X163359793Y-70729541D01*
X163359793Y-70729546D01*
X163419862Y-70953729D01*
X163508677Y-71168147D01*
X163508680Y-71168152D01*
X163624724Y-71369148D01*
X163624725Y-71369149D01*
X163624728Y-71369154D01*
X163766005Y-71553270D01*
X163766007Y-71553272D01*
X163766011Y-71553277D01*
X163930123Y-71717389D01*
X163930127Y-71717392D01*
X163930129Y-71717394D01*
X164107376Y-71853400D01*
X164114252Y-71858676D01*
X164315248Y-71974720D01*
X164315249Y-71974720D01*
X164315252Y-71974722D01*
X164529670Y-72063537D01*
X164753851Y-72123606D01*
X164983955Y-72153900D01*
X164983956Y-72153900D01*
X165216044Y-72153900D01*
X165216045Y-72153900D01*
X165446149Y-72123606D01*
X165670330Y-72063537D01*
X165884752Y-71974720D01*
X166085748Y-71858676D01*
X166269877Y-71717389D01*
X166433989Y-71553277D01*
X166575276Y-71369148D01*
X166691320Y-71168152D01*
X166780137Y-70953730D01*
X166840206Y-70729549D01*
X166870500Y-70499445D01*
X166870500Y-70267704D01*
X181410000Y-70267704D01*
X181410000Y-70499095D01*
X181446194Y-70727621D01*
X181517697Y-70947684D01*
X181622741Y-71153845D01*
X181758748Y-71341042D01*
X181769841Y-71352135D01*
X182462210Y-70659765D01*
X182479901Y-70690407D01*
X182572993Y-70783499D01*
X182603632Y-70801188D01*
X181911264Y-71493558D01*
X181922357Y-71504651D01*
X182109554Y-71640658D01*
X182315715Y-71745702D01*
X182535778Y-71817205D01*
X182764305Y-71853400D01*
X182995695Y-71853400D01*
X183224221Y-71817205D01*
X183444284Y-71745702D01*
X183650445Y-71640658D01*
X183837645Y-71504649D01*
X183848736Y-71493558D01*
X183156366Y-70801189D01*
X183187007Y-70783499D01*
X183280099Y-70690407D01*
X183297789Y-70659766D01*
X183990158Y-71352135D01*
X184001249Y-71341045D01*
X184137258Y-71153845D01*
X184242302Y-70947684D01*
X184313805Y-70727621D01*
X184350000Y-70499095D01*
X184350000Y-70267704D01*
X184313805Y-70039178D01*
X184242302Y-69819115D01*
X184137258Y-69612954D01*
X184001251Y-69425757D01*
X183990158Y-69414664D01*
X183297788Y-70107032D01*
X183280099Y-70076393D01*
X183187007Y-69983301D01*
X183156365Y-69965610D01*
X183848735Y-69273241D01*
X183837642Y-69262148D01*
X183650445Y-69126141D01*
X183444284Y-69021097D01*
X183224221Y-68949594D01*
X182995695Y-68913400D01*
X182764305Y-68913400D01*
X182535778Y-68949594D01*
X182315715Y-69021097D01*
X182109554Y-69126141D01*
X181922356Y-69262147D01*
X181911263Y-69273240D01*
X182603633Y-69965610D01*
X182572993Y-69983301D01*
X182479901Y-70076393D01*
X182462210Y-70107033D01*
X181769840Y-69414663D01*
X181758747Y-69425756D01*
X181622741Y-69612954D01*
X181517697Y-69819115D01*
X181446194Y-70039178D01*
X181410000Y-70267704D01*
X166870500Y-70267704D01*
X166870500Y-70267355D01*
X166840206Y-70037251D01*
X166780137Y-69813070D01*
X166768737Y-69785549D01*
X166691322Y-69598652D01*
X166672644Y-69566300D01*
X166575276Y-69397652D01*
X166557522Y-69374514D01*
X166433994Y-69213529D01*
X166433992Y-69213527D01*
X166433989Y-69213523D01*
X166269877Y-69049411D01*
X166269872Y-69049407D01*
X166269870Y-69049405D01*
X166085754Y-68908128D01*
X166085750Y-68908126D01*
X166085748Y-68908124D01*
X165884752Y-68792080D01*
X165884747Y-68792077D01*
X165670329Y-68703262D01*
X165517207Y-68662234D01*
X165446149Y-68643194D01*
X165446146Y-68643193D01*
X165446144Y-68643193D01*
X165216045Y-68612900D01*
X164983955Y-68612900D01*
X164983954Y-68612900D01*
X164753858Y-68643193D01*
X164753853Y-68643193D01*
X164529670Y-68703262D01*
X164315252Y-68792077D01*
X164114245Y-68908128D01*
X163930129Y-69049405D01*
X163766005Y-69213529D01*
X163624728Y-69397645D01*
X163508677Y-69598652D01*
X163419862Y-69813070D01*
X163359793Y-70037253D01*
X163359793Y-70037258D01*
X163329500Y-70267354D01*
X159406531Y-70267354D01*
X159311994Y-70125870D01*
X159309573Y-70123449D01*
X158914188Y-70518832D01*
X158896499Y-70488193D01*
X158803407Y-70395101D01*
X158772765Y-70377410D01*
X159168150Y-69982026D01*
X159165729Y-69979605D01*
X158993774Y-69864708D01*
X158993760Y-69864701D01*
X158802672Y-69785549D01*
X158599818Y-69745200D01*
X158392981Y-69745200D01*
X158190127Y-69785549D01*
X157999039Y-69864701D01*
X157999030Y-69864705D01*
X157827065Y-69979610D01*
X157824648Y-69982025D01*
X158220033Y-70377410D01*
X158189393Y-70395101D01*
X158096301Y-70488193D01*
X158078610Y-70518833D01*
X157683225Y-70123448D01*
X157680810Y-70125865D01*
X157565905Y-70297830D01*
X157565901Y-70297839D01*
X157486749Y-70488927D01*
X157446400Y-70691781D01*
X157446400Y-70898618D01*
X157486749Y-71101472D01*
X157565901Y-71292560D01*
X157565908Y-71292574D01*
X157680805Y-71464529D01*
X157683226Y-71466950D01*
X158078610Y-71071565D01*
X158096301Y-71102207D01*
X158189393Y-71195299D01*
X158220032Y-71212988D01*
X157824649Y-71608373D01*
X157827070Y-71610794D01*
X157999025Y-71725691D01*
X157999039Y-71725698D01*
X158190127Y-71804850D01*
X158238410Y-71814454D01*
X158291794Y-71844351D01*
X158317410Y-71899916D01*
X158305473Y-71959925D01*
X158260543Y-72001458D01*
X158234583Y-72009333D01*
X158180161Y-72017952D01*
X157977987Y-72083643D01*
X157788584Y-72180148D01*
X157788580Y-72180150D01*
X157616613Y-72305091D01*
X157466291Y-72455413D01*
X157341350Y-72627380D01*
X157341348Y-72627384D01*
X157244843Y-72816787D01*
X157179152Y-73018961D01*
X157145900Y-73228909D01*
X132775828Y-73228909D01*
X132736050Y-73028927D01*
X132656898Y-72837839D01*
X132656891Y-72837825D01*
X132541994Y-72665870D01*
X132539573Y-72663449D01*
X132144188Y-73058832D01*
X132126499Y-73028193D01*
X132033407Y-72935101D01*
X132002765Y-72917410D01*
X132398150Y-72522026D01*
X132395729Y-72519605D01*
X132223774Y-72404708D01*
X132223760Y-72404701D01*
X132032672Y-72325549D01*
X131829818Y-72285200D01*
X131622981Y-72285200D01*
X131420127Y-72325549D01*
X131229039Y-72404701D01*
X131229030Y-72404705D01*
X131057065Y-72519610D01*
X131054648Y-72522025D01*
X131450033Y-72917410D01*
X131419393Y-72935101D01*
X131326301Y-73028193D01*
X131308610Y-73058833D01*
X130913225Y-72663448D01*
X130910810Y-72665865D01*
X130795905Y-72837830D01*
X130795901Y-72837839D01*
X130716749Y-73028927D01*
X130676400Y-73231781D01*
X130676400Y-73438618D01*
X130716749Y-73641472D01*
X130795901Y-73832560D01*
X130795908Y-73832574D01*
X130910805Y-74004529D01*
X130913226Y-74006950D01*
X131308610Y-73611565D01*
X131326301Y-73642207D01*
X131419393Y-73735299D01*
X131450032Y-73752988D01*
X131054649Y-74148373D01*
X131057070Y-74150794D01*
X131229025Y-74265691D01*
X131229039Y-74265698D01*
X131420127Y-74344850D01*
X131468410Y-74354454D01*
X131521794Y-74384351D01*
X131547410Y-74439916D01*
X131535473Y-74499925D01*
X131490543Y-74541458D01*
X131464583Y-74549333D01*
X131410161Y-74557952D01*
X131207987Y-74623643D01*
X131018584Y-74720148D01*
X131018580Y-74720150D01*
X130846613Y-74845091D01*
X130696291Y-74995413D01*
X130571350Y-75167380D01*
X130571348Y-75167384D01*
X130474843Y-75356787D01*
X130409152Y-75558961D01*
X130375900Y-75768909D01*
X125562641Y-75768909D01*
X125548647Y-75680561D01*
X125548646Y-75680557D01*
X125482957Y-75478388D01*
X125386451Y-75288984D01*
X125386449Y-75288980D01*
X125261508Y-75117013D01*
X125261506Y-75117011D01*
X125261504Y-75117008D01*
X125111192Y-74966696D01*
X125111188Y-74966693D01*
X125111186Y-74966691D01*
X124939219Y-74841750D01*
X124939215Y-74841748D01*
X124908304Y-74825998D01*
X124886736Y-74815009D01*
X124843473Y-74771746D01*
X124833901Y-74711314D01*
X124861678Y-74656797D01*
X124886735Y-74638591D01*
X124939216Y-74611851D01*
X124948371Y-74605200D01*
X125059170Y-74524700D01*
X125111192Y-74486904D01*
X125261504Y-74336592D01*
X125386451Y-74164616D01*
X125482957Y-73975212D01*
X125548646Y-73773043D01*
X125567906Y-73651443D01*
X125581900Y-73563090D01*
X125581900Y-73350509D01*
X125564778Y-73242408D01*
X125548647Y-73140561D01*
X125512375Y-73028927D01*
X125482957Y-72938388D01*
X125386451Y-72748984D01*
X125261504Y-72577008D01*
X125111192Y-72426696D01*
X125111188Y-72426693D01*
X125111186Y-72426691D01*
X124939219Y-72301750D01*
X124939215Y-72301748D01*
X124906737Y-72285200D01*
X124886736Y-72275009D01*
X124843473Y-72231746D01*
X124833901Y-72171314D01*
X124861678Y-72116797D01*
X124886735Y-72098591D01*
X124939216Y-72071851D01*
X124950660Y-72063537D01*
X125059170Y-71984700D01*
X125111192Y-71946904D01*
X125261504Y-71796592D01*
X125386451Y-71624616D01*
X125482957Y-71435212D01*
X125548646Y-71233043D01*
X125581900Y-71023087D01*
X125581900Y-70810513D01*
X125581900Y-70810509D01*
X125564778Y-70702408D01*
X125563095Y-70691781D01*
X130676400Y-70691781D01*
X130676400Y-70898618D01*
X130716749Y-71101472D01*
X130795901Y-71292560D01*
X130795908Y-71292574D01*
X130910805Y-71464529D01*
X130913226Y-71466950D01*
X131308610Y-71071565D01*
X131326301Y-71102207D01*
X131419393Y-71195299D01*
X131450032Y-71212988D01*
X131054649Y-71608373D01*
X131057070Y-71610794D01*
X131229025Y-71725691D01*
X131229039Y-71725698D01*
X131420127Y-71804850D01*
X131622981Y-71845199D01*
X131622986Y-71845200D01*
X131829814Y-71845200D01*
X131829818Y-71845199D01*
X132032672Y-71804850D01*
X132223760Y-71725698D01*
X132223766Y-71725695D01*
X132395733Y-71610791D01*
X132398150Y-71608373D01*
X132002766Y-71212989D01*
X132033407Y-71195299D01*
X132126499Y-71102207D01*
X132144189Y-71071566D01*
X132539573Y-71466950D01*
X132541991Y-71464533D01*
X132656895Y-71292566D01*
X132656898Y-71292560D01*
X132736050Y-71101472D01*
X132776399Y-70898618D01*
X132776400Y-70898613D01*
X132776400Y-70691786D01*
X132776399Y-70691781D01*
X132736050Y-70488927D01*
X132656898Y-70297839D01*
X132656891Y-70297825D01*
X132541994Y-70125870D01*
X132539573Y-70123449D01*
X132144188Y-70518832D01*
X132126499Y-70488193D01*
X132033407Y-70395101D01*
X132002765Y-70377410D01*
X132398150Y-69982026D01*
X132395729Y-69979605D01*
X132223774Y-69864708D01*
X132223760Y-69864701D01*
X132032672Y-69785549D01*
X131829818Y-69745200D01*
X131622981Y-69745200D01*
X131420127Y-69785549D01*
X131229039Y-69864701D01*
X131229030Y-69864705D01*
X131057065Y-69979610D01*
X131054648Y-69982025D01*
X131450033Y-70377410D01*
X131419393Y-70395101D01*
X131326301Y-70488193D01*
X131308610Y-70518833D01*
X130913225Y-70123448D01*
X130910810Y-70125865D01*
X130795905Y-70297830D01*
X130795901Y-70297839D01*
X130716749Y-70488927D01*
X130676400Y-70691781D01*
X125563095Y-70691781D01*
X125548647Y-70600561D01*
X125548646Y-70600557D01*
X125482957Y-70398388D01*
X125416194Y-70267358D01*
X125386452Y-70208985D01*
X125359619Y-70172053D01*
X125261504Y-70037008D01*
X125111192Y-69886696D01*
X125111188Y-69886693D01*
X125111186Y-69886691D01*
X124939219Y-69761750D01*
X124939215Y-69761748D01*
X124749812Y-69665243D01*
X124547638Y-69599552D01*
X124337690Y-69566300D01*
X124337687Y-69566300D01*
X124125113Y-69566300D01*
X124125110Y-69566300D01*
X123915161Y-69599552D01*
X123712987Y-69665243D01*
X123523584Y-69761748D01*
X123523580Y-69761750D01*
X123351613Y-69886691D01*
X123201291Y-70037013D01*
X123076350Y-70208980D01*
X123076348Y-70208984D01*
X122979843Y-70398387D01*
X122914152Y-70600561D01*
X122880900Y-70810509D01*
X109190300Y-70810509D01*
X109190300Y-64271583D01*
X163813588Y-64271583D01*
X163813588Y-65471616D01*
X163824087Y-65574388D01*
X163824090Y-65574400D01*
X163879275Y-65740936D01*
X163971373Y-65890252D01*
X163971374Y-65890253D01*
X163971376Y-65890256D01*
X164095432Y-66014312D01*
X164244754Y-66106414D01*
X164411291Y-66161599D01*
X164514079Y-66172100D01*
X165714096Y-66172099D01*
X165714104Y-66172099D01*
X165816876Y-66161600D01*
X165816876Y-66161599D01*
X165816885Y-66161599D01*
X165983422Y-66106414D01*
X166132744Y-66014312D01*
X166256800Y-65890256D01*
X166348902Y-65740934D01*
X166404087Y-65574397D01*
X166414588Y-65471609D01*
X166414587Y-64773106D01*
X166614088Y-64773106D01*
X166614088Y-64970093D01*
X166652517Y-65163288D01*
X166652517Y-65163290D01*
X166727897Y-65345275D01*
X166727900Y-65345281D01*
X166836480Y-65507782D01*
X167269502Y-65074760D01*
X167294008Y-65117206D01*
X167368482Y-65191680D01*
X167410924Y-65216184D01*
X166977904Y-65649205D01*
X167140412Y-65757790D01*
X167322398Y-65833170D01*
X167515594Y-65871599D01*
X167515598Y-65871600D01*
X167712578Y-65871600D01*
X167712581Y-65871599D01*
X167905776Y-65833170D01*
X167905778Y-65833170D01*
X168087763Y-65757790D01*
X168250270Y-65649205D01*
X167817249Y-65216184D01*
X167859694Y-65191680D01*
X167934168Y-65117206D01*
X167958672Y-65074761D01*
X168391693Y-65507782D01*
X168500278Y-65345275D01*
X168575658Y-65163290D01*
X168575658Y-65163288D01*
X168614087Y-64970093D01*
X168614088Y-64970090D01*
X168614088Y-64773109D01*
X168614087Y-64773106D01*
X168575658Y-64579911D01*
X168575658Y-64579909D01*
X168500278Y-64397924D01*
X168391693Y-64235416D01*
X167958672Y-64668436D01*
X167934168Y-64625994D01*
X167859694Y-64551520D01*
X167817248Y-64527014D01*
X168250271Y-64093992D01*
X168087769Y-63985412D01*
X168087763Y-63985409D01*
X167905777Y-63910029D01*
X167712581Y-63871600D01*
X167515594Y-63871600D01*
X167322399Y-63910029D01*
X167322397Y-63910029D01*
X167140414Y-63985408D01*
X167140402Y-63985414D01*
X166977904Y-64093993D01*
X167410926Y-64527015D01*
X167368482Y-64551520D01*
X167294008Y-64625994D01*
X167269503Y-64668438D01*
X166836481Y-64235416D01*
X166727902Y-64397914D01*
X166727896Y-64397926D01*
X166652517Y-64579909D01*
X166652517Y-64579911D01*
X166614088Y-64773106D01*
X166414587Y-64773106D01*
X166414587Y-64271592D01*
X166414587Y-64271591D01*
X166414587Y-64271583D01*
X166404088Y-64168811D01*
X166404087Y-64168805D01*
X166404087Y-64168803D01*
X166348902Y-64002266D01*
X166256800Y-63852944D01*
X166132744Y-63728888D01*
X166132741Y-63728886D01*
X166132740Y-63728885D01*
X165983424Y-63636787D01*
X165983423Y-63636786D01*
X165983422Y-63636786D01*
X165816885Y-63581601D01*
X165816882Y-63581600D01*
X165714104Y-63571100D01*
X164514071Y-63571100D01*
X164411299Y-63581599D01*
X164411287Y-63581602D01*
X164244751Y-63636787D01*
X164095435Y-63728885D01*
X163971373Y-63852947D01*
X163879275Y-64002263D01*
X163824088Y-64168805D01*
X163813588Y-64271583D01*
X109190300Y-64271583D01*
X109190300Y-60241900D01*
X109209207Y-60183709D01*
X109258707Y-60147745D01*
X109289300Y-60142900D01*
X200285900Y-60142900D01*
X200344091Y-60161807D01*
G37*
%TD.AperFunction*%
%TD*%
M02*
