%TF.GenerationSoftware,KiCad,Pcbnew,9.0.3*%
%TF.CreationDate,2025-12-20T12:47:06+07:00*%
%TF.ProjectId,shield,73686965-6c64-42e6-9b69-6361645f7063,rev?*%
%TF.SameCoordinates,Original*%
%TF.FileFunction,Copper,L1,Top*%
%TF.FilePolarity,Positive*%
%FSLAX46Y46*%
G04 Gerber Fmt 4.6, Leading zero omitted, Abs format (unit mm)*
G04 Created by KiCad (PCBNEW 9.0.3) date 2025-12-20 12:47:06*
%MOMM*%
%LPD*%
G01*
G04 APERTURE LIST*
G04 Aperture macros list*
%AMRoundRect*
0 Rectangle with rounded corners*
0 $1 Rounding radius*
0 $2 $3 $4 $5 $6 $7 $8 $9 X,Y pos of 4 corners*
0 Add a 4 corners polygon primitive as box body*
4,1,4,$2,$3,$4,$5,$6,$7,$8,$9,$2,$3,0*
0 Add four circle primitives for the rounded corners*
1,1,$1+$1,$2,$3*
1,1,$1+$1,$4,$5*
1,1,$1+$1,$6,$7*
1,1,$1+$1,$8,$9*
0 Add four rect primitives between the rounded corners*
20,1,$1+$1,$2,$3,$4,$5,0*
20,1,$1+$1,$4,$5,$6,$7,0*
20,1,$1+$1,$6,$7,$8,$9,0*
20,1,$1+$1,$8,$9,$2,$3,0*%
G04 Aperture macros list end*
%TA.AperFunction,ComponentPad*%
%ADD10RoundRect,0.250000X-1.050000X-1.050000X1.050000X-1.050000X1.050000X1.050000X-1.050000X1.050000X0*%
%TD*%
%TA.AperFunction,ComponentPad*%
%ADD11C,2.600000*%
%TD*%
%TA.AperFunction,ComponentPad*%
%ADD12RoundRect,0.250000X1.350000X1.350000X-1.350000X1.350000X-1.350000X-1.350000X1.350000X-1.350000X0*%
%TD*%
%TA.AperFunction,ComponentPad*%
%ADD13C,3.200000*%
%TD*%
%TA.AperFunction,ComponentPad*%
%ADD14R,1.700000X1.700000*%
%TD*%
%TA.AperFunction,ComponentPad*%
%ADD15C,1.700000*%
%TD*%
%TA.AperFunction,ComponentPad*%
%ADD16RoundRect,0.250000X0.550000X0.550000X-0.550000X0.550000X-0.550000X-0.550000X0.550000X-0.550000X0*%
%TD*%
%TA.AperFunction,ComponentPad*%
%ADD17C,1.600000*%
%TD*%
%TA.AperFunction,ComponentPad*%
%ADD18RoundRect,0.250000X-1.350000X-1.350000X1.350000X-1.350000X1.350000X1.350000X-1.350000X1.350000X0*%
%TD*%
%TA.AperFunction,ComponentPad*%
%ADD19RoundRect,0.250000X0.600000X0.725000X-0.600000X0.725000X-0.600000X-0.725000X0.600000X-0.725000X0*%
%TD*%
%TA.AperFunction,ComponentPad*%
%ADD20O,1.700000X1.950000*%
%TD*%
%TA.AperFunction,ComponentPad*%
%ADD21RoundRect,0.250000X-0.550000X-0.550000X0.550000X-0.550000X0.550000X0.550000X-0.550000X0.550000X0*%
%TD*%
%TA.AperFunction,ComponentPad*%
%ADD22RoundRect,0.250000X0.750000X0.750000X-0.750000X0.750000X-0.750000X-0.750000X0.750000X-0.750000X0*%
%TD*%
%TA.AperFunction,ComponentPad*%
%ADD23C,2.000000*%
%TD*%
%TA.AperFunction,ComponentPad*%
%ADD24R,2.540000X2.540000*%
%TD*%
%TA.AperFunction,ComponentPad*%
%ADD25C,2.540000*%
%TD*%
%TA.AperFunction,Conductor*%
%ADD26C,1.400000*%
%TD*%
%TA.AperFunction,Conductor*%
%ADD27C,0.300000*%
%TD*%
%TA.AperFunction,Conductor*%
%ADD28C,0.800000*%
%TD*%
%TA.AperFunction,Conductor*%
%ADD29C,1.000000*%
%TD*%
%TA.AperFunction,Conductor*%
%ADD30C,2.000000*%
%TD*%
G04 APERTURE END LIST*
D10*
%TO.P,J4,1,Pin_1*%
%TO.N,Net-(D2-A)*%
X190768600Y-139389900D03*
D11*
%TO.P,J4,2,Pin_2*%
%TO.N,GND*%
X195768600Y-139389900D03*
%TD*%
D12*
%TO.P,D1,1,K*%
%TO.N,Net-(D1-K)*%
X193471800Y-123367800D03*
D13*
%TO.P,D1,2,A*%
%TO.N,VCC*%
X178231800Y-123367800D03*
%TD*%
D14*
%TO.P,J8,1,Pin_1*%
%TO.N,+3V3*%
X158496400Y-124135200D03*
D15*
%TO.P,J8,2,Pin_2*%
%TO.N,unconnected-(J8-Pin_2-Pad2)*%
X158496400Y-121595200D03*
%TO.P,J8,3,Pin_3*%
%TO.N,unconnected-(J8-Pin_3-Pad3)*%
X158496400Y-119055200D03*
%TO.P,J8,4,Pin_4*%
%TO.N,/GPIO4*%
X158496400Y-116515200D03*
%TO.P,J8,5,Pin_5*%
%TO.N,/GPIO5*%
X158496400Y-113975200D03*
%TO.P,J8,6,Pin_6*%
%TO.N,/GPIO6*%
X158496400Y-111435200D03*
%TO.P,J8,7,Pin_7*%
%TO.N,/GPIO7*%
X158496400Y-108895200D03*
%TO.P,J8,8,Pin_8*%
%TO.N,/GPIO15*%
X158496400Y-106355200D03*
%TO.P,J8,9,Pin_9*%
%TO.N,/GPIO16*%
X158496400Y-103815200D03*
%TO.P,J8,10,Pin_10*%
%TO.N,/GPIO17*%
X158496400Y-101275200D03*
%TO.P,J8,11,Pin_11*%
%TO.N,/GPIO18*%
X158496400Y-98735200D03*
%TO.P,J8,12,Pin_12*%
%TO.N,/GPIO8*%
X158496400Y-96195200D03*
%TO.P,J8,13,Pin_13*%
%TO.N,unconnected-(J8-Pin_13-Pad13)*%
X158496400Y-93655200D03*
%TO.P,J8,14,Pin_14*%
%TO.N,unconnected-(J8-Pin_14-Pad14)*%
X158496400Y-91115200D03*
%TO.P,J8,15,Pin_15*%
%TO.N,/GPIO9*%
X158496400Y-88575200D03*
%TO.P,J8,16,Pin_16*%
%TO.N,/GPIO10*%
X158496400Y-86035200D03*
%TO.P,J8,17,Pin_17*%
%TO.N,/GPIO11+SDA*%
X158496400Y-83495200D03*
%TO.P,J8,18,Pin_18*%
%TO.N,/GPIO12+SCL*%
X158496400Y-80955200D03*
%TO.P,J8,19,Pin_19*%
%TO.N,/GPIO13*%
X158496400Y-78415200D03*
%TO.P,J8,20,Pin_20*%
%TO.N,/GPIO14*%
X158496400Y-75875200D03*
%TO.P,J8,21,Pin_21*%
%TO.N,+5V*%
X158496400Y-73335200D03*
%TO.P,J8,22,Pin_22*%
%TO.N,GND*%
X158496400Y-70795200D03*
%TD*%
D16*
%TO.P,C3,1*%
%TO.N,VCC*%
X167854513Y-117322600D03*
D17*
%TO.P,C3,2*%
%TO.N,GND*%
X165354513Y-117322600D03*
%TD*%
D18*
%TO.P,D2,1,K*%
%TO.N,VCC*%
X178130200Y-130022600D03*
D13*
%TO.P,D2,2,A*%
%TO.N,Net-(D2-A)*%
X193370200Y-130022600D03*
%TD*%
D10*
%TO.P,J15,1,Pin_1*%
%TO.N,Net-(D1-K)*%
X178627400Y-139339100D03*
D11*
%TO.P,J15,2,Pin_2*%
%TO.N,GND*%
X183627400Y-139339100D03*
%TD*%
D19*
%TO.P,J13,1,Pin_1*%
%TO.N,/M1*%
X140285800Y-141088600D03*
D20*
%TO.P,J13,2,Pin_2*%
%TO.N,GND*%
X137785800Y-141088600D03*
%TO.P,J13,3,Pin_3*%
%TO.N,/GPIO8*%
X135285800Y-141088600D03*
%TO.P,J13,4,Pin_4*%
%TO.N,/GPIO9*%
X132785800Y-141088600D03*
%TO.P,J13,5,Pin_5*%
%TO.N,+5V*%
X130285800Y-141088600D03*
%TO.P,J13,6,Pin_6*%
%TO.N,/M2*%
X127785800Y-141088600D03*
%TD*%
D14*
%TO.P,J6,1,Pin_1*%
%TO.N,GND*%
X192785600Y-74940000D03*
D15*
%TO.P,J6,2,Pin_2*%
%TO.N,+5V*%
X192785600Y-77480000D03*
%TO.P,J6,3,Pin_3*%
%TO.N,/GPIO12+SCL*%
X192785600Y-80020000D03*
%TO.P,J6,4,Pin_4*%
%TO.N,/GPIO11+SDA*%
X192785600Y-82560000D03*
%TD*%
D14*
%TO.P,J5,1,Pin_1*%
%TO.N,GND*%
X124231400Y-81076800D03*
D15*
%TO.P,J5,2,Pin_2*%
%TO.N,+5V*%
X124231400Y-78536800D03*
%TO.P,J5,3,Pin_3*%
%TO.N,/GPIO2*%
X124231400Y-75996800D03*
%TO.P,J5,4,Pin_4*%
%TO.N,/GPIO13*%
X124231400Y-73456800D03*
%TO.P,J5,5,Pin_5*%
%TO.N,/GPIO14*%
X124231400Y-70916800D03*
%TD*%
D19*
%TO.P,J3,1,Pin_1*%
%TO.N,GND*%
X120940200Y-128591800D03*
D20*
%TO.P,J3,2,Pin_2*%
%TO.N,+5V*%
X118440200Y-128591800D03*
%TO.P,J3,3,Pin_3*%
%TO.N,/GPIO1*%
X115940200Y-128591800D03*
%TD*%
D10*
%TO.P,J14,1,Pin_1*%
%TO.N,/M1*%
X115965600Y-138907300D03*
D11*
%TO.P,J14,2,Pin_2*%
%TO.N,/M2*%
X120965600Y-138907300D03*
%TD*%
D14*
%TO.P,J2,1,Pin_1*%
%TO.N,+3V3*%
X192684800Y-99182400D03*
D15*
%TO.P,J2,2,Pin_2*%
%TO.N,GND*%
X192684800Y-96642400D03*
%TO.P,J2,3,Pin_3*%
%TO.N,/GPIO12+SCL*%
X192684800Y-94102400D03*
%TO.P,J2,4,Pin_4*%
%TO.N,/GPIO11+SDA*%
X192684800Y-91562400D03*
%TO.P,J2,5,Pin_5*%
%TO.N,/GPIO10*%
X192684800Y-89022400D03*
%TD*%
D14*
%TO.P,J9,1,Pin_1*%
%TO.N,GND*%
X131726400Y-124135200D03*
D15*
%TO.P,J9,2,Pin_2*%
%TO.N,unconnected-(J9-Pin_2-Pad2)*%
X131726400Y-121595200D03*
%TO.P,J9,3,Pin_3*%
%TO.N,unconnected-(J9-Pin_3-Pad3)*%
X131726400Y-119055200D03*
%TO.P,J9,4,Pin_4*%
%TO.N,/GPIO1*%
X131726400Y-116515200D03*
%TO.P,J9,5,Pin_5*%
%TO.N,/GPIO2*%
X131726400Y-113975200D03*
%TO.P,J9,6,Pin_6*%
%TO.N,unconnected-(J9-Pin_6-Pad6)*%
X131726400Y-111435200D03*
%TO.P,J9,7,Pin_7*%
%TO.N,unconnected-(J9-Pin_7-Pad7)*%
X131726400Y-108895200D03*
%TO.P,J9,8,Pin_8*%
%TO.N,unconnected-(J9-Pin_8-Pad8)*%
X131726400Y-106355200D03*
%TO.P,J9,9,Pin_9*%
%TO.N,unconnected-(J9-Pin_9-Pad9)*%
X131726400Y-103815200D03*
%TO.P,J9,10,Pin_10*%
%TO.N,unconnected-(J9-Pin_10-Pad10)*%
X131726400Y-101275200D03*
%TO.P,J9,11,Pin_11*%
%TO.N,unconnected-(J9-Pin_11-Pad11)*%
X131726400Y-98735200D03*
%TO.P,J9,12,Pin_12*%
%TO.N,unconnected-(J9-Pin_12-Pad12)*%
X131726400Y-96195200D03*
%TO.P,J9,13,Pin_13*%
%TO.N,unconnected-(J9-Pin_13-Pad13)*%
X131726400Y-93655200D03*
%TO.P,J9,14,Pin_14*%
%TO.N,unconnected-(J9-Pin_14-Pad14)*%
X131726400Y-91115200D03*
%TO.P,J9,15,Pin_15*%
%TO.N,unconnected-(J9-Pin_15-Pad15)*%
X131726400Y-88575200D03*
%TO.P,J9,16,Pin_16*%
%TO.N,unconnected-(J9-Pin_16-Pad16)*%
X131726400Y-86035200D03*
%TO.P,J9,17,Pin_17*%
%TO.N,unconnected-(J9-Pin_17-Pad17)*%
X131726400Y-83495200D03*
%TO.P,J9,18,Pin_18*%
%TO.N,unconnected-(J9-Pin_18-Pad18)*%
X131726400Y-80955200D03*
%TO.P,J9,19,Pin_19*%
%TO.N,unconnected-(J9-Pin_19-Pad19)*%
X131726400Y-78415200D03*
%TO.P,J9,20,Pin_20*%
%TO.N,unconnected-(J9-Pin_20-Pad20)*%
X131726400Y-75875200D03*
%TO.P,J9,21,Pin_21*%
%TO.N,GND*%
X131726400Y-73335200D03*
%TO.P,J9,22,Pin_22*%
X131726400Y-70795200D03*
%TD*%
D21*
%TO.P,C5,1*%
%TO.N,+5V*%
X165114088Y-64871600D03*
D17*
%TO.P,C5,2*%
%TO.N,GND*%
X167614088Y-64871600D03*
%TD*%
D19*
%TO.P,J1,1,Pin_1*%
%TO.N,/GPIO4*%
X171937400Y-141410400D03*
D20*
%TO.P,J1,2,Pin_2*%
%TO.N,/GPIO5*%
X169437400Y-141410400D03*
%TO.P,J1,3,Pin_3*%
%TO.N,/GPIO6*%
X166937400Y-141410400D03*
%TO.P,J1,4,Pin_4*%
%TO.N,/GPIO7*%
X164437400Y-141410400D03*
%TO.P,J1,5,Pin_5*%
%TO.N,/GPIO15*%
X161937400Y-141410400D03*
%TO.P,J1,6,Pin_6*%
%TO.N,/GPIO16*%
X159437400Y-141410400D03*
%TO.P,J1,7,Pin_7*%
%TO.N,/GPIO17*%
X156937400Y-141410400D03*
%TO.P,J1,8,Pin_8*%
%TO.N,/GPIO18*%
X154437400Y-141410400D03*
%TO.P,J1,9,Pin_9*%
%TO.N,unconnected-(J1-Pin_9-Pad9)*%
X151937400Y-141410400D03*
%TO.P,J1,10,Pin_10*%
%TO.N,+5V*%
X149437400Y-141410400D03*
%TO.P,J1,11,Pin_11*%
%TO.N,GND*%
X146937400Y-141410400D03*
%TD*%
D22*
%TO.P,C1,1*%
%TO.N,VCC*%
X171014400Y-125806200D03*
D23*
%TO.P,C1,2*%
%TO.N,GND*%
X166014400Y-125806200D03*
%TD*%
D24*
%TO.P,U1,1,Vin*%
%TO.N,VCC*%
X165100000Y-111023400D03*
D25*
%TO.P,U1,2,GND*%
%TO.N,GND*%
X182880000Y-111023400D03*
%TO.P,U1,3,GND*%
X182880000Y-70383400D03*
%TO.P,U1,4,Vout*%
%TO.N,+5V*%
X165100000Y-70383400D03*
%TD*%
D26*
%TO.N,VCC*%
X178130200Y-123469400D02*
X178231800Y-123367800D01*
X178130200Y-130022600D02*
X178130200Y-123469400D01*
X167854513Y-117322600D02*
X167854513Y-122646313D01*
X165100000Y-114568087D02*
X167854513Y-117322600D01*
X178231800Y-123367800D02*
X173452800Y-123367800D01*
X165100000Y-111023400D02*
X165100000Y-114568087D01*
X173452800Y-123367800D02*
X171014400Y-125806200D01*
X167854513Y-122646313D02*
X171014400Y-125806200D01*
X178104800Y-123748800D02*
X178257200Y-123596400D01*
D27*
%TO.N,/GPIO8*%
X153842400Y-96195200D02*
X158496400Y-96195200D01*
X142621000Y-133753400D02*
X142621000Y-107416600D01*
X142621000Y-107416600D02*
X153842400Y-96195200D01*
X135285800Y-141088600D02*
X142621000Y-133753400D01*
%TO.N,/GPIO5*%
X169437400Y-141410400D02*
X155956200Y-127929200D01*
X155956200Y-116515400D02*
X158496400Y-113975200D01*
X155956200Y-127929200D02*
X155956200Y-116515400D01*
D28*
%TO.N,+3V3*%
X161086800Y-121544800D02*
X161086800Y-102895400D01*
X158496400Y-124135200D02*
X161086800Y-121544800D01*
X164799800Y-99182400D02*
X192684800Y-99182400D01*
X161086800Y-102895400D02*
X164799800Y-99182400D01*
D27*
%TO.N,/GPIO10*%
X192684800Y-89022400D02*
X189697600Y-86035200D01*
X189697600Y-86035200D02*
X158496400Y-86035200D01*
%TO.N,/GPIO9*%
X140538200Y-106533400D02*
X158496400Y-88575200D01*
X132785800Y-141088600D02*
X140538200Y-133336200D01*
X140538200Y-133336200D02*
X140538200Y-106533400D01*
%TO.N,/GPIO4*%
X156813000Y-126286000D02*
X156813000Y-118198600D01*
X156813000Y-118198600D02*
X158496400Y-116515200D01*
X171937400Y-141410400D02*
X156813000Y-126286000D01*
%TO.N,/GPIO1*%
X115940200Y-128591800D02*
X128016800Y-116515200D01*
X128016800Y-116515200D02*
X131726400Y-116515200D01*
%TO.N,/GPIO7*%
X164437400Y-141410400D02*
X154279600Y-131252600D01*
X154279600Y-131252600D02*
X154279600Y-113112000D01*
X154279600Y-113112000D02*
X158496400Y-108895200D01*
%TO.N,/GPIO6*%
X166937400Y-141410400D02*
X155117800Y-129590800D01*
X155117800Y-129590800D02*
X155117800Y-114813800D01*
X155117800Y-114813800D02*
X158496400Y-111435200D01*
%TO.N,/GPIO12+SCL*%
X194386800Y-81621200D02*
X192785600Y-80020000D01*
X191850400Y-80955200D02*
X158496400Y-80955200D01*
X194386800Y-92400400D02*
X194386800Y-81621200D01*
X192684800Y-94102400D02*
X194386800Y-92400400D01*
X192785600Y-80020000D02*
X191850400Y-80955200D01*
%TO.N,/GPIO16*%
X152628600Y-109683000D02*
X158496400Y-103815200D01*
X152628600Y-134601600D02*
X152628600Y-109683000D01*
X159437400Y-141410400D02*
X152628600Y-134601600D01*
%TO.N,/GPIO11+SDA*%
X191850400Y-83495200D02*
X158496400Y-83495200D01*
X192684800Y-91562400D02*
X193885800Y-90361400D01*
X193885800Y-90361400D02*
X193885800Y-83660200D01*
X193885800Y-83660200D02*
X192785600Y-82560000D01*
X192785600Y-82560000D02*
X191850400Y-83495200D01*
%TO.N,/GPIO15*%
X153441400Y-132914400D02*
X153441400Y-111410200D01*
X153441400Y-111410200D02*
X158496400Y-106355200D01*
X161937400Y-141410400D02*
X153441400Y-132914400D01*
%TO.N,/GPIO17*%
X156937400Y-141410400D02*
X151841200Y-136314200D01*
X151841200Y-107930400D02*
X158496400Y-101275200D01*
X151841200Y-136314200D02*
X151841200Y-107930400D01*
D29*
%TO.N,+5V*%
X149437400Y-141410400D02*
X145857200Y-144990600D01*
X172196600Y-77480000D02*
X192785600Y-77480000D01*
X114586800Y-144990600D02*
X111760000Y-142163800D01*
X121056400Y-75361800D02*
X124231400Y-78536800D01*
X126339600Y-64058800D02*
X121056400Y-69342000D01*
X158775400Y-64058800D02*
X126339600Y-64058800D01*
X118440200Y-129337422D02*
X130191378Y-141088600D01*
X111760000Y-135272000D02*
X118440200Y-128591800D01*
X161594800Y-73409900D02*
X158571100Y-73409900D01*
X130191378Y-141088600D02*
X130285800Y-141088600D01*
X165100000Y-70383400D02*
X164621300Y-70383400D01*
X121056400Y-69342000D02*
X121056400Y-75361800D01*
X111760000Y-90446200D02*
X123669400Y-78536800D01*
X165100000Y-70383400D02*
X158775400Y-64058800D01*
X165100000Y-70383400D02*
X172196600Y-77480000D01*
X165114088Y-64871600D02*
X165114088Y-70369312D01*
X111760000Y-135272000D02*
X111760000Y-90446200D01*
X111760000Y-142163800D02*
X111760000Y-135272000D01*
X145857200Y-144990600D02*
X114586800Y-144990600D01*
X164621300Y-70383400D02*
X161594800Y-73409900D01*
X165114088Y-70369312D02*
X165100000Y-70383400D01*
X118440200Y-128591800D02*
X118440200Y-129337422D01*
X158571100Y-73409900D02*
X158496400Y-73335200D01*
X123669400Y-78536800D02*
X124231400Y-78536800D01*
D27*
%TO.N,/GPIO18*%
X150977600Y-106254000D02*
X158496400Y-98735200D01*
X154437400Y-141410400D02*
X150977600Y-137950600D01*
X150977600Y-137950600D02*
X150977600Y-106254000D01*
%TO.N,/GPIO13*%
X124231400Y-72898000D02*
X130378200Y-66751200D01*
X146832400Y-66751200D02*
X158496400Y-78415200D01*
X124231400Y-73456800D02*
X124231400Y-72898000D01*
X130378200Y-66751200D02*
X146832400Y-66751200D01*
%TO.N,/GPIO14*%
X124231400Y-70916800D02*
X124942600Y-70916800D01*
X130225800Y-65633600D02*
X148254800Y-65633600D01*
X124942600Y-70916800D02*
X130225800Y-65633600D01*
X148254800Y-65633600D02*
X158496400Y-75875200D01*
%TO.N,/GPIO2*%
X124231400Y-75996800D02*
X127381000Y-79146400D01*
X127381000Y-79146400D02*
X127381000Y-109629800D01*
X127381000Y-109629800D02*
X131726400Y-113975200D01*
D26*
%TO.N,Net-(D1-K)*%
X178627400Y-138212200D02*
X193471800Y-123367800D01*
X178627400Y-139339100D02*
X178627400Y-138212200D01*
%TO.N,Net-(D2-A)*%
X190768600Y-132624200D02*
X193370200Y-130022600D01*
X190768600Y-139389900D02*
X190768600Y-132624200D01*
D30*
%TO.N,/M1*%
X115965600Y-138907300D02*
X120347900Y-143289600D01*
X139059800Y-143289600D02*
X140285800Y-142063600D01*
X120347900Y-143289600D02*
X139059800Y-143289600D01*
X140285800Y-142063600D02*
X140285800Y-141088600D01*
%TO.N,/M2*%
X120965600Y-138907300D02*
X125604500Y-138907300D01*
X125604500Y-138907300D02*
X127785800Y-141088600D01*
%TD*%
M02*
