M48
; DRILL file {KiCad 9.0.3} date 2025-12-20T12:47:12+0700
; FORMAT={-:-/ absolute / metric / decimal}
; #@! TF.CreationDate,2025-12-20T12:47:12+07:00
; #@! TF.GenerationSoftware,Kicad,Pcbnew,9.0.3
; #@! TF.FileFunction,Plated,1,2,PTH
FMAT,2
METRIC
; #@! TA.AperFunction,Plated,PTH,ComponentDrill
T1C0.800
; #@! TA.AperFunction,Plated,PTH,ComponentDrill
T2C0.950
; #@! TA.AperFunction,Plated,PTH,ComponentDrill
T3C1.000
; #@! TA.AperFunction,Plated,PTH,ComponentDrill
T4C1.300
; #@! TA.AperFunction,Plated,PTH,ComponentDrill
T5C1.600
%
G90
G05
T1
X165.114Y-64.872
X165.355Y-117.323
X167.614Y-64.872
X167.855Y-117.323
T2
X115.94Y-128.592
X118.44Y-128.592
X120.94Y-128.592
X127.786Y-141.089
X130.286Y-141.089
X132.786Y-141.089
X135.286Y-141.089
X137.786Y-141.089
X140.286Y-141.089
X146.937Y-141.41
X149.437Y-141.41
X151.937Y-141.41
X154.437Y-141.41
X156.937Y-141.41
X159.437Y-141.41
X161.937Y-141.41
X164.437Y-141.41
X166.937Y-141.41
X169.437Y-141.41
X171.937Y-141.41
T3
X124.231Y-70.917
X124.231Y-73.457
X124.231Y-75.997
X124.231Y-78.537
X124.231Y-81.077
X131.726Y-70.795
X131.726Y-73.335
X131.726Y-75.875
X131.726Y-78.415
X131.726Y-80.955
X131.726Y-83.495
X131.726Y-86.035
X131.726Y-88.575
X131.726Y-91.115
X131.726Y-93.655
X131.726Y-96.195
X131.726Y-98.735
X131.726Y-101.275
X131.726Y-103.815
X131.726Y-106.355
X131.726Y-108.895
X131.726Y-111.435
X131.726Y-113.975
X131.726Y-116.515
X131.726Y-119.055
X131.726Y-121.595
X131.726Y-124.135
X158.496Y-70.795
X158.496Y-73.335
X158.496Y-75.875
X158.496Y-78.415
X158.496Y-80.955
X158.496Y-83.495
X158.496Y-86.035
X158.496Y-88.575
X158.496Y-91.115
X158.496Y-93.655
X158.496Y-96.195
X158.496Y-98.735
X158.496Y-101.275
X158.496Y-103.815
X158.496Y-106.355
X158.496Y-108.895
X158.496Y-111.435
X158.496Y-113.975
X158.496Y-116.515
X158.496Y-119.055
X158.496Y-121.595
X158.496Y-124.135
X165.1Y-70.383
X165.1Y-111.023
X166.014Y-125.806
X171.014Y-125.806
X182.88Y-70.383
X182.88Y-111.023
X192.685Y-89.022
X192.685Y-91.562
X192.685Y-94.102
X192.685Y-96.642
X192.685Y-99.182
X192.786Y-74.94
X192.786Y-77.48
X192.786Y-80.02
X192.786Y-82.56
T4
X115.966Y-138.907
X120.966Y-138.907
X178.627Y-139.339
X183.627Y-139.339
X190.769Y-139.39
X195.769Y-139.39
T5
X178.13Y-130.023
X178.232Y-123.368
X193.37Y-130.023
X193.472Y-123.368
M30
