%TF.GenerationSoftware,KiCad,Pcbnew,9.0.3*%
%TF.CreationDate,2025-08-18T13:19:13+07:00*%
%TF.ProjectId,shield,73686965-6c64-42e6-9b69-6361645f7063,rev?*%
%TF.SameCoordinates,Original*%
%TF.FileFunction,Legend,Top*%
%TF.FilePolarity,Positive*%
%FSLAX46Y46*%
G04 Gerber Fmt 4.6, Leading zero omitted, Abs format (unit mm)*
G04 Created by KiCad (PCBNEW 9.0.3) date 2025-08-18 13:19:13*
%MOMM*%
%LPD*%
G01*
G04 APERTURE LIST*
%ADD10C,0.200000*%
%ADD11C,0.120000*%
G04 APERTURE END LIST*
D10*
X100236063Y-79766219D02*
X99759873Y-79766219D01*
X99759873Y-79766219D02*
X99712254Y-80242409D01*
X99712254Y-80242409D02*
X99759873Y-80194790D01*
X99759873Y-80194790D02*
X99855111Y-80147171D01*
X99855111Y-80147171D02*
X100093206Y-80147171D01*
X100093206Y-80147171D02*
X100188444Y-80194790D01*
X100188444Y-80194790D02*
X100236063Y-80242409D01*
X100236063Y-80242409D02*
X100283682Y-80337647D01*
X100283682Y-80337647D02*
X100283682Y-80575742D01*
X100283682Y-80575742D02*
X100236063Y-80670980D01*
X100236063Y-80670980D02*
X100188444Y-80718600D01*
X100188444Y-80718600D02*
X100093206Y-80766219D01*
X100093206Y-80766219D02*
X99855111Y-80766219D01*
X99855111Y-80766219D02*
X99759873Y-80718600D01*
X99759873Y-80718600D02*
X99712254Y-80670980D01*
X100569397Y-79766219D02*
X100902730Y-80766219D01*
X100902730Y-80766219D02*
X101236063Y-79766219D01*
X179976254Y-78889800D02*
X180119111Y-78937419D01*
X180119111Y-78937419D02*
X180357206Y-78937419D01*
X180357206Y-78937419D02*
X180452444Y-78889800D01*
X180452444Y-78889800D02*
X180500063Y-78842180D01*
X180500063Y-78842180D02*
X180547682Y-78746942D01*
X180547682Y-78746942D02*
X180547682Y-78651704D01*
X180547682Y-78651704D02*
X180500063Y-78556466D01*
X180500063Y-78556466D02*
X180452444Y-78508847D01*
X180452444Y-78508847D02*
X180357206Y-78461228D01*
X180357206Y-78461228D02*
X180166730Y-78413609D01*
X180166730Y-78413609D02*
X180071492Y-78365990D01*
X180071492Y-78365990D02*
X180023873Y-78318371D01*
X180023873Y-78318371D02*
X179976254Y-78223133D01*
X179976254Y-78223133D02*
X179976254Y-78127895D01*
X179976254Y-78127895D02*
X180023873Y-78032657D01*
X180023873Y-78032657D02*
X180071492Y-77985038D01*
X180071492Y-77985038D02*
X180166730Y-77937419D01*
X180166730Y-77937419D02*
X180404825Y-77937419D01*
X180404825Y-77937419D02*
X180547682Y-77985038D01*
X181547682Y-78842180D02*
X181500063Y-78889800D01*
X181500063Y-78889800D02*
X181357206Y-78937419D01*
X181357206Y-78937419D02*
X181261968Y-78937419D01*
X181261968Y-78937419D02*
X181119111Y-78889800D01*
X181119111Y-78889800D02*
X181023873Y-78794561D01*
X181023873Y-78794561D02*
X180976254Y-78699323D01*
X180976254Y-78699323D02*
X180928635Y-78508847D01*
X180928635Y-78508847D02*
X180928635Y-78365990D01*
X180928635Y-78365990D02*
X180976254Y-78175514D01*
X180976254Y-78175514D02*
X181023873Y-78080276D01*
X181023873Y-78080276D02*
X181119111Y-77985038D01*
X181119111Y-77985038D02*
X181261968Y-77937419D01*
X181261968Y-77937419D02*
X181357206Y-77937419D01*
X181357206Y-77937419D02*
X181500063Y-77985038D01*
X181500063Y-77985038D02*
X181547682Y-78032657D01*
X182452444Y-78937419D02*
X181976254Y-78937419D01*
X181976254Y-78937419D02*
X181976254Y-77937419D01*
X179827035Y-82890419D02*
X180446082Y-82890419D01*
X180446082Y-82890419D02*
X180112749Y-83271371D01*
X180112749Y-83271371D02*
X180255606Y-83271371D01*
X180255606Y-83271371D02*
X180350844Y-83318990D01*
X180350844Y-83318990D02*
X180398463Y-83366609D01*
X180398463Y-83366609D02*
X180446082Y-83461847D01*
X180446082Y-83461847D02*
X180446082Y-83699942D01*
X180446082Y-83699942D02*
X180398463Y-83795180D01*
X180398463Y-83795180D02*
X180350844Y-83842800D01*
X180350844Y-83842800D02*
X180255606Y-83890419D01*
X180255606Y-83890419D02*
X179969892Y-83890419D01*
X179969892Y-83890419D02*
X179874654Y-83842800D01*
X179874654Y-83842800D02*
X179827035Y-83795180D01*
X180731797Y-82890419D02*
X181065130Y-83890419D01*
X181065130Y-83890419D02*
X181398463Y-82890419D01*
X181636559Y-82890419D02*
X182255606Y-82890419D01*
X182255606Y-82890419D02*
X181922273Y-83271371D01*
X181922273Y-83271371D02*
X182065130Y-83271371D01*
X182065130Y-83271371D02*
X182160368Y-83318990D01*
X182160368Y-83318990D02*
X182207987Y-83366609D01*
X182207987Y-83366609D02*
X182255606Y-83461847D01*
X182255606Y-83461847D02*
X182255606Y-83699942D01*
X182255606Y-83699942D02*
X182207987Y-83795180D01*
X182207987Y-83795180D02*
X182160368Y-83842800D01*
X182160368Y-83842800D02*
X182065130Y-83890419D01*
X182065130Y-83890419D02*
X181779416Y-83890419D01*
X181779416Y-83890419D02*
X181684178Y-83842800D01*
X181684178Y-83842800D02*
X181636559Y-83795180D01*
X179922273Y-73755819D02*
X179922273Y-72755819D01*
X179922273Y-72755819D02*
X180160368Y-72755819D01*
X180160368Y-72755819D02*
X180303225Y-72803438D01*
X180303225Y-72803438D02*
X180398463Y-72898676D01*
X180398463Y-72898676D02*
X180446082Y-72993914D01*
X180446082Y-72993914D02*
X180493701Y-73184390D01*
X180493701Y-73184390D02*
X180493701Y-73327247D01*
X180493701Y-73327247D02*
X180446082Y-73517723D01*
X180446082Y-73517723D02*
X180398463Y-73612961D01*
X180398463Y-73612961D02*
X180303225Y-73708200D01*
X180303225Y-73708200D02*
X180160368Y-73755819D01*
X180160368Y-73755819D02*
X179922273Y-73755819D01*
X181493701Y-73755819D02*
X181160368Y-73279628D01*
X180922273Y-73755819D02*
X180922273Y-72755819D01*
X180922273Y-72755819D02*
X181303225Y-72755819D01*
X181303225Y-72755819D02*
X181398463Y-72803438D01*
X181398463Y-72803438D02*
X181446082Y-72851057D01*
X181446082Y-72851057D02*
X181493701Y-72946295D01*
X181493701Y-72946295D02*
X181493701Y-73089152D01*
X181493701Y-73089152D02*
X181446082Y-73184390D01*
X181446082Y-73184390D02*
X181398463Y-73232009D01*
X181398463Y-73232009D02*
X181303225Y-73279628D01*
X181303225Y-73279628D02*
X180922273Y-73279628D01*
X181922273Y-73755819D02*
X181922273Y-72755819D01*
X181922273Y-72755819D02*
X182160368Y-72755819D01*
X182160368Y-72755819D02*
X182303225Y-72803438D01*
X182303225Y-72803438D02*
X182398463Y-72898676D01*
X182398463Y-72898676D02*
X182446082Y-72993914D01*
X182446082Y-72993914D02*
X182493701Y-73184390D01*
X182493701Y-73184390D02*
X182493701Y-73327247D01*
X182493701Y-73327247D02*
X182446082Y-73517723D01*
X182446082Y-73517723D02*
X182398463Y-73612961D01*
X182398463Y-73612961D02*
X182303225Y-73708200D01*
X182303225Y-73708200D02*
X182160368Y-73755819D01*
X182160368Y-73755819D02*
X181922273Y-73755819D01*
X183112749Y-73279628D02*
X183112749Y-73755819D01*
X182779416Y-72755819D02*
X183112749Y-73279628D01*
X183112749Y-73279628D02*
X183446082Y-72755819D01*
X171175082Y-77908838D02*
X171079844Y-77861219D01*
X171079844Y-77861219D02*
X170936987Y-77861219D01*
X170936987Y-77861219D02*
X170794130Y-77908838D01*
X170794130Y-77908838D02*
X170698892Y-78004076D01*
X170698892Y-78004076D02*
X170651273Y-78099314D01*
X170651273Y-78099314D02*
X170603654Y-78289790D01*
X170603654Y-78289790D02*
X170603654Y-78432647D01*
X170603654Y-78432647D02*
X170651273Y-78623123D01*
X170651273Y-78623123D02*
X170698892Y-78718361D01*
X170698892Y-78718361D02*
X170794130Y-78813600D01*
X170794130Y-78813600D02*
X170936987Y-78861219D01*
X170936987Y-78861219D02*
X171032225Y-78861219D01*
X171032225Y-78861219D02*
X171175082Y-78813600D01*
X171175082Y-78813600D02*
X171222701Y-78765980D01*
X171222701Y-78765980D02*
X171222701Y-78432647D01*
X171222701Y-78432647D02*
X171032225Y-78432647D01*
X171651273Y-78861219D02*
X171651273Y-77861219D01*
X171651273Y-77861219D02*
X172032225Y-77861219D01*
X172032225Y-77861219D02*
X172127463Y-77908838D01*
X172127463Y-77908838D02*
X172175082Y-77956457D01*
X172175082Y-77956457D02*
X172222701Y-78051695D01*
X172222701Y-78051695D02*
X172222701Y-78194552D01*
X172222701Y-78194552D02*
X172175082Y-78289790D01*
X172175082Y-78289790D02*
X172127463Y-78337409D01*
X172127463Y-78337409D02*
X172032225Y-78385028D01*
X172032225Y-78385028D02*
X171651273Y-78385028D01*
X172651273Y-78861219D02*
X172651273Y-77861219D01*
X173317939Y-77861219D02*
X173508415Y-77861219D01*
X173508415Y-77861219D02*
X173603653Y-77908838D01*
X173603653Y-77908838D02*
X173698891Y-78004076D01*
X173698891Y-78004076D02*
X173746510Y-78194552D01*
X173746510Y-78194552D02*
X173746510Y-78527885D01*
X173746510Y-78527885D02*
X173698891Y-78718361D01*
X173698891Y-78718361D02*
X173603653Y-78813600D01*
X173603653Y-78813600D02*
X173508415Y-78861219D01*
X173508415Y-78861219D02*
X173317939Y-78861219D01*
X173317939Y-78861219D02*
X173222701Y-78813600D01*
X173222701Y-78813600D02*
X173127463Y-78718361D01*
X173127463Y-78718361D02*
X173079844Y-78527885D01*
X173079844Y-78527885D02*
X173079844Y-78194552D01*
X173079844Y-78194552D02*
X173127463Y-78004076D01*
X173127463Y-78004076D02*
X173222701Y-77908838D01*
X173222701Y-77908838D02*
X173317939Y-77861219D01*
X174698891Y-78861219D02*
X174127463Y-78861219D01*
X174413177Y-78861219D02*
X174413177Y-77861219D01*
X174413177Y-77861219D02*
X174317939Y-78004076D01*
X174317939Y-78004076D02*
X174222701Y-78099314D01*
X174222701Y-78099314D02*
X174127463Y-78146933D01*
X175079844Y-77956457D02*
X175127463Y-77908838D01*
X175127463Y-77908838D02*
X175222701Y-77861219D01*
X175222701Y-77861219D02*
X175460796Y-77861219D01*
X175460796Y-77861219D02*
X175556034Y-77908838D01*
X175556034Y-77908838D02*
X175603653Y-77956457D01*
X175603653Y-77956457D02*
X175651272Y-78051695D01*
X175651272Y-78051695D02*
X175651272Y-78146933D01*
X175651272Y-78146933D02*
X175603653Y-78289790D01*
X175603653Y-78289790D02*
X175032225Y-78861219D01*
X175032225Y-78861219D02*
X175651272Y-78861219D01*
X115337105Y-135574355D02*
X115337105Y-135764831D01*
X115337105Y-135764831D02*
X115384724Y-135860069D01*
X115384724Y-135860069D02*
X115432343Y-135907688D01*
X115432343Y-135907688D02*
X115575200Y-136002926D01*
X115575200Y-136002926D02*
X115765676Y-136050545D01*
X115765676Y-136050545D02*
X116146628Y-136050545D01*
X116146628Y-136050545D02*
X116241866Y-136002926D01*
X116241866Y-136002926D02*
X116289486Y-135955307D01*
X116289486Y-135955307D02*
X116337105Y-135860069D01*
X116337105Y-135860069D02*
X116337105Y-135669593D01*
X116337105Y-135669593D02*
X116289486Y-135574355D01*
X116289486Y-135574355D02*
X116241866Y-135526736D01*
X116241866Y-135526736D02*
X116146628Y-135479117D01*
X116146628Y-135479117D02*
X115908533Y-135479117D01*
X115908533Y-135479117D02*
X115813295Y-135526736D01*
X115813295Y-135526736D02*
X115765676Y-135574355D01*
X115765676Y-135574355D02*
X115718057Y-135669593D01*
X115718057Y-135669593D02*
X115718057Y-135860069D01*
X115718057Y-135860069D02*
X115765676Y-135955307D01*
X115765676Y-135955307D02*
X115813295Y-136002926D01*
X115813295Y-136002926D02*
X115908533Y-136050545D01*
X115384724Y-133764831D02*
X115337105Y-133860069D01*
X115337105Y-133860069D02*
X115337105Y-134002926D01*
X115337105Y-134002926D02*
X115384724Y-134145783D01*
X115384724Y-134145783D02*
X115479962Y-134241021D01*
X115479962Y-134241021D02*
X115575200Y-134288640D01*
X115575200Y-134288640D02*
X115765676Y-134336259D01*
X115765676Y-134336259D02*
X115908533Y-134336259D01*
X115908533Y-134336259D02*
X116099009Y-134288640D01*
X116099009Y-134288640D02*
X116194247Y-134241021D01*
X116194247Y-134241021D02*
X116289486Y-134145783D01*
X116289486Y-134145783D02*
X116337105Y-134002926D01*
X116337105Y-134002926D02*
X116337105Y-133907688D01*
X116337105Y-133907688D02*
X116289486Y-133764831D01*
X116289486Y-133764831D02*
X116241866Y-133717212D01*
X116241866Y-133717212D02*
X115908533Y-133717212D01*
X115908533Y-133717212D02*
X115908533Y-133907688D01*
X116337105Y-133288640D02*
X115337105Y-133288640D01*
X115337105Y-133288640D02*
X115337105Y-132907688D01*
X115337105Y-132907688D02*
X115384724Y-132812450D01*
X115384724Y-132812450D02*
X115432343Y-132764831D01*
X115432343Y-132764831D02*
X115527581Y-132717212D01*
X115527581Y-132717212D02*
X115670438Y-132717212D01*
X115670438Y-132717212D02*
X115765676Y-132764831D01*
X115765676Y-132764831D02*
X115813295Y-132812450D01*
X115813295Y-132812450D02*
X115860914Y-132907688D01*
X115860914Y-132907688D02*
X115860914Y-133288640D01*
X116337105Y-132288640D02*
X115337105Y-132288640D01*
X115337105Y-131621974D02*
X115337105Y-131431498D01*
X115337105Y-131431498D02*
X115384724Y-131336260D01*
X115384724Y-131336260D02*
X115479962Y-131241022D01*
X115479962Y-131241022D02*
X115670438Y-131193403D01*
X115670438Y-131193403D02*
X116003771Y-131193403D01*
X116003771Y-131193403D02*
X116194247Y-131241022D01*
X116194247Y-131241022D02*
X116289486Y-131336260D01*
X116289486Y-131336260D02*
X116337105Y-131431498D01*
X116337105Y-131431498D02*
X116337105Y-131621974D01*
X116337105Y-131621974D02*
X116289486Y-131717212D01*
X116289486Y-131717212D02*
X116194247Y-131812450D01*
X116194247Y-131812450D02*
X116003771Y-131860069D01*
X116003771Y-131860069D02*
X115670438Y-131860069D01*
X115670438Y-131860069D02*
X115479962Y-131812450D01*
X115479962Y-131812450D02*
X115384724Y-131717212D01*
X115384724Y-131717212D02*
X115337105Y-131621974D01*
X116337105Y-130717212D02*
X116337105Y-130526736D01*
X116337105Y-130526736D02*
X116289486Y-130431498D01*
X116289486Y-130431498D02*
X116241866Y-130383879D01*
X116241866Y-130383879D02*
X116099009Y-130288641D01*
X116099009Y-130288641D02*
X115908533Y-130241022D01*
X115908533Y-130241022D02*
X115527581Y-130241022D01*
X115527581Y-130241022D02*
X115432343Y-130288641D01*
X115432343Y-130288641D02*
X115384724Y-130336260D01*
X115384724Y-130336260D02*
X115337105Y-130431498D01*
X115337105Y-130431498D02*
X115337105Y-130621974D01*
X115337105Y-130621974D02*
X115384724Y-130717212D01*
X115384724Y-130717212D02*
X115432343Y-130764831D01*
X115432343Y-130764831D02*
X115527581Y-130812450D01*
X115527581Y-130812450D02*
X115765676Y-130812450D01*
X115765676Y-130812450D02*
X115860914Y-130764831D01*
X115860914Y-130764831D02*
X115908533Y-130717212D01*
X115908533Y-130717212D02*
X115956152Y-130621974D01*
X115956152Y-130621974D02*
X115956152Y-130431498D01*
X115956152Y-130431498D02*
X115908533Y-130336260D01*
X115908533Y-130336260D02*
X115860914Y-130288641D01*
X115860914Y-130288641D02*
X115765676Y-130241022D01*
X117797277Y-136123564D02*
X117797277Y-135456898D01*
X117797277Y-135456898D02*
X118797277Y-135885469D01*
X117844896Y-133790231D02*
X117797277Y-133885469D01*
X117797277Y-133885469D02*
X117797277Y-134028326D01*
X117797277Y-134028326D02*
X117844896Y-134171183D01*
X117844896Y-134171183D02*
X117940134Y-134266421D01*
X117940134Y-134266421D02*
X118035372Y-134314040D01*
X118035372Y-134314040D02*
X118225848Y-134361659D01*
X118225848Y-134361659D02*
X118368705Y-134361659D01*
X118368705Y-134361659D02*
X118559181Y-134314040D01*
X118559181Y-134314040D02*
X118654419Y-134266421D01*
X118654419Y-134266421D02*
X118749658Y-134171183D01*
X118749658Y-134171183D02*
X118797277Y-134028326D01*
X118797277Y-134028326D02*
X118797277Y-133933088D01*
X118797277Y-133933088D02*
X118749658Y-133790231D01*
X118749658Y-133790231D02*
X118702038Y-133742612D01*
X118702038Y-133742612D02*
X118368705Y-133742612D01*
X118368705Y-133742612D02*
X118368705Y-133933088D01*
X118797277Y-133314040D02*
X117797277Y-133314040D01*
X117797277Y-133314040D02*
X117797277Y-132933088D01*
X117797277Y-132933088D02*
X117844896Y-132837850D01*
X117844896Y-132837850D02*
X117892515Y-132790231D01*
X117892515Y-132790231D02*
X117987753Y-132742612D01*
X117987753Y-132742612D02*
X118130610Y-132742612D01*
X118130610Y-132742612D02*
X118225848Y-132790231D01*
X118225848Y-132790231D02*
X118273467Y-132837850D01*
X118273467Y-132837850D02*
X118321086Y-132933088D01*
X118321086Y-132933088D02*
X118321086Y-133314040D01*
X118797277Y-132314040D02*
X117797277Y-132314040D01*
X117797277Y-131647374D02*
X117797277Y-131456898D01*
X117797277Y-131456898D02*
X117844896Y-131361660D01*
X117844896Y-131361660D02*
X117940134Y-131266422D01*
X117940134Y-131266422D02*
X118130610Y-131218803D01*
X118130610Y-131218803D02*
X118463943Y-131218803D01*
X118463943Y-131218803D02*
X118654419Y-131266422D01*
X118654419Y-131266422D02*
X118749658Y-131361660D01*
X118749658Y-131361660D02*
X118797277Y-131456898D01*
X118797277Y-131456898D02*
X118797277Y-131647374D01*
X118797277Y-131647374D02*
X118749658Y-131742612D01*
X118749658Y-131742612D02*
X118654419Y-131837850D01*
X118654419Y-131837850D02*
X118463943Y-131885469D01*
X118463943Y-131885469D02*
X118130610Y-131885469D01*
X118130610Y-131885469D02*
X117940134Y-131837850D01*
X117940134Y-131837850D02*
X117844896Y-131742612D01*
X117844896Y-131742612D02*
X117797277Y-131647374D01*
X118797277Y-130266422D02*
X118797277Y-130837850D01*
X118797277Y-130552136D02*
X117797277Y-130552136D01*
X117797277Y-130552136D02*
X117940134Y-130647374D01*
X117940134Y-130647374D02*
X118035372Y-130742612D01*
X118035372Y-130742612D02*
X118082991Y-130837850D01*
X117797277Y-129647374D02*
X117797277Y-129552136D01*
X117797277Y-129552136D02*
X117844896Y-129456898D01*
X117844896Y-129456898D02*
X117892515Y-129409279D01*
X117892515Y-129409279D02*
X117987753Y-129361660D01*
X117987753Y-129361660D02*
X118178229Y-129314041D01*
X118178229Y-129314041D02*
X118416324Y-129314041D01*
X118416324Y-129314041D02*
X118606800Y-129361660D01*
X118606800Y-129361660D02*
X118702038Y-129409279D01*
X118702038Y-129409279D02*
X118749658Y-129456898D01*
X118749658Y-129456898D02*
X118797277Y-129552136D01*
X118797277Y-129552136D02*
X118797277Y-129647374D01*
X118797277Y-129647374D02*
X118749658Y-129742612D01*
X118749658Y-129742612D02*
X118702038Y-129790231D01*
X118702038Y-129790231D02*
X118606800Y-129837850D01*
X118606800Y-129837850D02*
X118416324Y-129885469D01*
X118416324Y-129885469D02*
X118178229Y-129885469D01*
X118178229Y-129885469D02*
X117987753Y-129837850D01*
X117987753Y-129837850D02*
X117892515Y-129790231D01*
X117892515Y-129790231D02*
X117844896Y-129742612D01*
X117844896Y-129742612D02*
X117797277Y-129647374D01*
X107956591Y-136047364D02*
X107956591Y-135428317D01*
X107956591Y-135428317D02*
X108337543Y-135761650D01*
X108337543Y-135761650D02*
X108337543Y-135618793D01*
X108337543Y-135618793D02*
X108385162Y-135523555D01*
X108385162Y-135523555D02*
X108432781Y-135475936D01*
X108432781Y-135475936D02*
X108528019Y-135428317D01*
X108528019Y-135428317D02*
X108766114Y-135428317D01*
X108766114Y-135428317D02*
X108861352Y-135475936D01*
X108861352Y-135475936D02*
X108908972Y-135523555D01*
X108908972Y-135523555D02*
X108956591Y-135618793D01*
X108956591Y-135618793D02*
X108956591Y-135904507D01*
X108956591Y-135904507D02*
X108908972Y-135999745D01*
X108908972Y-135999745D02*
X108861352Y-136047364D01*
X108004210Y-133714031D02*
X107956591Y-133809269D01*
X107956591Y-133809269D02*
X107956591Y-133952126D01*
X107956591Y-133952126D02*
X108004210Y-134094983D01*
X108004210Y-134094983D02*
X108099448Y-134190221D01*
X108099448Y-134190221D02*
X108194686Y-134237840D01*
X108194686Y-134237840D02*
X108385162Y-134285459D01*
X108385162Y-134285459D02*
X108528019Y-134285459D01*
X108528019Y-134285459D02*
X108718495Y-134237840D01*
X108718495Y-134237840D02*
X108813733Y-134190221D01*
X108813733Y-134190221D02*
X108908972Y-134094983D01*
X108908972Y-134094983D02*
X108956591Y-133952126D01*
X108956591Y-133952126D02*
X108956591Y-133856888D01*
X108956591Y-133856888D02*
X108908972Y-133714031D01*
X108908972Y-133714031D02*
X108861352Y-133666412D01*
X108861352Y-133666412D02*
X108528019Y-133666412D01*
X108528019Y-133666412D02*
X108528019Y-133856888D01*
X108956591Y-133237840D02*
X107956591Y-133237840D01*
X107956591Y-133237840D02*
X107956591Y-132856888D01*
X107956591Y-132856888D02*
X108004210Y-132761650D01*
X108004210Y-132761650D02*
X108051829Y-132714031D01*
X108051829Y-132714031D02*
X108147067Y-132666412D01*
X108147067Y-132666412D02*
X108289924Y-132666412D01*
X108289924Y-132666412D02*
X108385162Y-132714031D01*
X108385162Y-132714031D02*
X108432781Y-132761650D01*
X108432781Y-132761650D02*
X108480400Y-132856888D01*
X108480400Y-132856888D02*
X108480400Y-133237840D01*
X108956591Y-132237840D02*
X107956591Y-132237840D01*
X107956591Y-131571174D02*
X107956591Y-131380698D01*
X107956591Y-131380698D02*
X108004210Y-131285460D01*
X108004210Y-131285460D02*
X108099448Y-131190222D01*
X108099448Y-131190222D02*
X108289924Y-131142603D01*
X108289924Y-131142603D02*
X108623257Y-131142603D01*
X108623257Y-131142603D02*
X108813733Y-131190222D01*
X108813733Y-131190222D02*
X108908972Y-131285460D01*
X108908972Y-131285460D02*
X108956591Y-131380698D01*
X108956591Y-131380698D02*
X108956591Y-131571174D01*
X108956591Y-131571174D02*
X108908972Y-131666412D01*
X108908972Y-131666412D02*
X108813733Y-131761650D01*
X108813733Y-131761650D02*
X108623257Y-131809269D01*
X108623257Y-131809269D02*
X108289924Y-131809269D01*
X108289924Y-131809269D02*
X108099448Y-131761650D01*
X108099448Y-131761650D02*
X108004210Y-131666412D01*
X108004210Y-131666412D02*
X107956591Y-131571174D01*
X107956591Y-130285460D02*
X107956591Y-130475936D01*
X107956591Y-130475936D02*
X108004210Y-130571174D01*
X108004210Y-130571174D02*
X108051829Y-130618793D01*
X108051829Y-130618793D02*
X108194686Y-130714031D01*
X108194686Y-130714031D02*
X108385162Y-130761650D01*
X108385162Y-130761650D02*
X108766114Y-130761650D01*
X108766114Y-130761650D02*
X108861352Y-130714031D01*
X108861352Y-130714031D02*
X108908972Y-130666412D01*
X108908972Y-130666412D02*
X108956591Y-130571174D01*
X108956591Y-130571174D02*
X108956591Y-130380698D01*
X108956591Y-130380698D02*
X108908972Y-130285460D01*
X108908972Y-130285460D02*
X108861352Y-130237841D01*
X108861352Y-130237841D02*
X108766114Y-130190222D01*
X108766114Y-130190222D02*
X108528019Y-130190222D01*
X108528019Y-130190222D02*
X108432781Y-130237841D01*
X108432781Y-130237841D02*
X108385162Y-130285460D01*
X108385162Y-130285460D02*
X108337543Y-130380698D01*
X108337543Y-130380698D02*
X108337543Y-130571174D01*
X108337543Y-130571174D02*
X108385162Y-130666412D01*
X108385162Y-130666412D02*
X108432781Y-130714031D01*
X108432781Y-130714031D02*
X108528019Y-130761650D01*
X160764263Y-99942286D02*
X160288073Y-99942286D01*
X160288073Y-99942286D02*
X160240454Y-100418476D01*
X160240454Y-100418476D02*
X160288073Y-100370857D01*
X160288073Y-100370857D02*
X160383311Y-100323238D01*
X160383311Y-100323238D02*
X160621406Y-100323238D01*
X160621406Y-100323238D02*
X160716644Y-100370857D01*
X160716644Y-100370857D02*
X160764263Y-100418476D01*
X160764263Y-100418476D02*
X160811882Y-100513714D01*
X160811882Y-100513714D02*
X160811882Y-100751809D01*
X160811882Y-100751809D02*
X160764263Y-100847047D01*
X160764263Y-100847047D02*
X160716644Y-100894667D01*
X160716644Y-100894667D02*
X160621406Y-100942286D01*
X160621406Y-100942286D02*
X160383311Y-100942286D01*
X160383311Y-100942286D02*
X160288073Y-100894667D01*
X160288073Y-100894667D02*
X160240454Y-100847047D01*
X161097597Y-99942286D02*
X161430930Y-100942286D01*
X161430930Y-100942286D02*
X161764263Y-99942286D01*
X140062638Y-135885517D02*
X140015019Y-135980755D01*
X140015019Y-135980755D02*
X140015019Y-136123612D01*
X140015019Y-136123612D02*
X140062638Y-136266469D01*
X140062638Y-136266469D02*
X140157876Y-136361707D01*
X140157876Y-136361707D02*
X140253114Y-136409326D01*
X140253114Y-136409326D02*
X140443590Y-136456945D01*
X140443590Y-136456945D02*
X140586447Y-136456945D01*
X140586447Y-136456945D02*
X140776923Y-136409326D01*
X140776923Y-136409326D02*
X140872161Y-136361707D01*
X140872161Y-136361707D02*
X140967400Y-136266469D01*
X140967400Y-136266469D02*
X141015019Y-136123612D01*
X141015019Y-136123612D02*
X141015019Y-136028374D01*
X141015019Y-136028374D02*
X140967400Y-135885517D01*
X140967400Y-135885517D02*
X140919780Y-135837898D01*
X140919780Y-135837898D02*
X140586447Y-135837898D01*
X140586447Y-135837898D02*
X140586447Y-136028374D01*
X141015019Y-135409326D02*
X140015019Y-135409326D01*
X140015019Y-135409326D02*
X141015019Y-134837898D01*
X141015019Y-134837898D02*
X140015019Y-134837898D01*
X141015019Y-134361707D02*
X140015019Y-134361707D01*
X140015019Y-134361707D02*
X140015019Y-134123612D01*
X140015019Y-134123612D02*
X140062638Y-133980755D01*
X140062638Y-133980755D02*
X140157876Y-133885517D01*
X140157876Y-133885517D02*
X140253114Y-133837898D01*
X140253114Y-133837898D02*
X140443590Y-133790279D01*
X140443590Y-133790279D02*
X140586447Y-133790279D01*
X140586447Y-133790279D02*
X140776923Y-133837898D01*
X140776923Y-133837898D02*
X140872161Y-133885517D01*
X140872161Y-133885517D02*
X140967400Y-133980755D01*
X140967400Y-133980755D02*
X141015019Y-134123612D01*
X141015019Y-134123612D02*
X141015019Y-134361707D01*
X160761082Y-102572238D02*
X160665844Y-102524619D01*
X160665844Y-102524619D02*
X160522987Y-102524619D01*
X160522987Y-102524619D02*
X160380130Y-102572238D01*
X160380130Y-102572238D02*
X160284892Y-102667476D01*
X160284892Y-102667476D02*
X160237273Y-102762714D01*
X160237273Y-102762714D02*
X160189654Y-102953190D01*
X160189654Y-102953190D02*
X160189654Y-103096047D01*
X160189654Y-103096047D02*
X160237273Y-103286523D01*
X160237273Y-103286523D02*
X160284892Y-103381761D01*
X160284892Y-103381761D02*
X160380130Y-103477000D01*
X160380130Y-103477000D02*
X160522987Y-103524619D01*
X160522987Y-103524619D02*
X160618225Y-103524619D01*
X160618225Y-103524619D02*
X160761082Y-103477000D01*
X160761082Y-103477000D02*
X160808701Y-103429380D01*
X160808701Y-103429380D02*
X160808701Y-103096047D01*
X160808701Y-103096047D02*
X160618225Y-103096047D01*
X161237273Y-103524619D02*
X161237273Y-102524619D01*
X161237273Y-102524619D02*
X161808701Y-103524619D01*
X161808701Y-103524619D02*
X161808701Y-102524619D01*
X162284892Y-103524619D02*
X162284892Y-102524619D01*
X162284892Y-102524619D02*
X162522987Y-102524619D01*
X162522987Y-102524619D02*
X162665844Y-102572238D01*
X162665844Y-102572238D02*
X162761082Y-102667476D01*
X162761082Y-102667476D02*
X162808701Y-102762714D01*
X162808701Y-102762714D02*
X162856320Y-102953190D01*
X162856320Y-102953190D02*
X162856320Y-103096047D01*
X162856320Y-103096047D02*
X162808701Y-103286523D01*
X162808701Y-103286523D02*
X162761082Y-103381761D01*
X162761082Y-103381761D02*
X162665844Y-103477000D01*
X162665844Y-103477000D02*
X162522987Y-103524619D01*
X162522987Y-103524619D02*
X162284892Y-103524619D01*
X168990682Y-144849569D02*
X168895444Y-144801950D01*
X168895444Y-144801950D02*
X168752587Y-144801950D01*
X168752587Y-144801950D02*
X168609730Y-144849569D01*
X168609730Y-144849569D02*
X168514492Y-144944807D01*
X168514492Y-144944807D02*
X168466873Y-145040045D01*
X168466873Y-145040045D02*
X168419254Y-145230521D01*
X168419254Y-145230521D02*
X168419254Y-145373378D01*
X168419254Y-145373378D02*
X168466873Y-145563854D01*
X168466873Y-145563854D02*
X168514492Y-145659092D01*
X168514492Y-145659092D02*
X168609730Y-145754331D01*
X168609730Y-145754331D02*
X168752587Y-145801950D01*
X168752587Y-145801950D02*
X168847825Y-145801950D01*
X168847825Y-145801950D02*
X168990682Y-145754331D01*
X168990682Y-145754331D02*
X169038301Y-145706711D01*
X169038301Y-145706711D02*
X169038301Y-145373378D01*
X169038301Y-145373378D02*
X168847825Y-145373378D01*
X169466873Y-145801950D02*
X169466873Y-144801950D01*
X169466873Y-144801950D02*
X170038301Y-145801950D01*
X170038301Y-145801950D02*
X170038301Y-144801950D01*
X170514492Y-145801950D02*
X170514492Y-144801950D01*
X170514492Y-144801950D02*
X170752587Y-144801950D01*
X170752587Y-144801950D02*
X170895444Y-144849569D01*
X170895444Y-144849569D02*
X170990682Y-144944807D01*
X170990682Y-144944807D02*
X171038301Y-145040045D01*
X171038301Y-145040045D02*
X171085920Y-145230521D01*
X171085920Y-145230521D02*
X171085920Y-145373378D01*
X171085920Y-145373378D02*
X171038301Y-145563854D01*
X171038301Y-145563854D02*
X170990682Y-145659092D01*
X170990682Y-145659092D02*
X170895444Y-145754331D01*
X170895444Y-145754331D02*
X170752587Y-145801950D01*
X170752587Y-145801950D02*
X170514492Y-145801950D01*
X135649304Y-136456945D02*
X135649304Y-135980755D01*
X135935019Y-136552183D02*
X134935019Y-136218850D01*
X134935019Y-136218850D02*
X135935019Y-135885517D01*
X134982638Y-134266469D02*
X134935019Y-134361707D01*
X134935019Y-134361707D02*
X134935019Y-134504564D01*
X134935019Y-134504564D02*
X134982638Y-134647421D01*
X134982638Y-134647421D02*
X135077876Y-134742659D01*
X135077876Y-134742659D02*
X135173114Y-134790278D01*
X135173114Y-134790278D02*
X135363590Y-134837897D01*
X135363590Y-134837897D02*
X135506447Y-134837897D01*
X135506447Y-134837897D02*
X135696923Y-134790278D01*
X135696923Y-134790278D02*
X135792161Y-134742659D01*
X135792161Y-134742659D02*
X135887400Y-134647421D01*
X135887400Y-134647421D02*
X135935019Y-134504564D01*
X135935019Y-134504564D02*
X135935019Y-134409326D01*
X135935019Y-134409326D02*
X135887400Y-134266469D01*
X135887400Y-134266469D02*
X135839780Y-134218850D01*
X135839780Y-134218850D02*
X135506447Y-134218850D01*
X135506447Y-134218850D02*
X135506447Y-134409326D01*
X135935019Y-133790278D02*
X134935019Y-133790278D01*
X134935019Y-133790278D02*
X134935019Y-133409326D01*
X134935019Y-133409326D02*
X134982638Y-133314088D01*
X134982638Y-133314088D02*
X135030257Y-133266469D01*
X135030257Y-133266469D02*
X135125495Y-133218850D01*
X135125495Y-133218850D02*
X135268352Y-133218850D01*
X135268352Y-133218850D02*
X135363590Y-133266469D01*
X135363590Y-133266469D02*
X135411209Y-133314088D01*
X135411209Y-133314088D02*
X135458828Y-133409326D01*
X135458828Y-133409326D02*
X135458828Y-133790278D01*
X135935019Y-132790278D02*
X134935019Y-132790278D01*
X134935019Y-132123612D02*
X134935019Y-131933136D01*
X134935019Y-131933136D02*
X134982638Y-131837898D01*
X134982638Y-131837898D02*
X135077876Y-131742660D01*
X135077876Y-131742660D02*
X135268352Y-131695041D01*
X135268352Y-131695041D02*
X135601685Y-131695041D01*
X135601685Y-131695041D02*
X135792161Y-131742660D01*
X135792161Y-131742660D02*
X135887400Y-131837898D01*
X135887400Y-131837898D02*
X135935019Y-131933136D01*
X135935019Y-131933136D02*
X135935019Y-132123612D01*
X135935019Y-132123612D02*
X135887400Y-132218850D01*
X135887400Y-132218850D02*
X135792161Y-132314088D01*
X135792161Y-132314088D02*
X135601685Y-132361707D01*
X135601685Y-132361707D02*
X135268352Y-132361707D01*
X135268352Y-132361707D02*
X135077876Y-132314088D01*
X135077876Y-132314088D02*
X134982638Y-132218850D01*
X134982638Y-132218850D02*
X134935019Y-132123612D01*
X135935019Y-130742660D02*
X135935019Y-131314088D01*
X135935019Y-131028374D02*
X134935019Y-131028374D01*
X134935019Y-131028374D02*
X135077876Y-131123612D01*
X135077876Y-131123612D02*
X135173114Y-131218850D01*
X135173114Y-131218850D02*
X135220733Y-131314088D01*
X134935019Y-130409326D02*
X134935019Y-129790279D01*
X134935019Y-129790279D02*
X135315971Y-130123612D01*
X135315971Y-130123612D02*
X135315971Y-129980755D01*
X135315971Y-129980755D02*
X135363590Y-129885517D01*
X135363590Y-129885517D02*
X135411209Y-129837898D01*
X135411209Y-129837898D02*
X135506447Y-129790279D01*
X135506447Y-129790279D02*
X135744542Y-129790279D01*
X135744542Y-129790279D02*
X135839780Y-129837898D01*
X135839780Y-129837898D02*
X135887400Y-129885517D01*
X135887400Y-129885517D02*
X135935019Y-129980755D01*
X135935019Y-129980755D02*
X135935019Y-130266469D01*
X135935019Y-130266469D02*
X135887400Y-130361707D01*
X135887400Y-130361707D02*
X135839780Y-130409326D01*
X161703438Y-123312517D02*
X161655819Y-123407755D01*
X161655819Y-123407755D02*
X161655819Y-123550612D01*
X161655819Y-123550612D02*
X161703438Y-123693469D01*
X161703438Y-123693469D02*
X161798676Y-123788707D01*
X161798676Y-123788707D02*
X161893914Y-123836326D01*
X161893914Y-123836326D02*
X162084390Y-123883945D01*
X162084390Y-123883945D02*
X162227247Y-123883945D01*
X162227247Y-123883945D02*
X162417723Y-123836326D01*
X162417723Y-123836326D02*
X162512961Y-123788707D01*
X162512961Y-123788707D02*
X162608200Y-123693469D01*
X162608200Y-123693469D02*
X162655819Y-123550612D01*
X162655819Y-123550612D02*
X162655819Y-123455374D01*
X162655819Y-123455374D02*
X162608200Y-123312517D01*
X162608200Y-123312517D02*
X162560580Y-123264898D01*
X162560580Y-123264898D02*
X162227247Y-123264898D01*
X162227247Y-123264898D02*
X162227247Y-123455374D01*
X162655819Y-122836326D02*
X161655819Y-122836326D01*
X161655819Y-122836326D02*
X162655819Y-122264898D01*
X162655819Y-122264898D02*
X161655819Y-122264898D01*
X162655819Y-121788707D02*
X161655819Y-121788707D01*
X161655819Y-121788707D02*
X161655819Y-121550612D01*
X161655819Y-121550612D02*
X161703438Y-121407755D01*
X161703438Y-121407755D02*
X161798676Y-121312517D01*
X161798676Y-121312517D02*
X161893914Y-121264898D01*
X161893914Y-121264898D02*
X162084390Y-121217279D01*
X162084390Y-121217279D02*
X162227247Y-121217279D01*
X162227247Y-121217279D02*
X162417723Y-121264898D01*
X162417723Y-121264898D02*
X162512961Y-121312517D01*
X162512961Y-121312517D02*
X162608200Y-121407755D01*
X162608200Y-121407755D02*
X162655819Y-121550612D01*
X162655819Y-121550612D02*
X162655819Y-121788707D01*
X98759873Y-77199541D02*
X99093206Y-78199541D01*
X99093206Y-78199541D02*
X99426539Y-77199541D01*
X100331301Y-78199541D02*
X99997968Y-77723350D01*
X99759873Y-78199541D02*
X99759873Y-77199541D01*
X99759873Y-77199541D02*
X100140825Y-77199541D01*
X100140825Y-77199541D02*
X100236063Y-77247160D01*
X100236063Y-77247160D02*
X100283682Y-77294779D01*
X100283682Y-77294779D02*
X100331301Y-77390017D01*
X100331301Y-77390017D02*
X100331301Y-77532874D01*
X100331301Y-77532874D02*
X100283682Y-77628112D01*
X100283682Y-77628112D02*
X100236063Y-77675731D01*
X100236063Y-77675731D02*
X100140825Y-77723350D01*
X100140825Y-77723350D02*
X99759873Y-77723350D01*
X100664635Y-78199541D02*
X101188444Y-77532874D01*
X100664635Y-77532874D02*
X101188444Y-78199541D01*
X160240454Y-98312333D02*
X160383311Y-98359952D01*
X160383311Y-98359952D02*
X160621406Y-98359952D01*
X160621406Y-98359952D02*
X160716644Y-98312333D01*
X160716644Y-98312333D02*
X160764263Y-98264713D01*
X160764263Y-98264713D02*
X160811882Y-98169475D01*
X160811882Y-98169475D02*
X160811882Y-98074237D01*
X160811882Y-98074237D02*
X160764263Y-97978999D01*
X160764263Y-97978999D02*
X160716644Y-97931380D01*
X160716644Y-97931380D02*
X160621406Y-97883761D01*
X160621406Y-97883761D02*
X160430930Y-97836142D01*
X160430930Y-97836142D02*
X160335692Y-97788523D01*
X160335692Y-97788523D02*
X160288073Y-97740904D01*
X160288073Y-97740904D02*
X160240454Y-97645666D01*
X160240454Y-97645666D02*
X160240454Y-97550428D01*
X160240454Y-97550428D02*
X160288073Y-97455190D01*
X160288073Y-97455190D02*
X160335692Y-97407571D01*
X160335692Y-97407571D02*
X160430930Y-97359952D01*
X160430930Y-97359952D02*
X160669025Y-97359952D01*
X160669025Y-97359952D02*
X160811882Y-97407571D01*
X161811882Y-98264713D02*
X161764263Y-98312333D01*
X161764263Y-98312333D02*
X161621406Y-98359952D01*
X161621406Y-98359952D02*
X161526168Y-98359952D01*
X161526168Y-98359952D02*
X161383311Y-98312333D01*
X161383311Y-98312333D02*
X161288073Y-98217094D01*
X161288073Y-98217094D02*
X161240454Y-98121856D01*
X161240454Y-98121856D02*
X161192835Y-97931380D01*
X161192835Y-97931380D02*
X161192835Y-97788523D01*
X161192835Y-97788523D02*
X161240454Y-97598047D01*
X161240454Y-97598047D02*
X161288073Y-97502809D01*
X161288073Y-97502809D02*
X161383311Y-97407571D01*
X161383311Y-97407571D02*
X161526168Y-97359952D01*
X161526168Y-97359952D02*
X161621406Y-97359952D01*
X161621406Y-97359952D02*
X161764263Y-97407571D01*
X161764263Y-97407571D02*
X161811882Y-97455190D01*
X162716644Y-98359952D02*
X162240454Y-98359952D01*
X162240454Y-98359952D02*
X162240454Y-97359952D01*
X130855019Y-136409326D02*
X129855019Y-136409326D01*
X129855019Y-136409326D02*
X130569304Y-136075993D01*
X130569304Y-136075993D02*
X129855019Y-135742660D01*
X129855019Y-135742660D02*
X130855019Y-135742660D01*
X129950257Y-135314088D02*
X129902638Y-135266469D01*
X129902638Y-135266469D02*
X129855019Y-135171231D01*
X129855019Y-135171231D02*
X129855019Y-134933136D01*
X129855019Y-134933136D02*
X129902638Y-134837898D01*
X129902638Y-134837898D02*
X129950257Y-134790279D01*
X129950257Y-134790279D02*
X130045495Y-134742660D01*
X130045495Y-134742660D02*
X130140733Y-134742660D01*
X130140733Y-134742660D02*
X130283590Y-134790279D01*
X130283590Y-134790279D02*
X130855019Y-135361707D01*
X130855019Y-135361707D02*
X130855019Y-134742660D01*
X99426540Y-73018567D02*
X99569397Y-73066186D01*
X99569397Y-73066186D02*
X99807492Y-73066186D01*
X99807492Y-73066186D02*
X99902730Y-73018567D01*
X99902730Y-73018567D02*
X99950349Y-72970947D01*
X99950349Y-72970947D02*
X99997968Y-72875709D01*
X99997968Y-72875709D02*
X99997968Y-72780471D01*
X99997968Y-72780471D02*
X99950349Y-72685233D01*
X99950349Y-72685233D02*
X99902730Y-72637614D01*
X99902730Y-72637614D02*
X99807492Y-72589995D01*
X99807492Y-72589995D02*
X99617016Y-72542376D01*
X99617016Y-72542376D02*
X99521778Y-72494757D01*
X99521778Y-72494757D02*
X99474159Y-72447138D01*
X99474159Y-72447138D02*
X99426540Y-72351900D01*
X99426540Y-72351900D02*
X99426540Y-72256662D01*
X99426540Y-72256662D02*
X99474159Y-72161424D01*
X99474159Y-72161424D02*
X99521778Y-72113805D01*
X99521778Y-72113805D02*
X99617016Y-72066186D01*
X99617016Y-72066186D02*
X99855111Y-72066186D01*
X99855111Y-72066186D02*
X99997968Y-72113805D01*
X100331302Y-72066186D02*
X100569397Y-73066186D01*
X100569397Y-73066186D02*
X100759873Y-72351900D01*
X100759873Y-72351900D02*
X100950349Y-73066186D01*
X100950349Y-73066186D02*
X101188445Y-72066186D01*
X179823854Y-76222800D02*
X179966711Y-76270419D01*
X179966711Y-76270419D02*
X180204806Y-76270419D01*
X180204806Y-76270419D02*
X180300044Y-76222800D01*
X180300044Y-76222800D02*
X180347663Y-76175180D01*
X180347663Y-76175180D02*
X180395282Y-76079942D01*
X180395282Y-76079942D02*
X180395282Y-75984704D01*
X180395282Y-75984704D02*
X180347663Y-75889466D01*
X180347663Y-75889466D02*
X180300044Y-75841847D01*
X180300044Y-75841847D02*
X180204806Y-75794228D01*
X180204806Y-75794228D02*
X180014330Y-75746609D01*
X180014330Y-75746609D02*
X179919092Y-75698990D01*
X179919092Y-75698990D02*
X179871473Y-75651371D01*
X179871473Y-75651371D02*
X179823854Y-75556133D01*
X179823854Y-75556133D02*
X179823854Y-75460895D01*
X179823854Y-75460895D02*
X179871473Y-75365657D01*
X179871473Y-75365657D02*
X179919092Y-75318038D01*
X179919092Y-75318038D02*
X180014330Y-75270419D01*
X180014330Y-75270419D02*
X180252425Y-75270419D01*
X180252425Y-75270419D02*
X180395282Y-75318038D01*
X180823854Y-76270419D02*
X180823854Y-75270419D01*
X180823854Y-75270419D02*
X181061949Y-75270419D01*
X181061949Y-75270419D02*
X181204806Y-75318038D01*
X181204806Y-75318038D02*
X181300044Y-75413276D01*
X181300044Y-75413276D02*
X181347663Y-75508514D01*
X181347663Y-75508514D02*
X181395282Y-75698990D01*
X181395282Y-75698990D02*
X181395282Y-75841847D01*
X181395282Y-75841847D02*
X181347663Y-76032323D01*
X181347663Y-76032323D02*
X181300044Y-76127561D01*
X181300044Y-76127561D02*
X181204806Y-76222800D01*
X181204806Y-76222800D02*
X181061949Y-76270419D01*
X181061949Y-76270419D02*
X180823854Y-76270419D01*
X181776235Y-75984704D02*
X182252425Y-75984704D01*
X181680997Y-76270419D02*
X182014330Y-75270419D01*
X182014330Y-75270419D02*
X182347663Y-76270419D01*
X163269416Y-144801950D02*
X163602749Y-145801950D01*
X163602749Y-145801950D02*
X163936082Y-144801950D01*
X164840844Y-145706711D02*
X164793225Y-145754331D01*
X164793225Y-145754331D02*
X164650368Y-145801950D01*
X164650368Y-145801950D02*
X164555130Y-145801950D01*
X164555130Y-145801950D02*
X164412273Y-145754331D01*
X164412273Y-145754331D02*
X164317035Y-145659092D01*
X164317035Y-145659092D02*
X164269416Y-145563854D01*
X164269416Y-145563854D02*
X164221797Y-145373378D01*
X164221797Y-145373378D02*
X164221797Y-145230521D01*
X164221797Y-145230521D02*
X164269416Y-145040045D01*
X164269416Y-145040045D02*
X164317035Y-144944807D01*
X164317035Y-144944807D02*
X164412273Y-144849569D01*
X164412273Y-144849569D02*
X164555130Y-144801950D01*
X164555130Y-144801950D02*
X164650368Y-144801950D01*
X164650368Y-144801950D02*
X164793225Y-144849569D01*
X164793225Y-144849569D02*
X164840844Y-144897188D01*
X165840844Y-145706711D02*
X165793225Y-145754331D01*
X165793225Y-145754331D02*
X165650368Y-145801950D01*
X165650368Y-145801950D02*
X165555130Y-145801950D01*
X165555130Y-145801950D02*
X165412273Y-145754331D01*
X165412273Y-145754331D02*
X165317035Y-145659092D01*
X165317035Y-145659092D02*
X165269416Y-145563854D01*
X165269416Y-145563854D02*
X165221797Y-145373378D01*
X165221797Y-145373378D02*
X165221797Y-145230521D01*
X165221797Y-145230521D02*
X165269416Y-145040045D01*
X165269416Y-145040045D02*
X165317035Y-144944807D01*
X165317035Y-144944807D02*
X165412273Y-144849569D01*
X165412273Y-144849569D02*
X165555130Y-144801950D01*
X165555130Y-144801950D02*
X165650368Y-144801950D01*
X165650368Y-144801950D02*
X165793225Y-144849569D01*
X165793225Y-144849569D02*
X165840844Y-144897188D01*
X99045587Y-82380515D02*
X98950349Y-82332896D01*
X98950349Y-82332896D02*
X98807492Y-82332896D01*
X98807492Y-82332896D02*
X98664635Y-82380515D01*
X98664635Y-82380515D02*
X98569397Y-82475753D01*
X98569397Y-82475753D02*
X98521778Y-82570991D01*
X98521778Y-82570991D02*
X98474159Y-82761467D01*
X98474159Y-82761467D02*
X98474159Y-82904324D01*
X98474159Y-82904324D02*
X98521778Y-83094800D01*
X98521778Y-83094800D02*
X98569397Y-83190038D01*
X98569397Y-83190038D02*
X98664635Y-83285277D01*
X98664635Y-83285277D02*
X98807492Y-83332896D01*
X98807492Y-83332896D02*
X98902730Y-83332896D01*
X98902730Y-83332896D02*
X99045587Y-83285277D01*
X99045587Y-83285277D02*
X99093206Y-83237657D01*
X99093206Y-83237657D02*
X99093206Y-82904324D01*
X99093206Y-82904324D02*
X98902730Y-82904324D01*
X99521778Y-83332896D02*
X99521778Y-82332896D01*
X99521778Y-82332896D02*
X100093206Y-83332896D01*
X100093206Y-83332896D02*
X100093206Y-82332896D01*
X100569397Y-83332896D02*
X100569397Y-82332896D01*
X100569397Y-82332896D02*
X100807492Y-82332896D01*
X100807492Y-82332896D02*
X100950349Y-82380515D01*
X100950349Y-82380515D02*
X101045587Y-82475753D01*
X101045587Y-82475753D02*
X101093206Y-82570991D01*
X101093206Y-82570991D02*
X101140825Y-82761467D01*
X101140825Y-82761467D02*
X101140825Y-82904324D01*
X101140825Y-82904324D02*
X101093206Y-83094800D01*
X101093206Y-83094800D02*
X101045587Y-83190038D01*
X101045587Y-83190038D02*
X100950349Y-83285277D01*
X100950349Y-83285277D02*
X100807492Y-83332896D01*
X100807492Y-83332896D02*
X100569397Y-83332896D01*
X143555019Y-136409326D02*
X142555019Y-136409326D01*
X142555019Y-136409326D02*
X143269304Y-136075993D01*
X143269304Y-136075993D02*
X142555019Y-135742660D01*
X142555019Y-135742660D02*
X143555019Y-135742660D01*
X143555019Y-134742660D02*
X143555019Y-135314088D01*
X143555019Y-135028374D02*
X142555019Y-135028374D01*
X142555019Y-135028374D02*
X142697876Y-135123612D01*
X142697876Y-135123612D02*
X142793114Y-135218850D01*
X142793114Y-135218850D02*
X142840733Y-135314088D01*
X110750095Y-135574355D02*
X111416762Y-135574355D01*
X110369143Y-135812450D02*
X111083428Y-136050545D01*
X111083428Y-136050545D02*
X111083428Y-135431498D01*
X110464381Y-133764831D02*
X110416762Y-133860069D01*
X110416762Y-133860069D02*
X110416762Y-134002926D01*
X110416762Y-134002926D02*
X110464381Y-134145783D01*
X110464381Y-134145783D02*
X110559619Y-134241021D01*
X110559619Y-134241021D02*
X110654857Y-134288640D01*
X110654857Y-134288640D02*
X110845333Y-134336259D01*
X110845333Y-134336259D02*
X110988190Y-134336259D01*
X110988190Y-134336259D02*
X111178666Y-134288640D01*
X111178666Y-134288640D02*
X111273904Y-134241021D01*
X111273904Y-134241021D02*
X111369143Y-134145783D01*
X111369143Y-134145783D02*
X111416762Y-134002926D01*
X111416762Y-134002926D02*
X111416762Y-133907688D01*
X111416762Y-133907688D02*
X111369143Y-133764831D01*
X111369143Y-133764831D02*
X111321523Y-133717212D01*
X111321523Y-133717212D02*
X110988190Y-133717212D01*
X110988190Y-133717212D02*
X110988190Y-133907688D01*
X111416762Y-133288640D02*
X110416762Y-133288640D01*
X110416762Y-133288640D02*
X110416762Y-132907688D01*
X110416762Y-132907688D02*
X110464381Y-132812450D01*
X110464381Y-132812450D02*
X110512000Y-132764831D01*
X110512000Y-132764831D02*
X110607238Y-132717212D01*
X110607238Y-132717212D02*
X110750095Y-132717212D01*
X110750095Y-132717212D02*
X110845333Y-132764831D01*
X110845333Y-132764831D02*
X110892952Y-132812450D01*
X110892952Y-132812450D02*
X110940571Y-132907688D01*
X110940571Y-132907688D02*
X110940571Y-133288640D01*
X111416762Y-132288640D02*
X110416762Y-132288640D01*
X110416762Y-131621974D02*
X110416762Y-131431498D01*
X110416762Y-131431498D02*
X110464381Y-131336260D01*
X110464381Y-131336260D02*
X110559619Y-131241022D01*
X110559619Y-131241022D02*
X110750095Y-131193403D01*
X110750095Y-131193403D02*
X111083428Y-131193403D01*
X111083428Y-131193403D02*
X111273904Y-131241022D01*
X111273904Y-131241022D02*
X111369143Y-131336260D01*
X111369143Y-131336260D02*
X111416762Y-131431498D01*
X111416762Y-131431498D02*
X111416762Y-131621974D01*
X111416762Y-131621974D02*
X111369143Y-131717212D01*
X111369143Y-131717212D02*
X111273904Y-131812450D01*
X111273904Y-131812450D02*
X111083428Y-131860069D01*
X111083428Y-131860069D02*
X110750095Y-131860069D01*
X110750095Y-131860069D02*
X110559619Y-131812450D01*
X110559619Y-131812450D02*
X110464381Y-131717212D01*
X110464381Y-131717212D02*
X110416762Y-131621974D01*
X110416762Y-130860069D02*
X110416762Y-130193403D01*
X110416762Y-130193403D02*
X111416762Y-130621974D01*
X95079238Y-135453717D02*
X95031619Y-135548955D01*
X95031619Y-135548955D02*
X95031619Y-135691812D01*
X95031619Y-135691812D02*
X95079238Y-135834669D01*
X95079238Y-135834669D02*
X95174476Y-135929907D01*
X95174476Y-135929907D02*
X95269714Y-135977526D01*
X95269714Y-135977526D02*
X95460190Y-136025145D01*
X95460190Y-136025145D02*
X95603047Y-136025145D01*
X95603047Y-136025145D02*
X95793523Y-135977526D01*
X95793523Y-135977526D02*
X95888761Y-135929907D01*
X95888761Y-135929907D02*
X95984000Y-135834669D01*
X95984000Y-135834669D02*
X96031619Y-135691812D01*
X96031619Y-135691812D02*
X96031619Y-135596574D01*
X96031619Y-135596574D02*
X95984000Y-135453717D01*
X95984000Y-135453717D02*
X95936380Y-135406098D01*
X95936380Y-135406098D02*
X95603047Y-135406098D01*
X95603047Y-135406098D02*
X95603047Y-135596574D01*
X96031619Y-134977526D02*
X95031619Y-134977526D01*
X95031619Y-134977526D02*
X96031619Y-134406098D01*
X96031619Y-134406098D02*
X95031619Y-134406098D01*
X96031619Y-133929907D02*
X95031619Y-133929907D01*
X95031619Y-133929907D02*
X95031619Y-133691812D01*
X95031619Y-133691812D02*
X95079238Y-133548955D01*
X95079238Y-133548955D02*
X95174476Y-133453717D01*
X95174476Y-133453717D02*
X95269714Y-133406098D01*
X95269714Y-133406098D02*
X95460190Y-133358479D01*
X95460190Y-133358479D02*
X95603047Y-133358479D01*
X95603047Y-133358479D02*
X95793523Y-133406098D01*
X95793523Y-133406098D02*
X95888761Y-133453717D01*
X95888761Y-133453717D02*
X95984000Y-133548955D01*
X95984000Y-133548955D02*
X96031619Y-133691812D01*
X96031619Y-133691812D02*
X96031619Y-133929907D01*
X181476682Y-144753269D02*
X181381444Y-144705650D01*
X181381444Y-144705650D02*
X181238587Y-144705650D01*
X181238587Y-144705650D02*
X181095730Y-144753269D01*
X181095730Y-144753269D02*
X181000492Y-144848507D01*
X181000492Y-144848507D02*
X180952873Y-144943745D01*
X180952873Y-144943745D02*
X180905254Y-145134221D01*
X180905254Y-145134221D02*
X180905254Y-145277078D01*
X180905254Y-145277078D02*
X180952873Y-145467554D01*
X180952873Y-145467554D02*
X181000492Y-145562792D01*
X181000492Y-145562792D02*
X181095730Y-145658031D01*
X181095730Y-145658031D02*
X181238587Y-145705650D01*
X181238587Y-145705650D02*
X181333825Y-145705650D01*
X181333825Y-145705650D02*
X181476682Y-145658031D01*
X181476682Y-145658031D02*
X181524301Y-145610411D01*
X181524301Y-145610411D02*
X181524301Y-145277078D01*
X181524301Y-145277078D02*
X181333825Y-145277078D01*
X181952873Y-145705650D02*
X181952873Y-144705650D01*
X181952873Y-144705650D02*
X182524301Y-145705650D01*
X182524301Y-145705650D02*
X182524301Y-144705650D01*
X183000492Y-145705650D02*
X183000492Y-144705650D01*
X183000492Y-144705650D02*
X183238587Y-144705650D01*
X183238587Y-144705650D02*
X183381444Y-144753269D01*
X183381444Y-144753269D02*
X183476682Y-144848507D01*
X183476682Y-144848507D02*
X183524301Y-144943745D01*
X183524301Y-144943745D02*
X183571920Y-145134221D01*
X183571920Y-145134221D02*
X183571920Y-145277078D01*
X183571920Y-145277078D02*
X183524301Y-145467554D01*
X183524301Y-145467554D02*
X183476682Y-145562792D01*
X183476682Y-145562792D02*
X183381444Y-145658031D01*
X183381444Y-145658031D02*
X183238587Y-145705650D01*
X183238587Y-145705650D02*
X183000492Y-145705650D01*
X160215054Y-95730000D02*
X160357911Y-95777619D01*
X160357911Y-95777619D02*
X160596006Y-95777619D01*
X160596006Y-95777619D02*
X160691244Y-95730000D01*
X160691244Y-95730000D02*
X160738863Y-95682380D01*
X160738863Y-95682380D02*
X160786482Y-95587142D01*
X160786482Y-95587142D02*
X160786482Y-95491904D01*
X160786482Y-95491904D02*
X160738863Y-95396666D01*
X160738863Y-95396666D02*
X160691244Y-95349047D01*
X160691244Y-95349047D02*
X160596006Y-95301428D01*
X160596006Y-95301428D02*
X160405530Y-95253809D01*
X160405530Y-95253809D02*
X160310292Y-95206190D01*
X160310292Y-95206190D02*
X160262673Y-95158571D01*
X160262673Y-95158571D02*
X160215054Y-95063333D01*
X160215054Y-95063333D02*
X160215054Y-94968095D01*
X160215054Y-94968095D02*
X160262673Y-94872857D01*
X160262673Y-94872857D02*
X160310292Y-94825238D01*
X160310292Y-94825238D02*
X160405530Y-94777619D01*
X160405530Y-94777619D02*
X160643625Y-94777619D01*
X160643625Y-94777619D02*
X160786482Y-94825238D01*
X161215054Y-95777619D02*
X161215054Y-94777619D01*
X161215054Y-94777619D02*
X161453149Y-94777619D01*
X161453149Y-94777619D02*
X161596006Y-94825238D01*
X161596006Y-94825238D02*
X161691244Y-94920476D01*
X161691244Y-94920476D02*
X161738863Y-95015714D01*
X161738863Y-95015714D02*
X161786482Y-95206190D01*
X161786482Y-95206190D02*
X161786482Y-95349047D01*
X161786482Y-95349047D02*
X161738863Y-95539523D01*
X161738863Y-95539523D02*
X161691244Y-95634761D01*
X161691244Y-95634761D02*
X161596006Y-95730000D01*
X161596006Y-95730000D02*
X161453149Y-95777619D01*
X161453149Y-95777619D02*
X161215054Y-95777619D01*
X162167435Y-95491904D02*
X162643625Y-95491904D01*
X162072197Y-95777619D02*
X162405530Y-94777619D01*
X162405530Y-94777619D02*
X162738863Y-95777619D01*
X175755416Y-144705650D02*
X176088749Y-145705650D01*
X176088749Y-145705650D02*
X176422082Y-144705650D01*
X177326844Y-145610411D02*
X177279225Y-145658031D01*
X177279225Y-145658031D02*
X177136368Y-145705650D01*
X177136368Y-145705650D02*
X177041130Y-145705650D01*
X177041130Y-145705650D02*
X176898273Y-145658031D01*
X176898273Y-145658031D02*
X176803035Y-145562792D01*
X176803035Y-145562792D02*
X176755416Y-145467554D01*
X176755416Y-145467554D02*
X176707797Y-145277078D01*
X176707797Y-145277078D02*
X176707797Y-145134221D01*
X176707797Y-145134221D02*
X176755416Y-144943745D01*
X176755416Y-144943745D02*
X176803035Y-144848507D01*
X176803035Y-144848507D02*
X176898273Y-144753269D01*
X176898273Y-144753269D02*
X177041130Y-144705650D01*
X177041130Y-144705650D02*
X177136368Y-144705650D01*
X177136368Y-144705650D02*
X177279225Y-144753269D01*
X177279225Y-144753269D02*
X177326844Y-144800888D01*
X178326844Y-145610411D02*
X178279225Y-145658031D01*
X178279225Y-145658031D02*
X178136368Y-145705650D01*
X178136368Y-145705650D02*
X178041130Y-145705650D01*
X178041130Y-145705650D02*
X177898273Y-145658031D01*
X177898273Y-145658031D02*
X177803035Y-145562792D01*
X177803035Y-145562792D02*
X177755416Y-145467554D01*
X177755416Y-145467554D02*
X177707797Y-145277078D01*
X177707797Y-145277078D02*
X177707797Y-145134221D01*
X177707797Y-145134221D02*
X177755416Y-144943745D01*
X177755416Y-144943745D02*
X177803035Y-144848507D01*
X177803035Y-144848507D02*
X177898273Y-144753269D01*
X177898273Y-144753269D02*
X178041130Y-144705650D01*
X178041130Y-144705650D02*
X178136368Y-144705650D01*
X178136368Y-144705650D02*
X178279225Y-144753269D01*
X178279225Y-144753269D02*
X178326844Y-144800888D01*
X171175082Y-75140238D02*
X171079844Y-75092619D01*
X171079844Y-75092619D02*
X170936987Y-75092619D01*
X170936987Y-75092619D02*
X170794130Y-75140238D01*
X170794130Y-75140238D02*
X170698892Y-75235476D01*
X170698892Y-75235476D02*
X170651273Y-75330714D01*
X170651273Y-75330714D02*
X170603654Y-75521190D01*
X170603654Y-75521190D02*
X170603654Y-75664047D01*
X170603654Y-75664047D02*
X170651273Y-75854523D01*
X170651273Y-75854523D02*
X170698892Y-75949761D01*
X170698892Y-75949761D02*
X170794130Y-76045000D01*
X170794130Y-76045000D02*
X170936987Y-76092619D01*
X170936987Y-76092619D02*
X171032225Y-76092619D01*
X171032225Y-76092619D02*
X171175082Y-76045000D01*
X171175082Y-76045000D02*
X171222701Y-75997380D01*
X171222701Y-75997380D02*
X171222701Y-75664047D01*
X171222701Y-75664047D02*
X171032225Y-75664047D01*
X171651273Y-76092619D02*
X171651273Y-75092619D01*
X171651273Y-75092619D02*
X172032225Y-75092619D01*
X172032225Y-75092619D02*
X172127463Y-75140238D01*
X172127463Y-75140238D02*
X172175082Y-75187857D01*
X172175082Y-75187857D02*
X172222701Y-75283095D01*
X172222701Y-75283095D02*
X172222701Y-75425952D01*
X172222701Y-75425952D02*
X172175082Y-75521190D01*
X172175082Y-75521190D02*
X172127463Y-75568809D01*
X172127463Y-75568809D02*
X172032225Y-75616428D01*
X172032225Y-75616428D02*
X171651273Y-75616428D01*
X172651273Y-76092619D02*
X172651273Y-75092619D01*
X173317939Y-75092619D02*
X173508415Y-75092619D01*
X173508415Y-75092619D02*
X173603653Y-75140238D01*
X173603653Y-75140238D02*
X173698891Y-75235476D01*
X173698891Y-75235476D02*
X173746510Y-75425952D01*
X173746510Y-75425952D02*
X173746510Y-75759285D01*
X173746510Y-75759285D02*
X173698891Y-75949761D01*
X173698891Y-75949761D02*
X173603653Y-76045000D01*
X173603653Y-76045000D02*
X173508415Y-76092619D01*
X173508415Y-76092619D02*
X173317939Y-76092619D01*
X173317939Y-76092619D02*
X173222701Y-76045000D01*
X173222701Y-76045000D02*
X173127463Y-75949761D01*
X173127463Y-75949761D02*
X173079844Y-75759285D01*
X173079844Y-75759285D02*
X173079844Y-75425952D01*
X173079844Y-75425952D02*
X173127463Y-75235476D01*
X173127463Y-75235476D02*
X173222701Y-75140238D01*
X173222701Y-75140238D02*
X173317939Y-75092619D01*
X174698891Y-76092619D02*
X174127463Y-76092619D01*
X174413177Y-76092619D02*
X174413177Y-75092619D01*
X174413177Y-75092619D02*
X174317939Y-75235476D01*
X174317939Y-75235476D02*
X174222701Y-75330714D01*
X174222701Y-75330714D02*
X174127463Y-75378333D01*
X175651272Y-76092619D02*
X175079844Y-76092619D01*
X175365558Y-76092619D02*
X175365558Y-75092619D01*
X175365558Y-75092619D02*
X175270320Y-75235476D01*
X175270320Y-75235476D02*
X175175082Y-75330714D01*
X175175082Y-75330714D02*
X175079844Y-75378333D01*
X112876934Y-135501336D02*
X112876934Y-135977526D01*
X112876934Y-135977526D02*
X113353124Y-136025145D01*
X113353124Y-136025145D02*
X113305505Y-135977526D01*
X113305505Y-135977526D02*
X113257886Y-135882288D01*
X113257886Y-135882288D02*
X113257886Y-135644193D01*
X113257886Y-135644193D02*
X113305505Y-135548955D01*
X113305505Y-135548955D02*
X113353124Y-135501336D01*
X113353124Y-135501336D02*
X113448362Y-135453717D01*
X113448362Y-135453717D02*
X113686457Y-135453717D01*
X113686457Y-135453717D02*
X113781695Y-135501336D01*
X113781695Y-135501336D02*
X113829315Y-135548955D01*
X113829315Y-135548955D02*
X113876934Y-135644193D01*
X113876934Y-135644193D02*
X113876934Y-135882288D01*
X113876934Y-135882288D02*
X113829315Y-135977526D01*
X113829315Y-135977526D02*
X113781695Y-136025145D01*
X112924553Y-133739431D02*
X112876934Y-133834669D01*
X112876934Y-133834669D02*
X112876934Y-133977526D01*
X112876934Y-133977526D02*
X112924553Y-134120383D01*
X112924553Y-134120383D02*
X113019791Y-134215621D01*
X113019791Y-134215621D02*
X113115029Y-134263240D01*
X113115029Y-134263240D02*
X113305505Y-134310859D01*
X113305505Y-134310859D02*
X113448362Y-134310859D01*
X113448362Y-134310859D02*
X113638838Y-134263240D01*
X113638838Y-134263240D02*
X113734076Y-134215621D01*
X113734076Y-134215621D02*
X113829315Y-134120383D01*
X113829315Y-134120383D02*
X113876934Y-133977526D01*
X113876934Y-133977526D02*
X113876934Y-133882288D01*
X113876934Y-133882288D02*
X113829315Y-133739431D01*
X113829315Y-133739431D02*
X113781695Y-133691812D01*
X113781695Y-133691812D02*
X113448362Y-133691812D01*
X113448362Y-133691812D02*
X113448362Y-133882288D01*
X113876934Y-133263240D02*
X112876934Y-133263240D01*
X112876934Y-133263240D02*
X112876934Y-132882288D01*
X112876934Y-132882288D02*
X112924553Y-132787050D01*
X112924553Y-132787050D02*
X112972172Y-132739431D01*
X112972172Y-132739431D02*
X113067410Y-132691812D01*
X113067410Y-132691812D02*
X113210267Y-132691812D01*
X113210267Y-132691812D02*
X113305505Y-132739431D01*
X113305505Y-132739431D02*
X113353124Y-132787050D01*
X113353124Y-132787050D02*
X113400743Y-132882288D01*
X113400743Y-132882288D02*
X113400743Y-133263240D01*
X113876934Y-132263240D02*
X112876934Y-132263240D01*
X112876934Y-131596574D02*
X112876934Y-131406098D01*
X112876934Y-131406098D02*
X112924553Y-131310860D01*
X112924553Y-131310860D02*
X113019791Y-131215622D01*
X113019791Y-131215622D02*
X113210267Y-131168003D01*
X113210267Y-131168003D02*
X113543600Y-131168003D01*
X113543600Y-131168003D02*
X113734076Y-131215622D01*
X113734076Y-131215622D02*
X113829315Y-131310860D01*
X113829315Y-131310860D02*
X113876934Y-131406098D01*
X113876934Y-131406098D02*
X113876934Y-131596574D01*
X113876934Y-131596574D02*
X113829315Y-131691812D01*
X113829315Y-131691812D02*
X113734076Y-131787050D01*
X113734076Y-131787050D02*
X113543600Y-131834669D01*
X113543600Y-131834669D02*
X113210267Y-131834669D01*
X113210267Y-131834669D02*
X113019791Y-131787050D01*
X113019791Y-131787050D02*
X112924553Y-131691812D01*
X112924553Y-131691812D02*
X112876934Y-131596574D01*
X113305505Y-130596574D02*
X113257886Y-130691812D01*
X113257886Y-130691812D02*
X113210267Y-130739431D01*
X113210267Y-130739431D02*
X113115029Y-130787050D01*
X113115029Y-130787050D02*
X113067410Y-130787050D01*
X113067410Y-130787050D02*
X112972172Y-130739431D01*
X112972172Y-130739431D02*
X112924553Y-130691812D01*
X112924553Y-130691812D02*
X112876934Y-130596574D01*
X112876934Y-130596574D02*
X112876934Y-130406098D01*
X112876934Y-130406098D02*
X112924553Y-130310860D01*
X112924553Y-130310860D02*
X112972172Y-130263241D01*
X112972172Y-130263241D02*
X113067410Y-130215622D01*
X113067410Y-130215622D02*
X113115029Y-130215622D01*
X113115029Y-130215622D02*
X113210267Y-130263241D01*
X113210267Y-130263241D02*
X113257886Y-130310860D01*
X113257886Y-130310860D02*
X113305505Y-130406098D01*
X113305505Y-130406098D02*
X113305505Y-130596574D01*
X113305505Y-130596574D02*
X113353124Y-130691812D01*
X113353124Y-130691812D02*
X113400743Y-130739431D01*
X113400743Y-130739431D02*
X113495981Y-130787050D01*
X113495981Y-130787050D02*
X113686457Y-130787050D01*
X113686457Y-130787050D02*
X113781695Y-130739431D01*
X113781695Y-130739431D02*
X113829315Y-130691812D01*
X113829315Y-130691812D02*
X113876934Y-130596574D01*
X113876934Y-130596574D02*
X113876934Y-130406098D01*
X113876934Y-130406098D02*
X113829315Y-130310860D01*
X113829315Y-130310860D02*
X113781695Y-130263241D01*
X113781695Y-130263241D02*
X113686457Y-130215622D01*
X113686457Y-130215622D02*
X113495981Y-130215622D01*
X113495981Y-130215622D02*
X113400743Y-130263241D01*
X113400743Y-130263241D02*
X113353124Y-130310860D01*
X113353124Y-130310860D02*
X113305505Y-130406098D01*
X98807492Y-74632864D02*
X99140825Y-75632864D01*
X99140825Y-75632864D02*
X99474158Y-74632864D01*
X100378920Y-75632864D02*
X100045587Y-75156673D01*
X99807492Y-75632864D02*
X99807492Y-74632864D01*
X99807492Y-74632864D02*
X100188444Y-74632864D01*
X100188444Y-74632864D02*
X100283682Y-74680483D01*
X100283682Y-74680483D02*
X100331301Y-74728102D01*
X100331301Y-74728102D02*
X100378920Y-74823340D01*
X100378920Y-74823340D02*
X100378920Y-74966197D01*
X100378920Y-74966197D02*
X100331301Y-75061435D01*
X100331301Y-75061435D02*
X100283682Y-75109054D01*
X100283682Y-75109054D02*
X100188444Y-75156673D01*
X100188444Y-75156673D02*
X99807492Y-75156673D01*
X100712254Y-74966197D02*
X100950349Y-75632864D01*
X101188444Y-74966197D02*
X100950349Y-75632864D01*
X100950349Y-75632864D02*
X100855111Y-75870959D01*
X100855111Y-75870959D02*
X100807492Y-75918578D01*
X100807492Y-75918578D02*
X100712254Y-75966197D01*
X155538273Y-145801950D02*
X155538273Y-144801950D01*
X155538273Y-144801950D02*
X155871606Y-145516235D01*
X155871606Y-145516235D02*
X156204939Y-144801950D01*
X156204939Y-144801950D02*
X156204939Y-145801950D01*
X156633511Y-144897188D02*
X156681130Y-144849569D01*
X156681130Y-144849569D02*
X156776368Y-144801950D01*
X156776368Y-144801950D02*
X157014463Y-144801950D01*
X157014463Y-144801950D02*
X157109701Y-144849569D01*
X157109701Y-144849569D02*
X157157320Y-144897188D01*
X157157320Y-144897188D02*
X157204939Y-144992426D01*
X157204939Y-144992426D02*
X157204939Y-145087664D01*
X157204939Y-145087664D02*
X157157320Y-145230521D01*
X157157320Y-145230521D02*
X156585892Y-145801950D01*
X156585892Y-145801950D02*
X157204939Y-145801950D01*
X105591657Y-136025145D02*
X105544038Y-135977526D01*
X105544038Y-135977526D02*
X105496419Y-135882288D01*
X105496419Y-135882288D02*
X105496419Y-135644193D01*
X105496419Y-135644193D02*
X105544038Y-135548955D01*
X105544038Y-135548955D02*
X105591657Y-135501336D01*
X105591657Y-135501336D02*
X105686895Y-135453717D01*
X105686895Y-135453717D02*
X105782133Y-135453717D01*
X105782133Y-135453717D02*
X105924990Y-135501336D01*
X105924990Y-135501336D02*
X106496419Y-136072764D01*
X106496419Y-136072764D02*
X106496419Y-135453717D01*
X105544038Y-133739431D02*
X105496419Y-133834669D01*
X105496419Y-133834669D02*
X105496419Y-133977526D01*
X105496419Y-133977526D02*
X105544038Y-134120383D01*
X105544038Y-134120383D02*
X105639276Y-134215621D01*
X105639276Y-134215621D02*
X105734514Y-134263240D01*
X105734514Y-134263240D02*
X105924990Y-134310859D01*
X105924990Y-134310859D02*
X106067847Y-134310859D01*
X106067847Y-134310859D02*
X106258323Y-134263240D01*
X106258323Y-134263240D02*
X106353561Y-134215621D01*
X106353561Y-134215621D02*
X106448800Y-134120383D01*
X106448800Y-134120383D02*
X106496419Y-133977526D01*
X106496419Y-133977526D02*
X106496419Y-133882288D01*
X106496419Y-133882288D02*
X106448800Y-133739431D01*
X106448800Y-133739431D02*
X106401180Y-133691812D01*
X106401180Y-133691812D02*
X106067847Y-133691812D01*
X106067847Y-133691812D02*
X106067847Y-133882288D01*
X106496419Y-133263240D02*
X105496419Y-133263240D01*
X105496419Y-133263240D02*
X105496419Y-132882288D01*
X105496419Y-132882288D02*
X105544038Y-132787050D01*
X105544038Y-132787050D02*
X105591657Y-132739431D01*
X105591657Y-132739431D02*
X105686895Y-132691812D01*
X105686895Y-132691812D02*
X105829752Y-132691812D01*
X105829752Y-132691812D02*
X105924990Y-132739431D01*
X105924990Y-132739431D02*
X105972609Y-132787050D01*
X105972609Y-132787050D02*
X106020228Y-132882288D01*
X106020228Y-132882288D02*
X106020228Y-133263240D01*
X106496419Y-132263240D02*
X105496419Y-132263240D01*
X105496419Y-131596574D02*
X105496419Y-131406098D01*
X105496419Y-131406098D02*
X105544038Y-131310860D01*
X105544038Y-131310860D02*
X105639276Y-131215622D01*
X105639276Y-131215622D02*
X105829752Y-131168003D01*
X105829752Y-131168003D02*
X106163085Y-131168003D01*
X106163085Y-131168003D02*
X106353561Y-131215622D01*
X106353561Y-131215622D02*
X106448800Y-131310860D01*
X106448800Y-131310860D02*
X106496419Y-131406098D01*
X106496419Y-131406098D02*
X106496419Y-131596574D01*
X106496419Y-131596574D02*
X106448800Y-131691812D01*
X106448800Y-131691812D02*
X106353561Y-131787050D01*
X106353561Y-131787050D02*
X106163085Y-131834669D01*
X106163085Y-131834669D02*
X105829752Y-131834669D01*
X105829752Y-131834669D02*
X105639276Y-131787050D01*
X105639276Y-131787050D02*
X105544038Y-131691812D01*
X105544038Y-131691812D02*
X105496419Y-131596574D01*
X105496419Y-130263241D02*
X105496419Y-130739431D01*
X105496419Y-130739431D02*
X105972609Y-130787050D01*
X105972609Y-130787050D02*
X105924990Y-130739431D01*
X105924990Y-130739431D02*
X105877371Y-130644193D01*
X105877371Y-130644193D02*
X105877371Y-130406098D01*
X105877371Y-130406098D02*
X105924990Y-130310860D01*
X105924990Y-130310860D02*
X105972609Y-130263241D01*
X105972609Y-130263241D02*
X106067847Y-130215622D01*
X106067847Y-130215622D02*
X106305942Y-130215622D01*
X106305942Y-130215622D02*
X106401180Y-130263241D01*
X106401180Y-130263241D02*
X106448800Y-130310860D01*
X106448800Y-130310860D02*
X106496419Y-130406098D01*
X106496419Y-130406098D02*
X106496419Y-130644193D01*
X106496419Y-130644193D02*
X106448800Y-130739431D01*
X106448800Y-130739431D02*
X106401180Y-130787050D01*
X157325000Y-123883945D02*
X157372619Y-123741088D01*
X157372619Y-123741088D02*
X157372619Y-123502993D01*
X157372619Y-123502993D02*
X157325000Y-123407755D01*
X157325000Y-123407755D02*
X157277380Y-123360136D01*
X157277380Y-123360136D02*
X157182142Y-123312517D01*
X157182142Y-123312517D02*
X157086904Y-123312517D01*
X157086904Y-123312517D02*
X156991666Y-123360136D01*
X156991666Y-123360136D02*
X156944047Y-123407755D01*
X156944047Y-123407755D02*
X156896428Y-123502993D01*
X156896428Y-123502993D02*
X156848809Y-123693469D01*
X156848809Y-123693469D02*
X156801190Y-123788707D01*
X156801190Y-123788707D02*
X156753571Y-123836326D01*
X156753571Y-123836326D02*
X156658333Y-123883945D01*
X156658333Y-123883945D02*
X156563095Y-123883945D01*
X156563095Y-123883945D02*
X156467857Y-123836326D01*
X156467857Y-123836326D02*
X156420238Y-123788707D01*
X156420238Y-123788707D02*
X156372619Y-123693469D01*
X156372619Y-123693469D02*
X156372619Y-123455374D01*
X156372619Y-123455374D02*
X156420238Y-123312517D01*
X157372619Y-122883945D02*
X156372619Y-122883945D01*
X156420238Y-121883946D02*
X156372619Y-121979184D01*
X156372619Y-121979184D02*
X156372619Y-122122041D01*
X156372619Y-122122041D02*
X156420238Y-122264898D01*
X156420238Y-122264898D02*
X156515476Y-122360136D01*
X156515476Y-122360136D02*
X156610714Y-122407755D01*
X156610714Y-122407755D02*
X156801190Y-122455374D01*
X156801190Y-122455374D02*
X156944047Y-122455374D01*
X156944047Y-122455374D02*
X157134523Y-122407755D01*
X157134523Y-122407755D02*
X157229761Y-122360136D01*
X157229761Y-122360136D02*
X157325000Y-122264898D01*
X157325000Y-122264898D02*
X157372619Y-122122041D01*
X157372619Y-122122041D02*
X157372619Y-122026803D01*
X157372619Y-122026803D02*
X157325000Y-121883946D01*
X157325000Y-121883946D02*
X157277380Y-121836327D01*
X157277380Y-121836327D02*
X156944047Y-121836327D01*
X156944047Y-121836327D02*
X156944047Y-122026803D01*
X157372619Y-121407755D02*
X156372619Y-121407755D01*
X156372619Y-121407755D02*
X157372619Y-120836327D01*
X157372619Y-120836327D02*
X156372619Y-120836327D01*
X157086904Y-120407755D02*
X157086904Y-119931565D01*
X157372619Y-120502993D02*
X156372619Y-120169660D01*
X156372619Y-120169660D02*
X157372619Y-119836327D01*
X157372619Y-119026803D02*
X157372619Y-119502993D01*
X157372619Y-119502993D02*
X156372619Y-119502993D01*
X156420238Y-117407755D02*
X156372619Y-117502993D01*
X156372619Y-117502993D02*
X156372619Y-117645850D01*
X156372619Y-117645850D02*
X156420238Y-117788707D01*
X156420238Y-117788707D02*
X156515476Y-117883945D01*
X156515476Y-117883945D02*
X156610714Y-117931564D01*
X156610714Y-117931564D02*
X156801190Y-117979183D01*
X156801190Y-117979183D02*
X156944047Y-117979183D01*
X156944047Y-117979183D02*
X157134523Y-117931564D01*
X157134523Y-117931564D02*
X157229761Y-117883945D01*
X157229761Y-117883945D02*
X157325000Y-117788707D01*
X157325000Y-117788707D02*
X157372619Y-117645850D01*
X157372619Y-117645850D02*
X157372619Y-117550612D01*
X157372619Y-117550612D02*
X157325000Y-117407755D01*
X157325000Y-117407755D02*
X157277380Y-117360136D01*
X157277380Y-117360136D02*
X156944047Y-117360136D01*
X156944047Y-117360136D02*
X156944047Y-117550612D01*
X157372619Y-116931564D02*
X156372619Y-116931564D01*
X156372619Y-116931564D02*
X156372619Y-116550612D01*
X156372619Y-116550612D02*
X156420238Y-116455374D01*
X156420238Y-116455374D02*
X156467857Y-116407755D01*
X156467857Y-116407755D02*
X156563095Y-116360136D01*
X156563095Y-116360136D02*
X156705952Y-116360136D01*
X156705952Y-116360136D02*
X156801190Y-116407755D01*
X156801190Y-116407755D02*
X156848809Y-116455374D01*
X156848809Y-116455374D02*
X156896428Y-116550612D01*
X156896428Y-116550612D02*
X156896428Y-116931564D01*
X157372619Y-115931564D02*
X156372619Y-115931564D01*
X156372619Y-115264898D02*
X156372619Y-115074422D01*
X156372619Y-115074422D02*
X156420238Y-114979184D01*
X156420238Y-114979184D02*
X156515476Y-114883946D01*
X156515476Y-114883946D02*
X156705952Y-114836327D01*
X156705952Y-114836327D02*
X157039285Y-114836327D01*
X157039285Y-114836327D02*
X157229761Y-114883946D01*
X157229761Y-114883946D02*
X157325000Y-114979184D01*
X157325000Y-114979184D02*
X157372619Y-115074422D01*
X157372619Y-115074422D02*
X157372619Y-115264898D01*
X157372619Y-115264898D02*
X157325000Y-115360136D01*
X157325000Y-115360136D02*
X157229761Y-115455374D01*
X157229761Y-115455374D02*
X157039285Y-115502993D01*
X157039285Y-115502993D02*
X156705952Y-115502993D01*
X156705952Y-115502993D02*
X156515476Y-115455374D01*
X156515476Y-115455374D02*
X156420238Y-115360136D01*
X156420238Y-115360136D02*
X156372619Y-115264898D01*
X156467857Y-114455374D02*
X156420238Y-114407755D01*
X156420238Y-114407755D02*
X156372619Y-114312517D01*
X156372619Y-114312517D02*
X156372619Y-114074422D01*
X156372619Y-114074422D02*
X156420238Y-113979184D01*
X156420238Y-113979184D02*
X156467857Y-113931565D01*
X156467857Y-113931565D02*
X156563095Y-113883946D01*
X156563095Y-113883946D02*
X156658333Y-113883946D01*
X156658333Y-113883946D02*
X156801190Y-113931565D01*
X156801190Y-113931565D02*
X157372619Y-114502993D01*
X157372619Y-114502993D02*
X157372619Y-113883946D01*
X137951209Y-136075993D02*
X137998828Y-135933136D01*
X137998828Y-135933136D02*
X138046447Y-135885517D01*
X138046447Y-135885517D02*
X138141685Y-135837898D01*
X138141685Y-135837898D02*
X138284542Y-135837898D01*
X138284542Y-135837898D02*
X138379780Y-135885517D01*
X138379780Y-135885517D02*
X138427400Y-135933136D01*
X138427400Y-135933136D02*
X138475019Y-136028374D01*
X138475019Y-136028374D02*
X138475019Y-136409326D01*
X138475019Y-136409326D02*
X137475019Y-136409326D01*
X137475019Y-136409326D02*
X137475019Y-136075993D01*
X137475019Y-136075993D02*
X137522638Y-135980755D01*
X137522638Y-135980755D02*
X137570257Y-135933136D01*
X137570257Y-135933136D02*
X137665495Y-135885517D01*
X137665495Y-135885517D02*
X137760733Y-135885517D01*
X137760733Y-135885517D02*
X137855971Y-135933136D01*
X137855971Y-135933136D02*
X137903590Y-135980755D01*
X137903590Y-135980755D02*
X137951209Y-136075993D01*
X137951209Y-136075993D02*
X137951209Y-136409326D01*
X137522638Y-134123612D02*
X137475019Y-134218850D01*
X137475019Y-134218850D02*
X137475019Y-134361707D01*
X137475019Y-134361707D02*
X137522638Y-134504564D01*
X137522638Y-134504564D02*
X137617876Y-134599802D01*
X137617876Y-134599802D02*
X137713114Y-134647421D01*
X137713114Y-134647421D02*
X137903590Y-134695040D01*
X137903590Y-134695040D02*
X138046447Y-134695040D01*
X138046447Y-134695040D02*
X138236923Y-134647421D01*
X138236923Y-134647421D02*
X138332161Y-134599802D01*
X138332161Y-134599802D02*
X138427400Y-134504564D01*
X138427400Y-134504564D02*
X138475019Y-134361707D01*
X138475019Y-134361707D02*
X138475019Y-134266469D01*
X138475019Y-134266469D02*
X138427400Y-134123612D01*
X138427400Y-134123612D02*
X138379780Y-134075993D01*
X138379780Y-134075993D02*
X138046447Y-134075993D01*
X138046447Y-134075993D02*
X138046447Y-134266469D01*
X138475019Y-133647421D02*
X137475019Y-133647421D01*
X137475019Y-133647421D02*
X137475019Y-133266469D01*
X137475019Y-133266469D02*
X137522638Y-133171231D01*
X137522638Y-133171231D02*
X137570257Y-133123612D01*
X137570257Y-133123612D02*
X137665495Y-133075993D01*
X137665495Y-133075993D02*
X137808352Y-133075993D01*
X137808352Y-133075993D02*
X137903590Y-133123612D01*
X137903590Y-133123612D02*
X137951209Y-133171231D01*
X137951209Y-133171231D02*
X137998828Y-133266469D01*
X137998828Y-133266469D02*
X137998828Y-133647421D01*
X138475019Y-132647421D02*
X137475019Y-132647421D01*
X137475019Y-131980755D02*
X137475019Y-131790279D01*
X137475019Y-131790279D02*
X137522638Y-131695041D01*
X137522638Y-131695041D02*
X137617876Y-131599803D01*
X137617876Y-131599803D02*
X137808352Y-131552184D01*
X137808352Y-131552184D02*
X138141685Y-131552184D01*
X138141685Y-131552184D02*
X138332161Y-131599803D01*
X138332161Y-131599803D02*
X138427400Y-131695041D01*
X138427400Y-131695041D02*
X138475019Y-131790279D01*
X138475019Y-131790279D02*
X138475019Y-131980755D01*
X138475019Y-131980755D02*
X138427400Y-132075993D01*
X138427400Y-132075993D02*
X138332161Y-132171231D01*
X138332161Y-132171231D02*
X138141685Y-132218850D01*
X138141685Y-132218850D02*
X137808352Y-132218850D01*
X137808352Y-132218850D02*
X137617876Y-132171231D01*
X137617876Y-132171231D02*
X137522638Y-132075993D01*
X137522638Y-132075993D02*
X137475019Y-131980755D01*
X138475019Y-130599803D02*
X138475019Y-131171231D01*
X138475019Y-130885517D02*
X137475019Y-130885517D01*
X137475019Y-130885517D02*
X137617876Y-130980755D01*
X137617876Y-130980755D02*
X137713114Y-131075993D01*
X137713114Y-131075993D02*
X137760733Y-131171231D01*
X137903590Y-130028374D02*
X137855971Y-130123612D01*
X137855971Y-130123612D02*
X137808352Y-130171231D01*
X137808352Y-130171231D02*
X137713114Y-130218850D01*
X137713114Y-130218850D02*
X137665495Y-130218850D01*
X137665495Y-130218850D02*
X137570257Y-130171231D01*
X137570257Y-130171231D02*
X137522638Y-130123612D01*
X137522638Y-130123612D02*
X137475019Y-130028374D01*
X137475019Y-130028374D02*
X137475019Y-129837898D01*
X137475019Y-129837898D02*
X137522638Y-129742660D01*
X137522638Y-129742660D02*
X137570257Y-129695041D01*
X137570257Y-129695041D02*
X137665495Y-129647422D01*
X137665495Y-129647422D02*
X137713114Y-129647422D01*
X137713114Y-129647422D02*
X137808352Y-129695041D01*
X137808352Y-129695041D02*
X137855971Y-129742660D01*
X137855971Y-129742660D02*
X137903590Y-129837898D01*
X137903590Y-129837898D02*
X137903590Y-130028374D01*
X137903590Y-130028374D02*
X137951209Y-130123612D01*
X137951209Y-130123612D02*
X137998828Y-130171231D01*
X137998828Y-130171231D02*
X138094066Y-130218850D01*
X138094066Y-130218850D02*
X138284542Y-130218850D01*
X138284542Y-130218850D02*
X138379780Y-130171231D01*
X138379780Y-130171231D02*
X138427400Y-130123612D01*
X138427400Y-130123612D02*
X138475019Y-130028374D01*
X138475019Y-130028374D02*
X138475019Y-129837898D01*
X138475019Y-129837898D02*
X138427400Y-129742660D01*
X138427400Y-129742660D02*
X138379780Y-129695041D01*
X138379780Y-129695041D02*
X138284542Y-129647422D01*
X138284542Y-129647422D02*
X138094066Y-129647422D01*
X138094066Y-129647422D02*
X137998828Y-129695041D01*
X137998828Y-129695041D02*
X137951209Y-129742660D01*
X137951209Y-129742660D02*
X137903590Y-129837898D01*
X159014219Y-123360136D02*
X159014219Y-123836326D01*
X159014219Y-123836326D02*
X159490409Y-123883945D01*
X159490409Y-123883945D02*
X159442790Y-123836326D01*
X159442790Y-123836326D02*
X159395171Y-123741088D01*
X159395171Y-123741088D02*
X159395171Y-123502993D01*
X159395171Y-123502993D02*
X159442790Y-123407755D01*
X159442790Y-123407755D02*
X159490409Y-123360136D01*
X159490409Y-123360136D02*
X159585647Y-123312517D01*
X159585647Y-123312517D02*
X159823742Y-123312517D01*
X159823742Y-123312517D02*
X159918980Y-123360136D01*
X159918980Y-123360136D02*
X159966600Y-123407755D01*
X159966600Y-123407755D02*
X160014219Y-123502993D01*
X160014219Y-123502993D02*
X160014219Y-123741088D01*
X160014219Y-123741088D02*
X159966600Y-123836326D01*
X159966600Y-123836326D02*
X159918980Y-123883945D01*
X159014219Y-123026802D02*
X160014219Y-122693469D01*
X160014219Y-122693469D02*
X159014219Y-122360136D01*
X97876419Y-135526736D02*
X97876419Y-136002926D01*
X97876419Y-136002926D02*
X98352609Y-136050545D01*
X98352609Y-136050545D02*
X98304990Y-136002926D01*
X98304990Y-136002926D02*
X98257371Y-135907688D01*
X98257371Y-135907688D02*
X98257371Y-135669593D01*
X98257371Y-135669593D02*
X98304990Y-135574355D01*
X98304990Y-135574355D02*
X98352609Y-135526736D01*
X98352609Y-135526736D02*
X98447847Y-135479117D01*
X98447847Y-135479117D02*
X98685942Y-135479117D01*
X98685942Y-135479117D02*
X98781180Y-135526736D01*
X98781180Y-135526736D02*
X98828800Y-135574355D01*
X98828800Y-135574355D02*
X98876419Y-135669593D01*
X98876419Y-135669593D02*
X98876419Y-135907688D01*
X98876419Y-135907688D02*
X98828800Y-136002926D01*
X98828800Y-136002926D02*
X98781180Y-136050545D01*
X97876419Y-135193402D02*
X98876419Y-134860069D01*
X98876419Y-134860069D02*
X97876419Y-134526736D01*
X132395019Y-135933136D02*
X132395019Y-136409326D01*
X132395019Y-136409326D02*
X132871209Y-136456945D01*
X132871209Y-136456945D02*
X132823590Y-136409326D01*
X132823590Y-136409326D02*
X132775971Y-136314088D01*
X132775971Y-136314088D02*
X132775971Y-136075993D01*
X132775971Y-136075993D02*
X132823590Y-135980755D01*
X132823590Y-135980755D02*
X132871209Y-135933136D01*
X132871209Y-135933136D02*
X132966447Y-135885517D01*
X132966447Y-135885517D02*
X133204542Y-135885517D01*
X133204542Y-135885517D02*
X133299780Y-135933136D01*
X133299780Y-135933136D02*
X133347400Y-135980755D01*
X133347400Y-135980755D02*
X133395019Y-136075993D01*
X133395019Y-136075993D02*
X133395019Y-136314088D01*
X133395019Y-136314088D02*
X133347400Y-136409326D01*
X133347400Y-136409326D02*
X133299780Y-136456945D01*
X132395019Y-135599802D02*
X133395019Y-135266469D01*
X133395019Y-135266469D02*
X132395019Y-134933136D01*
X104036248Y-135479117D02*
X104036248Y-136050545D01*
X104036248Y-135764831D02*
X103036248Y-135764831D01*
X103036248Y-135764831D02*
X103179105Y-135860069D01*
X103179105Y-135860069D02*
X103274343Y-135955307D01*
X103274343Y-135955307D02*
X103321962Y-136050545D01*
X103083867Y-133764831D02*
X103036248Y-133860069D01*
X103036248Y-133860069D02*
X103036248Y-134002926D01*
X103036248Y-134002926D02*
X103083867Y-134145783D01*
X103083867Y-134145783D02*
X103179105Y-134241021D01*
X103179105Y-134241021D02*
X103274343Y-134288640D01*
X103274343Y-134288640D02*
X103464819Y-134336259D01*
X103464819Y-134336259D02*
X103607676Y-134336259D01*
X103607676Y-134336259D02*
X103798152Y-134288640D01*
X103798152Y-134288640D02*
X103893390Y-134241021D01*
X103893390Y-134241021D02*
X103988629Y-134145783D01*
X103988629Y-134145783D02*
X104036248Y-134002926D01*
X104036248Y-134002926D02*
X104036248Y-133907688D01*
X104036248Y-133907688D02*
X103988629Y-133764831D01*
X103988629Y-133764831D02*
X103941009Y-133717212D01*
X103941009Y-133717212D02*
X103607676Y-133717212D01*
X103607676Y-133717212D02*
X103607676Y-133907688D01*
X104036248Y-133288640D02*
X103036248Y-133288640D01*
X103036248Y-133288640D02*
X103036248Y-132907688D01*
X103036248Y-132907688D02*
X103083867Y-132812450D01*
X103083867Y-132812450D02*
X103131486Y-132764831D01*
X103131486Y-132764831D02*
X103226724Y-132717212D01*
X103226724Y-132717212D02*
X103369581Y-132717212D01*
X103369581Y-132717212D02*
X103464819Y-132764831D01*
X103464819Y-132764831D02*
X103512438Y-132812450D01*
X103512438Y-132812450D02*
X103560057Y-132907688D01*
X103560057Y-132907688D02*
X103560057Y-133288640D01*
X104036248Y-132288640D02*
X103036248Y-132288640D01*
X103036248Y-131621974D02*
X103036248Y-131431498D01*
X103036248Y-131431498D02*
X103083867Y-131336260D01*
X103083867Y-131336260D02*
X103179105Y-131241022D01*
X103179105Y-131241022D02*
X103369581Y-131193403D01*
X103369581Y-131193403D02*
X103702914Y-131193403D01*
X103702914Y-131193403D02*
X103893390Y-131241022D01*
X103893390Y-131241022D02*
X103988629Y-131336260D01*
X103988629Y-131336260D02*
X104036248Y-131431498D01*
X104036248Y-131431498D02*
X104036248Y-131621974D01*
X104036248Y-131621974D02*
X103988629Y-131717212D01*
X103988629Y-131717212D02*
X103893390Y-131812450D01*
X103893390Y-131812450D02*
X103702914Y-131860069D01*
X103702914Y-131860069D02*
X103369581Y-131860069D01*
X103369581Y-131860069D02*
X103179105Y-131812450D01*
X103179105Y-131812450D02*
X103083867Y-131717212D01*
X103083867Y-131717212D02*
X103036248Y-131621974D01*
X103369581Y-130336260D02*
X104036248Y-130336260D01*
X102988629Y-130574355D02*
X103702914Y-130812450D01*
X103702914Y-130812450D02*
X103702914Y-130193403D01*
X120686019Y-135885469D02*
X120638400Y-135980707D01*
X120638400Y-135980707D02*
X120590781Y-136028326D01*
X120590781Y-136028326D02*
X120495543Y-136075945D01*
X120495543Y-136075945D02*
X120447924Y-136075945D01*
X120447924Y-136075945D02*
X120352686Y-136028326D01*
X120352686Y-136028326D02*
X120305067Y-135980707D01*
X120305067Y-135980707D02*
X120257448Y-135885469D01*
X120257448Y-135885469D02*
X120257448Y-135694993D01*
X120257448Y-135694993D02*
X120305067Y-135599755D01*
X120305067Y-135599755D02*
X120352686Y-135552136D01*
X120352686Y-135552136D02*
X120447924Y-135504517D01*
X120447924Y-135504517D02*
X120495543Y-135504517D01*
X120495543Y-135504517D02*
X120590781Y-135552136D01*
X120590781Y-135552136D02*
X120638400Y-135599755D01*
X120638400Y-135599755D02*
X120686019Y-135694993D01*
X120686019Y-135694993D02*
X120686019Y-135885469D01*
X120686019Y-135885469D02*
X120733638Y-135980707D01*
X120733638Y-135980707D02*
X120781257Y-136028326D01*
X120781257Y-136028326D02*
X120876495Y-136075945D01*
X120876495Y-136075945D02*
X121066971Y-136075945D01*
X121066971Y-136075945D02*
X121162209Y-136028326D01*
X121162209Y-136028326D02*
X121209829Y-135980707D01*
X121209829Y-135980707D02*
X121257448Y-135885469D01*
X121257448Y-135885469D02*
X121257448Y-135694993D01*
X121257448Y-135694993D02*
X121209829Y-135599755D01*
X121209829Y-135599755D02*
X121162209Y-135552136D01*
X121162209Y-135552136D02*
X121066971Y-135504517D01*
X121066971Y-135504517D02*
X120876495Y-135504517D01*
X120876495Y-135504517D02*
X120781257Y-135552136D01*
X120781257Y-135552136D02*
X120733638Y-135599755D01*
X120733638Y-135599755D02*
X120686019Y-135694993D01*
X120305067Y-133790231D02*
X120257448Y-133885469D01*
X120257448Y-133885469D02*
X120257448Y-134028326D01*
X120257448Y-134028326D02*
X120305067Y-134171183D01*
X120305067Y-134171183D02*
X120400305Y-134266421D01*
X120400305Y-134266421D02*
X120495543Y-134314040D01*
X120495543Y-134314040D02*
X120686019Y-134361659D01*
X120686019Y-134361659D02*
X120828876Y-134361659D01*
X120828876Y-134361659D02*
X121019352Y-134314040D01*
X121019352Y-134314040D02*
X121114590Y-134266421D01*
X121114590Y-134266421D02*
X121209829Y-134171183D01*
X121209829Y-134171183D02*
X121257448Y-134028326D01*
X121257448Y-134028326D02*
X121257448Y-133933088D01*
X121257448Y-133933088D02*
X121209829Y-133790231D01*
X121209829Y-133790231D02*
X121162209Y-133742612D01*
X121162209Y-133742612D02*
X120828876Y-133742612D01*
X120828876Y-133742612D02*
X120828876Y-133933088D01*
X121257448Y-133314040D02*
X120257448Y-133314040D01*
X120257448Y-133314040D02*
X120257448Y-132933088D01*
X120257448Y-132933088D02*
X120305067Y-132837850D01*
X120305067Y-132837850D02*
X120352686Y-132790231D01*
X120352686Y-132790231D02*
X120447924Y-132742612D01*
X120447924Y-132742612D02*
X120590781Y-132742612D01*
X120590781Y-132742612D02*
X120686019Y-132790231D01*
X120686019Y-132790231D02*
X120733638Y-132837850D01*
X120733638Y-132837850D02*
X120781257Y-132933088D01*
X120781257Y-132933088D02*
X120781257Y-133314040D01*
X121257448Y-132314040D02*
X120257448Y-132314040D01*
X120257448Y-131647374D02*
X120257448Y-131456898D01*
X120257448Y-131456898D02*
X120305067Y-131361660D01*
X120305067Y-131361660D02*
X120400305Y-131266422D01*
X120400305Y-131266422D02*
X120590781Y-131218803D01*
X120590781Y-131218803D02*
X120924114Y-131218803D01*
X120924114Y-131218803D02*
X121114590Y-131266422D01*
X121114590Y-131266422D02*
X121209829Y-131361660D01*
X121209829Y-131361660D02*
X121257448Y-131456898D01*
X121257448Y-131456898D02*
X121257448Y-131647374D01*
X121257448Y-131647374D02*
X121209829Y-131742612D01*
X121209829Y-131742612D02*
X121114590Y-131837850D01*
X121114590Y-131837850D02*
X120924114Y-131885469D01*
X120924114Y-131885469D02*
X120590781Y-131885469D01*
X120590781Y-131885469D02*
X120400305Y-131837850D01*
X120400305Y-131837850D02*
X120305067Y-131742612D01*
X120305067Y-131742612D02*
X120257448Y-131647374D01*
X121257448Y-130266422D02*
X121257448Y-130837850D01*
X121257448Y-130552136D02*
X120257448Y-130552136D01*
X120257448Y-130552136D02*
X120400305Y-130647374D01*
X120400305Y-130647374D02*
X120495543Y-130742612D01*
X120495543Y-130742612D02*
X120543162Y-130837850D01*
X180446082Y-80525038D02*
X180350844Y-80477419D01*
X180350844Y-80477419D02*
X180207987Y-80477419D01*
X180207987Y-80477419D02*
X180065130Y-80525038D01*
X180065130Y-80525038D02*
X179969892Y-80620276D01*
X179969892Y-80620276D02*
X179922273Y-80715514D01*
X179922273Y-80715514D02*
X179874654Y-80905990D01*
X179874654Y-80905990D02*
X179874654Y-81048847D01*
X179874654Y-81048847D02*
X179922273Y-81239323D01*
X179922273Y-81239323D02*
X179969892Y-81334561D01*
X179969892Y-81334561D02*
X180065130Y-81429800D01*
X180065130Y-81429800D02*
X180207987Y-81477419D01*
X180207987Y-81477419D02*
X180303225Y-81477419D01*
X180303225Y-81477419D02*
X180446082Y-81429800D01*
X180446082Y-81429800D02*
X180493701Y-81382180D01*
X180493701Y-81382180D02*
X180493701Y-81048847D01*
X180493701Y-81048847D02*
X180303225Y-81048847D01*
X180922273Y-81477419D02*
X180922273Y-80477419D01*
X180922273Y-80477419D02*
X181493701Y-81477419D01*
X181493701Y-81477419D02*
X181493701Y-80477419D01*
X181969892Y-81477419D02*
X181969892Y-80477419D01*
X181969892Y-80477419D02*
X182207987Y-80477419D01*
X182207987Y-80477419D02*
X182350844Y-80525038D01*
X182350844Y-80525038D02*
X182446082Y-80620276D01*
X182446082Y-80620276D02*
X182493701Y-80715514D01*
X182493701Y-80715514D02*
X182541320Y-80905990D01*
X182541320Y-80905990D02*
X182541320Y-81048847D01*
X182541320Y-81048847D02*
X182493701Y-81239323D01*
X182493701Y-81239323D02*
X182446082Y-81334561D01*
X182446082Y-81334561D02*
X182350844Y-81429800D01*
X182350844Y-81429800D02*
X182207987Y-81477419D01*
X182207987Y-81477419D02*
X181969892Y-81477419D01*
X150356673Y-145801950D02*
X150356673Y-144801950D01*
X150356673Y-144801950D02*
X150690006Y-145516235D01*
X150690006Y-145516235D02*
X151023339Y-144801950D01*
X151023339Y-144801950D02*
X151023339Y-145801950D01*
X152023339Y-145801950D02*
X151451911Y-145801950D01*
X151737625Y-145801950D02*
X151737625Y-144801950D01*
X151737625Y-144801950D02*
X151642387Y-144944807D01*
X151642387Y-144944807D02*
X151547149Y-145040045D01*
X151547149Y-145040045D02*
X151451911Y-145087664D01*
D11*
%TO.C,J4*%
X174595800Y-133211600D02*
X184835800Y-133211600D01*
X174595800Y-136231600D02*
X184835800Y-136231600D01*
X174595800Y-141131600D02*
X184835800Y-141131600D01*
X174595800Y-142631600D02*
X184835800Y-142631600D01*
X174595800Y-143251600D02*
X174595800Y-133211600D01*
X176915800Y-143251600D02*
X174595800Y-143251600D01*
X184835800Y-133211600D02*
X184835800Y-143251600D01*
X184835800Y-143251600D02*
X177515800Y-143251600D01*
X177655800Y-143861600D02*
X176775800Y-143861600D01*
X177215800Y-143251600D01*
X177655800Y-143861600D01*
G36*
X177655800Y-143861600D02*
G01*
X176775800Y-143861600D01*
X177215800Y-143251600D01*
X177655800Y-143861600D01*
G37*
%TO.C,D1*%
X172274000Y-129692400D02*
X173184000Y-129692400D01*
X181259000Y-132412400D02*
X181259000Y-126972400D01*
X181379000Y-132412400D02*
X181379000Y-126972400D01*
X181499000Y-132412400D02*
X181499000Y-126972400D01*
X183834000Y-129692400D02*
X182924000Y-129692400D01*
X182924000Y-132412400D02*
X173184000Y-132412400D01*
X173184000Y-126972400D01*
X182924000Y-126972400D01*
X182924000Y-132412400D01*
%TO.C,J8*%
X114474000Y-73990200D02*
X114474000Y-127390200D01*
X114474000Y-73990200D02*
X117134000Y-73990200D01*
X114474000Y-127390200D02*
X117134000Y-127390200D01*
X115804000Y-71390200D02*
X117134000Y-71390200D01*
X117134000Y-71390200D02*
X117134000Y-72720200D01*
X117134000Y-73990200D02*
X117134000Y-127390200D01*
%TO.C,C3*%
X187326600Y-137192652D02*
X187326600Y-136670148D01*
X188796600Y-137192652D02*
X188796600Y-136670148D01*
%TO.C,D2*%
X172274000Y-121843800D02*
X173184000Y-121843800D01*
X174609000Y-119123800D02*
X174609000Y-124563800D01*
X174729000Y-119123800D02*
X174729000Y-124563800D01*
X174849000Y-119123800D02*
X174849000Y-124563800D01*
X183834000Y-121843800D02*
X182924000Y-121843800D01*
X173184000Y-119123800D02*
X182924000Y-119123800D01*
X182924000Y-124563800D01*
X173184000Y-124563800D01*
X173184000Y-119123800D01*
%TO.C,J15*%
X161972000Y-133277200D02*
X172212000Y-133277200D01*
X161972000Y-136297200D02*
X172212000Y-136297200D01*
X161972000Y-141197200D02*
X172212000Y-141197200D01*
X161972000Y-142697200D02*
X172212000Y-142697200D01*
X161972000Y-143317200D02*
X161972000Y-133277200D01*
X164292000Y-143317200D02*
X161972000Y-143317200D01*
X172212000Y-133277200D02*
X172212000Y-143317200D01*
X172212000Y-143317200D02*
X164892000Y-143317200D01*
X165032000Y-143927200D02*
X164152000Y-143927200D01*
X164592000Y-143317200D01*
X165032000Y-143927200D01*
G36*
X165032000Y-143927200D02*
G01*
X164152000Y-143927200D01*
X164592000Y-143317200D01*
X165032000Y-143927200D01*
G37*
%TO.C,J13*%
X128019800Y-137146800D02*
X128019800Y-143116800D01*
X128019800Y-143116800D02*
X145639800Y-143116800D01*
X128029800Y-140856800D02*
X128779800Y-140856800D01*
X128029800Y-142356800D02*
X128029800Y-143106800D01*
X128029800Y-143106800D02*
X129829800Y-143106800D01*
X128779800Y-137906800D02*
X136829800Y-137906800D01*
X128779800Y-140856800D02*
X128779800Y-137906800D01*
X129829800Y-142356800D02*
X128029800Y-142356800D01*
X129829800Y-143106800D02*
X129829800Y-142356800D01*
X131329800Y-142356800D02*
X131329800Y-143106800D01*
X131329800Y-143106800D02*
X142329800Y-143106800D01*
X142329800Y-142356800D02*
X131329800Y-142356800D01*
X142329800Y-143106800D02*
X142329800Y-142356800D01*
X143829800Y-142356800D02*
X143829800Y-143106800D01*
X143829800Y-143106800D02*
X145629800Y-143106800D01*
X144679800Y-143406800D02*
X145929800Y-143406800D01*
X144879800Y-137906800D02*
X136829800Y-137906800D01*
X144879800Y-140856800D02*
X144879800Y-137906800D01*
X145629800Y-140856800D02*
X144879800Y-140856800D01*
X145629800Y-142356800D02*
X143829800Y-142356800D01*
X145629800Y-143106800D02*
X145629800Y-142356800D01*
X145639800Y-137146800D02*
X128019800Y-137146800D01*
X145639800Y-143116800D02*
X145639800Y-137146800D01*
X145929800Y-143406800D02*
X145929800Y-142156800D01*
%TO.C,J6*%
X156556800Y-101640800D02*
X156556800Y-93960800D01*
X156556800Y-104240800D02*
X156556800Y-102910800D01*
X157886800Y-104240800D02*
X156556800Y-104240800D01*
X159216800Y-93960800D02*
X156556800Y-93960800D01*
X159216800Y-101640800D02*
X156556800Y-101640800D01*
X159216800Y-101640800D02*
X159216800Y-93960800D01*
%TO.C,J5*%
X102048000Y-81584800D02*
X102048000Y-71364800D01*
X102048000Y-84184800D02*
X102048000Y-82854800D01*
X103378000Y-84184800D02*
X102048000Y-84184800D01*
X104708000Y-71364800D02*
X102048000Y-71364800D01*
X104708000Y-81584800D02*
X102048000Y-81584800D01*
X104708000Y-81584800D02*
X104708000Y-71364800D01*
%TO.C,J3*%
X154873000Y-125090200D02*
X154873000Y-131060200D01*
X154873000Y-131060200D02*
X164993000Y-131060200D01*
X154883000Y-128800200D02*
X155633000Y-128800200D01*
X154883000Y-130300200D02*
X154883000Y-131050200D01*
X154883000Y-131050200D02*
X156683000Y-131050200D01*
X155633000Y-125850200D02*
X159933000Y-125850200D01*
X155633000Y-128800200D02*
X155633000Y-125850200D01*
X156683000Y-130300200D02*
X154883000Y-130300200D01*
X156683000Y-131050200D02*
X156683000Y-130300200D01*
X158183000Y-130300200D02*
X158183000Y-131050200D01*
X158183000Y-131050200D02*
X161683000Y-131050200D01*
X161683000Y-130300200D02*
X158183000Y-130300200D01*
X161683000Y-131050200D02*
X161683000Y-130300200D01*
X163183000Y-130300200D02*
X163183000Y-131050200D01*
X163183000Y-131050200D02*
X164983000Y-131050200D01*
X164033000Y-131350200D02*
X165283000Y-131350200D01*
X164233000Y-125850200D02*
X159933000Y-125850200D01*
X164233000Y-128800200D02*
X164233000Y-125850200D01*
X164983000Y-128800200D02*
X164233000Y-128800200D01*
X164983000Y-130300200D02*
X163183000Y-130300200D01*
X164983000Y-131050200D02*
X164983000Y-130300200D01*
X164993000Y-125090200D02*
X154873000Y-125090200D01*
X164993000Y-131060200D02*
X164993000Y-125090200D01*
X165283000Y-131350200D02*
X165283000Y-130100200D01*
%TO.C,J14*%
X148499200Y-133358700D02*
X158739200Y-133358700D01*
X148499200Y-136378700D02*
X158739200Y-136378700D01*
X148499200Y-141278700D02*
X158739200Y-141278700D01*
X148499200Y-142778700D02*
X158739200Y-142778700D01*
X148499200Y-143398700D02*
X148499200Y-133358700D01*
X150819200Y-143398700D02*
X148499200Y-143398700D01*
X158739200Y-133358700D02*
X158739200Y-143398700D01*
X158739200Y-143398700D02*
X151419200Y-143398700D01*
X151559200Y-144008700D02*
X150679200Y-144008700D01*
X151119200Y-143398700D01*
X151559200Y-144008700D01*
G36*
X151559200Y-144008700D02*
G01*
X150679200Y-144008700D01*
X151119200Y-143398700D01*
X151559200Y-144008700D01*
G37*
%TO.C,J10*%
X108334000Y-71340200D02*
X109714000Y-71340200D01*
X108334000Y-72720200D02*
X108334000Y-71340200D01*
X108334000Y-73990200D02*
X108334000Y-127440200D01*
X108334000Y-73990200D02*
X111094000Y-73990200D01*
X108334000Y-127440200D02*
X111094000Y-127440200D01*
X111094000Y-73990200D02*
X111094000Y-127440200D01*
%TO.C,J2*%
X176419600Y-82164400D02*
X176419600Y-71944400D01*
X176419600Y-84764400D02*
X176419600Y-83434400D01*
X177749600Y-84764400D02*
X176419600Y-84764400D01*
X179079600Y-71944400D02*
X176419600Y-71944400D01*
X179079600Y-82164400D02*
X176419600Y-82164400D01*
X179079600Y-82164400D02*
X179079600Y-71944400D01*
%TO.C,J9*%
X141244000Y-73990200D02*
X141244000Y-127390200D01*
X141244000Y-73990200D02*
X143904000Y-73990200D01*
X141244000Y-127390200D02*
X143904000Y-127390200D01*
X142574000Y-71390200D02*
X143904000Y-71390200D01*
X143904000Y-71390200D02*
X143904000Y-72720200D01*
X143904000Y-73990200D02*
X143904000Y-127390200D01*
%TO.C,C5*%
X118416400Y-125726648D02*
X118416400Y-126249152D01*
X119886400Y-125726648D02*
X119886400Y-126249152D01*
%TO.C,J1*%
X93253200Y-136799600D02*
X93253200Y-142769600D01*
X93253200Y-142769600D02*
X123373200Y-142769600D01*
X93263200Y-140509600D02*
X94013200Y-140509600D01*
X93263200Y-142009600D02*
X93263200Y-142759600D01*
X93263200Y-142759600D02*
X95063200Y-142759600D01*
X94013200Y-137559600D02*
X108313200Y-137559600D01*
X94013200Y-140509600D02*
X94013200Y-137559600D01*
X95063200Y-142009600D02*
X93263200Y-142009600D01*
X95063200Y-142759600D02*
X95063200Y-142009600D01*
X96563200Y-142009600D02*
X96563200Y-142759600D01*
X96563200Y-142759600D02*
X120063200Y-142759600D01*
X120063200Y-142009600D02*
X96563200Y-142009600D01*
X120063200Y-142759600D02*
X120063200Y-142009600D01*
X121563200Y-142009600D02*
X121563200Y-142759600D01*
X121563200Y-142759600D02*
X123363200Y-142759600D01*
X122413200Y-143059600D02*
X123663200Y-143059600D01*
X122613200Y-137559600D02*
X108313200Y-137559600D01*
X122613200Y-140509600D02*
X122613200Y-137559600D01*
X123363200Y-140509600D02*
X122613200Y-140509600D01*
X123363200Y-142009600D02*
X121563200Y-142009600D01*
X123363200Y-142759600D02*
X123363200Y-142009600D01*
X123373200Y-136799600D02*
X93253200Y-136799600D01*
X123373200Y-142769600D02*
X123373200Y-136799600D01*
X123663200Y-143059600D02*
X123663200Y-141809600D01*
%TO.C,J11*%
X147284000Y-71340200D02*
X148664000Y-71340200D01*
X147284000Y-72720200D02*
X147284000Y-71340200D01*
X147284000Y-73990200D02*
X147284000Y-127440200D01*
X147284000Y-73990200D02*
X150044000Y-73990200D01*
X147284000Y-127440200D02*
X150044000Y-127440200D01*
X150044000Y-73990200D02*
X150044000Y-127440200D01*
%TO.C,C1*%
X178421677Y-105227400D02*
X179421677Y-105227400D01*
X178921677Y-104727400D02*
X178921677Y-105727400D01*
X183901323Y-103022400D02*
X183901323Y-113182400D01*
X183941323Y-103022400D02*
X183941323Y-113182400D01*
X183981323Y-103023400D02*
X183981323Y-113181400D01*
X184021323Y-103023400D02*
X184021323Y-113181400D01*
X184061323Y-103025400D02*
X184061323Y-113179400D01*
X184101323Y-103026400D02*
X184101323Y-113178400D01*
X184141323Y-103028400D02*
X184141323Y-113176400D01*
X184181323Y-103030400D02*
X184181323Y-113174400D01*
X184221323Y-103032400D02*
X184221323Y-113172400D01*
X184261323Y-103035400D02*
X184261323Y-113169400D01*
X184301323Y-103038400D02*
X184301323Y-113166400D01*
X184341323Y-103041400D02*
X184341323Y-113163400D01*
X184381323Y-103045400D02*
X184381323Y-113159400D01*
X184421323Y-103048400D02*
X184421323Y-113156400D01*
X184461323Y-103053400D02*
X184461323Y-113151400D01*
X184501323Y-103057400D02*
X184501323Y-113147400D01*
X184541323Y-103062400D02*
X184541323Y-113142400D01*
X184581323Y-103067400D02*
X184581323Y-113137400D01*
X184621323Y-103073400D02*
X184621323Y-113131400D01*
X184661323Y-103079400D02*
X184661323Y-113125400D01*
X184701323Y-103085400D02*
X184701323Y-113119400D01*
X184741323Y-103091400D02*
X184741323Y-113113400D01*
X184781323Y-103098400D02*
X184781323Y-113106400D01*
X184821323Y-103105400D02*
X184821323Y-113099400D01*
X184861323Y-103113400D02*
X184861323Y-113091400D01*
X184901323Y-103121400D02*
X184901323Y-113083400D01*
X184941323Y-103129400D02*
X184941323Y-113075400D01*
X184981323Y-103137400D02*
X184981323Y-113067400D01*
X185021323Y-103146400D02*
X185021323Y-113058400D01*
X185061323Y-103155400D02*
X185061323Y-113049400D01*
X185101323Y-103165400D02*
X185101323Y-113039400D01*
X185141323Y-103174400D02*
X185141323Y-113030400D01*
X185181323Y-103185400D02*
X185181323Y-106862400D01*
X185181323Y-109342400D02*
X185181323Y-113019400D01*
X185221323Y-103195400D02*
X185221323Y-106862400D01*
X185221323Y-109342400D02*
X185221323Y-113009400D01*
X185261323Y-103206400D02*
X185261323Y-106862400D01*
X185261323Y-109342400D02*
X185261323Y-112998400D01*
X185301323Y-103217400D02*
X185301323Y-106862400D01*
X185301323Y-109342400D02*
X185301323Y-112987400D01*
X185341323Y-103229400D02*
X185341323Y-106862400D01*
X185341323Y-109342400D02*
X185341323Y-112975400D01*
X185381323Y-103241400D02*
X185381323Y-106862400D01*
X185381323Y-109342400D02*
X185381323Y-112963400D01*
X185421323Y-103253400D02*
X185421323Y-106862400D01*
X185421323Y-109342400D02*
X185421323Y-112951400D01*
X185461323Y-103265400D02*
X185461323Y-106862400D01*
X185461323Y-109342400D02*
X185461323Y-112939400D01*
X185501323Y-103278400D02*
X185501323Y-106862400D01*
X185501323Y-109342400D02*
X185501323Y-112926400D01*
X185541323Y-103292400D02*
X185541323Y-106862400D01*
X185541323Y-109342400D02*
X185541323Y-112912400D01*
X185581323Y-103305400D02*
X185581323Y-106862400D01*
X185581323Y-109342400D02*
X185581323Y-112899400D01*
X185621323Y-103320400D02*
X185621323Y-106862400D01*
X185621323Y-109342400D02*
X185621323Y-112884400D01*
X185661323Y-103334400D02*
X185661323Y-106862400D01*
X185661323Y-109342400D02*
X185661323Y-112870400D01*
X185701323Y-103349400D02*
X185701323Y-106862400D01*
X185701323Y-109342400D02*
X185701323Y-112855400D01*
X185741323Y-103364400D02*
X185741323Y-106862400D01*
X185741323Y-109342400D02*
X185741323Y-112840400D01*
X185781323Y-103380400D02*
X185781323Y-106862400D01*
X185781323Y-109342400D02*
X185781323Y-112824400D01*
X185821323Y-103396400D02*
X185821323Y-106862400D01*
X185821323Y-109342400D02*
X185821323Y-112808400D01*
X185861323Y-103412400D02*
X185861323Y-106862400D01*
X185861323Y-109342400D02*
X185861323Y-112792400D01*
X185901323Y-103429400D02*
X185901323Y-106862400D01*
X185901323Y-109342400D02*
X185901323Y-112775400D01*
X185941323Y-103446400D02*
X185941323Y-106862400D01*
X185941323Y-109342400D02*
X185941323Y-112758400D01*
X185981323Y-103464400D02*
X185981323Y-106862400D01*
X185981323Y-109342400D02*
X185981323Y-112740400D01*
X186021323Y-103482400D02*
X186021323Y-106862400D01*
X186021323Y-109342400D02*
X186021323Y-112722400D01*
X186061323Y-103500400D02*
X186061323Y-106862400D01*
X186061323Y-109342400D02*
X186061323Y-112704400D01*
X186101323Y-103519400D02*
X186101323Y-106862400D01*
X186101323Y-109342400D02*
X186101323Y-112685400D01*
X186141323Y-103538400D02*
X186141323Y-106862400D01*
X186141323Y-109342400D02*
X186141323Y-112666400D01*
X186181323Y-103558400D02*
X186181323Y-106862400D01*
X186181323Y-109342400D02*
X186181323Y-112646400D01*
X186221323Y-103578400D02*
X186221323Y-106862400D01*
X186221323Y-109342400D02*
X186221323Y-112626400D01*
X186261323Y-103598400D02*
X186261323Y-106862400D01*
X186261323Y-109342400D02*
X186261323Y-112606400D01*
X186301323Y-103619400D02*
X186301323Y-106862400D01*
X186301323Y-109342400D02*
X186301323Y-112585400D01*
X186341323Y-103641400D02*
X186341323Y-106862400D01*
X186341323Y-109342400D02*
X186341323Y-112563400D01*
X186381323Y-103663400D02*
X186381323Y-106862400D01*
X186381323Y-109342400D02*
X186381323Y-112541400D01*
X186421323Y-103685400D02*
X186421323Y-106862400D01*
X186421323Y-109342400D02*
X186421323Y-112519400D01*
X186461323Y-103708400D02*
X186461323Y-106862400D01*
X186461323Y-109342400D02*
X186461323Y-112496400D01*
X186501323Y-103731400D02*
X186501323Y-106862400D01*
X186501323Y-109342400D02*
X186501323Y-112473400D01*
X186541323Y-103755400D02*
X186541323Y-106862400D01*
X186541323Y-109342400D02*
X186541323Y-112449400D01*
X186581323Y-103779400D02*
X186581323Y-106862400D01*
X186581323Y-109342400D02*
X186581323Y-112425400D01*
X186621323Y-103804400D02*
X186621323Y-106862400D01*
X186621323Y-109342400D02*
X186621323Y-112400400D01*
X186661323Y-103830400D02*
X186661323Y-106862400D01*
X186661323Y-109342400D02*
X186661323Y-112374400D01*
X186701323Y-103855400D02*
X186701323Y-106862400D01*
X186701323Y-109342400D02*
X186701323Y-112349400D01*
X186741323Y-103882400D02*
X186741323Y-106862400D01*
X186741323Y-109342400D02*
X186741323Y-112322400D01*
X186781323Y-103909400D02*
X186781323Y-106862400D01*
X186781323Y-109342400D02*
X186781323Y-112295400D01*
X186821323Y-103936400D02*
X186821323Y-106862400D01*
X186821323Y-109342400D02*
X186821323Y-112268400D01*
X186861323Y-103964400D02*
X186861323Y-106862400D01*
X186861323Y-109342400D02*
X186861323Y-112240400D01*
X186901323Y-103993400D02*
X186901323Y-106862400D01*
X186901323Y-109342400D02*
X186901323Y-112211400D01*
X186941323Y-104022400D02*
X186941323Y-106862400D01*
X186941323Y-109342400D02*
X186941323Y-112182400D01*
X186981323Y-104052400D02*
X186981323Y-106862400D01*
X186981323Y-109342400D02*
X186981323Y-112152400D01*
X187021323Y-104082400D02*
X187021323Y-106862400D01*
X187021323Y-109342400D02*
X187021323Y-112122400D01*
X187061323Y-104114400D02*
X187061323Y-106862400D01*
X187061323Y-109342400D02*
X187061323Y-112090400D01*
X187101323Y-104145400D02*
X187101323Y-106862400D01*
X187101323Y-109342400D02*
X187101323Y-112059400D01*
X187141323Y-104178400D02*
X187141323Y-106862400D01*
X187141323Y-109342400D02*
X187141323Y-112026400D01*
X187181323Y-104211400D02*
X187181323Y-106862400D01*
X187181323Y-109342400D02*
X187181323Y-111993400D01*
X187221323Y-104244400D02*
X187221323Y-106862400D01*
X187221323Y-109342400D02*
X187221323Y-111960400D01*
X187261323Y-104279400D02*
X187261323Y-106862400D01*
X187261323Y-109342400D02*
X187261323Y-111925400D01*
X187301323Y-104314400D02*
X187301323Y-106862400D01*
X187301323Y-109342400D02*
X187301323Y-111890400D01*
X187341323Y-104350400D02*
X187341323Y-106862400D01*
X187341323Y-109342400D02*
X187341323Y-111854400D01*
X187381323Y-104386400D02*
X187381323Y-106862400D01*
X187381323Y-109342400D02*
X187381323Y-111818400D01*
X187421323Y-104424400D02*
X187421323Y-106862400D01*
X187421323Y-109342400D02*
X187421323Y-111780400D01*
X187461323Y-104462400D02*
X187461323Y-106862400D01*
X187461323Y-109342400D02*
X187461323Y-111742400D01*
X187501323Y-104501400D02*
X187501323Y-106862400D01*
X187501323Y-109342400D02*
X187501323Y-111703400D01*
X187541323Y-104541400D02*
X187541323Y-106862400D01*
X187541323Y-109342400D02*
X187541323Y-111663400D01*
X187581323Y-104582400D02*
X187581323Y-106862400D01*
X187581323Y-109342400D02*
X187581323Y-111622400D01*
X187621323Y-104624400D02*
X187621323Y-106862400D01*
X187621323Y-109342400D02*
X187621323Y-111580400D01*
X187661323Y-104667400D02*
X187661323Y-111537400D01*
X187701323Y-104711400D02*
X187701323Y-111493400D01*
X187741323Y-104755400D02*
X187741323Y-111449400D01*
X187781323Y-104801400D02*
X187781323Y-111403400D01*
X187821323Y-104848400D02*
X187821323Y-111356400D01*
X187861323Y-104897400D02*
X187861323Y-111307400D01*
X187901323Y-104946400D02*
X187901323Y-111258400D01*
X187941323Y-104997400D02*
X187941323Y-111207400D01*
X187981323Y-105049400D02*
X187981323Y-111155400D01*
X188021323Y-105102400D02*
X188021323Y-111102400D01*
X188061323Y-105157400D02*
X188061323Y-111047400D01*
X188101323Y-105214400D02*
X188101323Y-110990400D01*
X188141323Y-105272400D02*
X188141323Y-110932400D01*
X188181323Y-105332400D02*
X188181323Y-110872400D01*
X188221323Y-105394400D02*
X188221323Y-110810400D01*
X188261323Y-105458400D02*
X188261323Y-110746400D01*
X188301323Y-105524400D02*
X188301323Y-110680400D01*
X188341323Y-105592400D02*
X188341323Y-110612400D01*
X188381323Y-105663400D02*
X188381323Y-110541400D01*
X188421323Y-105737400D02*
X188421323Y-110467400D01*
X188461323Y-105814400D02*
X188461323Y-110390400D01*
X188501323Y-105894400D02*
X188501323Y-110310400D01*
X188541323Y-105978400D02*
X188541323Y-110226400D01*
X188581323Y-106065400D02*
X188581323Y-110139400D01*
X188621323Y-106158400D02*
X188621323Y-110046400D01*
X188661323Y-106256400D02*
X188661323Y-109948400D01*
X188701323Y-106360400D02*
X188701323Y-109844400D01*
X188741323Y-106472400D02*
X188741323Y-109732400D01*
X188781323Y-106593400D02*
X188781323Y-109611400D01*
X188821323Y-106725400D02*
X188821323Y-109479400D01*
X188861323Y-106872400D02*
X188861323Y-109332400D01*
X188901323Y-107040400D02*
X188901323Y-109164400D01*
X188941323Y-107240400D02*
X188941323Y-108964400D01*
X188981323Y-107503400D02*
X188981323Y-108701400D01*
X189021323Y-108102400D02*
G75*
G02*
X178781323Y-108102400I-5120000J0D01*
G01*
X178781323Y-108102400D02*
G75*
G02*
X189021323Y-108102400I5120000J0D01*
G01*
%TO.C,U1*%
X190189000Y-100756200D02*
X190189000Y-144506200D01*
X190189000Y-144506200D02*
X211639000Y-144506200D01*
X190444000Y-103891200D02*
X190444000Y-100776200D01*
X190444000Y-144501200D02*
X190444000Y-143201200D01*
X190655295Y-111008888D02*
X190655295Y-111042843D01*
X190655295Y-111092222D02*
X190655295Y-111137094D01*
X190656295Y-119601417D02*
X190656295Y-109701417D01*
X190706295Y-109651417D02*
X195606294Y-109651417D01*
X191370671Y-125690967D02*
X191661610Y-124040967D01*
X191370671Y-132550967D02*
X191370671Y-125690967D01*
X191404296Y-105502519D02*
X191404296Y-106302519D01*
X191404296Y-105502519D02*
X193004295Y-105502519D01*
X191661610Y-134200967D02*
X191370671Y-132550967D01*
X191724296Y-106302519D02*
X191724296Y-105502519D01*
X191974900Y-118614815D02*
X192006295Y-118590647D01*
X192006295Y-116512186D02*
X192006295Y-118590647D01*
X192031294Y-118602606D02*
X192000075Y-118595436D01*
X192031294Y-118602606D02*
X192006295Y-118590647D01*
X192031294Y-118602606D02*
X192026062Y-118627053D01*
X192450670Y-124040967D02*
X192450670Y-134200967D01*
X192506294Y-118590647D02*
X192506294Y-116512186D01*
X192684295Y-105502519D02*
X192684295Y-106302519D01*
X193004295Y-105502519D02*
X193004295Y-106302519D01*
X193004295Y-106302519D02*
X191404296Y-106302519D01*
X193028149Y-134201967D02*
X193189687Y-134201967D01*
X193294000Y-141371200D02*
X193604000Y-141371200D01*
X193599000Y-144501200D02*
X193604000Y-141371200D01*
X193604000Y-103891200D02*
X190444000Y-103891200D01*
X193604000Y-103891200D02*
X193604000Y-100731200D01*
X195606294Y-119651417D02*
X190706295Y-119651417D01*
X195656294Y-109701417D02*
X195656294Y-119601417D01*
X198109796Y-111283803D02*
X198109796Y-120983803D01*
X199609796Y-122483803D02*
X209309796Y-122483803D01*
X201013106Y-124040967D02*
X191661610Y-124040967D01*
X201013106Y-134200967D02*
X191661610Y-134200967D01*
X201013106Y-134200967D02*
X201090670Y-134123403D01*
X201090670Y-124118530D02*
X201013106Y-124040967D01*
X201090670Y-134123403D02*
X201090670Y-124118530D01*
X205720670Y-125300967D02*
X201090670Y-125300967D01*
X205720670Y-126140967D02*
X201090670Y-126140967D01*
X205720670Y-126140967D02*
X205720670Y-125300967D01*
X205720670Y-127000967D02*
X201090670Y-127000967D01*
X205720670Y-127840967D02*
X201090670Y-127840967D01*
X205720670Y-127840967D02*
X205720670Y-127000967D01*
X205720670Y-128700967D02*
X201090670Y-128700967D01*
X205720670Y-129540967D02*
X201090670Y-129540967D01*
X205720670Y-129540967D02*
X205720670Y-128700967D01*
X205720670Y-130400967D02*
X201090670Y-130400967D01*
X205720670Y-131240967D02*
X201090670Y-131240967D01*
X205720670Y-131240967D02*
X205720670Y-130400967D01*
X205720670Y-132100967D02*
X201090670Y-132100967D01*
X205720670Y-132940967D02*
X201090670Y-132940967D01*
X205720670Y-132940967D02*
X205720670Y-132100967D01*
X208207217Y-133369564D02*
X208207217Y-129769564D01*
X208224000Y-103891200D02*
X208224000Y-100776200D01*
X208224000Y-141371200D02*
X211384000Y-141371200D01*
X208224000Y-144501200D02*
X208224000Y-141371200D01*
X208307217Y-129669564D02*
X210607217Y-129669564D01*
X208307217Y-130539842D02*
X210607217Y-130539842D01*
X208582217Y-129219564D02*
X210332217Y-129219564D01*
X208582217Y-129669564D02*
X208582217Y-129219564D01*
X208582217Y-133919564D02*
X208582217Y-133469564D01*
X208818696Y-129668564D02*
X208724144Y-129668564D01*
X209309796Y-109783803D02*
X199609796Y-109783803D01*
X210332217Y-129219564D02*
X210332217Y-129669564D01*
X210332217Y-133469564D02*
X210332217Y-133919564D01*
X210332217Y-133919564D02*
X208582217Y-133919564D01*
X210607217Y-133469564D02*
X208307217Y-133469564D01*
X210707217Y-129769564D02*
X210707217Y-133369564D01*
X210809796Y-120983803D02*
X210809796Y-111283803D01*
X211384000Y-103891200D02*
X208224000Y-103891200D01*
X211384000Y-103891200D02*
X211384000Y-100776200D01*
X211384000Y-144501200D02*
X211384000Y-141371200D01*
X211639000Y-100756200D02*
X190189000Y-100756200D01*
X211639000Y-144506200D02*
X211639000Y-100756200D01*
X190656295Y-109701417D02*
G75*
G02*
X190706295Y-109651395I50005J17D01*
G01*
X190706295Y-119651417D02*
G75*
G02*
X190656283Y-119601417I5J50017D01*
G01*
X192486527Y-118627052D02*
G75*
G02*
X192537690Y-118614815I-230227J1075652D01*
G01*
X195606294Y-109651417D02*
G75*
G02*
X195656283Y-109701417I6J-49983D01*
G01*
X195656294Y-119601417D02*
G75*
G02*
X195606294Y-119651394I-49994J17D01*
G01*
X198109796Y-111283803D02*
G75*
G02*
X199609796Y-109783796I1500004J3D01*
G01*
X199423531Y-113164017D02*
G75*
G02*
X199457641Y-113298202I-52931J-84883D01*
G01*
X199423531Y-113164017D02*
G75*
G02*
X201490018Y-111097533I793669J1272817D01*
G01*
X199457617Y-118969416D02*
G75*
G02*
X199457617Y-113298189I5002178J2835614D01*
G01*
X199457617Y-118969417D02*
G75*
G02*
X199423512Y-119103559I-87017J-49283D01*
G01*
X199609796Y-122483803D02*
G75*
G02*
X198109797Y-120983803I4J1500003D01*
G01*
X201490010Y-121170069D02*
G75*
G02*
X201624200Y-121135951I84890J-52931D01*
G01*
X201490011Y-121170068D02*
G75*
G02*
X199423531Y-119103589I-1272851J793628D01*
G01*
X201624183Y-111131624D02*
G75*
G02*
X207295412Y-111131621I2835617J-5002176D01*
G01*
X201624184Y-111131623D02*
G75*
G02*
X201490039Y-111097520I-49284J87023D01*
G01*
X207295409Y-121135983D02*
G75*
G02*
X207429560Y-121170082I49291J-87017D01*
G01*
X207295410Y-121135982D02*
G75*
G02*
X201624185Y-121135979I-2835610J5002182D01*
G01*
X207429582Y-111097538D02*
G75*
G02*
X209496062Y-113164018I1272858J-793622D01*
G01*
X207429583Y-111097537D02*
G75*
G02*
X207295398Y-111131645I-84883J52937D01*
G01*
X208207217Y-129769564D02*
G75*
G02*
X208307217Y-129669617I99983J-36D01*
G01*
X208307217Y-133469564D02*
G75*
G02*
X208207236Y-133369564I-17J99964D01*
G01*
X209309796Y-109783803D02*
G75*
G02*
X210809797Y-111283803I4J-1499997D01*
G01*
X209461976Y-113298189D02*
G75*
G02*
X209461976Y-118969417I-5002180J-2835614D01*
G01*
X209461976Y-113298189D02*
G75*
G02*
X209496075Y-113164038I87024J49289D01*
G01*
X209496062Y-119103589D02*
G75*
G02*
X207429590Y-121170063I-793662J-1272811D01*
G01*
X209496062Y-119103589D02*
G75*
G02*
X209461947Y-118969401I52938J84889D01*
G01*
X210607217Y-129669564D02*
G75*
G02*
X210707236Y-129769564I-17J-100036D01*
G01*
X210707217Y-133369564D02*
G75*
G02*
X210607217Y-133469617I-100017J-36D01*
G01*
X210809796Y-120983803D02*
G75*
G02*
X209309796Y-122483796I-1499996J3D01*
G01*
X194257999Y-137871200D02*
G75*
G02*
X191060001Y-137871200I-1598999J0D01*
G01*
X191060001Y-137871200D02*
G75*
G02*
X194257999Y-137871200I1598999J0D01*
G01*
X200553594Y-133278021D02*
G75*
G02*
X199803594Y-133278021I-375000J0D01*
G01*
X199803594Y-133278021D02*
G75*
G02*
X200553594Y-133278021I375000J0D01*
G01*
X204981418Y-140304534D02*
G75*
G02*
X196981418Y-140304534I-4000000J0D01*
G01*
X196981418Y-140304534D02*
G75*
G02*
X204981418Y-140304534I4000000J0D01*
G01*
X205479206Y-104921893D02*
G75*
G02*
X197479206Y-104921893I-4000000J0D01*
G01*
X197479206Y-104921893D02*
G75*
G02*
X205479206Y-104921893I4000000J0D01*
G01*
X209709796Y-116133803D02*
G75*
G02*
X199209796Y-116133803I-5250000J0D01*
G01*
X199209796Y-116133803D02*
G75*
G02*
X209709796Y-116133803I5250000J0D01*
G01*
X210768000Y-107391200D02*
G75*
G02*
X207570000Y-107391200I-1599000J0D01*
G01*
X207570000Y-107391200D02*
G75*
G02*
X210768000Y-107391200I1599000J0D01*
G01*
%TD*%
M02*
