%TF.GenerationSoftware,KiCad,Pcbnew,9.0.3*%
%TF.CreationDate,2025-12-20T12:47:06+07:00*%
%TF.ProjectId,shield,73686965-6c64-42e6-9b69-6361645f7063,rev?*%
%TF.SameCoordinates,Original*%
%TF.FileFunction,Legend,Top*%
%TF.FilePolarity,Positive*%
%FSLAX46Y46*%
G04 Gerber Fmt 4.6, Leading zero omitted, Abs format (unit mm)*
G04 Created by KiCad (PCBNEW 9.0.3) date 2025-12-20 12:47:06*
%MOMM*%
%LPD*%
G01*
G04 APERTURE LIST*
%ADD10C,0.200000*%
%ADD11C,0.120000*%
G04 APERTURE END LIST*
D10*
X121089463Y-77988219D02*
X120613273Y-77988219D01*
X120613273Y-77988219D02*
X120565654Y-78464409D01*
X120565654Y-78464409D02*
X120613273Y-78416790D01*
X120613273Y-78416790D02*
X120708511Y-78369171D01*
X120708511Y-78369171D02*
X120946606Y-78369171D01*
X120946606Y-78369171D02*
X121041844Y-78416790D01*
X121041844Y-78416790D02*
X121089463Y-78464409D01*
X121089463Y-78464409D02*
X121137082Y-78559647D01*
X121137082Y-78559647D02*
X121137082Y-78797742D01*
X121137082Y-78797742D02*
X121089463Y-78892980D01*
X121089463Y-78892980D02*
X121041844Y-78940600D01*
X121041844Y-78940600D02*
X120946606Y-78988219D01*
X120946606Y-78988219D02*
X120708511Y-78988219D01*
X120708511Y-78988219D02*
X120613273Y-78940600D01*
X120613273Y-78940600D02*
X120565654Y-78892980D01*
X121422797Y-77988219D02*
X121756130Y-78988219D01*
X121756130Y-78988219D02*
X122089463Y-77988219D01*
X187893564Y-94882700D02*
X188036421Y-94930319D01*
X188036421Y-94930319D02*
X188274516Y-94930319D01*
X188274516Y-94930319D02*
X188369754Y-94882700D01*
X188369754Y-94882700D02*
X188417373Y-94835080D01*
X188417373Y-94835080D02*
X188464992Y-94739842D01*
X188464992Y-94739842D02*
X188464992Y-94644604D01*
X188464992Y-94644604D02*
X188417373Y-94549366D01*
X188417373Y-94549366D02*
X188369754Y-94501747D01*
X188369754Y-94501747D02*
X188274516Y-94454128D01*
X188274516Y-94454128D02*
X188084040Y-94406509D01*
X188084040Y-94406509D02*
X187988802Y-94358890D01*
X187988802Y-94358890D02*
X187941183Y-94311271D01*
X187941183Y-94311271D02*
X187893564Y-94216033D01*
X187893564Y-94216033D02*
X187893564Y-94120795D01*
X187893564Y-94120795D02*
X187941183Y-94025557D01*
X187941183Y-94025557D02*
X187988802Y-93977938D01*
X187988802Y-93977938D02*
X188084040Y-93930319D01*
X188084040Y-93930319D02*
X188322135Y-93930319D01*
X188322135Y-93930319D02*
X188464992Y-93977938D01*
X189464992Y-94835080D02*
X189417373Y-94882700D01*
X189417373Y-94882700D02*
X189274516Y-94930319D01*
X189274516Y-94930319D02*
X189179278Y-94930319D01*
X189179278Y-94930319D02*
X189036421Y-94882700D01*
X189036421Y-94882700D02*
X188941183Y-94787461D01*
X188941183Y-94787461D02*
X188893564Y-94692223D01*
X188893564Y-94692223D02*
X188845945Y-94501747D01*
X188845945Y-94501747D02*
X188845945Y-94358890D01*
X188845945Y-94358890D02*
X188893564Y-94168414D01*
X188893564Y-94168414D02*
X188941183Y-94073176D01*
X188941183Y-94073176D02*
X189036421Y-93977938D01*
X189036421Y-93977938D02*
X189179278Y-93930319D01*
X189179278Y-93930319D02*
X189274516Y-93930319D01*
X189274516Y-93930319D02*
X189417373Y-93977938D01*
X189417373Y-93977938D02*
X189464992Y-94025557D01*
X190369754Y-94930319D02*
X189893564Y-94930319D01*
X189893564Y-94930319D02*
X189893564Y-93930319D01*
X187947545Y-98883319D02*
X188566592Y-98883319D01*
X188566592Y-98883319D02*
X188233259Y-99264271D01*
X188233259Y-99264271D02*
X188376116Y-99264271D01*
X188376116Y-99264271D02*
X188471354Y-99311890D01*
X188471354Y-99311890D02*
X188518973Y-99359509D01*
X188518973Y-99359509D02*
X188566592Y-99454747D01*
X188566592Y-99454747D02*
X188566592Y-99692842D01*
X188566592Y-99692842D02*
X188518973Y-99788080D01*
X188518973Y-99788080D02*
X188471354Y-99835700D01*
X188471354Y-99835700D02*
X188376116Y-99883319D01*
X188376116Y-99883319D02*
X188090402Y-99883319D01*
X188090402Y-99883319D02*
X187995164Y-99835700D01*
X187995164Y-99835700D02*
X187947545Y-99788080D01*
X188852307Y-98883319D02*
X189185640Y-99883319D01*
X189185640Y-99883319D02*
X189518973Y-98883319D01*
X189757069Y-98883319D02*
X190376116Y-98883319D01*
X190376116Y-98883319D02*
X190042783Y-99264271D01*
X190042783Y-99264271D02*
X190185640Y-99264271D01*
X190185640Y-99264271D02*
X190280878Y-99311890D01*
X190280878Y-99311890D02*
X190328497Y-99359509D01*
X190328497Y-99359509D02*
X190376116Y-99454747D01*
X190376116Y-99454747D02*
X190376116Y-99692842D01*
X190376116Y-99692842D02*
X190328497Y-99788080D01*
X190328497Y-99788080D02*
X190280878Y-99835700D01*
X190280878Y-99835700D02*
X190185640Y-99883319D01*
X190185640Y-99883319D02*
X189899926Y-99883319D01*
X189899926Y-99883319D02*
X189804688Y-99835700D01*
X189804688Y-99835700D02*
X189757069Y-99788080D01*
X186947545Y-89748719D02*
X186947545Y-88748719D01*
X186947545Y-88748719D02*
X187185640Y-88748719D01*
X187185640Y-88748719D02*
X187328497Y-88796338D01*
X187328497Y-88796338D02*
X187423735Y-88891576D01*
X187423735Y-88891576D02*
X187471354Y-88986814D01*
X187471354Y-88986814D02*
X187518973Y-89177290D01*
X187518973Y-89177290D02*
X187518973Y-89320147D01*
X187518973Y-89320147D02*
X187471354Y-89510623D01*
X187471354Y-89510623D02*
X187423735Y-89605861D01*
X187423735Y-89605861D02*
X187328497Y-89701100D01*
X187328497Y-89701100D02*
X187185640Y-89748719D01*
X187185640Y-89748719D02*
X186947545Y-89748719D01*
X188518973Y-89748719D02*
X188185640Y-89272528D01*
X187947545Y-89748719D02*
X187947545Y-88748719D01*
X187947545Y-88748719D02*
X188328497Y-88748719D01*
X188328497Y-88748719D02*
X188423735Y-88796338D01*
X188423735Y-88796338D02*
X188471354Y-88843957D01*
X188471354Y-88843957D02*
X188518973Y-88939195D01*
X188518973Y-88939195D02*
X188518973Y-89082052D01*
X188518973Y-89082052D02*
X188471354Y-89177290D01*
X188471354Y-89177290D02*
X188423735Y-89224909D01*
X188423735Y-89224909D02*
X188328497Y-89272528D01*
X188328497Y-89272528D02*
X187947545Y-89272528D01*
X188947545Y-89748719D02*
X188947545Y-88748719D01*
X188947545Y-88748719D02*
X189185640Y-88748719D01*
X189185640Y-88748719D02*
X189328497Y-88796338D01*
X189328497Y-88796338D02*
X189423735Y-88891576D01*
X189423735Y-88891576D02*
X189471354Y-88986814D01*
X189471354Y-88986814D02*
X189518973Y-89177290D01*
X189518973Y-89177290D02*
X189518973Y-89320147D01*
X189518973Y-89320147D02*
X189471354Y-89510623D01*
X189471354Y-89510623D02*
X189423735Y-89605861D01*
X189423735Y-89605861D02*
X189328497Y-89701100D01*
X189328497Y-89701100D02*
X189185640Y-89748719D01*
X189185640Y-89748719D02*
X188947545Y-89748719D01*
X190138021Y-89272528D02*
X190138021Y-89748719D01*
X189804688Y-88748719D02*
X190138021Y-89272528D01*
X190138021Y-89272528D02*
X190471354Y-88748719D01*
X195431682Y-93779238D02*
X195336444Y-93731619D01*
X195336444Y-93731619D02*
X195193587Y-93731619D01*
X195193587Y-93731619D02*
X195050730Y-93779238D01*
X195050730Y-93779238D02*
X194955492Y-93874476D01*
X194955492Y-93874476D02*
X194907873Y-93969714D01*
X194907873Y-93969714D02*
X194860254Y-94160190D01*
X194860254Y-94160190D02*
X194860254Y-94303047D01*
X194860254Y-94303047D02*
X194907873Y-94493523D01*
X194907873Y-94493523D02*
X194955492Y-94588761D01*
X194955492Y-94588761D02*
X195050730Y-94684000D01*
X195050730Y-94684000D02*
X195193587Y-94731619D01*
X195193587Y-94731619D02*
X195288825Y-94731619D01*
X195288825Y-94731619D02*
X195431682Y-94684000D01*
X195431682Y-94684000D02*
X195479301Y-94636380D01*
X195479301Y-94636380D02*
X195479301Y-94303047D01*
X195479301Y-94303047D02*
X195288825Y-94303047D01*
X195907873Y-94731619D02*
X195907873Y-93731619D01*
X195907873Y-93731619D02*
X196288825Y-93731619D01*
X196288825Y-93731619D02*
X196384063Y-93779238D01*
X196384063Y-93779238D02*
X196431682Y-93826857D01*
X196431682Y-93826857D02*
X196479301Y-93922095D01*
X196479301Y-93922095D02*
X196479301Y-94064952D01*
X196479301Y-94064952D02*
X196431682Y-94160190D01*
X196431682Y-94160190D02*
X196384063Y-94207809D01*
X196384063Y-94207809D02*
X196288825Y-94255428D01*
X196288825Y-94255428D02*
X195907873Y-94255428D01*
X196907873Y-94731619D02*
X196907873Y-93731619D01*
X197574539Y-93731619D02*
X197765015Y-93731619D01*
X197765015Y-93731619D02*
X197860253Y-93779238D01*
X197860253Y-93779238D02*
X197955491Y-93874476D01*
X197955491Y-93874476D02*
X198003110Y-94064952D01*
X198003110Y-94064952D02*
X198003110Y-94398285D01*
X198003110Y-94398285D02*
X197955491Y-94588761D01*
X197955491Y-94588761D02*
X197860253Y-94684000D01*
X197860253Y-94684000D02*
X197765015Y-94731619D01*
X197765015Y-94731619D02*
X197574539Y-94731619D01*
X197574539Y-94731619D02*
X197479301Y-94684000D01*
X197479301Y-94684000D02*
X197384063Y-94588761D01*
X197384063Y-94588761D02*
X197336444Y-94398285D01*
X197336444Y-94398285D02*
X197336444Y-94064952D01*
X197336444Y-94064952D02*
X197384063Y-93874476D01*
X197384063Y-93874476D02*
X197479301Y-93779238D01*
X197479301Y-93779238D02*
X197574539Y-93731619D01*
X198955491Y-94731619D02*
X198384063Y-94731619D01*
X198669777Y-94731619D02*
X198669777Y-93731619D01*
X198669777Y-93731619D02*
X198574539Y-93874476D01*
X198574539Y-93874476D02*
X198479301Y-93969714D01*
X198479301Y-93969714D02*
X198384063Y-94017333D01*
X199336444Y-93826857D02*
X199384063Y-93779238D01*
X199384063Y-93779238D02*
X199479301Y-93731619D01*
X199479301Y-93731619D02*
X199717396Y-93731619D01*
X199717396Y-93731619D02*
X199812634Y-93779238D01*
X199812634Y-93779238D02*
X199860253Y-93826857D01*
X199860253Y-93826857D02*
X199907872Y-93922095D01*
X199907872Y-93922095D02*
X199907872Y-94017333D01*
X199907872Y-94017333D02*
X199860253Y-94160190D01*
X199860253Y-94160190D02*
X199288825Y-94731619D01*
X199288825Y-94731619D02*
X199907872Y-94731619D01*
X158755333Y-136725955D02*
X158755333Y-136916431D01*
X158755333Y-136916431D02*
X158802952Y-137011669D01*
X158802952Y-137011669D02*
X158850571Y-137059288D01*
X158850571Y-137059288D02*
X158993428Y-137154526D01*
X158993428Y-137154526D02*
X159183904Y-137202145D01*
X159183904Y-137202145D02*
X159564856Y-137202145D01*
X159564856Y-137202145D02*
X159660094Y-137154526D01*
X159660094Y-137154526D02*
X159707714Y-137106907D01*
X159707714Y-137106907D02*
X159755333Y-137011669D01*
X159755333Y-137011669D02*
X159755333Y-136821193D01*
X159755333Y-136821193D02*
X159707714Y-136725955D01*
X159707714Y-136725955D02*
X159660094Y-136678336D01*
X159660094Y-136678336D02*
X159564856Y-136630717D01*
X159564856Y-136630717D02*
X159326761Y-136630717D01*
X159326761Y-136630717D02*
X159231523Y-136678336D01*
X159231523Y-136678336D02*
X159183904Y-136725955D01*
X159183904Y-136725955D02*
X159136285Y-136821193D01*
X159136285Y-136821193D02*
X159136285Y-137011669D01*
X159136285Y-137011669D02*
X159183904Y-137106907D01*
X159183904Y-137106907D02*
X159231523Y-137154526D01*
X159231523Y-137154526D02*
X159326761Y-137202145D01*
X158802952Y-134916431D02*
X158755333Y-135011669D01*
X158755333Y-135011669D02*
X158755333Y-135154526D01*
X158755333Y-135154526D02*
X158802952Y-135297383D01*
X158802952Y-135297383D02*
X158898190Y-135392621D01*
X158898190Y-135392621D02*
X158993428Y-135440240D01*
X158993428Y-135440240D02*
X159183904Y-135487859D01*
X159183904Y-135487859D02*
X159326761Y-135487859D01*
X159326761Y-135487859D02*
X159517237Y-135440240D01*
X159517237Y-135440240D02*
X159612475Y-135392621D01*
X159612475Y-135392621D02*
X159707714Y-135297383D01*
X159707714Y-135297383D02*
X159755333Y-135154526D01*
X159755333Y-135154526D02*
X159755333Y-135059288D01*
X159755333Y-135059288D02*
X159707714Y-134916431D01*
X159707714Y-134916431D02*
X159660094Y-134868812D01*
X159660094Y-134868812D02*
X159326761Y-134868812D01*
X159326761Y-134868812D02*
X159326761Y-135059288D01*
X159755333Y-134440240D02*
X158755333Y-134440240D01*
X158755333Y-134440240D02*
X158755333Y-134059288D01*
X158755333Y-134059288D02*
X158802952Y-133964050D01*
X158802952Y-133964050D02*
X158850571Y-133916431D01*
X158850571Y-133916431D02*
X158945809Y-133868812D01*
X158945809Y-133868812D02*
X159088666Y-133868812D01*
X159088666Y-133868812D02*
X159183904Y-133916431D01*
X159183904Y-133916431D02*
X159231523Y-133964050D01*
X159231523Y-133964050D02*
X159279142Y-134059288D01*
X159279142Y-134059288D02*
X159279142Y-134440240D01*
X159755333Y-133440240D02*
X158755333Y-133440240D01*
X158755333Y-132773574D02*
X158755333Y-132583098D01*
X158755333Y-132583098D02*
X158802952Y-132487860D01*
X158802952Y-132487860D02*
X158898190Y-132392622D01*
X158898190Y-132392622D02*
X159088666Y-132345003D01*
X159088666Y-132345003D02*
X159421999Y-132345003D01*
X159421999Y-132345003D02*
X159612475Y-132392622D01*
X159612475Y-132392622D02*
X159707714Y-132487860D01*
X159707714Y-132487860D02*
X159755333Y-132583098D01*
X159755333Y-132583098D02*
X159755333Y-132773574D01*
X159755333Y-132773574D02*
X159707714Y-132868812D01*
X159707714Y-132868812D02*
X159612475Y-132964050D01*
X159612475Y-132964050D02*
X159421999Y-133011669D01*
X159421999Y-133011669D02*
X159088666Y-133011669D01*
X159088666Y-133011669D02*
X158898190Y-132964050D01*
X158898190Y-132964050D02*
X158802952Y-132868812D01*
X158802952Y-132868812D02*
X158755333Y-132773574D01*
X159755333Y-131392622D02*
X159755333Y-131964050D01*
X159755333Y-131678336D02*
X158755333Y-131678336D01*
X158755333Y-131678336D02*
X158898190Y-131773574D01*
X158898190Y-131773574D02*
X158993428Y-131868812D01*
X158993428Y-131868812D02*
X159041047Y-131964050D01*
X158755333Y-130535479D02*
X158755333Y-130725955D01*
X158755333Y-130725955D02*
X158802952Y-130821193D01*
X158802952Y-130821193D02*
X158850571Y-130868812D01*
X158850571Y-130868812D02*
X158993428Y-130964050D01*
X158993428Y-130964050D02*
X159183904Y-131011669D01*
X159183904Y-131011669D02*
X159564856Y-131011669D01*
X159564856Y-131011669D02*
X159660094Y-130964050D01*
X159660094Y-130964050D02*
X159707714Y-130916431D01*
X159707714Y-130916431D02*
X159755333Y-130821193D01*
X159755333Y-130821193D02*
X159755333Y-130630717D01*
X159755333Y-130630717D02*
X159707714Y-130535479D01*
X159707714Y-130535479D02*
X159660094Y-130487860D01*
X159660094Y-130487860D02*
X159564856Y-130440241D01*
X159564856Y-130440241D02*
X159326761Y-130440241D01*
X159326761Y-130440241D02*
X159231523Y-130487860D01*
X159231523Y-130487860D02*
X159183904Y-130535479D01*
X159183904Y-130535479D02*
X159136285Y-130630717D01*
X159136285Y-130630717D02*
X159136285Y-130821193D01*
X159136285Y-130821193D02*
X159183904Y-130916431D01*
X159183904Y-130916431D02*
X159231523Y-130964050D01*
X159231523Y-130964050D02*
X159326761Y-131011669D01*
X156295161Y-137275164D02*
X156295161Y-136608498D01*
X156295161Y-136608498D02*
X157295161Y-137037069D01*
X156342780Y-134941831D02*
X156295161Y-135037069D01*
X156295161Y-135037069D02*
X156295161Y-135179926D01*
X156295161Y-135179926D02*
X156342780Y-135322783D01*
X156342780Y-135322783D02*
X156438018Y-135418021D01*
X156438018Y-135418021D02*
X156533256Y-135465640D01*
X156533256Y-135465640D02*
X156723732Y-135513259D01*
X156723732Y-135513259D02*
X156866589Y-135513259D01*
X156866589Y-135513259D02*
X157057065Y-135465640D01*
X157057065Y-135465640D02*
X157152303Y-135418021D01*
X157152303Y-135418021D02*
X157247542Y-135322783D01*
X157247542Y-135322783D02*
X157295161Y-135179926D01*
X157295161Y-135179926D02*
X157295161Y-135084688D01*
X157295161Y-135084688D02*
X157247542Y-134941831D01*
X157247542Y-134941831D02*
X157199922Y-134894212D01*
X157199922Y-134894212D02*
X156866589Y-134894212D01*
X156866589Y-134894212D02*
X156866589Y-135084688D01*
X157295161Y-134465640D02*
X156295161Y-134465640D01*
X156295161Y-134465640D02*
X156295161Y-134084688D01*
X156295161Y-134084688D02*
X156342780Y-133989450D01*
X156342780Y-133989450D02*
X156390399Y-133941831D01*
X156390399Y-133941831D02*
X156485637Y-133894212D01*
X156485637Y-133894212D02*
X156628494Y-133894212D01*
X156628494Y-133894212D02*
X156723732Y-133941831D01*
X156723732Y-133941831D02*
X156771351Y-133989450D01*
X156771351Y-133989450D02*
X156818970Y-134084688D01*
X156818970Y-134084688D02*
X156818970Y-134465640D01*
X157295161Y-133465640D02*
X156295161Y-133465640D01*
X156295161Y-132798974D02*
X156295161Y-132608498D01*
X156295161Y-132608498D02*
X156342780Y-132513260D01*
X156342780Y-132513260D02*
X156438018Y-132418022D01*
X156438018Y-132418022D02*
X156628494Y-132370403D01*
X156628494Y-132370403D02*
X156961827Y-132370403D01*
X156961827Y-132370403D02*
X157152303Y-132418022D01*
X157152303Y-132418022D02*
X157247542Y-132513260D01*
X157247542Y-132513260D02*
X157295161Y-132608498D01*
X157295161Y-132608498D02*
X157295161Y-132798974D01*
X157295161Y-132798974D02*
X157247542Y-132894212D01*
X157247542Y-132894212D02*
X157152303Y-132989450D01*
X157152303Y-132989450D02*
X156961827Y-133037069D01*
X156961827Y-133037069D02*
X156628494Y-133037069D01*
X156628494Y-133037069D02*
X156438018Y-132989450D01*
X156438018Y-132989450D02*
X156342780Y-132894212D01*
X156342780Y-132894212D02*
X156295161Y-132798974D01*
X157295161Y-131418022D02*
X157295161Y-131989450D01*
X157295161Y-131703736D02*
X156295161Y-131703736D01*
X156295161Y-131703736D02*
X156438018Y-131798974D01*
X156438018Y-131798974D02*
X156533256Y-131894212D01*
X156533256Y-131894212D02*
X156580875Y-131989450D01*
X156295161Y-131084688D02*
X156295161Y-130418022D01*
X156295161Y-130418022D02*
X157295161Y-130846593D01*
X166135847Y-137198964D02*
X166135847Y-136579917D01*
X166135847Y-136579917D02*
X166516799Y-136913250D01*
X166516799Y-136913250D02*
X166516799Y-136770393D01*
X166516799Y-136770393D02*
X166564418Y-136675155D01*
X166564418Y-136675155D02*
X166612037Y-136627536D01*
X166612037Y-136627536D02*
X166707275Y-136579917D01*
X166707275Y-136579917D02*
X166945370Y-136579917D01*
X166945370Y-136579917D02*
X167040608Y-136627536D01*
X167040608Y-136627536D02*
X167088228Y-136675155D01*
X167088228Y-136675155D02*
X167135847Y-136770393D01*
X167135847Y-136770393D02*
X167135847Y-137056107D01*
X167135847Y-137056107D02*
X167088228Y-137151345D01*
X167088228Y-137151345D02*
X167040608Y-137198964D01*
X166183466Y-134865631D02*
X166135847Y-134960869D01*
X166135847Y-134960869D02*
X166135847Y-135103726D01*
X166135847Y-135103726D02*
X166183466Y-135246583D01*
X166183466Y-135246583D02*
X166278704Y-135341821D01*
X166278704Y-135341821D02*
X166373942Y-135389440D01*
X166373942Y-135389440D02*
X166564418Y-135437059D01*
X166564418Y-135437059D02*
X166707275Y-135437059D01*
X166707275Y-135437059D02*
X166897751Y-135389440D01*
X166897751Y-135389440D02*
X166992989Y-135341821D01*
X166992989Y-135341821D02*
X167088228Y-135246583D01*
X167088228Y-135246583D02*
X167135847Y-135103726D01*
X167135847Y-135103726D02*
X167135847Y-135008488D01*
X167135847Y-135008488D02*
X167088228Y-134865631D01*
X167088228Y-134865631D02*
X167040608Y-134818012D01*
X167040608Y-134818012D02*
X166707275Y-134818012D01*
X166707275Y-134818012D02*
X166707275Y-135008488D01*
X167135847Y-134389440D02*
X166135847Y-134389440D01*
X166135847Y-134389440D02*
X166135847Y-134008488D01*
X166135847Y-134008488D02*
X166183466Y-133913250D01*
X166183466Y-133913250D02*
X166231085Y-133865631D01*
X166231085Y-133865631D02*
X166326323Y-133818012D01*
X166326323Y-133818012D02*
X166469180Y-133818012D01*
X166469180Y-133818012D02*
X166564418Y-133865631D01*
X166564418Y-133865631D02*
X166612037Y-133913250D01*
X166612037Y-133913250D02*
X166659656Y-134008488D01*
X166659656Y-134008488D02*
X166659656Y-134389440D01*
X167135847Y-133389440D02*
X166135847Y-133389440D01*
X166135847Y-132722774D02*
X166135847Y-132532298D01*
X166135847Y-132532298D02*
X166183466Y-132437060D01*
X166183466Y-132437060D02*
X166278704Y-132341822D01*
X166278704Y-132341822D02*
X166469180Y-132294203D01*
X166469180Y-132294203D02*
X166802513Y-132294203D01*
X166802513Y-132294203D02*
X166992989Y-132341822D01*
X166992989Y-132341822D02*
X167088228Y-132437060D01*
X167088228Y-132437060D02*
X167135847Y-132532298D01*
X167135847Y-132532298D02*
X167135847Y-132722774D01*
X167135847Y-132722774D02*
X167088228Y-132818012D01*
X167088228Y-132818012D02*
X166992989Y-132913250D01*
X166992989Y-132913250D02*
X166802513Y-132960869D01*
X166802513Y-132960869D02*
X166469180Y-132960869D01*
X166469180Y-132960869D02*
X166278704Y-132913250D01*
X166278704Y-132913250D02*
X166183466Y-132818012D01*
X166183466Y-132818012D02*
X166135847Y-132722774D01*
X166135847Y-131437060D02*
X166135847Y-131627536D01*
X166135847Y-131627536D02*
X166183466Y-131722774D01*
X166183466Y-131722774D02*
X166231085Y-131770393D01*
X166231085Y-131770393D02*
X166373942Y-131865631D01*
X166373942Y-131865631D02*
X166564418Y-131913250D01*
X166564418Y-131913250D02*
X166945370Y-131913250D01*
X166945370Y-131913250D02*
X167040608Y-131865631D01*
X167040608Y-131865631D02*
X167088228Y-131818012D01*
X167088228Y-131818012D02*
X167135847Y-131722774D01*
X167135847Y-131722774D02*
X167135847Y-131532298D01*
X167135847Y-131532298D02*
X167088228Y-131437060D01*
X167088228Y-131437060D02*
X167040608Y-131389441D01*
X167040608Y-131389441D02*
X166945370Y-131341822D01*
X166945370Y-131341822D02*
X166707275Y-131341822D01*
X166707275Y-131341822D02*
X166612037Y-131389441D01*
X166612037Y-131389441D02*
X166564418Y-131437060D01*
X166564418Y-131437060D02*
X166516799Y-131532298D01*
X166516799Y-131532298D02*
X166516799Y-131722774D01*
X166516799Y-131722774D02*
X166564418Y-131818012D01*
X166564418Y-131818012D02*
X166612037Y-131865631D01*
X166612037Y-131865631D02*
X166707275Y-131913250D01*
X189841158Y-77100752D02*
X189364968Y-77100752D01*
X189364968Y-77100752D02*
X189317349Y-77576942D01*
X189317349Y-77576942D02*
X189364968Y-77529323D01*
X189364968Y-77529323D02*
X189460206Y-77481704D01*
X189460206Y-77481704D02*
X189698301Y-77481704D01*
X189698301Y-77481704D02*
X189793539Y-77529323D01*
X189793539Y-77529323D02*
X189841158Y-77576942D01*
X189841158Y-77576942D02*
X189888777Y-77672180D01*
X189888777Y-77672180D02*
X189888777Y-77910275D01*
X189888777Y-77910275D02*
X189841158Y-78005513D01*
X189841158Y-78005513D02*
X189793539Y-78053133D01*
X189793539Y-78053133D02*
X189698301Y-78100752D01*
X189698301Y-78100752D02*
X189460206Y-78100752D01*
X189460206Y-78100752D02*
X189364968Y-78053133D01*
X189364968Y-78053133D02*
X189317349Y-78005513D01*
X190174492Y-77100752D02*
X190507825Y-78100752D01*
X190507825Y-78100752D02*
X190841158Y-77100752D01*
X137268638Y-136317317D02*
X137221019Y-136412555D01*
X137221019Y-136412555D02*
X137221019Y-136555412D01*
X137221019Y-136555412D02*
X137268638Y-136698269D01*
X137268638Y-136698269D02*
X137363876Y-136793507D01*
X137363876Y-136793507D02*
X137459114Y-136841126D01*
X137459114Y-136841126D02*
X137649590Y-136888745D01*
X137649590Y-136888745D02*
X137792447Y-136888745D01*
X137792447Y-136888745D02*
X137982923Y-136841126D01*
X137982923Y-136841126D02*
X138078161Y-136793507D01*
X138078161Y-136793507D02*
X138173400Y-136698269D01*
X138173400Y-136698269D02*
X138221019Y-136555412D01*
X138221019Y-136555412D02*
X138221019Y-136460174D01*
X138221019Y-136460174D02*
X138173400Y-136317317D01*
X138173400Y-136317317D02*
X138125780Y-136269698D01*
X138125780Y-136269698D02*
X137792447Y-136269698D01*
X137792447Y-136269698D02*
X137792447Y-136460174D01*
X138221019Y-135841126D02*
X137221019Y-135841126D01*
X137221019Y-135841126D02*
X138221019Y-135269698D01*
X138221019Y-135269698D02*
X137221019Y-135269698D01*
X138221019Y-134793507D02*
X137221019Y-134793507D01*
X137221019Y-134793507D02*
X137221019Y-134555412D01*
X137221019Y-134555412D02*
X137268638Y-134412555D01*
X137268638Y-134412555D02*
X137363876Y-134317317D01*
X137363876Y-134317317D02*
X137459114Y-134269698D01*
X137459114Y-134269698D02*
X137649590Y-134222079D01*
X137649590Y-134222079D02*
X137792447Y-134222079D01*
X137792447Y-134222079D02*
X137982923Y-134269698D01*
X137982923Y-134269698D02*
X138078161Y-134317317D01*
X138078161Y-134317317D02*
X138173400Y-134412555D01*
X138173400Y-134412555D02*
X138221019Y-134555412D01*
X138221019Y-134555412D02*
X138221019Y-134793507D01*
X188650682Y-74566038D02*
X188555444Y-74518419D01*
X188555444Y-74518419D02*
X188412587Y-74518419D01*
X188412587Y-74518419D02*
X188269730Y-74566038D01*
X188269730Y-74566038D02*
X188174492Y-74661276D01*
X188174492Y-74661276D02*
X188126873Y-74756514D01*
X188126873Y-74756514D02*
X188079254Y-74946990D01*
X188079254Y-74946990D02*
X188079254Y-75089847D01*
X188079254Y-75089847D02*
X188126873Y-75280323D01*
X188126873Y-75280323D02*
X188174492Y-75375561D01*
X188174492Y-75375561D02*
X188269730Y-75470800D01*
X188269730Y-75470800D02*
X188412587Y-75518419D01*
X188412587Y-75518419D02*
X188507825Y-75518419D01*
X188507825Y-75518419D02*
X188650682Y-75470800D01*
X188650682Y-75470800D02*
X188698301Y-75423180D01*
X188698301Y-75423180D02*
X188698301Y-75089847D01*
X188698301Y-75089847D02*
X188507825Y-75089847D01*
X189126873Y-75518419D02*
X189126873Y-74518419D01*
X189126873Y-74518419D02*
X189698301Y-75518419D01*
X189698301Y-75518419D02*
X189698301Y-74518419D01*
X190174492Y-75518419D02*
X190174492Y-74518419D01*
X190174492Y-74518419D02*
X190412587Y-74518419D01*
X190412587Y-74518419D02*
X190555444Y-74566038D01*
X190555444Y-74566038D02*
X190650682Y-74661276D01*
X190650682Y-74661276D02*
X190698301Y-74756514D01*
X190698301Y-74756514D02*
X190745920Y-74946990D01*
X190745920Y-74946990D02*
X190745920Y-75089847D01*
X190745920Y-75089847D02*
X190698301Y-75280323D01*
X190698301Y-75280323D02*
X190650682Y-75375561D01*
X190650682Y-75375561D02*
X190555444Y-75470800D01*
X190555444Y-75470800D02*
X190412587Y-75518419D01*
X190412587Y-75518419D02*
X190174492Y-75518419D01*
X183026082Y-145591469D02*
X182930844Y-145543850D01*
X182930844Y-145543850D02*
X182787987Y-145543850D01*
X182787987Y-145543850D02*
X182645130Y-145591469D01*
X182645130Y-145591469D02*
X182549892Y-145686707D01*
X182549892Y-145686707D02*
X182502273Y-145781945D01*
X182502273Y-145781945D02*
X182454654Y-145972421D01*
X182454654Y-145972421D02*
X182454654Y-146115278D01*
X182454654Y-146115278D02*
X182502273Y-146305754D01*
X182502273Y-146305754D02*
X182549892Y-146400992D01*
X182549892Y-146400992D02*
X182645130Y-146496231D01*
X182645130Y-146496231D02*
X182787987Y-146543850D01*
X182787987Y-146543850D02*
X182883225Y-146543850D01*
X182883225Y-146543850D02*
X183026082Y-146496231D01*
X183026082Y-146496231D02*
X183073701Y-146448611D01*
X183073701Y-146448611D02*
X183073701Y-146115278D01*
X183073701Y-146115278D02*
X182883225Y-146115278D01*
X183502273Y-146543850D02*
X183502273Y-145543850D01*
X183502273Y-145543850D02*
X184073701Y-146543850D01*
X184073701Y-146543850D02*
X184073701Y-145543850D01*
X184549892Y-146543850D02*
X184549892Y-145543850D01*
X184549892Y-145543850D02*
X184787987Y-145543850D01*
X184787987Y-145543850D02*
X184930844Y-145591469D01*
X184930844Y-145591469D02*
X185026082Y-145686707D01*
X185026082Y-145686707D02*
X185073701Y-145781945D01*
X185073701Y-145781945D02*
X185121320Y-145972421D01*
X185121320Y-145972421D02*
X185121320Y-146115278D01*
X185121320Y-146115278D02*
X185073701Y-146305754D01*
X185073701Y-146305754D02*
X185026082Y-146400992D01*
X185026082Y-146400992D02*
X184930844Y-146496231D01*
X184930844Y-146496231D02*
X184787987Y-146543850D01*
X184787987Y-146543850D02*
X184549892Y-146543850D01*
X132855304Y-136888745D02*
X132855304Y-136412555D01*
X133141019Y-136983983D02*
X132141019Y-136650650D01*
X132141019Y-136650650D02*
X133141019Y-136317317D01*
X132188638Y-134698269D02*
X132141019Y-134793507D01*
X132141019Y-134793507D02*
X132141019Y-134936364D01*
X132141019Y-134936364D02*
X132188638Y-135079221D01*
X132188638Y-135079221D02*
X132283876Y-135174459D01*
X132283876Y-135174459D02*
X132379114Y-135222078D01*
X132379114Y-135222078D02*
X132569590Y-135269697D01*
X132569590Y-135269697D02*
X132712447Y-135269697D01*
X132712447Y-135269697D02*
X132902923Y-135222078D01*
X132902923Y-135222078D02*
X132998161Y-135174459D01*
X132998161Y-135174459D02*
X133093400Y-135079221D01*
X133093400Y-135079221D02*
X133141019Y-134936364D01*
X133141019Y-134936364D02*
X133141019Y-134841126D01*
X133141019Y-134841126D02*
X133093400Y-134698269D01*
X133093400Y-134698269D02*
X133045780Y-134650650D01*
X133045780Y-134650650D02*
X132712447Y-134650650D01*
X132712447Y-134650650D02*
X132712447Y-134841126D01*
X133141019Y-134222078D02*
X132141019Y-134222078D01*
X132141019Y-134222078D02*
X132141019Y-133841126D01*
X132141019Y-133841126D02*
X132188638Y-133745888D01*
X132188638Y-133745888D02*
X132236257Y-133698269D01*
X132236257Y-133698269D02*
X132331495Y-133650650D01*
X132331495Y-133650650D02*
X132474352Y-133650650D01*
X132474352Y-133650650D02*
X132569590Y-133698269D01*
X132569590Y-133698269D02*
X132617209Y-133745888D01*
X132617209Y-133745888D02*
X132664828Y-133841126D01*
X132664828Y-133841126D02*
X132664828Y-134222078D01*
X133141019Y-133222078D02*
X132141019Y-133222078D01*
X132141019Y-132555412D02*
X132141019Y-132364936D01*
X132141019Y-132364936D02*
X132188638Y-132269698D01*
X132188638Y-132269698D02*
X132283876Y-132174460D01*
X132283876Y-132174460D02*
X132474352Y-132126841D01*
X132474352Y-132126841D02*
X132807685Y-132126841D01*
X132807685Y-132126841D02*
X132998161Y-132174460D01*
X132998161Y-132174460D02*
X133093400Y-132269698D01*
X133093400Y-132269698D02*
X133141019Y-132364936D01*
X133141019Y-132364936D02*
X133141019Y-132555412D01*
X133141019Y-132555412D02*
X133093400Y-132650650D01*
X133093400Y-132650650D02*
X132998161Y-132745888D01*
X132998161Y-132745888D02*
X132807685Y-132793507D01*
X132807685Y-132793507D02*
X132474352Y-132793507D01*
X132474352Y-132793507D02*
X132283876Y-132745888D01*
X132283876Y-132745888D02*
X132188638Y-132650650D01*
X132188638Y-132650650D02*
X132141019Y-132555412D01*
X133141019Y-131650650D02*
X133141019Y-131460174D01*
X133141019Y-131460174D02*
X133093400Y-131364936D01*
X133093400Y-131364936D02*
X133045780Y-131317317D01*
X133045780Y-131317317D02*
X132902923Y-131222079D01*
X132902923Y-131222079D02*
X132712447Y-131174460D01*
X132712447Y-131174460D02*
X132331495Y-131174460D01*
X132331495Y-131174460D02*
X132236257Y-131222079D01*
X132236257Y-131222079D02*
X132188638Y-131269698D01*
X132188638Y-131269698D02*
X132141019Y-131364936D01*
X132141019Y-131364936D02*
X132141019Y-131555412D01*
X132141019Y-131555412D02*
X132188638Y-131650650D01*
X132188638Y-131650650D02*
X132236257Y-131698269D01*
X132236257Y-131698269D02*
X132331495Y-131745888D01*
X132331495Y-131745888D02*
X132569590Y-131745888D01*
X132569590Y-131745888D02*
X132664828Y-131698269D01*
X132664828Y-131698269D02*
X132712447Y-131650650D01*
X132712447Y-131650650D02*
X132760066Y-131555412D01*
X132760066Y-131555412D02*
X132760066Y-131364936D01*
X132760066Y-131364936D02*
X132712447Y-131269698D01*
X132712447Y-131269698D02*
X132664828Y-131222079D01*
X132664828Y-131222079D02*
X132569590Y-131174460D01*
X120210638Y-123304117D02*
X120163019Y-123399355D01*
X120163019Y-123399355D02*
X120163019Y-123542212D01*
X120163019Y-123542212D02*
X120210638Y-123685069D01*
X120210638Y-123685069D02*
X120305876Y-123780307D01*
X120305876Y-123780307D02*
X120401114Y-123827926D01*
X120401114Y-123827926D02*
X120591590Y-123875545D01*
X120591590Y-123875545D02*
X120734447Y-123875545D01*
X120734447Y-123875545D02*
X120924923Y-123827926D01*
X120924923Y-123827926D02*
X121020161Y-123780307D01*
X121020161Y-123780307D02*
X121115400Y-123685069D01*
X121115400Y-123685069D02*
X121163019Y-123542212D01*
X121163019Y-123542212D02*
X121163019Y-123446974D01*
X121163019Y-123446974D02*
X121115400Y-123304117D01*
X121115400Y-123304117D02*
X121067780Y-123256498D01*
X121067780Y-123256498D02*
X120734447Y-123256498D01*
X120734447Y-123256498D02*
X120734447Y-123446974D01*
X121163019Y-122827926D02*
X120163019Y-122827926D01*
X120163019Y-122827926D02*
X121163019Y-122256498D01*
X121163019Y-122256498D02*
X120163019Y-122256498D01*
X121163019Y-121780307D02*
X120163019Y-121780307D01*
X120163019Y-121780307D02*
X120163019Y-121542212D01*
X120163019Y-121542212D02*
X120210638Y-121399355D01*
X120210638Y-121399355D02*
X120305876Y-121304117D01*
X120305876Y-121304117D02*
X120401114Y-121256498D01*
X120401114Y-121256498D02*
X120591590Y-121208879D01*
X120591590Y-121208879D02*
X120734447Y-121208879D01*
X120734447Y-121208879D02*
X120924923Y-121256498D01*
X120924923Y-121256498D02*
X121020161Y-121304117D01*
X121020161Y-121304117D02*
X121115400Y-121399355D01*
X121115400Y-121399355D02*
X121163019Y-121542212D01*
X121163019Y-121542212D02*
X121163019Y-121780307D01*
X119613273Y-75421541D02*
X119946606Y-76421541D01*
X119946606Y-76421541D02*
X120279939Y-75421541D01*
X121184701Y-76421541D02*
X120851368Y-75945350D01*
X120613273Y-76421541D02*
X120613273Y-75421541D01*
X120613273Y-75421541D02*
X120994225Y-75421541D01*
X120994225Y-75421541D02*
X121089463Y-75469160D01*
X121089463Y-75469160D02*
X121137082Y-75516779D01*
X121137082Y-75516779D02*
X121184701Y-75612017D01*
X121184701Y-75612017D02*
X121184701Y-75754874D01*
X121184701Y-75754874D02*
X121137082Y-75850112D01*
X121137082Y-75850112D02*
X121089463Y-75897731D01*
X121089463Y-75897731D02*
X120994225Y-75945350D01*
X120994225Y-75945350D02*
X120613273Y-75945350D01*
X121518035Y-76421541D02*
X122041844Y-75754874D01*
X121518035Y-75754874D02*
X122041844Y-76421541D01*
X188364968Y-80635467D02*
X188507825Y-80683086D01*
X188507825Y-80683086D02*
X188745920Y-80683086D01*
X188745920Y-80683086D02*
X188841158Y-80635467D01*
X188841158Y-80635467D02*
X188888777Y-80587847D01*
X188888777Y-80587847D02*
X188936396Y-80492609D01*
X188936396Y-80492609D02*
X188936396Y-80397371D01*
X188936396Y-80397371D02*
X188888777Y-80302133D01*
X188888777Y-80302133D02*
X188841158Y-80254514D01*
X188841158Y-80254514D02*
X188745920Y-80206895D01*
X188745920Y-80206895D02*
X188555444Y-80159276D01*
X188555444Y-80159276D02*
X188460206Y-80111657D01*
X188460206Y-80111657D02*
X188412587Y-80064038D01*
X188412587Y-80064038D02*
X188364968Y-79968800D01*
X188364968Y-79968800D02*
X188364968Y-79873562D01*
X188364968Y-79873562D02*
X188412587Y-79778324D01*
X188412587Y-79778324D02*
X188460206Y-79730705D01*
X188460206Y-79730705D02*
X188555444Y-79683086D01*
X188555444Y-79683086D02*
X188793539Y-79683086D01*
X188793539Y-79683086D02*
X188936396Y-79730705D01*
X189936396Y-80587847D02*
X189888777Y-80635467D01*
X189888777Y-80635467D02*
X189745920Y-80683086D01*
X189745920Y-80683086D02*
X189650682Y-80683086D01*
X189650682Y-80683086D02*
X189507825Y-80635467D01*
X189507825Y-80635467D02*
X189412587Y-80540228D01*
X189412587Y-80540228D02*
X189364968Y-80444990D01*
X189364968Y-80444990D02*
X189317349Y-80254514D01*
X189317349Y-80254514D02*
X189317349Y-80111657D01*
X189317349Y-80111657D02*
X189364968Y-79921181D01*
X189364968Y-79921181D02*
X189412587Y-79825943D01*
X189412587Y-79825943D02*
X189507825Y-79730705D01*
X189507825Y-79730705D02*
X189650682Y-79683086D01*
X189650682Y-79683086D02*
X189745920Y-79683086D01*
X189745920Y-79683086D02*
X189888777Y-79730705D01*
X189888777Y-79730705D02*
X189936396Y-79778324D01*
X190841158Y-80683086D02*
X190364968Y-80683086D01*
X190364968Y-80683086D02*
X190364968Y-79683086D01*
X128061019Y-136841126D02*
X127061019Y-136841126D01*
X127061019Y-136841126D02*
X127775304Y-136507793D01*
X127775304Y-136507793D02*
X127061019Y-136174460D01*
X127061019Y-136174460D02*
X128061019Y-136174460D01*
X127156257Y-135745888D02*
X127108638Y-135698269D01*
X127108638Y-135698269D02*
X127061019Y-135603031D01*
X127061019Y-135603031D02*
X127061019Y-135364936D01*
X127061019Y-135364936D02*
X127108638Y-135269698D01*
X127108638Y-135269698D02*
X127156257Y-135222079D01*
X127156257Y-135222079D02*
X127251495Y-135174460D01*
X127251495Y-135174460D02*
X127346733Y-135174460D01*
X127346733Y-135174460D02*
X127489590Y-135222079D01*
X127489590Y-135222079D02*
X128061019Y-135793507D01*
X128061019Y-135793507D02*
X128061019Y-135174460D01*
X195432082Y-88754638D02*
X195336844Y-88707019D01*
X195336844Y-88707019D02*
X195193987Y-88707019D01*
X195193987Y-88707019D02*
X195051130Y-88754638D01*
X195051130Y-88754638D02*
X194955892Y-88849876D01*
X194955892Y-88849876D02*
X194908273Y-88945114D01*
X194908273Y-88945114D02*
X194860654Y-89135590D01*
X194860654Y-89135590D02*
X194860654Y-89278447D01*
X194860654Y-89278447D02*
X194908273Y-89468923D01*
X194908273Y-89468923D02*
X194955892Y-89564161D01*
X194955892Y-89564161D02*
X195051130Y-89659400D01*
X195051130Y-89659400D02*
X195193987Y-89707019D01*
X195193987Y-89707019D02*
X195289225Y-89707019D01*
X195289225Y-89707019D02*
X195432082Y-89659400D01*
X195432082Y-89659400D02*
X195479701Y-89611780D01*
X195479701Y-89611780D02*
X195479701Y-89278447D01*
X195479701Y-89278447D02*
X195289225Y-89278447D01*
X195908273Y-89707019D02*
X195908273Y-88707019D01*
X195908273Y-88707019D02*
X196289225Y-88707019D01*
X196289225Y-88707019D02*
X196384463Y-88754638D01*
X196384463Y-88754638D02*
X196432082Y-88802257D01*
X196432082Y-88802257D02*
X196479701Y-88897495D01*
X196479701Y-88897495D02*
X196479701Y-89040352D01*
X196479701Y-89040352D02*
X196432082Y-89135590D01*
X196432082Y-89135590D02*
X196384463Y-89183209D01*
X196384463Y-89183209D02*
X196289225Y-89230828D01*
X196289225Y-89230828D02*
X195908273Y-89230828D01*
X196908273Y-89707019D02*
X196908273Y-88707019D01*
X197574939Y-88707019D02*
X197765415Y-88707019D01*
X197765415Y-88707019D02*
X197860653Y-88754638D01*
X197860653Y-88754638D02*
X197955891Y-88849876D01*
X197955891Y-88849876D02*
X198003510Y-89040352D01*
X198003510Y-89040352D02*
X198003510Y-89373685D01*
X198003510Y-89373685D02*
X197955891Y-89564161D01*
X197955891Y-89564161D02*
X197860653Y-89659400D01*
X197860653Y-89659400D02*
X197765415Y-89707019D01*
X197765415Y-89707019D02*
X197574939Y-89707019D01*
X197574939Y-89707019D02*
X197479701Y-89659400D01*
X197479701Y-89659400D02*
X197384463Y-89564161D01*
X197384463Y-89564161D02*
X197336844Y-89373685D01*
X197336844Y-89373685D02*
X197336844Y-89040352D01*
X197336844Y-89040352D02*
X197384463Y-88849876D01*
X197384463Y-88849876D02*
X197479701Y-88754638D01*
X197479701Y-88754638D02*
X197574939Y-88707019D01*
X198955891Y-89707019D02*
X198384463Y-89707019D01*
X198670177Y-89707019D02*
X198670177Y-88707019D01*
X198670177Y-88707019D02*
X198574939Y-88849876D01*
X198574939Y-88849876D02*
X198479701Y-88945114D01*
X198479701Y-88945114D02*
X198384463Y-88992733D01*
X199574939Y-88707019D02*
X199670177Y-88707019D01*
X199670177Y-88707019D02*
X199765415Y-88754638D01*
X199765415Y-88754638D02*
X199813034Y-88802257D01*
X199813034Y-88802257D02*
X199860653Y-88897495D01*
X199860653Y-88897495D02*
X199908272Y-89087971D01*
X199908272Y-89087971D02*
X199908272Y-89326066D01*
X199908272Y-89326066D02*
X199860653Y-89516542D01*
X199860653Y-89516542D02*
X199813034Y-89611780D01*
X199813034Y-89611780D02*
X199765415Y-89659400D01*
X199765415Y-89659400D02*
X199670177Y-89707019D01*
X199670177Y-89707019D02*
X199574939Y-89707019D01*
X199574939Y-89707019D02*
X199479701Y-89659400D01*
X199479701Y-89659400D02*
X199432082Y-89611780D01*
X199432082Y-89611780D02*
X199384463Y-89516542D01*
X199384463Y-89516542D02*
X199336844Y-89326066D01*
X199336844Y-89326066D02*
X199336844Y-89087971D01*
X199336844Y-89087971D02*
X199384463Y-88897495D01*
X199384463Y-88897495D02*
X199432082Y-88802257D01*
X199432082Y-88802257D02*
X199479701Y-88754638D01*
X199479701Y-88754638D02*
X199574939Y-88707019D01*
X120279940Y-71240567D02*
X120422797Y-71288186D01*
X120422797Y-71288186D02*
X120660892Y-71288186D01*
X120660892Y-71288186D02*
X120756130Y-71240567D01*
X120756130Y-71240567D02*
X120803749Y-71192947D01*
X120803749Y-71192947D02*
X120851368Y-71097709D01*
X120851368Y-71097709D02*
X120851368Y-71002471D01*
X120851368Y-71002471D02*
X120803749Y-70907233D01*
X120803749Y-70907233D02*
X120756130Y-70859614D01*
X120756130Y-70859614D02*
X120660892Y-70811995D01*
X120660892Y-70811995D02*
X120470416Y-70764376D01*
X120470416Y-70764376D02*
X120375178Y-70716757D01*
X120375178Y-70716757D02*
X120327559Y-70669138D01*
X120327559Y-70669138D02*
X120279940Y-70573900D01*
X120279940Y-70573900D02*
X120279940Y-70478662D01*
X120279940Y-70478662D02*
X120327559Y-70383424D01*
X120327559Y-70383424D02*
X120375178Y-70335805D01*
X120375178Y-70335805D02*
X120470416Y-70288186D01*
X120470416Y-70288186D02*
X120708511Y-70288186D01*
X120708511Y-70288186D02*
X120851368Y-70335805D01*
X121184702Y-70288186D02*
X121422797Y-71288186D01*
X121422797Y-71288186D02*
X121613273Y-70573900D01*
X121613273Y-70573900D02*
X121803749Y-71288186D01*
X121803749Y-71288186D02*
X122041845Y-70288186D01*
X187998345Y-92215700D02*
X188141202Y-92263319D01*
X188141202Y-92263319D02*
X188379297Y-92263319D01*
X188379297Y-92263319D02*
X188474535Y-92215700D01*
X188474535Y-92215700D02*
X188522154Y-92168080D01*
X188522154Y-92168080D02*
X188569773Y-92072842D01*
X188569773Y-92072842D02*
X188569773Y-91977604D01*
X188569773Y-91977604D02*
X188522154Y-91882366D01*
X188522154Y-91882366D02*
X188474535Y-91834747D01*
X188474535Y-91834747D02*
X188379297Y-91787128D01*
X188379297Y-91787128D02*
X188188821Y-91739509D01*
X188188821Y-91739509D02*
X188093583Y-91691890D01*
X188093583Y-91691890D02*
X188045964Y-91644271D01*
X188045964Y-91644271D02*
X187998345Y-91549033D01*
X187998345Y-91549033D02*
X187998345Y-91453795D01*
X187998345Y-91453795D02*
X188045964Y-91358557D01*
X188045964Y-91358557D02*
X188093583Y-91310938D01*
X188093583Y-91310938D02*
X188188821Y-91263319D01*
X188188821Y-91263319D02*
X188426916Y-91263319D01*
X188426916Y-91263319D02*
X188569773Y-91310938D01*
X188998345Y-92263319D02*
X188998345Y-91263319D01*
X188998345Y-91263319D02*
X189236440Y-91263319D01*
X189236440Y-91263319D02*
X189379297Y-91310938D01*
X189379297Y-91310938D02*
X189474535Y-91406176D01*
X189474535Y-91406176D02*
X189522154Y-91501414D01*
X189522154Y-91501414D02*
X189569773Y-91691890D01*
X189569773Y-91691890D02*
X189569773Y-91834747D01*
X189569773Y-91834747D02*
X189522154Y-92025223D01*
X189522154Y-92025223D02*
X189474535Y-92120461D01*
X189474535Y-92120461D02*
X189379297Y-92215700D01*
X189379297Y-92215700D02*
X189236440Y-92263319D01*
X189236440Y-92263319D02*
X188998345Y-92263319D01*
X189950726Y-91977604D02*
X190426916Y-91977604D01*
X189855488Y-92263319D02*
X190188821Y-91263319D01*
X190188821Y-91263319D02*
X190522154Y-92263319D01*
X177304816Y-145543850D02*
X177638149Y-146543850D01*
X177638149Y-146543850D02*
X177971482Y-145543850D01*
X178447673Y-146543850D02*
X178352435Y-146496231D01*
X178352435Y-146496231D02*
X178304816Y-146448611D01*
X178304816Y-146448611D02*
X178257197Y-146353373D01*
X178257197Y-146353373D02*
X178257197Y-146067659D01*
X178257197Y-146067659D02*
X178304816Y-145972421D01*
X178304816Y-145972421D02*
X178352435Y-145924802D01*
X178352435Y-145924802D02*
X178447673Y-145877183D01*
X178447673Y-145877183D02*
X178590530Y-145877183D01*
X178590530Y-145877183D02*
X178685768Y-145924802D01*
X178685768Y-145924802D02*
X178733387Y-145972421D01*
X178733387Y-145972421D02*
X178781006Y-146067659D01*
X178781006Y-146067659D02*
X178781006Y-146353373D01*
X178781006Y-146353373D02*
X178733387Y-146448611D01*
X178733387Y-146448611D02*
X178685768Y-146496231D01*
X178685768Y-146496231D02*
X178590530Y-146543850D01*
X178590530Y-146543850D02*
X178447673Y-146543850D01*
X179638149Y-145877183D02*
X179638149Y-146543850D01*
X179209578Y-145877183D02*
X179209578Y-146400992D01*
X179209578Y-146400992D02*
X179257197Y-146496231D01*
X179257197Y-146496231D02*
X179352435Y-146543850D01*
X179352435Y-146543850D02*
X179495292Y-146543850D01*
X179495292Y-146543850D02*
X179590530Y-146496231D01*
X179590530Y-146496231D02*
X179638149Y-146448611D01*
X179971483Y-145877183D02*
X180352435Y-145877183D01*
X180114340Y-145543850D02*
X180114340Y-146400992D01*
X180114340Y-146400992D02*
X180161959Y-146496231D01*
X180161959Y-146496231D02*
X180257197Y-146543850D01*
X180257197Y-146543850D02*
X180352435Y-146543850D01*
X119898987Y-80602515D02*
X119803749Y-80554896D01*
X119803749Y-80554896D02*
X119660892Y-80554896D01*
X119660892Y-80554896D02*
X119518035Y-80602515D01*
X119518035Y-80602515D02*
X119422797Y-80697753D01*
X119422797Y-80697753D02*
X119375178Y-80792991D01*
X119375178Y-80792991D02*
X119327559Y-80983467D01*
X119327559Y-80983467D02*
X119327559Y-81126324D01*
X119327559Y-81126324D02*
X119375178Y-81316800D01*
X119375178Y-81316800D02*
X119422797Y-81412038D01*
X119422797Y-81412038D02*
X119518035Y-81507277D01*
X119518035Y-81507277D02*
X119660892Y-81554896D01*
X119660892Y-81554896D02*
X119756130Y-81554896D01*
X119756130Y-81554896D02*
X119898987Y-81507277D01*
X119898987Y-81507277D02*
X119946606Y-81459657D01*
X119946606Y-81459657D02*
X119946606Y-81126324D01*
X119946606Y-81126324D02*
X119756130Y-81126324D01*
X120375178Y-81554896D02*
X120375178Y-80554896D01*
X120375178Y-80554896D02*
X120946606Y-81554896D01*
X120946606Y-81554896D02*
X120946606Y-80554896D01*
X121422797Y-81554896D02*
X121422797Y-80554896D01*
X121422797Y-80554896D02*
X121660892Y-80554896D01*
X121660892Y-80554896D02*
X121803749Y-80602515D01*
X121803749Y-80602515D02*
X121898987Y-80697753D01*
X121898987Y-80697753D02*
X121946606Y-80792991D01*
X121946606Y-80792991D02*
X121994225Y-80983467D01*
X121994225Y-80983467D02*
X121994225Y-81126324D01*
X121994225Y-81126324D02*
X121946606Y-81316800D01*
X121946606Y-81316800D02*
X121898987Y-81412038D01*
X121898987Y-81412038D02*
X121803749Y-81507277D01*
X121803749Y-81507277D02*
X121660892Y-81554896D01*
X121660892Y-81554896D02*
X121422797Y-81554896D01*
X140761019Y-136841126D02*
X139761019Y-136841126D01*
X139761019Y-136841126D02*
X140475304Y-136507793D01*
X140475304Y-136507793D02*
X139761019Y-136174460D01*
X139761019Y-136174460D02*
X140761019Y-136174460D01*
X140761019Y-135174460D02*
X140761019Y-135745888D01*
X140761019Y-135460174D02*
X139761019Y-135460174D01*
X139761019Y-135460174D02*
X139903876Y-135555412D01*
X139903876Y-135555412D02*
X139999114Y-135650650D01*
X139999114Y-135650650D02*
X140046733Y-135745888D01*
X164009009Y-136725955D02*
X164675676Y-136725955D01*
X163628057Y-136964050D02*
X164342342Y-137202145D01*
X164342342Y-137202145D02*
X164342342Y-136583098D01*
X163723295Y-134916431D02*
X163675676Y-135011669D01*
X163675676Y-135011669D02*
X163675676Y-135154526D01*
X163675676Y-135154526D02*
X163723295Y-135297383D01*
X163723295Y-135297383D02*
X163818533Y-135392621D01*
X163818533Y-135392621D02*
X163913771Y-135440240D01*
X163913771Y-135440240D02*
X164104247Y-135487859D01*
X164104247Y-135487859D02*
X164247104Y-135487859D01*
X164247104Y-135487859D02*
X164437580Y-135440240D01*
X164437580Y-135440240D02*
X164532818Y-135392621D01*
X164532818Y-135392621D02*
X164628057Y-135297383D01*
X164628057Y-135297383D02*
X164675676Y-135154526D01*
X164675676Y-135154526D02*
X164675676Y-135059288D01*
X164675676Y-135059288D02*
X164628057Y-134916431D01*
X164628057Y-134916431D02*
X164580437Y-134868812D01*
X164580437Y-134868812D02*
X164247104Y-134868812D01*
X164247104Y-134868812D02*
X164247104Y-135059288D01*
X164675676Y-134440240D02*
X163675676Y-134440240D01*
X163675676Y-134440240D02*
X163675676Y-134059288D01*
X163675676Y-134059288D02*
X163723295Y-133964050D01*
X163723295Y-133964050D02*
X163770914Y-133916431D01*
X163770914Y-133916431D02*
X163866152Y-133868812D01*
X163866152Y-133868812D02*
X164009009Y-133868812D01*
X164009009Y-133868812D02*
X164104247Y-133916431D01*
X164104247Y-133916431D02*
X164151866Y-133964050D01*
X164151866Y-133964050D02*
X164199485Y-134059288D01*
X164199485Y-134059288D02*
X164199485Y-134440240D01*
X164675676Y-133440240D02*
X163675676Y-133440240D01*
X163675676Y-132773574D02*
X163675676Y-132583098D01*
X163675676Y-132583098D02*
X163723295Y-132487860D01*
X163723295Y-132487860D02*
X163818533Y-132392622D01*
X163818533Y-132392622D02*
X164009009Y-132345003D01*
X164009009Y-132345003D02*
X164342342Y-132345003D01*
X164342342Y-132345003D02*
X164532818Y-132392622D01*
X164532818Y-132392622D02*
X164628057Y-132487860D01*
X164628057Y-132487860D02*
X164675676Y-132583098D01*
X164675676Y-132583098D02*
X164675676Y-132773574D01*
X164675676Y-132773574D02*
X164628057Y-132868812D01*
X164628057Y-132868812D02*
X164532818Y-132964050D01*
X164532818Y-132964050D02*
X164342342Y-133011669D01*
X164342342Y-133011669D02*
X164009009Y-133011669D01*
X164009009Y-133011669D02*
X163818533Y-132964050D01*
X163818533Y-132964050D02*
X163723295Y-132868812D01*
X163723295Y-132868812D02*
X163675676Y-132773574D01*
X163675676Y-132011669D02*
X163675676Y-131345003D01*
X163675676Y-131345003D02*
X164675676Y-131773574D01*
X146203438Y-136554517D02*
X146155819Y-136649755D01*
X146155819Y-136649755D02*
X146155819Y-136792612D01*
X146155819Y-136792612D02*
X146203438Y-136935469D01*
X146203438Y-136935469D02*
X146298676Y-137030707D01*
X146298676Y-137030707D02*
X146393914Y-137078326D01*
X146393914Y-137078326D02*
X146584390Y-137125945D01*
X146584390Y-137125945D02*
X146727247Y-137125945D01*
X146727247Y-137125945D02*
X146917723Y-137078326D01*
X146917723Y-137078326D02*
X147012961Y-137030707D01*
X147012961Y-137030707D02*
X147108200Y-136935469D01*
X147108200Y-136935469D02*
X147155819Y-136792612D01*
X147155819Y-136792612D02*
X147155819Y-136697374D01*
X147155819Y-136697374D02*
X147108200Y-136554517D01*
X147108200Y-136554517D02*
X147060580Y-136506898D01*
X147060580Y-136506898D02*
X146727247Y-136506898D01*
X146727247Y-136506898D02*
X146727247Y-136697374D01*
X147155819Y-136078326D02*
X146155819Y-136078326D01*
X146155819Y-136078326D02*
X147155819Y-135506898D01*
X147155819Y-135506898D02*
X146155819Y-135506898D01*
X147155819Y-135030707D02*
X146155819Y-135030707D01*
X146155819Y-135030707D02*
X146155819Y-134792612D01*
X146155819Y-134792612D02*
X146203438Y-134649755D01*
X146203438Y-134649755D02*
X146298676Y-134554517D01*
X146298676Y-134554517D02*
X146393914Y-134506898D01*
X146393914Y-134506898D02*
X146584390Y-134459279D01*
X146584390Y-134459279D02*
X146727247Y-134459279D01*
X146727247Y-134459279D02*
X146917723Y-134506898D01*
X146917723Y-134506898D02*
X147012961Y-134554517D01*
X147012961Y-134554517D02*
X147108200Y-134649755D01*
X147108200Y-134649755D02*
X147155819Y-134792612D01*
X147155819Y-134792612D02*
X147155819Y-135030707D01*
X195029482Y-145611569D02*
X194934244Y-145563950D01*
X194934244Y-145563950D02*
X194791387Y-145563950D01*
X194791387Y-145563950D02*
X194648530Y-145611569D01*
X194648530Y-145611569D02*
X194553292Y-145706807D01*
X194553292Y-145706807D02*
X194505673Y-145802045D01*
X194505673Y-145802045D02*
X194458054Y-145992521D01*
X194458054Y-145992521D02*
X194458054Y-146135378D01*
X194458054Y-146135378D02*
X194505673Y-146325854D01*
X194505673Y-146325854D02*
X194553292Y-146421092D01*
X194553292Y-146421092D02*
X194648530Y-146516331D01*
X194648530Y-146516331D02*
X194791387Y-146563950D01*
X194791387Y-146563950D02*
X194886625Y-146563950D01*
X194886625Y-146563950D02*
X195029482Y-146516331D01*
X195029482Y-146516331D02*
X195077101Y-146468711D01*
X195077101Y-146468711D02*
X195077101Y-146135378D01*
X195077101Y-146135378D02*
X194886625Y-146135378D01*
X195505673Y-146563950D02*
X195505673Y-145563950D01*
X195505673Y-145563950D02*
X196077101Y-146563950D01*
X196077101Y-146563950D02*
X196077101Y-145563950D01*
X196553292Y-146563950D02*
X196553292Y-145563950D01*
X196553292Y-145563950D02*
X196791387Y-145563950D01*
X196791387Y-145563950D02*
X196934244Y-145611569D01*
X196934244Y-145611569D02*
X197029482Y-145706807D01*
X197029482Y-145706807D02*
X197077101Y-145802045D01*
X197077101Y-145802045D02*
X197124720Y-145992521D01*
X197124720Y-145992521D02*
X197124720Y-146135378D01*
X197124720Y-146135378D02*
X197077101Y-146325854D01*
X197077101Y-146325854D02*
X197029482Y-146421092D01*
X197029482Y-146421092D02*
X196934244Y-146516331D01*
X196934244Y-146516331D02*
X196791387Y-146563950D01*
X196791387Y-146563950D02*
X196553292Y-146563950D01*
X188317349Y-83217800D02*
X188460206Y-83265419D01*
X188460206Y-83265419D02*
X188698301Y-83265419D01*
X188698301Y-83265419D02*
X188793539Y-83217800D01*
X188793539Y-83217800D02*
X188841158Y-83170180D01*
X188841158Y-83170180D02*
X188888777Y-83074942D01*
X188888777Y-83074942D02*
X188888777Y-82979704D01*
X188888777Y-82979704D02*
X188841158Y-82884466D01*
X188841158Y-82884466D02*
X188793539Y-82836847D01*
X188793539Y-82836847D02*
X188698301Y-82789228D01*
X188698301Y-82789228D02*
X188507825Y-82741609D01*
X188507825Y-82741609D02*
X188412587Y-82693990D01*
X188412587Y-82693990D02*
X188364968Y-82646371D01*
X188364968Y-82646371D02*
X188317349Y-82551133D01*
X188317349Y-82551133D02*
X188317349Y-82455895D01*
X188317349Y-82455895D02*
X188364968Y-82360657D01*
X188364968Y-82360657D02*
X188412587Y-82313038D01*
X188412587Y-82313038D02*
X188507825Y-82265419D01*
X188507825Y-82265419D02*
X188745920Y-82265419D01*
X188745920Y-82265419D02*
X188888777Y-82313038D01*
X189317349Y-83265419D02*
X189317349Y-82265419D01*
X189317349Y-82265419D02*
X189555444Y-82265419D01*
X189555444Y-82265419D02*
X189698301Y-82313038D01*
X189698301Y-82313038D02*
X189793539Y-82408276D01*
X189793539Y-82408276D02*
X189841158Y-82503514D01*
X189841158Y-82503514D02*
X189888777Y-82693990D01*
X189888777Y-82693990D02*
X189888777Y-82836847D01*
X189888777Y-82836847D02*
X189841158Y-83027323D01*
X189841158Y-83027323D02*
X189793539Y-83122561D01*
X189793539Y-83122561D02*
X189698301Y-83217800D01*
X189698301Y-83217800D02*
X189555444Y-83265419D01*
X189555444Y-83265419D02*
X189317349Y-83265419D01*
X190269730Y-82979704D02*
X190745920Y-82979704D01*
X190174492Y-83265419D02*
X190507825Y-82265419D01*
X190507825Y-82265419D02*
X190841158Y-83265419D01*
X189308216Y-145563950D02*
X189641549Y-146563950D01*
X189641549Y-146563950D02*
X189974882Y-145563950D01*
X190308216Y-146563950D02*
X190308216Y-145897283D01*
X190308216Y-145563950D02*
X190260597Y-145611569D01*
X190260597Y-145611569D02*
X190308216Y-145659188D01*
X190308216Y-145659188D02*
X190355835Y-145611569D01*
X190355835Y-145611569D02*
X190308216Y-145563950D01*
X190308216Y-145563950D02*
X190308216Y-145659188D01*
X190784406Y-145897283D02*
X190784406Y-146563950D01*
X190784406Y-145992521D02*
X190832025Y-145944902D01*
X190832025Y-145944902D02*
X190927263Y-145897283D01*
X190927263Y-145897283D02*
X191070120Y-145897283D01*
X191070120Y-145897283D02*
X191165358Y-145944902D01*
X191165358Y-145944902D02*
X191212977Y-146040140D01*
X191212977Y-146040140D02*
X191212977Y-146563950D01*
X195431682Y-91188438D02*
X195336444Y-91140819D01*
X195336444Y-91140819D02*
X195193587Y-91140819D01*
X195193587Y-91140819D02*
X195050730Y-91188438D01*
X195050730Y-91188438D02*
X194955492Y-91283676D01*
X194955492Y-91283676D02*
X194907873Y-91378914D01*
X194907873Y-91378914D02*
X194860254Y-91569390D01*
X194860254Y-91569390D02*
X194860254Y-91712247D01*
X194860254Y-91712247D02*
X194907873Y-91902723D01*
X194907873Y-91902723D02*
X194955492Y-91997961D01*
X194955492Y-91997961D02*
X195050730Y-92093200D01*
X195050730Y-92093200D02*
X195193587Y-92140819D01*
X195193587Y-92140819D02*
X195288825Y-92140819D01*
X195288825Y-92140819D02*
X195431682Y-92093200D01*
X195431682Y-92093200D02*
X195479301Y-92045580D01*
X195479301Y-92045580D02*
X195479301Y-91712247D01*
X195479301Y-91712247D02*
X195288825Y-91712247D01*
X195907873Y-92140819D02*
X195907873Y-91140819D01*
X195907873Y-91140819D02*
X196288825Y-91140819D01*
X196288825Y-91140819D02*
X196384063Y-91188438D01*
X196384063Y-91188438D02*
X196431682Y-91236057D01*
X196431682Y-91236057D02*
X196479301Y-91331295D01*
X196479301Y-91331295D02*
X196479301Y-91474152D01*
X196479301Y-91474152D02*
X196431682Y-91569390D01*
X196431682Y-91569390D02*
X196384063Y-91617009D01*
X196384063Y-91617009D02*
X196288825Y-91664628D01*
X196288825Y-91664628D02*
X195907873Y-91664628D01*
X196907873Y-92140819D02*
X196907873Y-91140819D01*
X197574539Y-91140819D02*
X197765015Y-91140819D01*
X197765015Y-91140819D02*
X197860253Y-91188438D01*
X197860253Y-91188438D02*
X197955491Y-91283676D01*
X197955491Y-91283676D02*
X198003110Y-91474152D01*
X198003110Y-91474152D02*
X198003110Y-91807485D01*
X198003110Y-91807485D02*
X197955491Y-91997961D01*
X197955491Y-91997961D02*
X197860253Y-92093200D01*
X197860253Y-92093200D02*
X197765015Y-92140819D01*
X197765015Y-92140819D02*
X197574539Y-92140819D01*
X197574539Y-92140819D02*
X197479301Y-92093200D01*
X197479301Y-92093200D02*
X197384063Y-91997961D01*
X197384063Y-91997961D02*
X197336444Y-91807485D01*
X197336444Y-91807485D02*
X197336444Y-91474152D01*
X197336444Y-91474152D02*
X197384063Y-91283676D01*
X197384063Y-91283676D02*
X197479301Y-91188438D01*
X197479301Y-91188438D02*
X197574539Y-91140819D01*
X198955491Y-92140819D02*
X198384063Y-92140819D01*
X198669777Y-92140819D02*
X198669777Y-91140819D01*
X198669777Y-91140819D02*
X198574539Y-91283676D01*
X198574539Y-91283676D02*
X198479301Y-91378914D01*
X198479301Y-91378914D02*
X198384063Y-91426533D01*
X199907872Y-92140819D02*
X199336444Y-92140819D01*
X199622158Y-92140819D02*
X199622158Y-91140819D01*
X199622158Y-91140819D02*
X199526920Y-91283676D01*
X199526920Y-91283676D02*
X199431682Y-91378914D01*
X199431682Y-91378914D02*
X199336444Y-91426533D01*
X161215504Y-136652936D02*
X161215504Y-137129126D01*
X161215504Y-137129126D02*
X161691694Y-137176745D01*
X161691694Y-137176745D02*
X161644075Y-137129126D01*
X161644075Y-137129126D02*
X161596456Y-137033888D01*
X161596456Y-137033888D02*
X161596456Y-136795793D01*
X161596456Y-136795793D02*
X161644075Y-136700555D01*
X161644075Y-136700555D02*
X161691694Y-136652936D01*
X161691694Y-136652936D02*
X161786932Y-136605317D01*
X161786932Y-136605317D02*
X162025027Y-136605317D01*
X162025027Y-136605317D02*
X162120265Y-136652936D01*
X162120265Y-136652936D02*
X162167885Y-136700555D01*
X162167885Y-136700555D02*
X162215504Y-136795793D01*
X162215504Y-136795793D02*
X162215504Y-137033888D01*
X162215504Y-137033888D02*
X162167885Y-137129126D01*
X162167885Y-137129126D02*
X162120265Y-137176745D01*
X161263123Y-134891031D02*
X161215504Y-134986269D01*
X161215504Y-134986269D02*
X161215504Y-135129126D01*
X161215504Y-135129126D02*
X161263123Y-135271983D01*
X161263123Y-135271983D02*
X161358361Y-135367221D01*
X161358361Y-135367221D02*
X161453599Y-135414840D01*
X161453599Y-135414840D02*
X161644075Y-135462459D01*
X161644075Y-135462459D02*
X161786932Y-135462459D01*
X161786932Y-135462459D02*
X161977408Y-135414840D01*
X161977408Y-135414840D02*
X162072646Y-135367221D01*
X162072646Y-135367221D02*
X162167885Y-135271983D01*
X162167885Y-135271983D02*
X162215504Y-135129126D01*
X162215504Y-135129126D02*
X162215504Y-135033888D01*
X162215504Y-135033888D02*
X162167885Y-134891031D01*
X162167885Y-134891031D02*
X162120265Y-134843412D01*
X162120265Y-134843412D02*
X161786932Y-134843412D01*
X161786932Y-134843412D02*
X161786932Y-135033888D01*
X162215504Y-134414840D02*
X161215504Y-134414840D01*
X161215504Y-134414840D02*
X161215504Y-134033888D01*
X161215504Y-134033888D02*
X161263123Y-133938650D01*
X161263123Y-133938650D02*
X161310742Y-133891031D01*
X161310742Y-133891031D02*
X161405980Y-133843412D01*
X161405980Y-133843412D02*
X161548837Y-133843412D01*
X161548837Y-133843412D02*
X161644075Y-133891031D01*
X161644075Y-133891031D02*
X161691694Y-133938650D01*
X161691694Y-133938650D02*
X161739313Y-134033888D01*
X161739313Y-134033888D02*
X161739313Y-134414840D01*
X162215504Y-133414840D02*
X161215504Y-133414840D01*
X161215504Y-132748174D02*
X161215504Y-132557698D01*
X161215504Y-132557698D02*
X161263123Y-132462460D01*
X161263123Y-132462460D02*
X161358361Y-132367222D01*
X161358361Y-132367222D02*
X161548837Y-132319603D01*
X161548837Y-132319603D02*
X161882170Y-132319603D01*
X161882170Y-132319603D02*
X162072646Y-132367222D01*
X162072646Y-132367222D02*
X162167885Y-132462460D01*
X162167885Y-132462460D02*
X162215504Y-132557698D01*
X162215504Y-132557698D02*
X162215504Y-132748174D01*
X162215504Y-132748174D02*
X162167885Y-132843412D01*
X162167885Y-132843412D02*
X162072646Y-132938650D01*
X162072646Y-132938650D02*
X161882170Y-132986269D01*
X161882170Y-132986269D02*
X161548837Y-132986269D01*
X161548837Y-132986269D02*
X161358361Y-132938650D01*
X161358361Y-132938650D02*
X161263123Y-132843412D01*
X161263123Y-132843412D02*
X161215504Y-132748174D01*
X162215504Y-131367222D02*
X162215504Y-131938650D01*
X162215504Y-131652936D02*
X161215504Y-131652936D01*
X161215504Y-131652936D02*
X161358361Y-131748174D01*
X161358361Y-131748174D02*
X161453599Y-131843412D01*
X161453599Y-131843412D02*
X161501218Y-131938650D01*
X161215504Y-130462460D02*
X161215504Y-130938650D01*
X161215504Y-130938650D02*
X161691694Y-130986269D01*
X161691694Y-130986269D02*
X161644075Y-130938650D01*
X161644075Y-130938650D02*
X161596456Y-130843412D01*
X161596456Y-130843412D02*
X161596456Y-130605317D01*
X161596456Y-130605317D02*
X161644075Y-130510079D01*
X161644075Y-130510079D02*
X161691694Y-130462460D01*
X161691694Y-130462460D02*
X161786932Y-130414841D01*
X161786932Y-130414841D02*
X162025027Y-130414841D01*
X162025027Y-130414841D02*
X162120265Y-130462460D01*
X162120265Y-130462460D02*
X162167885Y-130510079D01*
X162167885Y-130510079D02*
X162215504Y-130605317D01*
X162215504Y-130605317D02*
X162215504Y-130843412D01*
X162215504Y-130843412D02*
X162167885Y-130938650D01*
X162167885Y-130938650D02*
X162120265Y-130986269D01*
X119660892Y-72854864D02*
X119994225Y-73854864D01*
X119994225Y-73854864D02*
X120327558Y-72854864D01*
X121232320Y-73854864D02*
X120898987Y-73378673D01*
X120660892Y-73854864D02*
X120660892Y-72854864D01*
X120660892Y-72854864D02*
X121041844Y-72854864D01*
X121041844Y-72854864D02*
X121137082Y-72902483D01*
X121137082Y-72902483D02*
X121184701Y-72950102D01*
X121184701Y-72950102D02*
X121232320Y-73045340D01*
X121232320Y-73045340D02*
X121232320Y-73188197D01*
X121232320Y-73188197D02*
X121184701Y-73283435D01*
X121184701Y-73283435D02*
X121137082Y-73331054D01*
X121137082Y-73331054D02*
X121041844Y-73378673D01*
X121041844Y-73378673D02*
X120660892Y-73378673D01*
X121565654Y-73188197D02*
X121803749Y-73854864D01*
X122041844Y-73188197D02*
X121803749Y-73854864D01*
X121803749Y-73854864D02*
X121708511Y-74092959D01*
X121708511Y-74092959D02*
X121660892Y-74140578D01*
X121660892Y-74140578D02*
X121565654Y-74188197D01*
X120384673Y-146030550D02*
X120384673Y-145030550D01*
X120384673Y-145030550D02*
X120718006Y-145744835D01*
X120718006Y-145744835D02*
X121051339Y-145030550D01*
X121051339Y-145030550D02*
X121051339Y-146030550D01*
X121479911Y-145125788D02*
X121527530Y-145078169D01*
X121527530Y-145078169D02*
X121622768Y-145030550D01*
X121622768Y-145030550D02*
X121860863Y-145030550D01*
X121860863Y-145030550D02*
X121956101Y-145078169D01*
X121956101Y-145078169D02*
X122003720Y-145125788D01*
X122003720Y-145125788D02*
X122051339Y-145221026D01*
X122051339Y-145221026D02*
X122051339Y-145316264D01*
X122051339Y-145316264D02*
X122003720Y-145459121D01*
X122003720Y-145459121D02*
X121432292Y-146030550D01*
X121432292Y-146030550D02*
X122051339Y-146030550D01*
X168691257Y-137176745D02*
X168643638Y-137129126D01*
X168643638Y-137129126D02*
X168596019Y-137033888D01*
X168596019Y-137033888D02*
X168596019Y-136795793D01*
X168596019Y-136795793D02*
X168643638Y-136700555D01*
X168643638Y-136700555D02*
X168691257Y-136652936D01*
X168691257Y-136652936D02*
X168786495Y-136605317D01*
X168786495Y-136605317D02*
X168881733Y-136605317D01*
X168881733Y-136605317D02*
X169024590Y-136652936D01*
X169024590Y-136652936D02*
X169596019Y-137224364D01*
X169596019Y-137224364D02*
X169596019Y-136605317D01*
X168643638Y-134891031D02*
X168596019Y-134986269D01*
X168596019Y-134986269D02*
X168596019Y-135129126D01*
X168596019Y-135129126D02*
X168643638Y-135271983D01*
X168643638Y-135271983D02*
X168738876Y-135367221D01*
X168738876Y-135367221D02*
X168834114Y-135414840D01*
X168834114Y-135414840D02*
X169024590Y-135462459D01*
X169024590Y-135462459D02*
X169167447Y-135462459D01*
X169167447Y-135462459D02*
X169357923Y-135414840D01*
X169357923Y-135414840D02*
X169453161Y-135367221D01*
X169453161Y-135367221D02*
X169548400Y-135271983D01*
X169548400Y-135271983D02*
X169596019Y-135129126D01*
X169596019Y-135129126D02*
X169596019Y-135033888D01*
X169596019Y-135033888D02*
X169548400Y-134891031D01*
X169548400Y-134891031D02*
X169500780Y-134843412D01*
X169500780Y-134843412D02*
X169167447Y-134843412D01*
X169167447Y-134843412D02*
X169167447Y-135033888D01*
X169596019Y-134414840D02*
X168596019Y-134414840D01*
X168596019Y-134414840D02*
X168596019Y-134033888D01*
X168596019Y-134033888D02*
X168643638Y-133938650D01*
X168643638Y-133938650D02*
X168691257Y-133891031D01*
X168691257Y-133891031D02*
X168786495Y-133843412D01*
X168786495Y-133843412D02*
X168929352Y-133843412D01*
X168929352Y-133843412D02*
X169024590Y-133891031D01*
X169024590Y-133891031D02*
X169072209Y-133938650D01*
X169072209Y-133938650D02*
X169119828Y-134033888D01*
X169119828Y-134033888D02*
X169119828Y-134414840D01*
X169596019Y-133414840D02*
X168596019Y-133414840D01*
X168596019Y-132748174D02*
X168596019Y-132557698D01*
X168596019Y-132557698D02*
X168643638Y-132462460D01*
X168643638Y-132462460D02*
X168738876Y-132367222D01*
X168738876Y-132367222D02*
X168929352Y-132319603D01*
X168929352Y-132319603D02*
X169262685Y-132319603D01*
X169262685Y-132319603D02*
X169453161Y-132367222D01*
X169453161Y-132367222D02*
X169548400Y-132462460D01*
X169548400Y-132462460D02*
X169596019Y-132557698D01*
X169596019Y-132557698D02*
X169596019Y-132748174D01*
X169596019Y-132748174D02*
X169548400Y-132843412D01*
X169548400Y-132843412D02*
X169453161Y-132938650D01*
X169453161Y-132938650D02*
X169262685Y-132986269D01*
X169262685Y-132986269D02*
X168929352Y-132986269D01*
X168929352Y-132986269D02*
X168738876Y-132938650D01*
X168738876Y-132938650D02*
X168643638Y-132843412D01*
X168643638Y-132843412D02*
X168596019Y-132748174D01*
X168596019Y-131414841D02*
X168596019Y-131891031D01*
X168596019Y-131891031D02*
X169072209Y-131938650D01*
X169072209Y-131938650D02*
X169024590Y-131891031D01*
X169024590Y-131891031D02*
X168976971Y-131795793D01*
X168976971Y-131795793D02*
X168976971Y-131557698D01*
X168976971Y-131557698D02*
X169024590Y-131462460D01*
X169024590Y-131462460D02*
X169072209Y-131414841D01*
X169072209Y-131414841D02*
X169167447Y-131367222D01*
X169167447Y-131367222D02*
X169405542Y-131367222D01*
X169405542Y-131367222D02*
X169500780Y-131414841D01*
X169500780Y-131414841D02*
X169548400Y-131462460D01*
X169548400Y-131462460D02*
X169596019Y-131557698D01*
X169596019Y-131557698D02*
X169596019Y-131795793D01*
X169596019Y-131795793D02*
X169548400Y-131891031D01*
X169548400Y-131891031D02*
X169500780Y-131938650D01*
X115832200Y-123875545D02*
X115879819Y-123732688D01*
X115879819Y-123732688D02*
X115879819Y-123494593D01*
X115879819Y-123494593D02*
X115832200Y-123399355D01*
X115832200Y-123399355D02*
X115784580Y-123351736D01*
X115784580Y-123351736D02*
X115689342Y-123304117D01*
X115689342Y-123304117D02*
X115594104Y-123304117D01*
X115594104Y-123304117D02*
X115498866Y-123351736D01*
X115498866Y-123351736D02*
X115451247Y-123399355D01*
X115451247Y-123399355D02*
X115403628Y-123494593D01*
X115403628Y-123494593D02*
X115356009Y-123685069D01*
X115356009Y-123685069D02*
X115308390Y-123780307D01*
X115308390Y-123780307D02*
X115260771Y-123827926D01*
X115260771Y-123827926D02*
X115165533Y-123875545D01*
X115165533Y-123875545D02*
X115070295Y-123875545D01*
X115070295Y-123875545D02*
X114975057Y-123827926D01*
X114975057Y-123827926D02*
X114927438Y-123780307D01*
X114927438Y-123780307D02*
X114879819Y-123685069D01*
X114879819Y-123685069D02*
X114879819Y-123446974D01*
X114879819Y-123446974D02*
X114927438Y-123304117D01*
X115879819Y-122875545D02*
X114879819Y-122875545D01*
X114927438Y-121875546D02*
X114879819Y-121970784D01*
X114879819Y-121970784D02*
X114879819Y-122113641D01*
X114879819Y-122113641D02*
X114927438Y-122256498D01*
X114927438Y-122256498D02*
X115022676Y-122351736D01*
X115022676Y-122351736D02*
X115117914Y-122399355D01*
X115117914Y-122399355D02*
X115308390Y-122446974D01*
X115308390Y-122446974D02*
X115451247Y-122446974D01*
X115451247Y-122446974D02*
X115641723Y-122399355D01*
X115641723Y-122399355D02*
X115736961Y-122351736D01*
X115736961Y-122351736D02*
X115832200Y-122256498D01*
X115832200Y-122256498D02*
X115879819Y-122113641D01*
X115879819Y-122113641D02*
X115879819Y-122018403D01*
X115879819Y-122018403D02*
X115832200Y-121875546D01*
X115832200Y-121875546D02*
X115784580Y-121827927D01*
X115784580Y-121827927D02*
X115451247Y-121827927D01*
X115451247Y-121827927D02*
X115451247Y-122018403D01*
X115879819Y-121399355D02*
X114879819Y-121399355D01*
X114879819Y-121399355D02*
X115879819Y-120827927D01*
X115879819Y-120827927D02*
X114879819Y-120827927D01*
X115594104Y-120399355D02*
X115594104Y-119923165D01*
X115879819Y-120494593D02*
X114879819Y-120161260D01*
X114879819Y-120161260D02*
X115879819Y-119827927D01*
X115879819Y-119018403D02*
X115879819Y-119494593D01*
X115879819Y-119494593D02*
X114879819Y-119494593D01*
X114927438Y-117399355D02*
X114879819Y-117494593D01*
X114879819Y-117494593D02*
X114879819Y-117637450D01*
X114879819Y-117637450D02*
X114927438Y-117780307D01*
X114927438Y-117780307D02*
X115022676Y-117875545D01*
X115022676Y-117875545D02*
X115117914Y-117923164D01*
X115117914Y-117923164D02*
X115308390Y-117970783D01*
X115308390Y-117970783D02*
X115451247Y-117970783D01*
X115451247Y-117970783D02*
X115641723Y-117923164D01*
X115641723Y-117923164D02*
X115736961Y-117875545D01*
X115736961Y-117875545D02*
X115832200Y-117780307D01*
X115832200Y-117780307D02*
X115879819Y-117637450D01*
X115879819Y-117637450D02*
X115879819Y-117542212D01*
X115879819Y-117542212D02*
X115832200Y-117399355D01*
X115832200Y-117399355D02*
X115784580Y-117351736D01*
X115784580Y-117351736D02*
X115451247Y-117351736D01*
X115451247Y-117351736D02*
X115451247Y-117542212D01*
X115879819Y-116923164D02*
X114879819Y-116923164D01*
X114879819Y-116923164D02*
X114879819Y-116542212D01*
X114879819Y-116542212D02*
X114927438Y-116446974D01*
X114927438Y-116446974D02*
X114975057Y-116399355D01*
X114975057Y-116399355D02*
X115070295Y-116351736D01*
X115070295Y-116351736D02*
X115213152Y-116351736D01*
X115213152Y-116351736D02*
X115308390Y-116399355D01*
X115308390Y-116399355D02*
X115356009Y-116446974D01*
X115356009Y-116446974D02*
X115403628Y-116542212D01*
X115403628Y-116542212D02*
X115403628Y-116923164D01*
X115879819Y-115923164D02*
X114879819Y-115923164D01*
X114879819Y-115256498D02*
X114879819Y-115066022D01*
X114879819Y-115066022D02*
X114927438Y-114970784D01*
X114927438Y-114970784D02*
X115022676Y-114875546D01*
X115022676Y-114875546D02*
X115213152Y-114827927D01*
X115213152Y-114827927D02*
X115546485Y-114827927D01*
X115546485Y-114827927D02*
X115736961Y-114875546D01*
X115736961Y-114875546D02*
X115832200Y-114970784D01*
X115832200Y-114970784D02*
X115879819Y-115066022D01*
X115879819Y-115066022D02*
X115879819Y-115256498D01*
X115879819Y-115256498D02*
X115832200Y-115351736D01*
X115832200Y-115351736D02*
X115736961Y-115446974D01*
X115736961Y-115446974D02*
X115546485Y-115494593D01*
X115546485Y-115494593D02*
X115213152Y-115494593D01*
X115213152Y-115494593D02*
X115022676Y-115446974D01*
X115022676Y-115446974D02*
X114927438Y-115351736D01*
X114927438Y-115351736D02*
X114879819Y-115256498D01*
X115879819Y-113875546D02*
X115879819Y-114446974D01*
X115879819Y-114161260D02*
X114879819Y-114161260D01*
X114879819Y-114161260D02*
X115022676Y-114256498D01*
X115022676Y-114256498D02*
X115117914Y-114351736D01*
X115117914Y-114351736D02*
X115165533Y-114446974D01*
X135157209Y-136507793D02*
X135204828Y-136364936D01*
X135204828Y-136364936D02*
X135252447Y-136317317D01*
X135252447Y-136317317D02*
X135347685Y-136269698D01*
X135347685Y-136269698D02*
X135490542Y-136269698D01*
X135490542Y-136269698D02*
X135585780Y-136317317D01*
X135585780Y-136317317D02*
X135633400Y-136364936D01*
X135633400Y-136364936D02*
X135681019Y-136460174D01*
X135681019Y-136460174D02*
X135681019Y-136841126D01*
X135681019Y-136841126D02*
X134681019Y-136841126D01*
X134681019Y-136841126D02*
X134681019Y-136507793D01*
X134681019Y-136507793D02*
X134728638Y-136412555D01*
X134728638Y-136412555D02*
X134776257Y-136364936D01*
X134776257Y-136364936D02*
X134871495Y-136317317D01*
X134871495Y-136317317D02*
X134966733Y-136317317D01*
X134966733Y-136317317D02*
X135061971Y-136364936D01*
X135061971Y-136364936D02*
X135109590Y-136412555D01*
X135109590Y-136412555D02*
X135157209Y-136507793D01*
X135157209Y-136507793D02*
X135157209Y-136841126D01*
X134728638Y-134555412D02*
X134681019Y-134650650D01*
X134681019Y-134650650D02*
X134681019Y-134793507D01*
X134681019Y-134793507D02*
X134728638Y-134936364D01*
X134728638Y-134936364D02*
X134823876Y-135031602D01*
X134823876Y-135031602D02*
X134919114Y-135079221D01*
X134919114Y-135079221D02*
X135109590Y-135126840D01*
X135109590Y-135126840D02*
X135252447Y-135126840D01*
X135252447Y-135126840D02*
X135442923Y-135079221D01*
X135442923Y-135079221D02*
X135538161Y-135031602D01*
X135538161Y-135031602D02*
X135633400Y-134936364D01*
X135633400Y-134936364D02*
X135681019Y-134793507D01*
X135681019Y-134793507D02*
X135681019Y-134698269D01*
X135681019Y-134698269D02*
X135633400Y-134555412D01*
X135633400Y-134555412D02*
X135585780Y-134507793D01*
X135585780Y-134507793D02*
X135252447Y-134507793D01*
X135252447Y-134507793D02*
X135252447Y-134698269D01*
X135681019Y-134079221D02*
X134681019Y-134079221D01*
X134681019Y-134079221D02*
X134681019Y-133698269D01*
X134681019Y-133698269D02*
X134728638Y-133603031D01*
X134728638Y-133603031D02*
X134776257Y-133555412D01*
X134776257Y-133555412D02*
X134871495Y-133507793D01*
X134871495Y-133507793D02*
X135014352Y-133507793D01*
X135014352Y-133507793D02*
X135109590Y-133555412D01*
X135109590Y-133555412D02*
X135157209Y-133603031D01*
X135157209Y-133603031D02*
X135204828Y-133698269D01*
X135204828Y-133698269D02*
X135204828Y-134079221D01*
X135681019Y-133079221D02*
X134681019Y-133079221D01*
X134681019Y-132412555D02*
X134681019Y-132222079D01*
X134681019Y-132222079D02*
X134728638Y-132126841D01*
X134728638Y-132126841D02*
X134823876Y-132031603D01*
X134823876Y-132031603D02*
X135014352Y-131983984D01*
X135014352Y-131983984D02*
X135347685Y-131983984D01*
X135347685Y-131983984D02*
X135538161Y-132031603D01*
X135538161Y-132031603D02*
X135633400Y-132126841D01*
X135633400Y-132126841D02*
X135681019Y-132222079D01*
X135681019Y-132222079D02*
X135681019Y-132412555D01*
X135681019Y-132412555D02*
X135633400Y-132507793D01*
X135633400Y-132507793D02*
X135538161Y-132603031D01*
X135538161Y-132603031D02*
X135347685Y-132650650D01*
X135347685Y-132650650D02*
X135014352Y-132650650D01*
X135014352Y-132650650D02*
X134823876Y-132603031D01*
X134823876Y-132603031D02*
X134728638Y-132507793D01*
X134728638Y-132507793D02*
X134681019Y-132412555D01*
X135109590Y-131412555D02*
X135061971Y-131507793D01*
X135061971Y-131507793D02*
X135014352Y-131555412D01*
X135014352Y-131555412D02*
X134919114Y-131603031D01*
X134919114Y-131603031D02*
X134871495Y-131603031D01*
X134871495Y-131603031D02*
X134776257Y-131555412D01*
X134776257Y-131555412D02*
X134728638Y-131507793D01*
X134728638Y-131507793D02*
X134681019Y-131412555D01*
X134681019Y-131412555D02*
X134681019Y-131222079D01*
X134681019Y-131222079D02*
X134728638Y-131126841D01*
X134728638Y-131126841D02*
X134776257Y-131079222D01*
X134776257Y-131079222D02*
X134871495Y-131031603D01*
X134871495Y-131031603D02*
X134919114Y-131031603D01*
X134919114Y-131031603D02*
X135014352Y-131079222D01*
X135014352Y-131079222D02*
X135061971Y-131126841D01*
X135061971Y-131126841D02*
X135109590Y-131222079D01*
X135109590Y-131222079D02*
X135109590Y-131412555D01*
X135109590Y-131412555D02*
X135157209Y-131507793D01*
X135157209Y-131507793D02*
X135204828Y-131555412D01*
X135204828Y-131555412D02*
X135300066Y-131603031D01*
X135300066Y-131603031D02*
X135490542Y-131603031D01*
X135490542Y-131603031D02*
X135585780Y-131555412D01*
X135585780Y-131555412D02*
X135633400Y-131507793D01*
X135633400Y-131507793D02*
X135681019Y-131412555D01*
X135681019Y-131412555D02*
X135681019Y-131222079D01*
X135681019Y-131222079D02*
X135633400Y-131126841D01*
X135633400Y-131126841D02*
X135585780Y-131079222D01*
X135585780Y-131079222D02*
X135490542Y-131031603D01*
X135490542Y-131031603D02*
X135300066Y-131031603D01*
X135300066Y-131031603D02*
X135204828Y-131079222D01*
X135204828Y-131079222D02*
X135157209Y-131126841D01*
X135157209Y-131126841D02*
X135109590Y-131222079D01*
X117521419Y-123351736D02*
X117521419Y-123827926D01*
X117521419Y-123827926D02*
X117997609Y-123875545D01*
X117997609Y-123875545D02*
X117949990Y-123827926D01*
X117949990Y-123827926D02*
X117902371Y-123732688D01*
X117902371Y-123732688D02*
X117902371Y-123494593D01*
X117902371Y-123494593D02*
X117949990Y-123399355D01*
X117949990Y-123399355D02*
X117997609Y-123351736D01*
X117997609Y-123351736D02*
X118092847Y-123304117D01*
X118092847Y-123304117D02*
X118330942Y-123304117D01*
X118330942Y-123304117D02*
X118426180Y-123351736D01*
X118426180Y-123351736D02*
X118473800Y-123399355D01*
X118473800Y-123399355D02*
X118521419Y-123494593D01*
X118521419Y-123494593D02*
X118521419Y-123732688D01*
X118521419Y-123732688D02*
X118473800Y-123827926D01*
X118473800Y-123827926D02*
X118426180Y-123875545D01*
X117521419Y-123018402D02*
X118521419Y-122685069D01*
X118521419Y-122685069D02*
X117521419Y-122351736D01*
X149000619Y-136627536D02*
X149000619Y-137103726D01*
X149000619Y-137103726D02*
X149476809Y-137151345D01*
X149476809Y-137151345D02*
X149429190Y-137103726D01*
X149429190Y-137103726D02*
X149381571Y-137008488D01*
X149381571Y-137008488D02*
X149381571Y-136770393D01*
X149381571Y-136770393D02*
X149429190Y-136675155D01*
X149429190Y-136675155D02*
X149476809Y-136627536D01*
X149476809Y-136627536D02*
X149572047Y-136579917D01*
X149572047Y-136579917D02*
X149810142Y-136579917D01*
X149810142Y-136579917D02*
X149905380Y-136627536D01*
X149905380Y-136627536D02*
X149953000Y-136675155D01*
X149953000Y-136675155D02*
X150000619Y-136770393D01*
X150000619Y-136770393D02*
X150000619Y-137008488D01*
X150000619Y-137008488D02*
X149953000Y-137103726D01*
X149953000Y-137103726D02*
X149905380Y-137151345D01*
X149000619Y-136294202D02*
X150000619Y-135960869D01*
X150000619Y-135960869D02*
X149000619Y-135627536D01*
X129601019Y-136364936D02*
X129601019Y-136841126D01*
X129601019Y-136841126D02*
X130077209Y-136888745D01*
X130077209Y-136888745D02*
X130029590Y-136841126D01*
X130029590Y-136841126D02*
X129981971Y-136745888D01*
X129981971Y-136745888D02*
X129981971Y-136507793D01*
X129981971Y-136507793D02*
X130029590Y-136412555D01*
X130029590Y-136412555D02*
X130077209Y-136364936D01*
X130077209Y-136364936D02*
X130172447Y-136317317D01*
X130172447Y-136317317D02*
X130410542Y-136317317D01*
X130410542Y-136317317D02*
X130505780Y-136364936D01*
X130505780Y-136364936D02*
X130553400Y-136412555D01*
X130553400Y-136412555D02*
X130601019Y-136507793D01*
X130601019Y-136507793D02*
X130601019Y-136745888D01*
X130601019Y-136745888D02*
X130553400Y-136841126D01*
X130553400Y-136841126D02*
X130505780Y-136888745D01*
X129601019Y-136031602D02*
X130601019Y-135698269D01*
X130601019Y-135698269D02*
X129601019Y-135364936D01*
X172056190Y-136630717D02*
X172056190Y-137202145D01*
X172056190Y-136916431D02*
X171056190Y-136916431D01*
X171056190Y-136916431D02*
X171199047Y-137011669D01*
X171199047Y-137011669D02*
X171294285Y-137106907D01*
X171294285Y-137106907D02*
X171341904Y-137202145D01*
X171103809Y-134916431D02*
X171056190Y-135011669D01*
X171056190Y-135011669D02*
X171056190Y-135154526D01*
X171056190Y-135154526D02*
X171103809Y-135297383D01*
X171103809Y-135297383D02*
X171199047Y-135392621D01*
X171199047Y-135392621D02*
X171294285Y-135440240D01*
X171294285Y-135440240D02*
X171484761Y-135487859D01*
X171484761Y-135487859D02*
X171627618Y-135487859D01*
X171627618Y-135487859D02*
X171818094Y-135440240D01*
X171818094Y-135440240D02*
X171913332Y-135392621D01*
X171913332Y-135392621D02*
X172008571Y-135297383D01*
X172008571Y-135297383D02*
X172056190Y-135154526D01*
X172056190Y-135154526D02*
X172056190Y-135059288D01*
X172056190Y-135059288D02*
X172008571Y-134916431D01*
X172008571Y-134916431D02*
X171960951Y-134868812D01*
X171960951Y-134868812D02*
X171627618Y-134868812D01*
X171627618Y-134868812D02*
X171627618Y-135059288D01*
X172056190Y-134440240D02*
X171056190Y-134440240D01*
X171056190Y-134440240D02*
X171056190Y-134059288D01*
X171056190Y-134059288D02*
X171103809Y-133964050D01*
X171103809Y-133964050D02*
X171151428Y-133916431D01*
X171151428Y-133916431D02*
X171246666Y-133868812D01*
X171246666Y-133868812D02*
X171389523Y-133868812D01*
X171389523Y-133868812D02*
X171484761Y-133916431D01*
X171484761Y-133916431D02*
X171532380Y-133964050D01*
X171532380Y-133964050D02*
X171579999Y-134059288D01*
X171579999Y-134059288D02*
X171579999Y-134440240D01*
X172056190Y-133440240D02*
X171056190Y-133440240D01*
X171056190Y-132773574D02*
X171056190Y-132583098D01*
X171056190Y-132583098D02*
X171103809Y-132487860D01*
X171103809Y-132487860D02*
X171199047Y-132392622D01*
X171199047Y-132392622D02*
X171389523Y-132345003D01*
X171389523Y-132345003D02*
X171722856Y-132345003D01*
X171722856Y-132345003D02*
X171913332Y-132392622D01*
X171913332Y-132392622D02*
X172008571Y-132487860D01*
X172008571Y-132487860D02*
X172056190Y-132583098D01*
X172056190Y-132583098D02*
X172056190Y-132773574D01*
X172056190Y-132773574D02*
X172008571Y-132868812D01*
X172008571Y-132868812D02*
X171913332Y-132964050D01*
X171913332Y-132964050D02*
X171722856Y-133011669D01*
X171722856Y-133011669D02*
X171389523Y-133011669D01*
X171389523Y-133011669D02*
X171199047Y-132964050D01*
X171199047Y-132964050D02*
X171103809Y-132868812D01*
X171103809Y-132868812D02*
X171056190Y-132773574D01*
X171389523Y-131487860D02*
X172056190Y-131487860D01*
X171008571Y-131725955D02*
X171722856Y-131964050D01*
X171722856Y-131964050D02*
X171722856Y-131345003D01*
X154263561Y-137037069D02*
X154215942Y-137132307D01*
X154215942Y-137132307D02*
X154168323Y-137179926D01*
X154168323Y-137179926D02*
X154073085Y-137227545D01*
X154073085Y-137227545D02*
X154025466Y-137227545D01*
X154025466Y-137227545D02*
X153930228Y-137179926D01*
X153930228Y-137179926D02*
X153882609Y-137132307D01*
X153882609Y-137132307D02*
X153834990Y-137037069D01*
X153834990Y-137037069D02*
X153834990Y-136846593D01*
X153834990Y-136846593D02*
X153882609Y-136751355D01*
X153882609Y-136751355D02*
X153930228Y-136703736D01*
X153930228Y-136703736D02*
X154025466Y-136656117D01*
X154025466Y-136656117D02*
X154073085Y-136656117D01*
X154073085Y-136656117D02*
X154168323Y-136703736D01*
X154168323Y-136703736D02*
X154215942Y-136751355D01*
X154215942Y-136751355D02*
X154263561Y-136846593D01*
X154263561Y-136846593D02*
X154263561Y-137037069D01*
X154263561Y-137037069D02*
X154311180Y-137132307D01*
X154311180Y-137132307D02*
X154358799Y-137179926D01*
X154358799Y-137179926D02*
X154454037Y-137227545D01*
X154454037Y-137227545D02*
X154644513Y-137227545D01*
X154644513Y-137227545D02*
X154739751Y-137179926D01*
X154739751Y-137179926D02*
X154787371Y-137132307D01*
X154787371Y-137132307D02*
X154834990Y-137037069D01*
X154834990Y-137037069D02*
X154834990Y-136846593D01*
X154834990Y-136846593D02*
X154787371Y-136751355D01*
X154787371Y-136751355D02*
X154739751Y-136703736D01*
X154739751Y-136703736D02*
X154644513Y-136656117D01*
X154644513Y-136656117D02*
X154454037Y-136656117D01*
X154454037Y-136656117D02*
X154358799Y-136703736D01*
X154358799Y-136703736D02*
X154311180Y-136751355D01*
X154311180Y-136751355D02*
X154263561Y-136846593D01*
X153882609Y-134941831D02*
X153834990Y-135037069D01*
X153834990Y-135037069D02*
X153834990Y-135179926D01*
X153834990Y-135179926D02*
X153882609Y-135322783D01*
X153882609Y-135322783D02*
X153977847Y-135418021D01*
X153977847Y-135418021D02*
X154073085Y-135465640D01*
X154073085Y-135465640D02*
X154263561Y-135513259D01*
X154263561Y-135513259D02*
X154406418Y-135513259D01*
X154406418Y-135513259D02*
X154596894Y-135465640D01*
X154596894Y-135465640D02*
X154692132Y-135418021D01*
X154692132Y-135418021D02*
X154787371Y-135322783D01*
X154787371Y-135322783D02*
X154834990Y-135179926D01*
X154834990Y-135179926D02*
X154834990Y-135084688D01*
X154834990Y-135084688D02*
X154787371Y-134941831D01*
X154787371Y-134941831D02*
X154739751Y-134894212D01*
X154739751Y-134894212D02*
X154406418Y-134894212D01*
X154406418Y-134894212D02*
X154406418Y-135084688D01*
X154834990Y-134465640D02*
X153834990Y-134465640D01*
X153834990Y-134465640D02*
X153834990Y-134084688D01*
X153834990Y-134084688D02*
X153882609Y-133989450D01*
X153882609Y-133989450D02*
X153930228Y-133941831D01*
X153930228Y-133941831D02*
X154025466Y-133894212D01*
X154025466Y-133894212D02*
X154168323Y-133894212D01*
X154168323Y-133894212D02*
X154263561Y-133941831D01*
X154263561Y-133941831D02*
X154311180Y-133989450D01*
X154311180Y-133989450D02*
X154358799Y-134084688D01*
X154358799Y-134084688D02*
X154358799Y-134465640D01*
X154834990Y-133465640D02*
X153834990Y-133465640D01*
X153834990Y-132798974D02*
X153834990Y-132608498D01*
X153834990Y-132608498D02*
X153882609Y-132513260D01*
X153882609Y-132513260D02*
X153977847Y-132418022D01*
X153977847Y-132418022D02*
X154168323Y-132370403D01*
X154168323Y-132370403D02*
X154501656Y-132370403D01*
X154501656Y-132370403D02*
X154692132Y-132418022D01*
X154692132Y-132418022D02*
X154787371Y-132513260D01*
X154787371Y-132513260D02*
X154834990Y-132608498D01*
X154834990Y-132608498D02*
X154834990Y-132798974D01*
X154834990Y-132798974D02*
X154787371Y-132894212D01*
X154787371Y-132894212D02*
X154692132Y-132989450D01*
X154692132Y-132989450D02*
X154501656Y-133037069D01*
X154501656Y-133037069D02*
X154168323Y-133037069D01*
X154168323Y-133037069D02*
X153977847Y-132989450D01*
X153977847Y-132989450D02*
X153882609Y-132894212D01*
X153882609Y-132894212D02*
X153834990Y-132798974D01*
X154834990Y-131418022D02*
X154834990Y-131989450D01*
X154834990Y-131703736D02*
X153834990Y-131703736D01*
X153834990Y-131703736D02*
X153977847Y-131798974D01*
X153977847Y-131798974D02*
X154073085Y-131894212D01*
X154073085Y-131894212D02*
X154120704Y-131989450D01*
X188280878Y-96517938D02*
X188185640Y-96470319D01*
X188185640Y-96470319D02*
X188042783Y-96470319D01*
X188042783Y-96470319D02*
X187899926Y-96517938D01*
X187899926Y-96517938D02*
X187804688Y-96613176D01*
X187804688Y-96613176D02*
X187757069Y-96708414D01*
X187757069Y-96708414D02*
X187709450Y-96898890D01*
X187709450Y-96898890D02*
X187709450Y-97041747D01*
X187709450Y-97041747D02*
X187757069Y-97232223D01*
X187757069Y-97232223D02*
X187804688Y-97327461D01*
X187804688Y-97327461D02*
X187899926Y-97422700D01*
X187899926Y-97422700D02*
X188042783Y-97470319D01*
X188042783Y-97470319D02*
X188138021Y-97470319D01*
X188138021Y-97470319D02*
X188280878Y-97422700D01*
X188280878Y-97422700D02*
X188328497Y-97375080D01*
X188328497Y-97375080D02*
X188328497Y-97041747D01*
X188328497Y-97041747D02*
X188138021Y-97041747D01*
X188757069Y-97470319D02*
X188757069Y-96470319D01*
X188757069Y-96470319D02*
X189328497Y-97470319D01*
X189328497Y-97470319D02*
X189328497Y-96470319D01*
X189804688Y-97470319D02*
X189804688Y-96470319D01*
X189804688Y-96470319D02*
X190042783Y-96470319D01*
X190042783Y-96470319D02*
X190185640Y-96517938D01*
X190185640Y-96517938D02*
X190280878Y-96613176D01*
X190280878Y-96613176D02*
X190328497Y-96708414D01*
X190328497Y-96708414D02*
X190376116Y-96898890D01*
X190376116Y-96898890D02*
X190376116Y-97041747D01*
X190376116Y-97041747D02*
X190328497Y-97232223D01*
X190328497Y-97232223D02*
X190280878Y-97327461D01*
X190280878Y-97327461D02*
X190185640Y-97422700D01*
X190185640Y-97422700D02*
X190042783Y-97470319D01*
X190042783Y-97470319D02*
X189804688Y-97470319D01*
X115203073Y-146030550D02*
X115203073Y-145030550D01*
X115203073Y-145030550D02*
X115536406Y-145744835D01*
X115536406Y-145744835D02*
X115869739Y-145030550D01*
X115869739Y-145030550D02*
X115869739Y-146030550D01*
X116869739Y-146030550D02*
X116298311Y-146030550D01*
X116584025Y-146030550D02*
X116584025Y-145030550D01*
X116584025Y-145030550D02*
X116488787Y-145173407D01*
X116488787Y-145173407D02*
X116393549Y-145268645D01*
X116393549Y-145268645D02*
X116298311Y-145316264D01*
D11*
%TO.C,J4*%
X188148600Y-134069900D02*
X198388600Y-134069900D01*
X188148600Y-137089900D02*
X198388600Y-137089900D01*
X188148600Y-141989900D02*
X198388600Y-141989900D01*
X188148600Y-143489900D02*
X198388600Y-143489900D01*
X188148600Y-144109900D02*
X188148600Y-134069900D01*
X190468600Y-144109900D02*
X188148600Y-144109900D01*
X198388600Y-134069900D02*
X198388600Y-144109900D01*
X198388600Y-144109900D02*
X191068600Y-144109900D01*
X191208600Y-144719900D02*
X190328600Y-144719900D01*
X190768600Y-144109900D01*
X191208600Y-144719900D01*
G36*
X191208600Y-144719900D02*
G01*
X190328600Y-144719900D01*
X190768600Y-144109900D01*
X191208600Y-144719900D01*
G37*
%TO.C,D1*%
X180071800Y-123367800D02*
X180981800Y-123367800D01*
X189056800Y-126087800D02*
X189056800Y-120647800D01*
X189176800Y-126087800D02*
X189176800Y-120647800D01*
X189296800Y-126087800D02*
X189296800Y-120647800D01*
X191631800Y-123367800D02*
X190721800Y-123367800D01*
X190721800Y-126087800D02*
X180981800Y-126087800D01*
X180981800Y-120647800D01*
X190721800Y-120647800D01*
X190721800Y-126087800D01*
%TO.C,J8*%
X157166400Y-122865200D02*
X157166400Y-69465200D01*
X157166400Y-125465200D02*
X157166400Y-124135200D01*
X158496400Y-125465200D02*
X157166400Y-125465200D01*
X159826400Y-69465200D02*
X157166400Y-69465200D01*
X159826400Y-122865200D02*
X157166400Y-122865200D01*
X159826400Y-122865200D02*
X159826400Y-69465200D01*
%TO.C,C3*%
X164004513Y-117605600D02*
X164004513Y-117039600D01*
X164044513Y-117839600D02*
X164044513Y-116805600D01*
X164084513Y-117999600D02*
X164084513Y-116645600D01*
X164124513Y-118127600D02*
X164124513Y-116517600D01*
X164164513Y-118236600D02*
X164164513Y-116408600D01*
X164204513Y-118333600D02*
X164204513Y-116311600D01*
X164244513Y-118420600D02*
X164244513Y-116224600D01*
X164284513Y-118499600D02*
X164284513Y-116145600D01*
X164324513Y-116282600D02*
X164324513Y-116071600D01*
X164324513Y-118573600D02*
X164324513Y-118362600D01*
X164364513Y-116282600D02*
X164364513Y-116003600D01*
X164364513Y-118641600D02*
X164364513Y-118362600D01*
X164404513Y-116282600D02*
X164404513Y-115939600D01*
X164404513Y-118705600D02*
X164404513Y-118362600D01*
X164444513Y-116282600D02*
X164444513Y-115879600D01*
X164444513Y-118765600D02*
X164444513Y-118362600D01*
X164484513Y-116282600D02*
X164484513Y-115823600D01*
X164484513Y-118821600D02*
X164484513Y-118362600D01*
X164524513Y-116282600D02*
X164524513Y-115769600D01*
X164524513Y-118875600D02*
X164524513Y-118362600D01*
X164564513Y-116282600D02*
X164564513Y-115718600D01*
X164564513Y-118926600D02*
X164564513Y-118362600D01*
X164604513Y-116282600D02*
X164604513Y-115670600D01*
X164604513Y-118974600D02*
X164604513Y-118362600D01*
X164644513Y-116282600D02*
X164644513Y-115623600D01*
X164644513Y-119021600D02*
X164644513Y-118362600D01*
X164684513Y-116282600D02*
X164684513Y-115579600D01*
X164684513Y-119065600D02*
X164684513Y-118362600D01*
X164724513Y-116282600D02*
X164724513Y-115537600D01*
X164724513Y-119107600D02*
X164724513Y-118362600D01*
X164764513Y-116282600D02*
X164764513Y-115497600D01*
X164764513Y-119147600D02*
X164764513Y-118362600D01*
X164804513Y-116282600D02*
X164804513Y-115458600D01*
X164804513Y-119186600D02*
X164804513Y-118362600D01*
X164844513Y-116282600D02*
X164844513Y-115421600D01*
X164844513Y-119223600D02*
X164844513Y-118362600D01*
X164884513Y-116282600D02*
X164884513Y-115386600D01*
X164884513Y-119258600D02*
X164884513Y-118362600D01*
X164924513Y-116282600D02*
X164924513Y-115352600D01*
X164924513Y-119292600D02*
X164924513Y-118362600D01*
X164964513Y-116282600D02*
X164964513Y-115319600D01*
X164964513Y-119325600D02*
X164964513Y-118362600D01*
X165004513Y-116282600D02*
X165004513Y-115287600D01*
X165004513Y-119357600D02*
X165004513Y-118362600D01*
X165044513Y-116282600D02*
X165044513Y-115257600D01*
X165044513Y-119387600D02*
X165044513Y-118362600D01*
X165084513Y-116282600D02*
X165084513Y-115228600D01*
X165084513Y-119416600D02*
X165084513Y-118362600D01*
X165124513Y-116282600D02*
X165124513Y-115200600D01*
X165124513Y-119444600D02*
X165124513Y-118362600D01*
X165164513Y-116282600D02*
X165164513Y-115173600D01*
X165164513Y-119471600D02*
X165164513Y-118362600D01*
X165204513Y-116282600D02*
X165204513Y-115147600D01*
X165204513Y-119497600D02*
X165204513Y-118362600D01*
X165244513Y-116282600D02*
X165244513Y-115123600D01*
X165244513Y-119521600D02*
X165244513Y-118362600D01*
X165284513Y-116282600D02*
X165284513Y-115099600D01*
X165284513Y-119545600D02*
X165284513Y-118362600D01*
X165324513Y-116282600D02*
X165324513Y-115076600D01*
X165324513Y-119568600D02*
X165324513Y-118362600D01*
X165364513Y-116282600D02*
X165364513Y-115054600D01*
X165364513Y-119590600D02*
X165364513Y-118362600D01*
X165404513Y-116282600D02*
X165404513Y-115033600D01*
X165404513Y-119611600D02*
X165404513Y-118362600D01*
X165444513Y-116282600D02*
X165444513Y-115013600D01*
X165444513Y-119631600D02*
X165444513Y-118362600D01*
X165484513Y-116282600D02*
X165484513Y-114993600D01*
X165484513Y-119651600D02*
X165484513Y-118362600D01*
X165524513Y-116282600D02*
X165524513Y-114975600D01*
X165524513Y-119669600D02*
X165524513Y-118362600D01*
X165564513Y-116282600D02*
X165564513Y-114957600D01*
X165564513Y-119687600D02*
X165564513Y-118362600D01*
X165604513Y-116282600D02*
X165604513Y-114940600D01*
X165604513Y-119704600D02*
X165604513Y-118362600D01*
X165644513Y-116282600D02*
X165644513Y-114924600D01*
X165644513Y-119720600D02*
X165644513Y-118362600D01*
X165684513Y-116282600D02*
X165684513Y-114909600D01*
X165684513Y-119735600D02*
X165684513Y-118362600D01*
X165724513Y-116282600D02*
X165724513Y-114894600D01*
X165724513Y-119750600D02*
X165724513Y-118362600D01*
X165764513Y-116282600D02*
X165764513Y-114880600D01*
X165764513Y-119764600D02*
X165764513Y-118362600D01*
X165804513Y-116282600D02*
X165804513Y-114867600D01*
X165804513Y-119777600D02*
X165804513Y-118362600D01*
X165844513Y-116282600D02*
X165844513Y-114855600D01*
X165844513Y-119789600D02*
X165844513Y-118362600D01*
X165884513Y-116282600D02*
X165884513Y-114843600D01*
X165884513Y-119801600D02*
X165884513Y-118362600D01*
X165924513Y-116282600D02*
X165924513Y-114832600D01*
X165924513Y-119812600D02*
X165924513Y-118362600D01*
X165964513Y-116282600D02*
X165964513Y-114821600D01*
X165964513Y-119823600D02*
X165964513Y-118362600D01*
X166004513Y-116282600D02*
X166004513Y-114812600D01*
X166004513Y-119832600D02*
X166004513Y-118362600D01*
X166044513Y-116282600D02*
X166044513Y-114803600D01*
X166044513Y-119841600D02*
X166044513Y-118362600D01*
X166084513Y-116282600D02*
X166084513Y-114794600D01*
X166084513Y-119850600D02*
X166084513Y-118362600D01*
X166124513Y-116282600D02*
X166124513Y-114786600D01*
X166124513Y-119858600D02*
X166124513Y-118362600D01*
X166164513Y-116282600D02*
X166164513Y-114779600D01*
X166164513Y-119865600D02*
X166164513Y-118362600D01*
X166204513Y-116282600D02*
X166204513Y-114773600D01*
X166204513Y-119871600D02*
X166204513Y-118362600D01*
X166244513Y-116282600D02*
X166244513Y-114767600D01*
X166244513Y-119877600D02*
X166244513Y-118362600D01*
X166284513Y-116282600D02*
X166284513Y-114762600D01*
X166284513Y-119882600D02*
X166284513Y-118362600D01*
X166324513Y-116282600D02*
X166324513Y-114757600D01*
X166324513Y-119887600D02*
X166324513Y-118362600D01*
X166364513Y-116282600D02*
X166364513Y-114753600D01*
X166364513Y-119891600D02*
X166364513Y-118362600D01*
X166404513Y-119894600D02*
X166404513Y-114750600D01*
X166444513Y-119897600D02*
X166444513Y-114747600D01*
X166484513Y-119899600D02*
X166484513Y-114745600D01*
X166524513Y-119901600D02*
X166524513Y-114743600D01*
X166564513Y-119902600D02*
X166564513Y-114742600D01*
X166604513Y-119902600D02*
X166604513Y-114742600D01*
X169159288Y-119047600D02*
X169159288Y-118547600D01*
X169409288Y-118797600D02*
X168909288Y-118797600D01*
X169224513Y-117322600D02*
G75*
G02*
X163984513Y-117322600I-2620000J0D01*
G01*
X163984513Y-117322600D02*
G75*
G02*
X169224513Y-117322600I2620000J0D01*
G01*
%TO.C,D2*%
X179970200Y-130022600D02*
X180880200Y-130022600D01*
X182305200Y-127302600D02*
X182305200Y-132742600D01*
X182425200Y-127302600D02*
X182425200Y-132742600D01*
X182545200Y-127302600D02*
X182545200Y-132742600D01*
X191530200Y-130022600D02*
X190620200Y-130022600D01*
X180880200Y-127302600D02*
X190620200Y-127302600D01*
X190620200Y-132742600D01*
X180880200Y-132742600D01*
X180880200Y-127302600D01*
%TO.C,J15*%
X176007400Y-134019100D02*
X186247400Y-134019100D01*
X176007400Y-137039100D02*
X186247400Y-137039100D01*
X176007400Y-141939100D02*
X186247400Y-141939100D01*
X176007400Y-143439100D02*
X186247400Y-143439100D01*
X176007400Y-144059100D02*
X176007400Y-134019100D01*
X178327400Y-144059100D02*
X176007400Y-144059100D01*
X186247400Y-134019100D02*
X186247400Y-144059100D01*
X186247400Y-144059100D02*
X178927400Y-144059100D01*
X179067400Y-144669100D02*
X178187400Y-144669100D01*
X178627400Y-144059100D01*
X179067400Y-144669100D01*
G36*
X179067400Y-144669100D02*
G01*
X178187400Y-144669100D01*
X178627400Y-144059100D01*
X179067400Y-144669100D01*
G37*
%TO.C,J13*%
X125225800Y-137578600D02*
X125225800Y-143548600D01*
X125225800Y-143548600D02*
X142845800Y-143548600D01*
X125235800Y-141288600D02*
X125985800Y-141288600D01*
X125235800Y-142788600D02*
X125235800Y-143538600D01*
X125235800Y-143538600D02*
X127035800Y-143538600D01*
X125985800Y-138338600D02*
X134035800Y-138338600D01*
X125985800Y-141288600D02*
X125985800Y-138338600D01*
X127035800Y-142788600D02*
X125235800Y-142788600D01*
X127035800Y-143538600D02*
X127035800Y-142788600D01*
X128535800Y-142788600D02*
X128535800Y-143538600D01*
X128535800Y-143538600D02*
X139535800Y-143538600D01*
X139535800Y-142788600D02*
X128535800Y-142788600D01*
X139535800Y-143538600D02*
X139535800Y-142788600D01*
X141035800Y-142788600D02*
X141035800Y-143538600D01*
X141035800Y-143538600D02*
X142835800Y-143538600D01*
X141885800Y-143838600D02*
X143135800Y-143838600D01*
X142085800Y-138338600D02*
X134035800Y-138338600D01*
X142085800Y-141288600D02*
X142085800Y-138338600D01*
X142835800Y-141288600D02*
X142085800Y-141288600D01*
X142835800Y-142788600D02*
X141035800Y-142788600D01*
X142835800Y-143538600D02*
X142835800Y-142788600D01*
X142845800Y-137578600D02*
X125225800Y-137578600D01*
X142845800Y-143548600D02*
X142845800Y-137578600D01*
X143135800Y-143838600D02*
X143135800Y-142588600D01*
%TO.C,J6*%
X191455600Y-76210000D02*
X191455600Y-83890000D01*
X191455600Y-76210000D02*
X194115600Y-76210000D01*
X191455600Y-83890000D02*
X194115600Y-83890000D01*
X192785600Y-73610000D02*
X194115600Y-73610000D01*
X194115600Y-73610000D02*
X194115600Y-74940000D01*
X194115600Y-76210000D02*
X194115600Y-83890000D01*
%TO.C,J5*%
X122901400Y-79806800D02*
X122901400Y-69586800D01*
X122901400Y-82406800D02*
X122901400Y-81076800D01*
X124231400Y-82406800D02*
X122901400Y-82406800D01*
X125561400Y-69586800D02*
X122901400Y-69586800D01*
X125561400Y-79806800D02*
X122901400Y-79806800D01*
X125561400Y-79806800D02*
X125561400Y-69586800D01*
%TO.C,J3*%
X113380200Y-125081800D02*
X113380200Y-131051800D01*
X113380200Y-131051800D02*
X123500200Y-131051800D01*
X113390200Y-128791800D02*
X114140200Y-128791800D01*
X113390200Y-130291800D02*
X113390200Y-131041800D01*
X113390200Y-131041800D02*
X115190200Y-131041800D01*
X114140200Y-125841800D02*
X118440200Y-125841800D01*
X114140200Y-128791800D02*
X114140200Y-125841800D01*
X115190200Y-130291800D02*
X113390200Y-130291800D01*
X115190200Y-131041800D02*
X115190200Y-130291800D01*
X116690200Y-130291800D02*
X116690200Y-131041800D01*
X116690200Y-131041800D02*
X120190200Y-131041800D01*
X120190200Y-130291800D02*
X116690200Y-130291800D01*
X120190200Y-131041800D02*
X120190200Y-130291800D01*
X121690200Y-130291800D02*
X121690200Y-131041800D01*
X121690200Y-131041800D02*
X123490200Y-131041800D01*
X122540200Y-131341800D02*
X123790200Y-131341800D01*
X122740200Y-125841800D02*
X118440200Y-125841800D01*
X122740200Y-128791800D02*
X122740200Y-125841800D01*
X123490200Y-128791800D02*
X122740200Y-128791800D01*
X123490200Y-130291800D02*
X121690200Y-130291800D01*
X123490200Y-131041800D02*
X123490200Y-130291800D01*
X123500200Y-125081800D02*
X113380200Y-125081800D01*
X123500200Y-131051800D02*
X123500200Y-125081800D01*
X123790200Y-131341800D02*
X123790200Y-130091800D01*
%TO.C,J14*%
X113345600Y-133587300D02*
X123585600Y-133587300D01*
X113345600Y-136607300D02*
X123585600Y-136607300D01*
X113345600Y-141507300D02*
X123585600Y-141507300D01*
X113345600Y-143007300D02*
X123585600Y-143007300D01*
X113345600Y-143627300D02*
X113345600Y-133587300D01*
X115665600Y-143627300D02*
X113345600Y-143627300D01*
X123585600Y-133587300D02*
X123585600Y-143627300D01*
X123585600Y-143627300D02*
X116265600Y-143627300D01*
X116405600Y-144237300D02*
X115525600Y-144237300D01*
X115965600Y-143627300D01*
X116405600Y-144237300D01*
G36*
X116405600Y-144237300D02*
G01*
X115525600Y-144237300D01*
X115965600Y-143627300D01*
X116405600Y-144237300D01*
G37*
%TO.C,J2*%
X191354800Y-97912400D02*
X191354800Y-87692400D01*
X191354800Y-100512400D02*
X191354800Y-99182400D01*
X192684800Y-100512400D02*
X191354800Y-100512400D01*
X194014800Y-87692400D02*
X191354800Y-87692400D01*
X194014800Y-97912400D02*
X191354800Y-97912400D01*
X194014800Y-97912400D02*
X194014800Y-87692400D01*
%TO.C,J9*%
X130396400Y-122865200D02*
X130396400Y-69465200D01*
X130396400Y-125465200D02*
X130396400Y-124135200D01*
X131726400Y-125465200D02*
X130396400Y-125465200D01*
X133056400Y-69465200D02*
X130396400Y-69465200D01*
X133056400Y-122865200D02*
X130396400Y-122865200D01*
X133056400Y-122865200D02*
X133056400Y-69465200D01*
%TO.C,C5*%
X163559313Y-63396600D02*
X164059313Y-63396600D01*
X163809313Y-63146600D02*
X163809313Y-63646600D01*
X166364088Y-62291600D02*
X166364088Y-67451600D01*
X166404088Y-62291600D02*
X166404088Y-67451600D01*
X166444088Y-62292600D02*
X166444088Y-67450600D01*
X166484088Y-62294600D02*
X166484088Y-67448600D01*
X166524088Y-62296600D02*
X166524088Y-67446600D01*
X166564088Y-62299600D02*
X166564088Y-67443600D01*
X166604088Y-62302600D02*
X166604088Y-63831600D01*
X166604088Y-65911600D02*
X166604088Y-67440600D01*
X166644088Y-62306600D02*
X166644088Y-63831600D01*
X166644088Y-65911600D02*
X166644088Y-67436600D01*
X166684088Y-62311600D02*
X166684088Y-63831600D01*
X166684088Y-65911600D02*
X166684088Y-67431600D01*
X166724088Y-62316600D02*
X166724088Y-63831600D01*
X166724088Y-65911600D02*
X166724088Y-67426600D01*
X166764088Y-62322600D02*
X166764088Y-63831600D01*
X166764088Y-65911600D02*
X166764088Y-67420600D01*
X166804088Y-62328600D02*
X166804088Y-63831600D01*
X166804088Y-65911600D02*
X166804088Y-67414600D01*
X166844088Y-62335600D02*
X166844088Y-63831600D01*
X166844088Y-65911600D02*
X166844088Y-67407600D01*
X166884088Y-62343600D02*
X166884088Y-63831600D01*
X166884088Y-65911600D02*
X166884088Y-67399600D01*
X166924088Y-62352600D02*
X166924088Y-63831600D01*
X166924088Y-65911600D02*
X166924088Y-67390600D01*
X166964088Y-62361600D02*
X166964088Y-63831600D01*
X166964088Y-65911600D02*
X166964088Y-67381600D01*
X167004088Y-62370600D02*
X167004088Y-63831600D01*
X167004088Y-65911600D02*
X167004088Y-67372600D01*
X167044088Y-62381600D02*
X167044088Y-63831600D01*
X167044088Y-65911600D02*
X167044088Y-67361600D01*
X167084088Y-62392600D02*
X167084088Y-63831600D01*
X167084088Y-65911600D02*
X167084088Y-67350600D01*
X167124088Y-62404600D02*
X167124088Y-63831600D01*
X167124088Y-65911600D02*
X167124088Y-67338600D01*
X167164088Y-62416600D02*
X167164088Y-63831600D01*
X167164088Y-65911600D02*
X167164088Y-67326600D01*
X167204088Y-62429600D02*
X167204088Y-63831600D01*
X167204088Y-65911600D02*
X167204088Y-67313600D01*
X167244088Y-62443600D02*
X167244088Y-63831600D01*
X167244088Y-65911600D02*
X167244088Y-67299600D01*
X167284088Y-62458600D02*
X167284088Y-63831600D01*
X167284088Y-65911600D02*
X167284088Y-67284600D01*
X167324088Y-62473600D02*
X167324088Y-63831600D01*
X167324088Y-65911600D02*
X167324088Y-67269600D01*
X167364088Y-62489600D02*
X167364088Y-63831600D01*
X167364088Y-65911600D02*
X167364088Y-67253600D01*
X167404088Y-62506600D02*
X167404088Y-63831600D01*
X167404088Y-65911600D02*
X167404088Y-67236600D01*
X167444088Y-62524600D02*
X167444088Y-63831600D01*
X167444088Y-65911600D02*
X167444088Y-67218600D01*
X167484088Y-62542600D02*
X167484088Y-63831600D01*
X167484088Y-65911600D02*
X167484088Y-67200600D01*
X167524088Y-62562600D02*
X167524088Y-63831600D01*
X167524088Y-65911600D02*
X167524088Y-67180600D01*
X167564088Y-62582600D02*
X167564088Y-63831600D01*
X167564088Y-65911600D02*
X167564088Y-67160600D01*
X167604088Y-62603600D02*
X167604088Y-63831600D01*
X167604088Y-65911600D02*
X167604088Y-67139600D01*
X167644088Y-62625600D02*
X167644088Y-63831600D01*
X167644088Y-65911600D02*
X167644088Y-67117600D01*
X167684088Y-62648600D02*
X167684088Y-63831600D01*
X167684088Y-65911600D02*
X167684088Y-67094600D01*
X167724088Y-62672600D02*
X167724088Y-63831600D01*
X167724088Y-65911600D02*
X167724088Y-67070600D01*
X167764088Y-62696600D02*
X167764088Y-63831600D01*
X167764088Y-65911600D02*
X167764088Y-67046600D01*
X167804088Y-62722600D02*
X167804088Y-63831600D01*
X167804088Y-65911600D02*
X167804088Y-67020600D01*
X167844088Y-62749600D02*
X167844088Y-63831600D01*
X167844088Y-65911600D02*
X167844088Y-66993600D01*
X167884088Y-62777600D02*
X167884088Y-63831600D01*
X167884088Y-65911600D02*
X167884088Y-66965600D01*
X167924088Y-62806600D02*
X167924088Y-63831600D01*
X167924088Y-65911600D02*
X167924088Y-66936600D01*
X167964088Y-62836600D02*
X167964088Y-63831600D01*
X167964088Y-65911600D02*
X167964088Y-66906600D01*
X168004088Y-62868600D02*
X168004088Y-63831600D01*
X168004088Y-65911600D02*
X168004088Y-66874600D01*
X168044088Y-62901600D02*
X168044088Y-63831600D01*
X168044088Y-65911600D02*
X168044088Y-66841600D01*
X168084088Y-62935600D02*
X168084088Y-63831600D01*
X168084088Y-65911600D02*
X168084088Y-66807600D01*
X168124088Y-62970600D02*
X168124088Y-63831600D01*
X168124088Y-65911600D02*
X168124088Y-66772600D01*
X168164088Y-63007600D02*
X168164088Y-63831600D01*
X168164088Y-65911600D02*
X168164088Y-66735600D01*
X168204088Y-63046600D02*
X168204088Y-63831600D01*
X168204088Y-65911600D02*
X168204088Y-66696600D01*
X168244088Y-63086600D02*
X168244088Y-63831600D01*
X168244088Y-65911600D02*
X168244088Y-66656600D01*
X168284088Y-63128600D02*
X168284088Y-63831600D01*
X168284088Y-65911600D02*
X168284088Y-66614600D01*
X168324088Y-63172600D02*
X168324088Y-63831600D01*
X168324088Y-65911600D02*
X168324088Y-66570600D01*
X168364088Y-63219600D02*
X168364088Y-63831600D01*
X168364088Y-65911600D02*
X168364088Y-66523600D01*
X168404088Y-63267600D02*
X168404088Y-63831600D01*
X168404088Y-65911600D02*
X168404088Y-66475600D01*
X168444088Y-63318600D02*
X168444088Y-63831600D01*
X168444088Y-65911600D02*
X168444088Y-66424600D01*
X168484088Y-63372600D02*
X168484088Y-63831600D01*
X168484088Y-65911600D02*
X168484088Y-66370600D01*
X168524088Y-63428600D02*
X168524088Y-63831600D01*
X168524088Y-65911600D02*
X168524088Y-66314600D01*
X168564088Y-63488600D02*
X168564088Y-63831600D01*
X168564088Y-65911600D02*
X168564088Y-66254600D01*
X168604088Y-63552600D02*
X168604088Y-63831600D01*
X168604088Y-65911600D02*
X168604088Y-66190600D01*
X168644088Y-63620600D02*
X168644088Y-63831600D01*
X168644088Y-65911600D02*
X168644088Y-66122600D01*
X168684088Y-63694600D02*
X168684088Y-66048600D01*
X168724088Y-63773600D02*
X168724088Y-65969600D01*
X168764088Y-63860600D02*
X168764088Y-65882600D01*
X168804088Y-63957600D02*
X168804088Y-65785600D01*
X168844088Y-64066600D02*
X168844088Y-65676600D01*
X168884088Y-64194600D02*
X168884088Y-65548600D01*
X168924088Y-64354600D02*
X168924088Y-65388600D01*
X168964088Y-64588600D02*
X168964088Y-65154600D01*
X168984088Y-64871600D02*
G75*
G02*
X163744088Y-64871600I-2620000J0D01*
G01*
X163744088Y-64871600D02*
G75*
G02*
X168984088Y-64871600I2620000J0D01*
G01*
%TO.C,J1*%
X144377400Y-137900400D02*
X144377400Y-143870400D01*
X144377400Y-143870400D02*
X174497400Y-143870400D01*
X144387400Y-141610400D02*
X145137400Y-141610400D01*
X144387400Y-143110400D02*
X144387400Y-143860400D01*
X144387400Y-143860400D02*
X146187400Y-143860400D01*
X145137400Y-138660400D02*
X159437400Y-138660400D01*
X145137400Y-141610400D02*
X145137400Y-138660400D01*
X146187400Y-143110400D02*
X144387400Y-143110400D01*
X146187400Y-143860400D02*
X146187400Y-143110400D01*
X147687400Y-143110400D02*
X147687400Y-143860400D01*
X147687400Y-143860400D02*
X171187400Y-143860400D01*
X171187400Y-143110400D02*
X147687400Y-143110400D01*
X171187400Y-143860400D02*
X171187400Y-143110400D01*
X172687400Y-143110400D02*
X172687400Y-143860400D01*
X172687400Y-143860400D02*
X174487400Y-143860400D01*
X173537400Y-144160400D02*
X174787400Y-144160400D01*
X173737400Y-138660400D02*
X159437400Y-138660400D01*
X173737400Y-141610400D02*
X173737400Y-138660400D01*
X174487400Y-141610400D02*
X173737400Y-141610400D01*
X174487400Y-143110400D02*
X172687400Y-143110400D01*
X174487400Y-143860400D02*
X174487400Y-143110400D01*
X174497400Y-137900400D02*
X144377400Y-137900400D01*
X174497400Y-143870400D02*
X174497400Y-137900400D01*
X174787400Y-144160400D02*
X174787400Y-142910400D01*
%TO.C,C1*%
X163434400Y-126405200D02*
X163434400Y-125207200D01*
X163474400Y-126668200D02*
X163474400Y-124944200D01*
X163514400Y-126868200D02*
X163514400Y-124744200D01*
X163554400Y-127036200D02*
X163554400Y-124576200D01*
X163594400Y-127183200D02*
X163594400Y-124429200D01*
X163634400Y-127315200D02*
X163634400Y-124297200D01*
X163674400Y-127436200D02*
X163674400Y-124176200D01*
X163714400Y-127548200D02*
X163714400Y-124064200D01*
X163754400Y-127652200D02*
X163754400Y-123960200D01*
X163794400Y-127750200D02*
X163794400Y-123862200D01*
X163834400Y-127843200D02*
X163834400Y-123769200D01*
X163874400Y-127930200D02*
X163874400Y-123682200D01*
X163914400Y-128014200D02*
X163914400Y-123598200D01*
X163954400Y-128094200D02*
X163954400Y-123518200D01*
X163994400Y-128171200D02*
X163994400Y-123441200D01*
X164034400Y-128245200D02*
X164034400Y-123367200D01*
X164074400Y-128316200D02*
X164074400Y-123296200D01*
X164114400Y-128384200D02*
X164114400Y-123228200D01*
X164154400Y-128450200D02*
X164154400Y-123162200D01*
X164194400Y-128514200D02*
X164194400Y-123098200D01*
X164234400Y-128576200D02*
X164234400Y-123036200D01*
X164274400Y-128636200D02*
X164274400Y-122976200D01*
X164314400Y-128694200D02*
X164314400Y-122918200D01*
X164354400Y-128751200D02*
X164354400Y-122861200D01*
X164394400Y-128806200D02*
X164394400Y-122806200D01*
X164434400Y-128859200D02*
X164434400Y-122753200D01*
X164474400Y-128911200D02*
X164474400Y-122701200D01*
X164514400Y-128962200D02*
X164514400Y-122650200D01*
X164554400Y-129011200D02*
X164554400Y-122601200D01*
X164594400Y-129060200D02*
X164594400Y-122552200D01*
X164634400Y-129107200D02*
X164634400Y-122505200D01*
X164674400Y-129153200D02*
X164674400Y-122459200D01*
X164714400Y-129197200D02*
X164714400Y-122415200D01*
X164754400Y-129241200D02*
X164754400Y-122371200D01*
X164794400Y-124566200D02*
X164794400Y-122328200D01*
X164794400Y-129284200D02*
X164794400Y-127046200D01*
X164834400Y-124566200D02*
X164834400Y-122286200D01*
X164834400Y-129326200D02*
X164834400Y-127046200D01*
X164874400Y-124566200D02*
X164874400Y-122245200D01*
X164874400Y-129367200D02*
X164874400Y-127046200D01*
X164914400Y-124566200D02*
X164914400Y-122205200D01*
X164914400Y-129407200D02*
X164914400Y-127046200D01*
X164954400Y-124566200D02*
X164954400Y-122166200D01*
X164954400Y-129446200D02*
X164954400Y-127046200D01*
X164994400Y-124566200D02*
X164994400Y-122128200D01*
X164994400Y-129484200D02*
X164994400Y-127046200D01*
X165034400Y-124566200D02*
X165034400Y-122090200D01*
X165034400Y-129522200D02*
X165034400Y-127046200D01*
X165074400Y-124566200D02*
X165074400Y-122054200D01*
X165074400Y-129558200D02*
X165074400Y-127046200D01*
X165114400Y-124566200D02*
X165114400Y-122018200D01*
X165114400Y-129594200D02*
X165114400Y-127046200D01*
X165154400Y-124566200D02*
X165154400Y-121983200D01*
X165154400Y-129629200D02*
X165154400Y-127046200D01*
X165194400Y-124566200D02*
X165194400Y-121948200D01*
X165194400Y-129664200D02*
X165194400Y-127046200D01*
X165234400Y-124566200D02*
X165234400Y-121915200D01*
X165234400Y-129697200D02*
X165234400Y-127046200D01*
X165274400Y-124566200D02*
X165274400Y-121882200D01*
X165274400Y-129730200D02*
X165274400Y-127046200D01*
X165314400Y-124566200D02*
X165314400Y-121849200D01*
X165314400Y-129763200D02*
X165314400Y-127046200D01*
X165354400Y-124566200D02*
X165354400Y-121818200D01*
X165354400Y-129794200D02*
X165354400Y-127046200D01*
X165394400Y-124566200D02*
X165394400Y-121786200D01*
X165394400Y-129826200D02*
X165394400Y-127046200D01*
X165434400Y-124566200D02*
X165434400Y-121756200D01*
X165434400Y-129856200D02*
X165434400Y-127046200D01*
X165474400Y-124566200D02*
X165474400Y-121726200D01*
X165474400Y-129886200D02*
X165474400Y-127046200D01*
X165514400Y-124566200D02*
X165514400Y-121697200D01*
X165514400Y-129915200D02*
X165514400Y-127046200D01*
X165554400Y-124566200D02*
X165554400Y-121668200D01*
X165554400Y-129944200D02*
X165554400Y-127046200D01*
X165594400Y-124566200D02*
X165594400Y-121640200D01*
X165594400Y-129972200D02*
X165594400Y-127046200D01*
X165634400Y-124566200D02*
X165634400Y-121613200D01*
X165634400Y-129999200D02*
X165634400Y-127046200D01*
X165674400Y-124566200D02*
X165674400Y-121586200D01*
X165674400Y-130026200D02*
X165674400Y-127046200D01*
X165714400Y-124566200D02*
X165714400Y-121559200D01*
X165714400Y-130053200D02*
X165714400Y-127046200D01*
X165754400Y-124566200D02*
X165754400Y-121534200D01*
X165754400Y-130078200D02*
X165754400Y-127046200D01*
X165794400Y-124566200D02*
X165794400Y-121508200D01*
X165794400Y-130104200D02*
X165794400Y-127046200D01*
X165834400Y-124566200D02*
X165834400Y-121483200D01*
X165834400Y-130129200D02*
X165834400Y-127046200D01*
X165874400Y-124566200D02*
X165874400Y-121459200D01*
X165874400Y-130153200D02*
X165874400Y-127046200D01*
X165914400Y-124566200D02*
X165914400Y-121435200D01*
X165914400Y-130177200D02*
X165914400Y-127046200D01*
X165954400Y-124566200D02*
X165954400Y-121412200D01*
X165954400Y-130200200D02*
X165954400Y-127046200D01*
X165994400Y-124566200D02*
X165994400Y-121389200D01*
X165994400Y-130223200D02*
X165994400Y-127046200D01*
X166034400Y-124566200D02*
X166034400Y-121367200D01*
X166034400Y-130245200D02*
X166034400Y-127046200D01*
X166074400Y-124566200D02*
X166074400Y-121345200D01*
X166074400Y-130267200D02*
X166074400Y-127046200D01*
X166114400Y-124566200D02*
X166114400Y-121323200D01*
X166114400Y-130289200D02*
X166114400Y-127046200D01*
X166154400Y-124566200D02*
X166154400Y-121302200D01*
X166154400Y-130310200D02*
X166154400Y-127046200D01*
X166194400Y-124566200D02*
X166194400Y-121282200D01*
X166194400Y-130330200D02*
X166194400Y-127046200D01*
X166234400Y-124566200D02*
X166234400Y-121262200D01*
X166234400Y-130350200D02*
X166234400Y-127046200D01*
X166274400Y-124566200D02*
X166274400Y-121242200D01*
X166274400Y-130370200D02*
X166274400Y-127046200D01*
X166314400Y-124566200D02*
X166314400Y-121223200D01*
X166314400Y-130389200D02*
X166314400Y-127046200D01*
X166354400Y-124566200D02*
X166354400Y-121204200D01*
X166354400Y-130408200D02*
X166354400Y-127046200D01*
X166394400Y-124566200D02*
X166394400Y-121186200D01*
X166394400Y-130426200D02*
X166394400Y-127046200D01*
X166434400Y-124566200D02*
X166434400Y-121168200D01*
X166434400Y-130444200D02*
X166434400Y-127046200D01*
X166474400Y-124566200D02*
X166474400Y-121150200D01*
X166474400Y-130462200D02*
X166474400Y-127046200D01*
X166514400Y-124566200D02*
X166514400Y-121133200D01*
X166514400Y-130479200D02*
X166514400Y-127046200D01*
X166554400Y-124566200D02*
X166554400Y-121116200D01*
X166554400Y-130496200D02*
X166554400Y-127046200D01*
X166594400Y-124566200D02*
X166594400Y-121100200D01*
X166594400Y-130512200D02*
X166594400Y-127046200D01*
X166634400Y-124566200D02*
X166634400Y-121084200D01*
X166634400Y-130528200D02*
X166634400Y-127046200D01*
X166674400Y-124566200D02*
X166674400Y-121068200D01*
X166674400Y-130544200D02*
X166674400Y-127046200D01*
X166714400Y-124566200D02*
X166714400Y-121053200D01*
X166714400Y-130559200D02*
X166714400Y-127046200D01*
X166754400Y-124566200D02*
X166754400Y-121038200D01*
X166754400Y-130574200D02*
X166754400Y-127046200D01*
X166794400Y-124566200D02*
X166794400Y-121024200D01*
X166794400Y-130588200D02*
X166794400Y-127046200D01*
X166834400Y-124566200D02*
X166834400Y-121009200D01*
X166834400Y-130603200D02*
X166834400Y-127046200D01*
X166874400Y-124566200D02*
X166874400Y-120996200D01*
X166874400Y-130616200D02*
X166874400Y-127046200D01*
X166914400Y-124566200D02*
X166914400Y-120982200D01*
X166914400Y-130630200D02*
X166914400Y-127046200D01*
X166954400Y-124566200D02*
X166954400Y-120969200D01*
X166954400Y-130643200D02*
X166954400Y-127046200D01*
X166994400Y-124566200D02*
X166994400Y-120957200D01*
X166994400Y-130655200D02*
X166994400Y-127046200D01*
X167034400Y-124566200D02*
X167034400Y-120945200D01*
X167034400Y-130667200D02*
X167034400Y-127046200D01*
X167074400Y-124566200D02*
X167074400Y-120933200D01*
X167074400Y-130679200D02*
X167074400Y-127046200D01*
X167114400Y-124566200D02*
X167114400Y-120921200D01*
X167114400Y-130691200D02*
X167114400Y-127046200D01*
X167154400Y-124566200D02*
X167154400Y-120910200D01*
X167154400Y-130702200D02*
X167154400Y-127046200D01*
X167194400Y-124566200D02*
X167194400Y-120899200D01*
X167194400Y-130713200D02*
X167194400Y-127046200D01*
X167234400Y-124566200D02*
X167234400Y-120889200D01*
X167234400Y-130723200D02*
X167234400Y-127046200D01*
X167274400Y-130734200D02*
X167274400Y-120878200D01*
X167314400Y-130743200D02*
X167314400Y-120869200D01*
X167354400Y-130753200D02*
X167354400Y-120859200D01*
X167394400Y-130762200D02*
X167394400Y-120850200D01*
X167434400Y-130771200D02*
X167434400Y-120841200D01*
X167474400Y-130779200D02*
X167474400Y-120833200D01*
X167514400Y-130787200D02*
X167514400Y-120825200D01*
X167554400Y-130795200D02*
X167554400Y-120817200D01*
X167594400Y-130803200D02*
X167594400Y-120809200D01*
X167634400Y-130810200D02*
X167634400Y-120802200D01*
X167674400Y-130817200D02*
X167674400Y-120795200D01*
X167714400Y-130823200D02*
X167714400Y-120789200D01*
X167754400Y-130829200D02*
X167754400Y-120783200D01*
X167794400Y-130835200D02*
X167794400Y-120777200D01*
X167834400Y-130841200D02*
X167834400Y-120771200D01*
X167874400Y-130846200D02*
X167874400Y-120766200D01*
X167914400Y-130851200D02*
X167914400Y-120761200D01*
X167954400Y-130855200D02*
X167954400Y-120757200D01*
X167994400Y-130860200D02*
X167994400Y-120752200D01*
X168034400Y-130863200D02*
X168034400Y-120749200D01*
X168074400Y-130867200D02*
X168074400Y-120745200D01*
X168114400Y-130870200D02*
X168114400Y-120742200D01*
X168154400Y-130873200D02*
X168154400Y-120739200D01*
X168194400Y-130876200D02*
X168194400Y-120736200D01*
X168234400Y-130878200D02*
X168234400Y-120734200D01*
X168274400Y-130880200D02*
X168274400Y-120732200D01*
X168314400Y-130882200D02*
X168314400Y-120730200D01*
X168354400Y-130883200D02*
X168354400Y-120729200D01*
X168394400Y-130885200D02*
X168394400Y-120727200D01*
X168434400Y-130885200D02*
X168434400Y-120727200D01*
X168474400Y-130886200D02*
X168474400Y-120726200D01*
X168514400Y-130886200D02*
X168514400Y-120726200D01*
X173494046Y-129181200D02*
X173494046Y-128181200D01*
X173994046Y-128681200D02*
X172994046Y-128681200D01*
X173634400Y-125806200D02*
G75*
G02*
X163394400Y-125806200I-5120000J0D01*
G01*
X163394400Y-125806200D02*
G75*
G02*
X173634400Y-125806200I5120000J0D01*
G01*
%TO.C,U1*%
X163265000Y-68828400D02*
X163265000Y-112578400D01*
X163265000Y-112578400D02*
X184715000Y-112578400D01*
X163520000Y-71963400D02*
X163520000Y-68848400D01*
X163520000Y-112573400D02*
X163520000Y-111273400D01*
X163731295Y-79081088D02*
X163731295Y-79115043D01*
X163731295Y-79164422D02*
X163731295Y-79209294D01*
X163732295Y-87673617D02*
X163732295Y-77773617D01*
X163782295Y-77723617D02*
X168682294Y-77723617D01*
X164446671Y-93763167D02*
X164737610Y-92113167D01*
X164446671Y-100623167D02*
X164446671Y-93763167D01*
X164480296Y-73574719D02*
X164480296Y-74374719D01*
X164480296Y-73574719D02*
X166080295Y-73574719D01*
X164737610Y-102273167D02*
X164446671Y-100623167D01*
X164800296Y-74374719D02*
X164800296Y-73574719D01*
X165050900Y-86687015D02*
X165082295Y-86662847D01*
X165082295Y-84584386D02*
X165082295Y-86662847D01*
X165107294Y-86674806D02*
X165076075Y-86667636D01*
X165107294Y-86674806D02*
X165082295Y-86662847D01*
X165107294Y-86674806D02*
X165102062Y-86699253D01*
X165526670Y-92113167D02*
X165526670Y-102273167D01*
X165582294Y-86662847D02*
X165582294Y-84584386D01*
X165760295Y-73574719D02*
X165760295Y-74374719D01*
X166080295Y-73574719D02*
X166080295Y-74374719D01*
X166080295Y-74374719D02*
X164480296Y-74374719D01*
X166104149Y-102274167D02*
X166265687Y-102274167D01*
X166370000Y-109443400D02*
X166680000Y-109443400D01*
X166675000Y-112573400D02*
X166680000Y-109443400D01*
X166680000Y-71963400D02*
X163520000Y-71963400D01*
X166680000Y-71963400D02*
X166680000Y-68803400D01*
X168682294Y-87723617D02*
X163782295Y-87723617D01*
X168732294Y-77773617D02*
X168732294Y-87673617D01*
X171185796Y-79356003D02*
X171185796Y-89056003D01*
X172685796Y-90556003D02*
X182385796Y-90556003D01*
X174089106Y-92113167D02*
X164737610Y-92113167D01*
X174089106Y-102273167D02*
X164737610Y-102273167D01*
X174089106Y-102273167D02*
X174166670Y-102195603D01*
X174166670Y-92190730D02*
X174089106Y-92113167D01*
X174166670Y-102195603D02*
X174166670Y-92190730D01*
X178796670Y-93373167D02*
X174166670Y-93373167D01*
X178796670Y-94213167D02*
X174166670Y-94213167D01*
X178796670Y-94213167D02*
X178796670Y-93373167D01*
X178796670Y-95073167D02*
X174166670Y-95073167D01*
X178796670Y-95913167D02*
X174166670Y-95913167D01*
X178796670Y-95913167D02*
X178796670Y-95073167D01*
X178796670Y-96773167D02*
X174166670Y-96773167D01*
X178796670Y-97613167D02*
X174166670Y-97613167D01*
X178796670Y-97613167D02*
X178796670Y-96773167D01*
X178796670Y-98473167D02*
X174166670Y-98473167D01*
X178796670Y-99313167D02*
X174166670Y-99313167D01*
X178796670Y-99313167D02*
X178796670Y-98473167D01*
X178796670Y-100173167D02*
X174166670Y-100173167D01*
X178796670Y-101013167D02*
X174166670Y-101013167D01*
X178796670Y-101013167D02*
X178796670Y-100173167D01*
X181283217Y-101441764D02*
X181283217Y-97841764D01*
X181300000Y-71963400D02*
X181300000Y-68848400D01*
X181300000Y-109443400D02*
X184460000Y-109443400D01*
X181300000Y-112573400D02*
X181300000Y-109443400D01*
X181383217Y-97741764D02*
X183683217Y-97741764D01*
X181383217Y-98612042D02*
X183683217Y-98612042D01*
X181658217Y-97291764D02*
X183408217Y-97291764D01*
X181658217Y-97741764D02*
X181658217Y-97291764D01*
X181658217Y-101991764D02*
X181658217Y-101541764D01*
X181894696Y-97740764D02*
X181800144Y-97740764D01*
X182385796Y-77856003D02*
X172685796Y-77856003D01*
X183408217Y-97291764D02*
X183408217Y-97741764D01*
X183408217Y-101541764D02*
X183408217Y-101991764D01*
X183408217Y-101991764D02*
X181658217Y-101991764D01*
X183683217Y-101541764D02*
X181383217Y-101541764D01*
X183783217Y-97841764D02*
X183783217Y-101441764D01*
X183885796Y-89056003D02*
X183885796Y-79356003D01*
X184460000Y-71963400D02*
X181300000Y-71963400D01*
X184460000Y-71963400D02*
X184460000Y-68848400D01*
X184460000Y-112573400D02*
X184460000Y-109443400D01*
X184715000Y-68828400D02*
X163265000Y-68828400D01*
X184715000Y-112578400D02*
X184715000Y-68828400D01*
X163732295Y-77773617D02*
G75*
G02*
X163782295Y-77723595I50005J17D01*
G01*
X163782295Y-87723617D02*
G75*
G02*
X163732283Y-87673617I5J50017D01*
G01*
X165562527Y-86699252D02*
G75*
G02*
X165613690Y-86687015I-230227J1075652D01*
G01*
X168682294Y-77723617D02*
G75*
G02*
X168732283Y-77773617I6J-49983D01*
G01*
X168732294Y-87673617D02*
G75*
G02*
X168682294Y-87723594I-49994J17D01*
G01*
X171185796Y-79356003D02*
G75*
G02*
X172685796Y-77855996I1500004J3D01*
G01*
X172499531Y-81236217D02*
G75*
G02*
X172533641Y-81370402I-52931J-84883D01*
G01*
X172499531Y-81236217D02*
G75*
G02*
X174566018Y-79169733I793669J1272817D01*
G01*
X172533617Y-87041616D02*
G75*
G02*
X172533617Y-81370389I5002178J2835614D01*
G01*
X172533617Y-87041617D02*
G75*
G02*
X172499512Y-87175759I-87017J-49283D01*
G01*
X172685796Y-90556003D02*
G75*
G02*
X171185797Y-89056003I4J1500003D01*
G01*
X174566010Y-89242269D02*
G75*
G02*
X174700200Y-89208151I84890J-52931D01*
G01*
X174566011Y-89242268D02*
G75*
G02*
X172499531Y-87175789I-1272851J793628D01*
G01*
X174700183Y-79203824D02*
G75*
G02*
X180371412Y-79203821I2835617J-5002176D01*
G01*
X174700184Y-79203823D02*
G75*
G02*
X174566039Y-79169720I-49284J87023D01*
G01*
X180371409Y-89208183D02*
G75*
G02*
X180505560Y-89242282I49291J-87017D01*
G01*
X180371410Y-89208182D02*
G75*
G02*
X174700185Y-89208179I-2835610J5002182D01*
G01*
X180505582Y-79169738D02*
G75*
G02*
X182572062Y-81236218I1272858J-793622D01*
G01*
X180505583Y-79169737D02*
G75*
G02*
X180371398Y-79203845I-84883J52937D01*
G01*
X181283217Y-97841764D02*
G75*
G02*
X181383217Y-97741817I99983J-36D01*
G01*
X181383217Y-101541764D02*
G75*
G02*
X181283236Y-101441764I-17J99964D01*
G01*
X182385796Y-77856003D02*
G75*
G02*
X183885797Y-79356003I4J-1499997D01*
G01*
X182537976Y-81370389D02*
G75*
G02*
X182537976Y-87041617I-5002180J-2835614D01*
G01*
X182537976Y-81370389D02*
G75*
G02*
X182572075Y-81236238I87024J49289D01*
G01*
X182572062Y-87175789D02*
G75*
G02*
X180505590Y-89242263I-793662J-1272811D01*
G01*
X182572062Y-87175789D02*
G75*
G02*
X182537947Y-87041601I52938J84889D01*
G01*
X183683217Y-97741764D02*
G75*
G02*
X183783236Y-97841764I-17J-100036D01*
G01*
X183783217Y-101441764D02*
G75*
G02*
X183683217Y-101541817I-100017J-36D01*
G01*
X183885796Y-89056003D02*
G75*
G02*
X182385796Y-90555996I-1499996J3D01*
G01*
X167333999Y-105943400D02*
G75*
G02*
X164136001Y-105943400I-1598999J0D01*
G01*
X164136001Y-105943400D02*
G75*
G02*
X167333999Y-105943400I1598999J0D01*
G01*
X173629594Y-101350221D02*
G75*
G02*
X172879594Y-101350221I-375000J0D01*
G01*
X172879594Y-101350221D02*
G75*
G02*
X173629594Y-101350221I375000J0D01*
G01*
X178057418Y-108376734D02*
G75*
G02*
X170057418Y-108376734I-4000000J0D01*
G01*
X170057418Y-108376734D02*
G75*
G02*
X178057418Y-108376734I4000000J0D01*
G01*
X178555206Y-72994093D02*
G75*
G02*
X170555206Y-72994093I-4000000J0D01*
G01*
X170555206Y-72994093D02*
G75*
G02*
X178555206Y-72994093I4000000J0D01*
G01*
X182785796Y-84206003D02*
G75*
G02*
X172285796Y-84206003I-5250000J0D01*
G01*
X172285796Y-84206003D02*
G75*
G02*
X182785796Y-84206003I5250000J0D01*
G01*
X183844000Y-75463400D02*
G75*
G02*
X180646000Y-75463400I-1599000J0D01*
G01*
X180646000Y-75463400D02*
G75*
G02*
X183844000Y-75463400I1599000J0D01*
G01*
%TD*%
M02*
