%TF.GenerationSoftware,KiCad,Pcbnew,9.0.3*%
%TF.CreationDate,2025-12-20T12:47:06+07:00*%
%TF.ProjectId,shield,73686965-6c64-42e6-9b69-6361645f7063,rev?*%
%TF.SameCoordinates,Original*%
%TF.FileFunction,Soldermask,Bot*%
%TF.FilePolarity,Negative*%
%FSLAX46Y46*%
G04 Gerber Fmt 4.6, Leading zero omitted, Abs format (unit mm)*
G04 Created by KiCad (PCBNEW 9.0.3) date 2025-12-20 12:47:06*
%MOMM*%
%LPD*%
G01*
G04 APERTURE LIST*
G04 Aperture macros list*
%AMRoundRect*
0 Rectangle with rounded corners*
0 $1 Rounding radius*
0 $2 $3 $4 $5 $6 $7 $8 $9 X,Y pos of 4 corners*
0 Add a 4 corners polygon primitive as box body*
4,1,4,$2,$3,$4,$5,$6,$7,$8,$9,$2,$3,0*
0 Add four circle primitives for the rounded corners*
1,1,$1+$1,$2,$3*
1,1,$1+$1,$4,$5*
1,1,$1+$1,$6,$7*
1,1,$1+$1,$8,$9*
0 Add four rect primitives between the rounded corners*
20,1,$1+$1,$2,$3,$4,$5,0*
20,1,$1+$1,$4,$5,$6,$7,0*
20,1,$1+$1,$6,$7,$8,$9,0*
20,1,$1+$1,$8,$9,$2,$3,0*%
G04 Aperture macros list end*
%ADD10RoundRect,0.250000X-1.050000X-1.050000X1.050000X-1.050000X1.050000X1.050000X-1.050000X1.050000X0*%
%ADD11C,2.600000*%
%ADD12RoundRect,0.250000X1.350000X1.350000X-1.350000X1.350000X-1.350000X-1.350000X1.350000X-1.350000X0*%
%ADD13C,3.200000*%
%ADD14R,1.700000X1.700000*%
%ADD15C,1.700000*%
%ADD16RoundRect,0.250000X0.550000X0.550000X-0.550000X0.550000X-0.550000X-0.550000X0.550000X-0.550000X0*%
%ADD17C,1.600000*%
%ADD18RoundRect,0.250000X-1.350000X-1.350000X1.350000X-1.350000X1.350000X1.350000X-1.350000X1.350000X0*%
%ADD19RoundRect,0.250000X0.600000X0.725000X-0.600000X0.725000X-0.600000X-0.725000X0.600000X-0.725000X0*%
%ADD20O,1.700000X1.950000*%
%ADD21RoundRect,0.250000X-0.550000X-0.550000X0.550000X-0.550000X0.550000X0.550000X-0.550000X0.550000X0*%
%ADD22RoundRect,0.250000X0.750000X0.750000X-0.750000X0.750000X-0.750000X-0.750000X0.750000X-0.750000X0*%
%ADD23C,2.000000*%
%ADD24R,2.540000X2.540000*%
%ADD25C,2.540000*%
G04 APERTURE END LIST*
D10*
%TO.C,J4*%
X190768600Y-139389900D03*
D11*
X195768600Y-139389900D03*
%TD*%
D12*
%TO.C,D1*%
X193471800Y-123367800D03*
D13*
X178231800Y-123367800D03*
%TD*%
D14*
%TO.C,J8*%
X158496400Y-124135200D03*
D15*
X158496400Y-121595200D03*
X158496400Y-119055200D03*
X158496400Y-116515200D03*
X158496400Y-113975200D03*
X158496400Y-111435200D03*
X158496400Y-108895200D03*
X158496400Y-106355200D03*
X158496400Y-103815200D03*
X158496400Y-101275200D03*
X158496400Y-98735200D03*
X158496400Y-96195200D03*
X158496400Y-93655200D03*
X158496400Y-91115200D03*
X158496400Y-88575200D03*
X158496400Y-86035200D03*
X158496400Y-83495200D03*
X158496400Y-80955200D03*
X158496400Y-78415200D03*
X158496400Y-75875200D03*
X158496400Y-73335200D03*
X158496400Y-70795200D03*
%TD*%
D16*
%TO.C,C3*%
X167854513Y-117322600D03*
D17*
X165354513Y-117322600D03*
%TD*%
D18*
%TO.C,D2*%
X178130200Y-130022600D03*
D13*
X193370200Y-130022600D03*
%TD*%
D10*
%TO.C,J15*%
X178627400Y-139339100D03*
D11*
X183627400Y-139339100D03*
%TD*%
D19*
%TO.C,J13*%
X140285800Y-141088600D03*
D20*
X137785800Y-141088600D03*
X135285800Y-141088600D03*
X132785800Y-141088600D03*
X130285800Y-141088600D03*
X127785800Y-141088600D03*
%TD*%
D14*
%TO.C,J6*%
X192785600Y-74940000D03*
D15*
X192785600Y-77480000D03*
X192785600Y-80020000D03*
X192785600Y-82560000D03*
%TD*%
D14*
%TO.C,J5*%
X124231400Y-81076800D03*
D15*
X124231400Y-78536800D03*
X124231400Y-75996800D03*
X124231400Y-73456800D03*
X124231400Y-70916800D03*
%TD*%
D19*
%TO.C,J3*%
X120940200Y-128591800D03*
D20*
X118440200Y-128591800D03*
X115940200Y-128591800D03*
%TD*%
D10*
%TO.C,J14*%
X115965600Y-138907300D03*
D11*
X120965600Y-138907300D03*
%TD*%
D14*
%TO.C,J2*%
X192684800Y-99182400D03*
D15*
X192684800Y-96642400D03*
X192684800Y-94102400D03*
X192684800Y-91562400D03*
X192684800Y-89022400D03*
%TD*%
D14*
%TO.C,J9*%
X131726400Y-124135200D03*
D15*
X131726400Y-121595200D03*
X131726400Y-119055200D03*
X131726400Y-116515200D03*
X131726400Y-113975200D03*
X131726400Y-111435200D03*
X131726400Y-108895200D03*
X131726400Y-106355200D03*
X131726400Y-103815200D03*
X131726400Y-101275200D03*
X131726400Y-98735200D03*
X131726400Y-96195200D03*
X131726400Y-93655200D03*
X131726400Y-91115200D03*
X131726400Y-88575200D03*
X131726400Y-86035200D03*
X131726400Y-83495200D03*
X131726400Y-80955200D03*
X131726400Y-78415200D03*
X131726400Y-75875200D03*
X131726400Y-73335200D03*
X131726400Y-70795200D03*
%TD*%
D21*
%TO.C,C5*%
X165114088Y-64871600D03*
D17*
X167614088Y-64871600D03*
%TD*%
D19*
%TO.C,J1*%
X171937400Y-141410400D03*
D20*
X169437400Y-141410400D03*
X166937400Y-141410400D03*
X164437400Y-141410400D03*
X161937400Y-141410400D03*
X159437400Y-141410400D03*
X156937400Y-141410400D03*
X154437400Y-141410400D03*
X151937400Y-141410400D03*
X149437400Y-141410400D03*
X146937400Y-141410400D03*
%TD*%
D22*
%TO.C,C1*%
X171014400Y-125806200D03*
D23*
X166014400Y-125806200D03*
%TD*%
D24*
%TO.C,U1*%
X165100000Y-111023400D03*
D25*
X182880000Y-111023400D03*
X182880000Y-70383400D03*
X165100000Y-70383400D03*
%TD*%
M02*
