M48
; DRILL file {KiCad 9.0.3} date 2025-08-18T13:19:22+0700
; FORMAT={-:-/ absolute / metric / decimal}
; #@! TF.CreationDate,2025-08-18T13:19:22+07:00
; #@! TF.GenerationSoftware,Kicad,Pcbnew,9.0.3
; #@! TF.FileFunction,Plated,1,2,PTH
FMAT,2
METRIC
; #@! TA.AperFunction,Plated,PTH,ViaDrill
T1C0.300
; #@! TA.AperFunction,Plated,PTH,ComponentDrill
T2C0.950
; #@! TA.AperFunction,Plated,PTH,ComponentDrill
T3C1.000
; #@! TA.AperFunction,Plated,PTH,ComponentDrill
T4C1.300
; #@! TA.AperFunction,Plated,PTH,ComponentDrill
T5C1.600
%
G90
G05
T1
X119.151Y-127.025
X124.892Y-128.422
X151.282Y-74.244
X188.062Y-135.894
T2
X95.813Y-140.31
X98.313Y-140.31
X100.813Y-140.31
X103.313Y-140.31
X105.813Y-140.31
X108.313Y-140.31
X110.813Y-140.31
X113.313Y-140.31
X115.813Y-140.31
X118.313Y-140.31
X120.813Y-140.31
X130.58Y-140.657
X133.08Y-140.657
X135.58Y-140.657
X138.08Y-140.657
X140.58Y-140.657
X143.08Y-140.657
X157.433Y-128.6
X159.933Y-128.6
X162.433Y-128.6
T3
X103.378Y-72.695
X103.378Y-75.235
X103.378Y-77.775
X103.378Y-80.315
X103.378Y-82.855
X109.714Y-72.72
X109.714Y-75.26
X109.714Y-77.8
X109.714Y-80.34
X109.714Y-82.88
X109.714Y-85.42
X109.714Y-87.96
X109.714Y-90.5
X109.714Y-93.04
X109.714Y-95.58
X109.714Y-98.12
X109.714Y-100.66
X109.714Y-103.2
X109.714Y-105.74
X109.714Y-108.28
X109.714Y-110.82
X109.714Y-113.36
X109.714Y-115.9
X109.714Y-118.44
X109.714Y-120.98
X109.714Y-123.52
X109.714Y-126.06
X115.804Y-72.72
X115.804Y-75.26
X115.804Y-77.8
X115.804Y-80.34
X115.804Y-82.88
X115.804Y-85.42
X115.804Y-87.96
X115.804Y-90.5
X115.804Y-93.04
X115.804Y-95.58
X115.804Y-98.12
X115.804Y-100.66
X115.804Y-103.2
X115.804Y-105.74
X115.804Y-108.28
X115.804Y-110.82
X115.804Y-113.36
X115.804Y-115.9
X115.804Y-118.44
X115.804Y-120.98
X115.804Y-123.52
X115.804Y-126.06
X142.574Y-72.72
X142.574Y-75.26
X142.574Y-77.8
X142.574Y-80.34
X142.574Y-82.88
X142.574Y-85.42
X142.574Y-87.96
X142.574Y-90.5
X142.574Y-93.04
X142.574Y-95.58
X142.574Y-98.12
X142.574Y-100.66
X142.574Y-103.2
X142.574Y-105.74
X142.574Y-108.28
X142.574Y-110.82
X142.574Y-113.36
X142.574Y-115.9
X142.574Y-118.44
X142.574Y-120.98
X142.574Y-123.52
X142.574Y-126.06
X148.664Y-72.72
X148.664Y-75.26
X148.664Y-77.8
X148.664Y-80.34
X148.664Y-82.88
X148.664Y-85.42
X148.664Y-87.96
X148.664Y-90.5
X148.664Y-93.04
X148.664Y-95.58
X148.664Y-98.12
X148.664Y-100.66
X148.664Y-103.2
X148.664Y-105.74
X148.664Y-108.28
X148.664Y-110.82
X148.664Y-113.36
X148.664Y-115.9
X148.664Y-118.44
X148.664Y-120.98
X148.664Y-123.52
X148.664Y-126.06
X157.887Y-95.291
X157.887Y-97.831
X157.887Y-100.371
X157.887Y-102.911
X177.75Y-73.274
X177.75Y-75.814
X177.75Y-78.354
X177.75Y-80.894
X177.75Y-83.434
X181.401Y-108.102
X186.401Y-108.102
X192.024Y-102.311
X192.024Y-142.951
X209.804Y-102.311
X209.804Y-142.951
T4
X151.119Y-138.679
X156.119Y-138.679
X164.592Y-138.597
X169.592Y-138.597
X177.216Y-138.532
X182.216Y-138.532
T5
X170.434Y-121.844
X170.434Y-129.692
X185.674Y-121.844
X185.674Y-129.692
M30
