%TF.GenerationSoftware,KiCad,Pcbnew,9.0.3*%
%TF.CreationDate,2026-01-04T16:05:15+07:00*%
%TF.ProjectId,shield,73686965-6c64-42e6-9b69-6361645f7063,rev?*%
%TF.SameCoordinates,Original*%
%TF.FileFunction,AssemblyDrawing,Top*%
%FSLAX46Y46*%
G04 Gerber Fmt 4.6, Leading zero omitted, Abs format (unit mm)*
G04 Created by KiCad (PCBNEW 9.0.3) date 2026-01-04 16:05:15*
%MOMM*%
%LPD*%
G01*
G04 APERTURE LIST*
%ADD10C,0.150000*%
%ADD11C,0.060000*%
%ADD12C,0.080000*%
%ADD13C,0.100000*%
%ADD14C,0.127000*%
%ADD15C,0.200000*%
G04 APERTURE END LIST*
D10*
X159929818Y-86424419D02*
X159929818Y-87138704D01*
X159929818Y-87138704D02*
X159882199Y-87281561D01*
X159882199Y-87281561D02*
X159786961Y-87376800D01*
X159786961Y-87376800D02*
X159644104Y-87424419D01*
X159644104Y-87424419D02*
X159548866Y-87424419D01*
X160548866Y-87424419D02*
X160453628Y-87376800D01*
X160453628Y-87376800D02*
X160406009Y-87329180D01*
X160406009Y-87329180D02*
X160358390Y-87233942D01*
X160358390Y-87233942D02*
X160358390Y-86948228D01*
X160358390Y-86948228D02*
X160406009Y-86852990D01*
X160406009Y-86852990D02*
X160453628Y-86805371D01*
X160453628Y-86805371D02*
X160548866Y-86757752D01*
X160548866Y-86757752D02*
X160691723Y-86757752D01*
X160691723Y-86757752D02*
X160786961Y-86805371D01*
X160786961Y-86805371D02*
X160834580Y-86852990D01*
X160834580Y-86852990D02*
X160882199Y-86948228D01*
X160882199Y-86948228D02*
X160882199Y-87233942D01*
X160882199Y-87233942D02*
X160834580Y-87329180D01*
X160834580Y-87329180D02*
X160786961Y-87376800D01*
X160786961Y-87376800D02*
X160691723Y-87424419D01*
X160691723Y-87424419D02*
X160548866Y-87424419D01*
X161215533Y-86757752D02*
X161453628Y-87424419D01*
X161691723Y-86757752D02*
X161453628Y-87424419D01*
X161453628Y-87424419D02*
X161358390Y-87662514D01*
X161358390Y-87662514D02*
X161310771Y-87710133D01*
X161310771Y-87710133D02*
X161215533Y-87757752D01*
X162025057Y-87376800D02*
X162120295Y-87424419D01*
X162120295Y-87424419D02*
X162310771Y-87424419D01*
X162310771Y-87424419D02*
X162406009Y-87376800D01*
X162406009Y-87376800D02*
X162453628Y-87281561D01*
X162453628Y-87281561D02*
X162453628Y-87233942D01*
X162453628Y-87233942D02*
X162406009Y-87138704D01*
X162406009Y-87138704D02*
X162310771Y-87091085D01*
X162310771Y-87091085D02*
X162167914Y-87091085D01*
X162167914Y-87091085D02*
X162072676Y-87043466D01*
X162072676Y-87043466D02*
X162025057Y-86948228D01*
X162025057Y-86948228D02*
X162025057Y-86900609D01*
X162025057Y-86900609D02*
X162072676Y-86805371D01*
X162072676Y-86805371D02*
X162167914Y-86757752D01*
X162167914Y-86757752D02*
X162310771Y-86757752D01*
X162310771Y-86757752D02*
X162406009Y-86805371D01*
X162739343Y-86757752D02*
X163120295Y-86757752D01*
X162882200Y-86424419D02*
X162882200Y-87281561D01*
X162882200Y-87281561D02*
X162929819Y-87376800D01*
X162929819Y-87376800D02*
X163025057Y-87424419D01*
X163025057Y-87424419D02*
X163120295Y-87424419D01*
X163453629Y-87424419D02*
X163453629Y-86757752D01*
X163453629Y-86424419D02*
X163406010Y-86472038D01*
X163406010Y-86472038D02*
X163453629Y-86519657D01*
X163453629Y-86519657D02*
X163501248Y-86472038D01*
X163501248Y-86472038D02*
X163453629Y-86424419D01*
X163453629Y-86424419D02*
X163453629Y-86519657D01*
X164358390Y-87376800D02*
X164263152Y-87424419D01*
X164263152Y-87424419D02*
X164072676Y-87424419D01*
X164072676Y-87424419D02*
X163977438Y-87376800D01*
X163977438Y-87376800D02*
X163929819Y-87329180D01*
X163929819Y-87329180D02*
X163882200Y-87233942D01*
X163882200Y-87233942D02*
X163882200Y-86948228D01*
X163882200Y-86948228D02*
X163929819Y-86852990D01*
X163929819Y-86852990D02*
X163977438Y-86805371D01*
X163977438Y-86805371D02*
X164072676Y-86757752D01*
X164072676Y-86757752D02*
X164263152Y-86757752D01*
X164263152Y-86757752D02*
X164358390Y-86805371D01*
X164786962Y-87424419D02*
X164786962Y-86424419D01*
X164882200Y-87043466D02*
X165167914Y-87424419D01*
X165167914Y-86757752D02*
X164786962Y-87138704D01*
X161785819Y-94673533D02*
X162500104Y-94673533D01*
X162500104Y-94673533D02*
X162642961Y-94721152D01*
X162642961Y-94721152D02*
X162738200Y-94816390D01*
X162738200Y-94816390D02*
X162785819Y-94959247D01*
X162785819Y-94959247D02*
X162785819Y-95054485D01*
X161785819Y-93721152D02*
X161785819Y-94197342D01*
X161785819Y-94197342D02*
X162262009Y-94244961D01*
X162262009Y-94244961D02*
X162214390Y-94197342D01*
X162214390Y-94197342D02*
X162166771Y-94102104D01*
X162166771Y-94102104D02*
X162166771Y-93864009D01*
X162166771Y-93864009D02*
X162214390Y-93768771D01*
X162214390Y-93768771D02*
X162262009Y-93721152D01*
X162262009Y-93721152D02*
X162357247Y-93673533D01*
X162357247Y-93673533D02*
X162595342Y-93673533D01*
X162595342Y-93673533D02*
X162690580Y-93721152D01*
X162690580Y-93721152D02*
X162738200Y-93768771D01*
X162738200Y-93768771D02*
X162785819Y-93864009D01*
X162785819Y-93864009D02*
X162785819Y-94102104D01*
X162785819Y-94102104D02*
X162738200Y-94197342D01*
X162738200Y-94197342D02*
X162690580Y-94244961D01*
X163871856Y-131398180D02*
X163824237Y-131445800D01*
X163824237Y-131445800D02*
X163681380Y-131493419D01*
X163681380Y-131493419D02*
X163586142Y-131493419D01*
X163586142Y-131493419D02*
X163443285Y-131445800D01*
X163443285Y-131445800D02*
X163348047Y-131350561D01*
X163348047Y-131350561D02*
X163300428Y-131255323D01*
X163300428Y-131255323D02*
X163252809Y-131064847D01*
X163252809Y-131064847D02*
X163252809Y-130921990D01*
X163252809Y-130921990D02*
X163300428Y-130731514D01*
X163300428Y-130731514D02*
X163348047Y-130636276D01*
X163348047Y-130636276D02*
X163443285Y-130541038D01*
X163443285Y-130541038D02*
X163586142Y-130493419D01*
X163586142Y-130493419D02*
X163681380Y-130493419D01*
X163681380Y-130493419D02*
X163824237Y-130541038D01*
X163824237Y-130541038D02*
X163871856Y-130588657D01*
X164824237Y-131493419D02*
X164252809Y-131493419D01*
X164538523Y-131493419D02*
X164538523Y-130493419D01*
X164538523Y-130493419D02*
X164443285Y-130636276D01*
X164443285Y-130636276D02*
X164348047Y-130731514D01*
X164348047Y-130731514D02*
X164252809Y-130779133D01*
X166194743Y-112185219D02*
X166766171Y-112185219D01*
X166480457Y-113185219D02*
X166480457Y-112185219D01*
X167432838Y-112661409D02*
X167575695Y-112709028D01*
X167575695Y-112709028D02*
X167623314Y-112756647D01*
X167623314Y-112756647D02*
X167670933Y-112851885D01*
X167670933Y-112851885D02*
X167670933Y-112994742D01*
X167670933Y-112994742D02*
X167623314Y-113089980D01*
X167623314Y-113089980D02*
X167575695Y-113137600D01*
X167575695Y-113137600D02*
X167480457Y-113185219D01*
X167480457Y-113185219D02*
X167099505Y-113185219D01*
X167099505Y-113185219D02*
X167099505Y-112185219D01*
X167099505Y-112185219D02*
X167432838Y-112185219D01*
X167432838Y-112185219D02*
X167528076Y-112232838D01*
X167528076Y-112232838D02*
X167575695Y-112280457D01*
X167575695Y-112280457D02*
X167623314Y-112375695D01*
X167623314Y-112375695D02*
X167623314Y-112470933D01*
X167623314Y-112470933D02*
X167575695Y-112566171D01*
X167575695Y-112566171D02*
X167528076Y-112613790D01*
X167528076Y-112613790D02*
X167432838Y-112661409D01*
X167432838Y-112661409D02*
X167099505Y-112661409D01*
X168528076Y-112185219D02*
X168337600Y-112185219D01*
X168337600Y-112185219D02*
X168242362Y-112232838D01*
X168242362Y-112232838D02*
X168194743Y-112280457D01*
X168194743Y-112280457D02*
X168099505Y-112423314D01*
X168099505Y-112423314D02*
X168051886Y-112613790D01*
X168051886Y-112613790D02*
X168051886Y-112994742D01*
X168051886Y-112994742D02*
X168099505Y-113089980D01*
X168099505Y-113089980D02*
X168147124Y-113137600D01*
X168147124Y-113137600D02*
X168242362Y-113185219D01*
X168242362Y-113185219D02*
X168432838Y-113185219D01*
X168432838Y-113185219D02*
X168528076Y-113137600D01*
X168528076Y-113137600D02*
X168575695Y-113089980D01*
X168575695Y-113089980D02*
X168623314Y-112994742D01*
X168623314Y-112994742D02*
X168623314Y-112756647D01*
X168623314Y-112756647D02*
X168575695Y-112661409D01*
X168575695Y-112661409D02*
X168528076Y-112613790D01*
X168528076Y-112613790D02*
X168432838Y-112566171D01*
X168432838Y-112566171D02*
X168242362Y-112566171D01*
X168242362Y-112566171D02*
X168147124Y-112613790D01*
X168147124Y-112613790D02*
X168099505Y-112661409D01*
X168099505Y-112661409D02*
X168051886Y-112756647D01*
X169480457Y-112185219D02*
X169289981Y-112185219D01*
X169289981Y-112185219D02*
X169194743Y-112232838D01*
X169194743Y-112232838D02*
X169147124Y-112280457D01*
X169147124Y-112280457D02*
X169051886Y-112423314D01*
X169051886Y-112423314D02*
X169004267Y-112613790D01*
X169004267Y-112613790D02*
X169004267Y-112994742D01*
X169004267Y-112994742D02*
X169051886Y-113089980D01*
X169051886Y-113089980D02*
X169099505Y-113137600D01*
X169099505Y-113137600D02*
X169194743Y-113185219D01*
X169194743Y-113185219D02*
X169385219Y-113185219D01*
X169385219Y-113185219D02*
X169480457Y-113137600D01*
X169480457Y-113137600D02*
X169528076Y-113089980D01*
X169528076Y-113089980D02*
X169575695Y-112994742D01*
X169575695Y-112994742D02*
X169575695Y-112756647D01*
X169575695Y-112756647D02*
X169528076Y-112661409D01*
X169528076Y-112661409D02*
X169480457Y-112613790D01*
X169480457Y-112613790D02*
X169385219Y-112566171D01*
X169385219Y-112566171D02*
X169194743Y-112566171D01*
X169194743Y-112566171D02*
X169099505Y-112613790D01*
X169099505Y-112613790D02*
X169051886Y-112661409D01*
X169051886Y-112661409D02*
X169004267Y-112756647D01*
X170528076Y-113185219D02*
X169956648Y-113185219D01*
X170242362Y-113185219D02*
X170242362Y-112185219D01*
X170242362Y-112185219D02*
X170147124Y-112328076D01*
X170147124Y-112328076D02*
X170051886Y-112423314D01*
X170051886Y-112423314D02*
X169956648Y-112470933D01*
X170909029Y-112280457D02*
X170956648Y-112232838D01*
X170956648Y-112232838D02*
X171051886Y-112185219D01*
X171051886Y-112185219D02*
X171289981Y-112185219D01*
X171289981Y-112185219D02*
X171385219Y-112232838D01*
X171385219Y-112232838D02*
X171432838Y-112280457D01*
X171432838Y-112280457D02*
X171480457Y-112375695D01*
X171480457Y-112375695D02*
X171480457Y-112470933D01*
X171480457Y-112470933D02*
X171432838Y-112613790D01*
X171432838Y-112613790D02*
X170861410Y-113185219D01*
X170861410Y-113185219D02*
X171480457Y-113185219D01*
X172242362Y-112661409D02*
X171909029Y-112661409D01*
X171909029Y-113185219D02*
X171909029Y-112185219D01*
X171909029Y-112185219D02*
X172385219Y-112185219D01*
X172766172Y-113185219D02*
X172766172Y-112185219D01*
X172766172Y-112185219D02*
X173337600Y-113185219D01*
X173337600Y-113185219D02*
X173337600Y-112185219D01*
X174337600Y-112232838D02*
X174242362Y-112185219D01*
X174242362Y-112185219D02*
X174099505Y-112185219D01*
X174099505Y-112185219D02*
X173956648Y-112232838D01*
X173956648Y-112232838D02*
X173861410Y-112328076D01*
X173861410Y-112328076D02*
X173813791Y-112423314D01*
X173813791Y-112423314D02*
X173766172Y-112613790D01*
X173766172Y-112613790D02*
X173766172Y-112756647D01*
X173766172Y-112756647D02*
X173813791Y-112947123D01*
X173813791Y-112947123D02*
X173861410Y-113042361D01*
X173861410Y-113042361D02*
X173956648Y-113137600D01*
X173956648Y-113137600D02*
X174099505Y-113185219D01*
X174099505Y-113185219D02*
X174194743Y-113185219D01*
X174194743Y-113185219D02*
X174337600Y-113137600D01*
X174337600Y-113137600D02*
X174385219Y-113089980D01*
X174385219Y-113089980D02*
X174385219Y-112756647D01*
X174385219Y-112756647D02*
X174194743Y-112756647D01*
D11*
X178439127Y-128819266D02*
X178248651Y-128952599D01*
X178439127Y-129047837D02*
X178039127Y-129047837D01*
X178039127Y-129047837D02*
X178039127Y-128895456D01*
X178039127Y-128895456D02*
X178058175Y-128857361D01*
X178058175Y-128857361D02*
X178077222Y-128838314D01*
X178077222Y-128838314D02*
X178115318Y-128819266D01*
X178115318Y-128819266D02*
X178172460Y-128819266D01*
X178172460Y-128819266D02*
X178210556Y-128838314D01*
X178210556Y-128838314D02*
X178229603Y-128857361D01*
X178229603Y-128857361D02*
X178248651Y-128895456D01*
X178248651Y-128895456D02*
X178248651Y-129047837D01*
X178439127Y-128438314D02*
X178439127Y-128666885D01*
X178439127Y-128552599D02*
X178039127Y-128552599D01*
X178039127Y-128552599D02*
X178096270Y-128590695D01*
X178096270Y-128590695D02*
X178134365Y-128628790D01*
X178134365Y-128628790D02*
X178153413Y-128666885D01*
X171665904Y-128961322D02*
X171627809Y-128942275D01*
X171627809Y-128942275D02*
X171589714Y-128904180D01*
X171589714Y-128904180D02*
X171532571Y-128847037D01*
X171532571Y-128847037D02*
X171494476Y-128827989D01*
X171494476Y-128827989D02*
X171456380Y-128827989D01*
X171475428Y-128923227D02*
X171437333Y-128904180D01*
X171437333Y-128904180D02*
X171399238Y-128866084D01*
X171399238Y-128866084D02*
X171380190Y-128789894D01*
X171380190Y-128789894D02*
X171380190Y-128656560D01*
X171380190Y-128656560D02*
X171399238Y-128580370D01*
X171399238Y-128580370D02*
X171437333Y-128542275D01*
X171437333Y-128542275D02*
X171475428Y-128523227D01*
X171475428Y-128523227D02*
X171551619Y-128523227D01*
X171551619Y-128523227D02*
X171589714Y-128542275D01*
X171589714Y-128542275D02*
X171627809Y-128580370D01*
X171627809Y-128580370D02*
X171646857Y-128656560D01*
X171646857Y-128656560D02*
X171646857Y-128789894D01*
X171646857Y-128789894D02*
X171627809Y-128866084D01*
X171627809Y-128866084D02*
X171589714Y-128904180D01*
X171589714Y-128904180D02*
X171551619Y-128923227D01*
X171551619Y-128923227D02*
X171475428Y-128923227D01*
X172027809Y-128923227D02*
X171799238Y-128923227D01*
X171913524Y-128923227D02*
X171913524Y-128523227D01*
X171913524Y-128523227D02*
X171875428Y-128580370D01*
X171875428Y-128580370D02*
X171837333Y-128618465D01*
X171837333Y-128618465D02*
X171799238Y-128637513D01*
D10*
X162834819Y-78297819D02*
X163025295Y-78297819D01*
X163025295Y-78297819D02*
X163120533Y-78345438D01*
X163120533Y-78345438D02*
X163215771Y-78440676D01*
X163215771Y-78440676D02*
X163263390Y-78631152D01*
X163263390Y-78631152D02*
X163263390Y-78964485D01*
X163263390Y-78964485D02*
X163215771Y-79154961D01*
X163215771Y-79154961D02*
X163120533Y-79250200D01*
X163120533Y-79250200D02*
X163025295Y-79297819D01*
X163025295Y-79297819D02*
X162834819Y-79297819D01*
X162834819Y-79297819D02*
X162739581Y-79250200D01*
X162739581Y-79250200D02*
X162644343Y-79154961D01*
X162644343Y-79154961D02*
X162596724Y-78964485D01*
X162596724Y-78964485D02*
X162596724Y-78631152D01*
X162596724Y-78631152D02*
X162644343Y-78440676D01*
X162644343Y-78440676D02*
X162739581Y-78345438D01*
X162739581Y-78345438D02*
X162834819Y-78297819D01*
X164168152Y-79297819D02*
X163691962Y-79297819D01*
X163691962Y-79297819D02*
X163691962Y-78297819D01*
X164501486Y-78774009D02*
X164834819Y-78774009D01*
X164977676Y-79297819D02*
X164501486Y-79297819D01*
X164501486Y-79297819D02*
X164501486Y-78297819D01*
X164501486Y-78297819D02*
X164977676Y-78297819D01*
X165406248Y-79297819D02*
X165406248Y-78297819D01*
X165406248Y-78297819D02*
X165644343Y-78297819D01*
X165644343Y-78297819D02*
X165787200Y-78345438D01*
X165787200Y-78345438D02*
X165882438Y-78440676D01*
X165882438Y-78440676D02*
X165930057Y-78535914D01*
X165930057Y-78535914D02*
X165977676Y-78726390D01*
X165977676Y-78726390D02*
X165977676Y-78869247D01*
X165977676Y-78869247D02*
X165930057Y-79059723D01*
X165930057Y-79059723D02*
X165882438Y-79154961D01*
X165882438Y-79154961D02*
X165787200Y-79250200D01*
X165787200Y-79250200D02*
X165644343Y-79297819D01*
X165644343Y-79297819D02*
X165406248Y-79297819D01*
X163742019Y-72596333D02*
X164456304Y-72596333D01*
X164456304Y-72596333D02*
X164599161Y-72643952D01*
X164599161Y-72643952D02*
X164694400Y-72739190D01*
X164694400Y-72739190D02*
X164742019Y-72882047D01*
X164742019Y-72882047D02*
X164742019Y-72977285D01*
X163742019Y-71691571D02*
X163742019Y-71882047D01*
X163742019Y-71882047D02*
X163789638Y-71977285D01*
X163789638Y-71977285D02*
X163837257Y-72024904D01*
X163837257Y-72024904D02*
X163980114Y-72120142D01*
X163980114Y-72120142D02*
X164170590Y-72167761D01*
X164170590Y-72167761D02*
X164551542Y-72167761D01*
X164551542Y-72167761D02*
X164646780Y-72120142D01*
X164646780Y-72120142D02*
X164694400Y-72072523D01*
X164694400Y-72072523D02*
X164742019Y-71977285D01*
X164742019Y-71977285D02*
X164742019Y-71786809D01*
X164742019Y-71786809D02*
X164694400Y-71691571D01*
X164694400Y-71691571D02*
X164646780Y-71643952D01*
X164646780Y-71643952D02*
X164551542Y-71596333D01*
X164551542Y-71596333D02*
X164313447Y-71596333D01*
X164313447Y-71596333D02*
X164218209Y-71643952D01*
X164218209Y-71643952D02*
X164170590Y-71691571D01*
X164170590Y-71691571D02*
X164122971Y-71786809D01*
X164122971Y-71786809D02*
X164122971Y-71977285D01*
X164122971Y-71977285D02*
X164170590Y-72072523D01*
X164170590Y-72072523D02*
X164218209Y-72120142D01*
X164218209Y-72120142D02*
X164313447Y-72167761D01*
X133651857Y-145949200D02*
X133794714Y-145996819D01*
X133794714Y-145996819D02*
X134032809Y-145996819D01*
X134032809Y-145996819D02*
X134128047Y-145949200D01*
X134128047Y-145949200D02*
X134175666Y-145901580D01*
X134175666Y-145901580D02*
X134223285Y-145806342D01*
X134223285Y-145806342D02*
X134223285Y-145711104D01*
X134223285Y-145711104D02*
X134175666Y-145615866D01*
X134175666Y-145615866D02*
X134128047Y-145568247D01*
X134128047Y-145568247D02*
X134032809Y-145520628D01*
X134032809Y-145520628D02*
X133842333Y-145473009D01*
X133842333Y-145473009D02*
X133747095Y-145425390D01*
X133747095Y-145425390D02*
X133699476Y-145377771D01*
X133699476Y-145377771D02*
X133651857Y-145282533D01*
X133651857Y-145282533D02*
X133651857Y-145187295D01*
X133651857Y-145187295D02*
X133699476Y-145092057D01*
X133699476Y-145092057D02*
X133747095Y-145044438D01*
X133747095Y-145044438D02*
X133842333Y-144996819D01*
X133842333Y-144996819D02*
X134080428Y-144996819D01*
X134080428Y-144996819D02*
X134223285Y-145044438D01*
X135032809Y-145949200D02*
X134937571Y-145996819D01*
X134937571Y-145996819D02*
X134747095Y-145996819D01*
X134747095Y-145996819D02*
X134651857Y-145949200D01*
X134651857Y-145949200D02*
X134604238Y-145853961D01*
X134604238Y-145853961D02*
X134604238Y-145473009D01*
X134604238Y-145473009D02*
X134651857Y-145377771D01*
X134651857Y-145377771D02*
X134747095Y-145330152D01*
X134747095Y-145330152D02*
X134937571Y-145330152D01*
X134937571Y-145330152D02*
X135032809Y-145377771D01*
X135032809Y-145377771D02*
X135080428Y-145473009D01*
X135080428Y-145473009D02*
X135080428Y-145568247D01*
X135080428Y-145568247D02*
X134604238Y-145663485D01*
X135509000Y-145996819D02*
X135509000Y-145330152D01*
X135509000Y-145520628D02*
X135556619Y-145425390D01*
X135556619Y-145425390D02*
X135604238Y-145377771D01*
X135604238Y-145377771D02*
X135699476Y-145330152D01*
X135699476Y-145330152D02*
X135794714Y-145330152D01*
X136032810Y-145330152D02*
X136270905Y-145996819D01*
X136270905Y-145996819D02*
X136509000Y-145330152D01*
X137032810Y-145996819D02*
X136937572Y-145949200D01*
X136937572Y-145949200D02*
X136889953Y-145901580D01*
X136889953Y-145901580D02*
X136842334Y-145806342D01*
X136842334Y-145806342D02*
X136842334Y-145520628D01*
X136842334Y-145520628D02*
X136889953Y-145425390D01*
X136889953Y-145425390D02*
X136937572Y-145377771D01*
X136937572Y-145377771D02*
X137032810Y-145330152D01*
X137032810Y-145330152D02*
X137175667Y-145330152D01*
X137175667Y-145330152D02*
X137270905Y-145377771D01*
X137270905Y-145377771D02*
X137318524Y-145425390D01*
X137318524Y-145425390D02*
X137366143Y-145520628D01*
X137366143Y-145520628D02*
X137366143Y-145806342D01*
X137366143Y-145806342D02*
X137318524Y-145901580D01*
X137318524Y-145901580D02*
X137270905Y-145949200D01*
X137270905Y-145949200D02*
X137175667Y-145996819D01*
X137175667Y-145996819D02*
X137032810Y-145996819D01*
X135139466Y-138537619D02*
X135139466Y-139251904D01*
X135139466Y-139251904D02*
X135091847Y-139394761D01*
X135091847Y-139394761D02*
X134996609Y-139490000D01*
X134996609Y-139490000D02*
X134853752Y-139537619D01*
X134853752Y-139537619D02*
X134758514Y-139537619D01*
X135520419Y-138537619D02*
X136139466Y-138537619D01*
X136139466Y-138537619D02*
X135806133Y-138918571D01*
X135806133Y-138918571D02*
X135948990Y-138918571D01*
X135948990Y-138918571D02*
X136044228Y-138966190D01*
X136044228Y-138966190D02*
X136091847Y-139013809D01*
X136091847Y-139013809D02*
X136139466Y-139109047D01*
X136139466Y-139109047D02*
X136139466Y-139347142D01*
X136139466Y-139347142D02*
X136091847Y-139442380D01*
X136091847Y-139442380D02*
X136044228Y-139490000D01*
X136044228Y-139490000D02*
X135948990Y-139537619D01*
X135948990Y-139537619D02*
X135663276Y-139537619D01*
X135663276Y-139537619D02*
X135568038Y-139490000D01*
X135568038Y-139490000D02*
X135520419Y-139442380D01*
X194079019Y-105062066D02*
X194079019Y-105538256D01*
X194079019Y-105538256D02*
X193079019Y-105538256D01*
X194079019Y-104728732D02*
X193079019Y-104728732D01*
X193079019Y-104728732D02*
X193793304Y-104395399D01*
X193793304Y-104395399D02*
X193079019Y-104062066D01*
X193079019Y-104062066D02*
X194079019Y-104062066D01*
X193174257Y-103633494D02*
X193126638Y-103585875D01*
X193126638Y-103585875D02*
X193079019Y-103490637D01*
X193079019Y-103490637D02*
X193079019Y-103252542D01*
X193079019Y-103252542D02*
X193126638Y-103157304D01*
X193126638Y-103157304D02*
X193174257Y-103109685D01*
X193174257Y-103109685D02*
X193269495Y-103062066D01*
X193269495Y-103062066D02*
X193364733Y-103062066D01*
X193364733Y-103062066D02*
X193507590Y-103109685D01*
X193507590Y-103109685D02*
X194079019Y-103681113D01*
X194079019Y-103681113D02*
X194079019Y-103062066D01*
X193079019Y-102157304D02*
X193079019Y-102633494D01*
X193079019Y-102633494D02*
X193555209Y-102681113D01*
X193555209Y-102681113D02*
X193507590Y-102633494D01*
X193507590Y-102633494D02*
X193459971Y-102538256D01*
X193459971Y-102538256D02*
X193459971Y-102300161D01*
X193459971Y-102300161D02*
X193507590Y-102204923D01*
X193507590Y-102204923D02*
X193555209Y-102157304D01*
X193555209Y-102157304D02*
X193650447Y-102109685D01*
X193650447Y-102109685D02*
X193888542Y-102109685D01*
X193888542Y-102109685D02*
X193983780Y-102157304D01*
X193983780Y-102157304D02*
X194031400Y-102204923D01*
X194031400Y-102204923D02*
X194079019Y-102300161D01*
X194079019Y-102300161D02*
X194079019Y-102538256D01*
X194079019Y-102538256D02*
X194031400Y-102633494D01*
X194031400Y-102633494D02*
X193983780Y-102681113D01*
X194079019Y-101633494D02*
X194079019Y-101443018D01*
X194079019Y-101443018D02*
X194031400Y-101347780D01*
X194031400Y-101347780D02*
X193983780Y-101300161D01*
X193983780Y-101300161D02*
X193840923Y-101204923D01*
X193840923Y-101204923D02*
X193650447Y-101157304D01*
X193650447Y-101157304D02*
X193269495Y-101157304D01*
X193269495Y-101157304D02*
X193174257Y-101204923D01*
X193174257Y-101204923D02*
X193126638Y-101252542D01*
X193126638Y-101252542D02*
X193079019Y-101347780D01*
X193079019Y-101347780D02*
X193079019Y-101538256D01*
X193079019Y-101538256D02*
X193126638Y-101633494D01*
X193126638Y-101633494D02*
X193174257Y-101681113D01*
X193174257Y-101681113D02*
X193269495Y-101728732D01*
X193269495Y-101728732D02*
X193507590Y-101728732D01*
X193507590Y-101728732D02*
X193602828Y-101681113D01*
X193602828Y-101681113D02*
X193650447Y-101633494D01*
X193650447Y-101633494D02*
X193698066Y-101538256D01*
X193698066Y-101538256D02*
X193698066Y-101347780D01*
X193698066Y-101347780D02*
X193650447Y-101252542D01*
X193650447Y-101252542D02*
X193602828Y-101204923D01*
X193602828Y-101204923D02*
X193507590Y-101157304D01*
X193079019Y-100300161D02*
X193079019Y-100490637D01*
X193079019Y-100490637D02*
X193126638Y-100585875D01*
X193126638Y-100585875D02*
X193174257Y-100633494D01*
X193174257Y-100633494D02*
X193317114Y-100728732D01*
X193317114Y-100728732D02*
X193507590Y-100776351D01*
X193507590Y-100776351D02*
X193888542Y-100776351D01*
X193888542Y-100776351D02*
X193983780Y-100728732D01*
X193983780Y-100728732D02*
X194031400Y-100681113D01*
X194031400Y-100681113D02*
X194079019Y-100585875D01*
X194079019Y-100585875D02*
X194079019Y-100395399D01*
X194079019Y-100395399D02*
X194031400Y-100300161D01*
X194031400Y-100300161D02*
X193983780Y-100252542D01*
X193983780Y-100252542D02*
X193888542Y-100204923D01*
X193888542Y-100204923D02*
X193650447Y-100204923D01*
X193650447Y-100204923D02*
X193555209Y-100252542D01*
X193555209Y-100252542D02*
X193507590Y-100300161D01*
X193507590Y-100300161D02*
X193459971Y-100395399D01*
X193459971Y-100395399D02*
X193459971Y-100585875D01*
X193459971Y-100585875D02*
X193507590Y-100681113D01*
X193507590Y-100681113D02*
X193555209Y-100728732D01*
X193555209Y-100728732D02*
X193650447Y-100776351D01*
D12*
X160301130Y-71635133D02*
X160324940Y-71658942D01*
X160324940Y-71658942D02*
X160348749Y-71730371D01*
X160348749Y-71730371D02*
X160348749Y-71777990D01*
X160348749Y-71777990D02*
X160324940Y-71849418D01*
X160324940Y-71849418D02*
X160277320Y-71897037D01*
X160277320Y-71897037D02*
X160229701Y-71920847D01*
X160229701Y-71920847D02*
X160134463Y-71944656D01*
X160134463Y-71944656D02*
X160063035Y-71944656D01*
X160063035Y-71944656D02*
X159967797Y-71920847D01*
X159967797Y-71920847D02*
X159920178Y-71897037D01*
X159920178Y-71897037D02*
X159872559Y-71849418D01*
X159872559Y-71849418D02*
X159848749Y-71777990D01*
X159848749Y-71777990D02*
X159848749Y-71730371D01*
X159848749Y-71730371D02*
X159872559Y-71658942D01*
X159872559Y-71658942D02*
X159896368Y-71635133D01*
X159848749Y-71182752D02*
X159848749Y-71420847D01*
X159848749Y-71420847D02*
X160086844Y-71444656D01*
X160086844Y-71444656D02*
X160063035Y-71420847D01*
X160063035Y-71420847D02*
X160039225Y-71373228D01*
X160039225Y-71373228D02*
X160039225Y-71254180D01*
X160039225Y-71254180D02*
X160063035Y-71206561D01*
X160063035Y-71206561D02*
X160086844Y-71182752D01*
X160086844Y-71182752D02*
X160134463Y-71158942D01*
X160134463Y-71158942D02*
X160253511Y-71158942D01*
X160253511Y-71158942D02*
X160301130Y-71182752D01*
X160301130Y-71182752D02*
X160324940Y-71206561D01*
X160324940Y-71206561D02*
X160348749Y-71254180D01*
X160348749Y-71254180D02*
X160348749Y-71373228D01*
X160348749Y-71373228D02*
X160324940Y-71420847D01*
X160324940Y-71420847D02*
X160301130Y-71444656D01*
D10*
X193540319Y-72369133D02*
X192540319Y-72369133D01*
X192540319Y-72369133D02*
X193254604Y-72035800D01*
X193254604Y-72035800D02*
X192540319Y-71702467D01*
X192540319Y-71702467D02*
X193540319Y-71702467D01*
X193540319Y-71083419D02*
X193492700Y-71178657D01*
X193492700Y-71178657D02*
X193445080Y-71226276D01*
X193445080Y-71226276D02*
X193349842Y-71273895D01*
X193349842Y-71273895D02*
X193064128Y-71273895D01*
X193064128Y-71273895D02*
X192968890Y-71226276D01*
X192968890Y-71226276D02*
X192921271Y-71178657D01*
X192921271Y-71178657D02*
X192873652Y-71083419D01*
X192873652Y-71083419D02*
X192873652Y-70940562D01*
X192873652Y-70940562D02*
X192921271Y-70845324D01*
X192921271Y-70845324D02*
X192968890Y-70797705D01*
X192968890Y-70797705D02*
X193064128Y-70750086D01*
X193064128Y-70750086D02*
X193349842Y-70750086D01*
X193349842Y-70750086D02*
X193445080Y-70797705D01*
X193445080Y-70797705D02*
X193492700Y-70845324D01*
X193492700Y-70845324D02*
X193540319Y-70940562D01*
X193540319Y-70940562D02*
X193540319Y-71083419D01*
X192873652Y-70464371D02*
X192873652Y-70083419D01*
X192540319Y-70321514D02*
X193397461Y-70321514D01*
X193397461Y-70321514D02*
X193492700Y-70273895D01*
X193492700Y-70273895D02*
X193540319Y-70178657D01*
X193540319Y-70178657D02*
X193540319Y-70083419D01*
X193540319Y-69607228D02*
X193492700Y-69702466D01*
X193492700Y-69702466D02*
X193445080Y-69750085D01*
X193445080Y-69750085D02*
X193349842Y-69797704D01*
X193349842Y-69797704D02*
X193064128Y-69797704D01*
X193064128Y-69797704D02*
X192968890Y-69750085D01*
X192968890Y-69750085D02*
X192921271Y-69702466D01*
X192921271Y-69702466D02*
X192873652Y-69607228D01*
X192873652Y-69607228D02*
X192873652Y-69464371D01*
X192873652Y-69464371D02*
X192921271Y-69369133D01*
X192921271Y-69369133D02*
X192968890Y-69321514D01*
X192968890Y-69321514D02*
X193064128Y-69273895D01*
X193064128Y-69273895D02*
X193349842Y-69273895D01*
X193349842Y-69273895D02*
X193445080Y-69321514D01*
X193445080Y-69321514D02*
X193492700Y-69369133D01*
X193492700Y-69369133D02*
X193540319Y-69464371D01*
X193540319Y-69464371D02*
X193540319Y-69607228D01*
X193540319Y-68845323D02*
X192873652Y-68845323D01*
X193064128Y-68845323D02*
X192968890Y-68797704D01*
X192968890Y-68797704D02*
X192921271Y-68750085D01*
X192921271Y-68750085D02*
X192873652Y-68654847D01*
X192873652Y-68654847D02*
X192873652Y-68559609D01*
X198810019Y-71345323D02*
X199524304Y-71345323D01*
X199524304Y-71345323D02*
X199667161Y-71392942D01*
X199667161Y-71392942D02*
X199762400Y-71488180D01*
X199762400Y-71488180D02*
X199810019Y-71631037D01*
X199810019Y-71631037D02*
X199810019Y-71726275D01*
X199810019Y-70345323D02*
X199810019Y-70916751D01*
X199810019Y-70631037D02*
X198810019Y-70631037D01*
X198810019Y-70631037D02*
X198952876Y-70726275D01*
X198952876Y-70726275D02*
X199048114Y-70821513D01*
X199048114Y-70821513D02*
X199095733Y-70916751D01*
X198810019Y-70011989D02*
X198810019Y-69392942D01*
X198810019Y-69392942D02*
X199190971Y-69726275D01*
X199190971Y-69726275D02*
X199190971Y-69583418D01*
X199190971Y-69583418D02*
X199238590Y-69488180D01*
X199238590Y-69488180D02*
X199286209Y-69440561D01*
X199286209Y-69440561D02*
X199381447Y-69392942D01*
X199381447Y-69392942D02*
X199619542Y-69392942D01*
X199619542Y-69392942D02*
X199714780Y-69440561D01*
X199714780Y-69440561D02*
X199762400Y-69488180D01*
X199762400Y-69488180D02*
X199810019Y-69583418D01*
X199810019Y-69583418D02*
X199810019Y-69869132D01*
X199810019Y-69869132D02*
X199762400Y-69964370D01*
X199762400Y-69964370D02*
X199714780Y-70011989D01*
D12*
X185793866Y-127103330D02*
X185770057Y-127127140D01*
X185770057Y-127127140D02*
X185698628Y-127150949D01*
X185698628Y-127150949D02*
X185651009Y-127150949D01*
X185651009Y-127150949D02*
X185579581Y-127127140D01*
X185579581Y-127127140D02*
X185531962Y-127079520D01*
X185531962Y-127079520D02*
X185508152Y-127031901D01*
X185508152Y-127031901D02*
X185484343Y-126936663D01*
X185484343Y-126936663D02*
X185484343Y-126865235D01*
X185484343Y-126865235D02*
X185508152Y-126769997D01*
X185508152Y-126769997D02*
X185531962Y-126722378D01*
X185531962Y-126722378D02*
X185579581Y-126674759D01*
X185579581Y-126674759D02*
X185651009Y-126650949D01*
X185651009Y-126650949D02*
X185698628Y-126650949D01*
X185698628Y-126650949D02*
X185770057Y-126674759D01*
X185770057Y-126674759D02*
X185793866Y-126698568D01*
X185960533Y-126650949D02*
X186270057Y-126650949D01*
X186270057Y-126650949D02*
X186103390Y-126841425D01*
X186103390Y-126841425D02*
X186174819Y-126841425D01*
X186174819Y-126841425D02*
X186222438Y-126865235D01*
X186222438Y-126865235D02*
X186246247Y-126889044D01*
X186246247Y-126889044D02*
X186270057Y-126936663D01*
X186270057Y-126936663D02*
X186270057Y-127055711D01*
X186270057Y-127055711D02*
X186246247Y-127103330D01*
X186246247Y-127103330D02*
X186222438Y-127127140D01*
X186222438Y-127127140D02*
X186174819Y-127150949D01*
X186174819Y-127150949D02*
X186031962Y-127150949D01*
X186031962Y-127150949D02*
X185984343Y-127127140D01*
X185984343Y-127127140D02*
X185960533Y-127103330D01*
D10*
X179342466Y-141575788D02*
X179342466Y-142290073D01*
X179342466Y-142290073D02*
X179294847Y-142432930D01*
X179294847Y-142432930D02*
X179199609Y-142528169D01*
X179199609Y-142528169D02*
X179056752Y-142575788D01*
X179056752Y-142575788D02*
X178961514Y-142575788D01*
X180247228Y-141909121D02*
X180247228Y-142575788D01*
X180009133Y-141528169D02*
X179771038Y-142242454D01*
X179771038Y-142242454D02*
X180390085Y-142242454D01*
X155303790Y-146092057D02*
X155208552Y-146044438D01*
X155208552Y-146044438D02*
X155113314Y-145949200D01*
X155113314Y-145949200D02*
X154970457Y-145806342D01*
X154970457Y-145806342D02*
X154875219Y-145758723D01*
X154875219Y-145758723D02*
X154779981Y-145758723D01*
X154827600Y-145996819D02*
X154732362Y-145949200D01*
X154732362Y-145949200D02*
X154637124Y-145853961D01*
X154637124Y-145853961D02*
X154589505Y-145663485D01*
X154589505Y-145663485D02*
X154589505Y-145330152D01*
X154589505Y-145330152D02*
X154637124Y-145139676D01*
X154637124Y-145139676D02*
X154732362Y-145044438D01*
X154732362Y-145044438D02*
X154827600Y-144996819D01*
X154827600Y-144996819D02*
X155018076Y-144996819D01*
X155018076Y-144996819D02*
X155113314Y-145044438D01*
X155113314Y-145044438D02*
X155208552Y-145139676D01*
X155208552Y-145139676D02*
X155256171Y-145330152D01*
X155256171Y-145330152D02*
X155256171Y-145663485D01*
X155256171Y-145663485D02*
X155208552Y-145853961D01*
X155208552Y-145853961D02*
X155113314Y-145949200D01*
X155113314Y-145949200D02*
X155018076Y-145996819D01*
X155018076Y-145996819D02*
X154827600Y-145996819D01*
X155541886Y-144996819D02*
X156113314Y-144996819D01*
X155827600Y-145996819D02*
X155827600Y-144996819D01*
X157018076Y-145996819D02*
X156684743Y-145520628D01*
X156446648Y-145996819D02*
X156446648Y-144996819D01*
X156446648Y-144996819D02*
X156827600Y-144996819D01*
X156827600Y-144996819D02*
X156922838Y-145044438D01*
X156922838Y-145044438D02*
X156970457Y-145092057D01*
X156970457Y-145092057D02*
X157018076Y-145187295D01*
X157018076Y-145187295D02*
X157018076Y-145330152D01*
X157018076Y-145330152D02*
X156970457Y-145425390D01*
X156970457Y-145425390D02*
X156922838Y-145473009D01*
X156922838Y-145473009D02*
X156827600Y-145520628D01*
X156827600Y-145520628D02*
X156446648Y-145520628D01*
X157446648Y-145615866D02*
X158208553Y-145615866D01*
X158827600Y-145425390D02*
X158732362Y-145377771D01*
X158732362Y-145377771D02*
X158684743Y-145330152D01*
X158684743Y-145330152D02*
X158637124Y-145234914D01*
X158637124Y-145234914D02*
X158637124Y-145187295D01*
X158637124Y-145187295D02*
X158684743Y-145092057D01*
X158684743Y-145092057D02*
X158732362Y-145044438D01*
X158732362Y-145044438D02*
X158827600Y-144996819D01*
X158827600Y-144996819D02*
X159018076Y-144996819D01*
X159018076Y-144996819D02*
X159113314Y-145044438D01*
X159113314Y-145044438D02*
X159160933Y-145092057D01*
X159160933Y-145092057D02*
X159208552Y-145187295D01*
X159208552Y-145187295D02*
X159208552Y-145234914D01*
X159208552Y-145234914D02*
X159160933Y-145330152D01*
X159160933Y-145330152D02*
X159113314Y-145377771D01*
X159113314Y-145377771D02*
X159018076Y-145425390D01*
X159018076Y-145425390D02*
X158827600Y-145425390D01*
X158827600Y-145425390D02*
X158732362Y-145473009D01*
X158732362Y-145473009D02*
X158684743Y-145520628D01*
X158684743Y-145520628D02*
X158637124Y-145615866D01*
X158637124Y-145615866D02*
X158637124Y-145806342D01*
X158637124Y-145806342D02*
X158684743Y-145901580D01*
X158684743Y-145901580D02*
X158732362Y-145949200D01*
X158732362Y-145949200D02*
X158827600Y-145996819D01*
X158827600Y-145996819D02*
X159018076Y-145996819D01*
X159018076Y-145996819D02*
X159113314Y-145949200D01*
X159113314Y-145949200D02*
X159160933Y-145901580D01*
X159160933Y-145901580D02*
X159208552Y-145806342D01*
X159208552Y-145806342D02*
X159208552Y-145615866D01*
X159208552Y-145615866D02*
X159160933Y-145520628D01*
X159160933Y-145520628D02*
X159113314Y-145473009D01*
X159113314Y-145473009D02*
X159018076Y-145425390D01*
X159589505Y-145711104D02*
X160065695Y-145711104D01*
X159494267Y-145996819D02*
X159827600Y-144996819D01*
X159827600Y-144996819D02*
X160160933Y-145996819D01*
X156994266Y-138656219D02*
X156994266Y-139370504D01*
X156994266Y-139370504D02*
X156946647Y-139513361D01*
X156946647Y-139513361D02*
X156851409Y-139608600D01*
X156851409Y-139608600D02*
X156708552Y-139656219D01*
X156708552Y-139656219D02*
X156613314Y-139656219D01*
X157994266Y-139656219D02*
X157422838Y-139656219D01*
X157708552Y-139656219D02*
X157708552Y-138656219D01*
X157708552Y-138656219D02*
X157613314Y-138799076D01*
X157613314Y-138799076D02*
X157518076Y-138894314D01*
X157518076Y-138894314D02*
X157422838Y-138941933D01*
D13*
%TO.C,J5*%
X161061000Y-87990200D02*
X162966000Y-87990200D01*
X161061000Y-100690200D02*
X161061000Y-87990200D01*
X162966000Y-87990200D02*
X163601000Y-88625200D01*
X163601000Y-88625200D02*
X163601000Y-100690200D01*
X163601000Y-100690200D02*
X161061000Y-100690200D01*
%TO.C,C1*%
X169038523Y-131038600D02*
G75*
G02*
X159038523Y-131038600I-5000000J0D01*
G01*
X159038523Y-131038600D02*
G75*
G02*
X169038523Y-131038600I5000000J0D01*
G01*
X160249662Y-128351100D02*
X160249662Y-129351100D01*
X159749662Y-128851100D02*
X160749662Y-128851100D01*
D14*
%TO.C,U3*%
X160177600Y-122890400D02*
X180497600Y-122890400D01*
X160177600Y-102570400D02*
X160177600Y-122890400D01*
X180497600Y-102570400D02*
X160177600Y-102570400D01*
X180497600Y-122890400D02*
X180497600Y-102570400D01*
D15*
X178057600Y-123458600D02*
G75*
G02*
X177857600Y-123458600I-100000J0D01*
G01*
X177857600Y-123458600D02*
G75*
G02*
X178057600Y-123458600I100000J0D01*
G01*
D13*
%TO.C,D1*%
X176388600Y-128063800D02*
X176388600Y-130863800D01*
X174588600Y-128063800D02*
X176388600Y-128063800D01*
X175488600Y-128713800D02*
X175488600Y-129113800D01*
X175488600Y-129113800D02*
X176038600Y-129113800D01*
X175488600Y-129113800D02*
X174938600Y-129113800D01*
X175488600Y-129113800D02*
X175888600Y-129713800D01*
X175888600Y-129713800D02*
X175088600Y-129713800D01*
X175488600Y-129713800D02*
X175488600Y-130213800D01*
X175088600Y-129713800D02*
X175488600Y-129113800D01*
X176388600Y-130863800D02*
X174588600Y-130863800D01*
X174588600Y-130863800D02*
X174588600Y-128063800D01*
%TO.C,R1*%
X178669700Y-127952600D02*
X178669700Y-129552600D01*
X177844700Y-127952600D02*
X178669700Y-127952600D01*
X178669700Y-129552600D02*
X177844700Y-129552600D01*
X177844700Y-129552600D02*
X177844700Y-127952600D01*
%TO.C,Q1*%
X170904000Y-127291300D02*
X172504000Y-127291300D01*
X170904000Y-130191300D02*
X170904000Y-127291300D01*
X172104000Y-130191300D02*
X170904000Y-130191300D01*
X172504000Y-127291300D02*
X172504000Y-129791300D01*
X172504000Y-129791300D02*
X172104000Y-130191300D01*
%TO.C,J6*%
X165557200Y-77343000D02*
X163017200Y-77343000D01*
X165557200Y-67818000D02*
X165557200Y-77343000D01*
X164922200Y-67183000D02*
X165557200Y-67818000D01*
X163017200Y-77343000D02*
X163017200Y-67183000D01*
X163017200Y-67183000D02*
X164922200Y-67183000D01*
%TO.C,J3*%
X130522800Y-138382800D02*
X130522800Y-144132800D01*
X130522800Y-144132800D02*
X140422800Y-144132800D01*
X137972800Y-143132800D02*
X137347800Y-144132800D01*
X138597800Y-144132800D02*
X137972800Y-143132800D01*
X140422800Y-138382800D02*
X130522800Y-138382800D01*
X140422800Y-144132800D02*
X140422800Y-138382800D01*
D15*
%TO.C,SW1*%
X185797600Y-136525000D02*
G75*
G02*
X185597600Y-136525000I-100000J0D01*
G01*
X185597600Y-136525000D02*
G75*
G02*
X185797600Y-136525000I100000J0D01*
G01*
D14*
X186197600Y-144025000D02*
X186197600Y-129025000D01*
X207197600Y-144025000D02*
X186197600Y-144025000D01*
X207197600Y-129025000D02*
X207197600Y-144025000D01*
X186197600Y-129025000D02*
X207197600Y-129025000D01*
D13*
%TO.C,U1*%
X183050400Y-81171600D02*
X183050400Y-124771600D01*
X183050400Y-124771600D02*
X204350400Y-124771600D01*
X183540400Y-81381600D02*
X186080400Y-81381600D01*
X183540400Y-83921600D02*
X183540400Y-81381600D01*
X183540400Y-122021600D02*
X186080400Y-122021600D01*
X183540400Y-123926600D02*
X183540400Y-122021600D01*
X184175400Y-124561600D02*
X183540400Y-123926600D01*
X186080400Y-81381600D02*
X186080400Y-83921600D01*
X186080400Y-83921600D02*
X183540400Y-83921600D01*
X186080400Y-122021600D02*
X186080400Y-124561600D01*
X186080400Y-124561600D02*
X184175400Y-124561600D01*
X201320400Y-81381600D02*
X203860400Y-81381600D01*
X201320400Y-83921600D02*
X201320400Y-81381600D01*
X201320400Y-122021600D02*
X203860400Y-122021600D01*
X201320400Y-124561600D02*
X201320400Y-122021600D01*
X203860400Y-81381600D02*
X203860400Y-83921600D01*
X203860400Y-83921600D02*
X201320400Y-83921600D01*
X203860400Y-122021600D02*
X203860400Y-124561600D01*
X203860400Y-124561600D02*
X201320400Y-124561600D01*
X204350400Y-81171600D02*
X183050400Y-81171600D01*
X204350400Y-124771600D02*
X204350400Y-81171600D01*
X187044399Y-118211600D02*
G75*
G02*
X183846401Y-118211600I-1598999J0D01*
G01*
X183846401Y-118211600D02*
G75*
G02*
X187044399Y-118211600I1598999J0D01*
G01*
X203554400Y-87731600D02*
G75*
G02*
X200356400Y-87731600I-1599000J0D01*
G01*
X200356400Y-87731600D02*
G75*
G02*
X203554400Y-87731600I1599000J0D01*
G01*
%TO.C,C5*%
X159496600Y-72551800D02*
X159496600Y-70551800D01*
X160746600Y-72551800D02*
X159496600Y-72551800D01*
X159496600Y-70551800D02*
X160746600Y-70551800D01*
X160746600Y-70551800D02*
X160746600Y-72551800D01*
%TO.C,J13*%
X194305200Y-61835800D02*
X194305200Y-79235800D01*
X194305200Y-77410800D02*
X195305200Y-76785800D01*
X194305200Y-79235800D02*
X200055200Y-79235800D01*
X195305200Y-76785800D02*
X194305200Y-76160800D01*
X200055200Y-61835800D02*
X194305200Y-61835800D01*
X200055200Y-79235800D02*
X200055200Y-61835800D01*
%TO.C,C3*%
X184877200Y-126298800D02*
X186877200Y-126298800D01*
X184877200Y-127548800D02*
X184877200Y-126298800D01*
X186877200Y-126298800D02*
X186877200Y-127548800D01*
X186877200Y-127548800D02*
X184877200Y-127548800D01*
%TO.C,J4*%
X183675800Y-138920969D02*
G75*
G02*
X180675800Y-138920969I-1500000J0D01*
G01*
X180675800Y-138920969D02*
G75*
G02*
X183675800Y-138920969I1500000J0D01*
G01*
X178675800Y-138920969D02*
G75*
G02*
X175675800Y-138920969I-1500000J0D01*
G01*
X175675800Y-138920969D02*
G75*
G02*
X178675800Y-138920969I1500000J0D01*
G01*
X184675800Y-143520969D02*
X175175800Y-143520969D01*
X184675800Y-133720969D02*
X184675800Y-143520969D01*
X183313800Y-137965969D02*
X181220800Y-140058969D01*
X183130800Y-137782969D02*
X181037800Y-139875969D01*
X178313800Y-137965969D02*
X176220800Y-140058969D01*
X178130800Y-137782969D02*
X176037800Y-139875969D01*
X175175800Y-143520969D02*
X174675800Y-143020969D01*
X174675800Y-143020969D02*
X184675800Y-143020969D01*
X174675800Y-143020969D02*
X174675800Y-133720969D01*
X174675800Y-141520969D02*
X184675800Y-141520969D01*
X174675800Y-136620969D02*
X184675800Y-136620969D01*
X174675800Y-133720969D02*
X184675800Y-133720969D01*
%TO.C,J1*%
X172277600Y-144251400D02*
X172277600Y-138501400D01*
X172277600Y-138501400D02*
X142377600Y-138501400D01*
X170452600Y-144251400D02*
X169827600Y-143251400D01*
X169827600Y-143251400D02*
X169202600Y-144251400D01*
X142377600Y-144251400D02*
X172277600Y-144251400D01*
X142377600Y-138501400D02*
X142377600Y-144251400D01*
%TD*%
M02*
