%TF.GenerationSoftware,KiCad,Pcbnew,9.0.3*%
%TF.CreationDate,2025-08-18T13:19:13+07:00*%
%TF.ProjectId,shield,73686965-6c64-42e6-9b69-6361645f7063,rev?*%
%TF.SameCoordinates,Original*%
%TF.FileFunction,Copper,L1,Top*%
%TF.FilePolarity,Positive*%
%FSLAX46Y46*%
G04 Gerber Fmt 4.6, Leading zero omitted, Abs format (unit mm)*
G04 Created by KiCad (PCBNEW 9.0.3) date 2025-08-18 13:19:13*
%MOMM*%
%LPD*%
G01*
G04 APERTURE LIST*
G04 Aperture macros list*
%AMRoundRect*
0 Rectangle with rounded corners*
0 $1 Rounding radius*
0 $2 $3 $4 $5 $6 $7 $8 $9 X,Y pos of 4 corners*
0 Add a 4 corners polygon primitive as box body*
4,1,4,$2,$3,$4,$5,$6,$7,$8,$9,$2,$3,0*
0 Add four circle primitives for the rounded corners*
1,1,$1+$1,$2,$3*
1,1,$1+$1,$4,$5*
1,1,$1+$1,$6,$7*
1,1,$1+$1,$8,$9*
0 Add four rect primitives between the rounded corners*
20,1,$1+$1,$2,$3,$4,$5,0*
20,1,$1+$1,$4,$5,$6,$7,0*
20,1,$1+$1,$6,$7,$8,$9,0*
20,1,$1+$1,$8,$9,$2,$3,0*%
G04 Aperture macros list end*
%TA.AperFunction,ComponentPad*%
%ADD10RoundRect,0.250000X-1.050000X-1.050000X1.050000X-1.050000X1.050000X1.050000X-1.050000X1.050000X0*%
%TD*%
%TA.AperFunction,ComponentPad*%
%ADD11C,2.600000*%
%TD*%
%TA.AperFunction,ComponentPad*%
%ADD12RoundRect,0.250000X1.350000X1.350000X-1.350000X1.350000X-1.350000X-1.350000X1.350000X-1.350000X0*%
%TD*%
%TA.AperFunction,ComponentPad*%
%ADD13C,3.200000*%
%TD*%
%TA.AperFunction,ComponentPad*%
%ADD14R,1.700000X1.700000*%
%TD*%
%TA.AperFunction,ComponentPad*%
%ADD15C,1.700000*%
%TD*%
%TA.AperFunction,SMDPad,CuDef*%
%ADD16RoundRect,0.250000X0.475000X-0.337500X0.475000X0.337500X-0.475000X0.337500X-0.475000X-0.337500X0*%
%TD*%
%TA.AperFunction,ComponentPad*%
%ADD17RoundRect,0.250000X-1.350000X-1.350000X1.350000X-1.350000X1.350000X1.350000X-1.350000X1.350000X0*%
%TD*%
%TA.AperFunction,ComponentPad*%
%ADD18RoundRect,0.250000X0.600000X0.725000X-0.600000X0.725000X-0.600000X-0.725000X0.600000X-0.725000X0*%
%TD*%
%TA.AperFunction,ComponentPad*%
%ADD19O,1.700000X1.950000*%
%TD*%
%TA.AperFunction,SMDPad,CuDef*%
%ADD20RoundRect,0.250000X-0.475000X0.337500X-0.475000X-0.337500X0.475000X-0.337500X0.475000X0.337500X0*%
%TD*%
%TA.AperFunction,ComponentPad*%
%ADD21RoundRect,0.250000X-0.750000X-0.750000X0.750000X-0.750000X0.750000X0.750000X-0.750000X0.750000X0*%
%TD*%
%TA.AperFunction,ComponentPad*%
%ADD22C,2.000000*%
%TD*%
%TA.AperFunction,ComponentPad*%
%ADD23R,2.540000X2.540000*%
%TD*%
%TA.AperFunction,ComponentPad*%
%ADD24C,2.540000*%
%TD*%
%TA.AperFunction,ViaPad*%
%ADD25C,0.700000*%
%TD*%
%TA.AperFunction,Conductor*%
%ADD26C,1.400000*%
%TD*%
%TA.AperFunction,Conductor*%
%ADD27C,0.300000*%
%TD*%
%TA.AperFunction,Conductor*%
%ADD28C,0.800000*%
%TD*%
%TA.AperFunction,Conductor*%
%ADD29C,0.700000*%
%TD*%
%TA.AperFunction,Conductor*%
%ADD30C,1.000000*%
%TD*%
%TA.AperFunction,Conductor*%
%ADD31C,0.781437*%
%TD*%
G04 APERTURE END LIST*
D10*
%TO.P,J4,1,Pin_1*%
%TO.N,Net-(D1-A)*%
X177215800Y-138531600D03*
D11*
%TO.P,J4,2,Pin_2*%
%TO.N,GND*%
X182215800Y-138531600D03*
%TD*%
D12*
%TO.P,D1,1,K*%
%TO.N,VCC*%
X185674000Y-129692400D03*
D13*
%TO.P,D1,2,A*%
%TO.N,Net-(D1-A)*%
X170434000Y-129692400D03*
%TD*%
D14*
%TO.P,J8,1,Pin_1*%
%TO.N,+3V3*%
X115804000Y-72720200D03*
D15*
%TO.P,J8,2,Pin_2*%
%TO.N,Net-(J10-Pin_2)*%
X115804000Y-75260200D03*
%TO.P,J8,3,Pin_3*%
%TO.N,Net-(J10-Pin_3)*%
X115804000Y-77800200D03*
%TO.P,J8,4,Pin_4*%
%TO.N,/GPIO4*%
X115804000Y-80340200D03*
%TO.P,J8,5,Pin_5*%
%TO.N,/GPIO5*%
X115804000Y-82880200D03*
%TO.P,J8,6,Pin_6*%
%TO.N,/GPIO6*%
X115804000Y-85420200D03*
%TO.P,J8,7,Pin_7*%
%TO.N,/GPIO7*%
X115804000Y-87960200D03*
%TO.P,J8,8,Pin_8*%
%TO.N,/GPIO15*%
X115804000Y-90500200D03*
%TO.P,J8,9,Pin_9*%
%TO.N,/GPIO16*%
X115804000Y-93040200D03*
%TO.P,J8,10,Pin_10*%
%TO.N,/GPIO17*%
X115804000Y-95580200D03*
%TO.P,J8,11,Pin_11*%
%TO.N,/GPIO18*%
X115804000Y-98120200D03*
%TO.P,J8,12,Pin_12*%
%TO.N,/GPIO8*%
X115804000Y-100660200D03*
%TO.P,J8,13,Pin_13*%
%TO.N,Net-(J10-Pin_13)*%
X115804000Y-103200200D03*
%TO.P,J8,14,Pin_14*%
%TO.N,Net-(J10-Pin_14)*%
X115804000Y-105740200D03*
%TO.P,J8,15,Pin_15*%
%TO.N,/GPIO9*%
X115804000Y-108280200D03*
%TO.P,J8,16,Pin_16*%
%TO.N,/GPIO10*%
X115804000Y-110820200D03*
%TO.P,J8,17,Pin_17*%
%TO.N,/GPIO11+SDA*%
X115804000Y-113360200D03*
%TO.P,J8,18,Pin_18*%
%TO.N,/GPIO12+SCL*%
X115804000Y-115900200D03*
%TO.P,J8,19,Pin_19*%
%TO.N,/GPIO13*%
X115804000Y-118440200D03*
%TO.P,J8,20,Pin_20*%
%TO.N,/GPIO14*%
X115804000Y-120980200D03*
%TO.P,J8,21,Pin_21*%
%TO.N,+5V*%
X115804000Y-123520200D03*
%TO.P,J8,22,Pin_22*%
%TO.N,GND*%
X115804000Y-126060200D03*
%TD*%
D16*
%TO.P,C3,1*%
%TO.N,VCC*%
X188061600Y-137968900D03*
%TO.P,C3,2*%
%TO.N,GND*%
X188061600Y-135893900D03*
%TD*%
D17*
%TO.P,D2,1,K*%
%TO.N,Net-(D2-K)*%
X170434000Y-121843800D03*
D13*
%TO.P,D2,2,A*%
%TO.N,VCC*%
X185674000Y-121843800D03*
%TD*%
D10*
%TO.P,J15,1,Pin_1*%
%TO.N,Net-(D2-K)*%
X164592000Y-138597200D03*
D11*
%TO.P,J15,2,Pin_2*%
%TO.N,GND*%
X169592000Y-138597200D03*
%TD*%
D18*
%TO.P,J13,1,Pin_1*%
%TO.N,Net-(J13-Pin_1)*%
X143079800Y-140656800D03*
D19*
%TO.P,J13,2,Pin_2*%
%TO.N,GND*%
X140579800Y-140656800D03*
%TO.P,J13,3,Pin_3*%
%TO.N,/GPIO18*%
X138079800Y-140656800D03*
%TO.P,J13,4,Pin_4*%
%TO.N,/GPIO13*%
X135579800Y-140656800D03*
%TO.P,J13,5,Pin_5*%
%TO.N,+5V*%
X133079800Y-140656800D03*
%TO.P,J13,6,Pin_6*%
%TO.N,Net-(J13-Pin_6)*%
X130579800Y-140656800D03*
%TD*%
D14*
%TO.P,J6,1,Pin_1*%
%TO.N,GND*%
X157886800Y-102910800D03*
D15*
%TO.P,J6,2,Pin_2*%
%TO.N,+5V*%
X157886800Y-100370800D03*
%TO.P,J6,3,Pin_3*%
%TO.N,/GPIO12+SCL*%
X157886800Y-97830800D03*
%TO.P,J6,4,Pin_4*%
%TO.N,/GPIO11+SDA*%
X157886800Y-95290800D03*
%TD*%
D14*
%TO.P,J5,1,Pin_1*%
%TO.N,GND*%
X103378000Y-82854800D03*
D15*
%TO.P,J5,2,Pin_2*%
%TO.N,+5V*%
X103378000Y-80314800D03*
%TO.P,J5,3,Pin_3*%
%TO.N,/GPIO14*%
X103378000Y-77774800D03*
%TO.P,J5,4,Pin_4*%
%TO.N,/GPIO17*%
X103378000Y-75234800D03*
%TO.P,J5,5,Pin_5*%
%TO.N,/GPIO15*%
X103378000Y-72694800D03*
%TD*%
D18*
%TO.P,J3,1,Pin_1*%
%TO.N,GND*%
X162433000Y-128600200D03*
D19*
%TO.P,J3,2,Pin_2*%
%TO.N,+5V*%
X159933000Y-128600200D03*
%TO.P,J3,3,Pin_3*%
%TO.N,/GPIO2*%
X157433000Y-128600200D03*
%TD*%
D10*
%TO.P,J14,1,Pin_1*%
%TO.N,Net-(J13-Pin_1)*%
X151119200Y-138678700D03*
D11*
%TO.P,J14,2,Pin_2*%
%TO.N,Net-(J13-Pin_6)*%
X156119200Y-138678700D03*
%TD*%
D14*
%TO.P,J10,1,Pin_1*%
%TO.N,+3V3*%
X109714000Y-72720200D03*
D15*
%TO.P,J10,2,Pin_2*%
%TO.N,Net-(J10-Pin_2)*%
X109714000Y-75260200D03*
%TO.P,J10,3,Pin_3*%
%TO.N,Net-(J10-Pin_3)*%
X109714000Y-77800200D03*
%TO.P,J10,4,Pin_4*%
%TO.N,/GPIO4*%
X109714000Y-80340200D03*
%TO.P,J10,5,Pin_5*%
%TO.N,/GPIO5*%
X109714000Y-82880200D03*
%TO.P,J10,6,Pin_6*%
%TO.N,/GPIO6*%
X109714000Y-85420200D03*
%TO.P,J10,7,Pin_7*%
%TO.N,/GPIO7*%
X109714000Y-87960200D03*
%TO.P,J10,8,Pin_8*%
%TO.N,/GPIO15*%
X109714000Y-90500200D03*
%TO.P,J10,9,Pin_9*%
%TO.N,/GPIO16*%
X109714000Y-93040200D03*
%TO.P,J10,10,Pin_10*%
%TO.N,/GPIO17*%
X109714000Y-95580200D03*
%TO.P,J10,11,Pin_11*%
%TO.N,/GPIO18*%
X109714000Y-98120200D03*
%TO.P,J10,12,Pin_12*%
%TO.N,/GPIO8*%
X109714000Y-100660200D03*
%TO.P,J10,13,Pin_13*%
%TO.N,Net-(J10-Pin_13)*%
X109714000Y-103200200D03*
%TO.P,J10,14,Pin_14*%
%TO.N,Net-(J10-Pin_14)*%
X109714000Y-105740200D03*
%TO.P,J10,15,Pin_15*%
%TO.N,/GPIO9*%
X109714000Y-108280200D03*
%TO.P,J10,16,Pin_16*%
%TO.N,/GPIO10*%
X109714000Y-110820200D03*
%TO.P,J10,17,Pin_17*%
%TO.N,/GPIO11+SDA*%
X109714000Y-113360200D03*
%TO.P,J10,18,Pin_18*%
%TO.N,/GPIO12+SCL*%
X109714000Y-115900200D03*
%TO.P,J10,19,Pin_19*%
%TO.N,/GPIO13*%
X109714000Y-118440200D03*
%TO.P,J10,20,Pin_20*%
%TO.N,/GPIO14*%
X109714000Y-120980200D03*
%TO.P,J10,21,Pin_21*%
%TO.N,+5V*%
X109714000Y-123520200D03*
%TO.P,J10,22,Pin_22*%
%TO.N,GND*%
X109714000Y-126060200D03*
%TD*%
D14*
%TO.P,J2,1,Pin_1*%
%TO.N,+3V3*%
X177749600Y-83434400D03*
D15*
%TO.P,J2,2,Pin_2*%
%TO.N,GND*%
X177749600Y-80894400D03*
%TO.P,J2,3,Pin_3*%
%TO.N,/GPIO12+SCL*%
X177749600Y-78354400D03*
%TO.P,J2,4,Pin_4*%
%TO.N,/GPIO11+SDA*%
X177749600Y-75814400D03*
%TO.P,J2,5,Pin_5*%
%TO.N,/GPIO16*%
X177749600Y-73274400D03*
%TD*%
D14*
%TO.P,J9,1,Pin_1*%
%TO.N,GND*%
X142574000Y-72720200D03*
D15*
%TO.P,J9,2,Pin_2*%
%TO.N,Net-(J11-Pin_2)*%
X142574000Y-75260200D03*
%TO.P,J9,3,Pin_3*%
%TO.N,Net-(J11-Pin_3)*%
X142574000Y-77800200D03*
%TO.P,J9,4,Pin_4*%
%TO.N,/GPIO1*%
X142574000Y-80340200D03*
%TO.P,J9,5,Pin_5*%
%TO.N,/GPIO2*%
X142574000Y-82880200D03*
%TO.P,J9,6,Pin_6*%
%TO.N,Net-(J11-Pin_6)*%
X142574000Y-85420200D03*
%TO.P,J9,7,Pin_7*%
%TO.N,Net-(J11-Pin_7)*%
X142574000Y-87960200D03*
%TO.P,J9,8,Pin_8*%
%TO.N,Net-(J11-Pin_8)*%
X142574000Y-90500200D03*
%TO.P,J9,9,Pin_9*%
%TO.N,Net-(J11-Pin_9)*%
X142574000Y-93040200D03*
%TO.P,J9,10,Pin_10*%
%TO.N,Net-(J11-Pin_10)*%
X142574000Y-95580200D03*
%TO.P,J9,11,Pin_11*%
%TO.N,Net-(J11-Pin_11)*%
X142574000Y-98120200D03*
%TO.P,J9,12,Pin_12*%
%TO.N,Net-(J11-Pin_12)*%
X142574000Y-100660200D03*
%TO.P,J9,13,Pin_13*%
%TO.N,Net-(J11-Pin_13)*%
X142574000Y-103200200D03*
%TO.P,J9,14,Pin_14*%
%TO.N,Net-(J11-Pin_14)*%
X142574000Y-105740200D03*
%TO.P,J9,15,Pin_15*%
%TO.N,Net-(J11-Pin_15)*%
X142574000Y-108280200D03*
%TO.P,J9,16,Pin_16*%
%TO.N,Net-(J11-Pin_16)*%
X142574000Y-110820200D03*
%TO.P,J9,17,Pin_17*%
%TO.N,Net-(J11-Pin_17)*%
X142574000Y-113360200D03*
%TO.P,J9,18,Pin_18*%
%TO.N,Net-(J11-Pin_18)*%
X142574000Y-115900200D03*
%TO.P,J9,19,Pin_19*%
%TO.N,Net-(J11-Pin_19)*%
X142574000Y-118440200D03*
%TO.P,J9,20,Pin_20*%
%TO.N,Net-(J11-Pin_20)*%
X142574000Y-120980200D03*
%TO.P,J9,21,Pin_21*%
%TO.N,GND*%
X142574000Y-123520200D03*
%TO.P,J9,22,Pin_22*%
X142574000Y-126060200D03*
%TD*%
D20*
%TO.P,C5,1*%
%TO.N,+5V*%
X119151400Y-124950400D03*
%TO.P,C5,2*%
%TO.N,GND*%
X119151400Y-127025400D03*
%TD*%
D18*
%TO.P,J1,1,Pin_1*%
%TO.N,/GPIO1*%
X120813200Y-140309600D03*
D19*
%TO.P,J1,2,Pin_2*%
%TO.N,/GPIO10*%
X118313200Y-140309600D03*
%TO.P,J1,3,Pin_3*%
%TO.N,/GPIO9*%
X115813200Y-140309600D03*
%TO.P,J1,4,Pin_4*%
%TO.N,/GPIO8*%
X113313200Y-140309600D03*
%TO.P,J1,5,Pin_5*%
%TO.N,/GPIO7*%
X110813200Y-140309600D03*
%TO.P,J1,6,Pin_6*%
%TO.N,/GPIO6*%
X108313200Y-140309600D03*
%TO.P,J1,7,Pin_7*%
%TO.N,/GPIO5*%
X105813200Y-140309600D03*
%TO.P,J1,8,Pin_8*%
%TO.N,/GPIO4*%
X103313200Y-140309600D03*
%TO.P,J1,9,Pin_9*%
%TO.N,unconnected-(J1-Pin_9-Pad9)*%
X100813200Y-140309600D03*
%TO.P,J1,10,Pin_10*%
%TO.N,+5V*%
X98313200Y-140309600D03*
%TO.P,J1,11,Pin_11*%
%TO.N,GND*%
X95813200Y-140309600D03*
%TD*%
D14*
%TO.P,J11,1,Pin_1*%
%TO.N,GND*%
X148664000Y-72720200D03*
D15*
%TO.P,J11,2,Pin_2*%
%TO.N,Net-(J11-Pin_2)*%
X148664000Y-75260200D03*
%TO.P,J11,3,Pin_3*%
%TO.N,Net-(J11-Pin_3)*%
X148664000Y-77800200D03*
%TO.P,J11,4,Pin_4*%
%TO.N,/GPIO1*%
X148664000Y-80340200D03*
%TO.P,J11,5,Pin_5*%
%TO.N,/GPIO2*%
X148664000Y-82880200D03*
%TO.P,J11,6,Pin_6*%
%TO.N,Net-(J11-Pin_6)*%
X148664000Y-85420200D03*
%TO.P,J11,7,Pin_7*%
%TO.N,Net-(J11-Pin_7)*%
X148664000Y-87960200D03*
%TO.P,J11,8,Pin_8*%
%TO.N,Net-(J11-Pin_8)*%
X148664000Y-90500200D03*
%TO.P,J11,9,Pin_9*%
%TO.N,Net-(J11-Pin_9)*%
X148664000Y-93040200D03*
%TO.P,J11,10,Pin_10*%
%TO.N,Net-(J11-Pin_10)*%
X148664000Y-95580200D03*
%TO.P,J11,11,Pin_11*%
%TO.N,Net-(J11-Pin_11)*%
X148664000Y-98120200D03*
%TO.P,J11,12,Pin_12*%
%TO.N,Net-(J11-Pin_12)*%
X148664000Y-100660200D03*
%TO.P,J11,13,Pin_13*%
%TO.N,Net-(J11-Pin_13)*%
X148664000Y-103200200D03*
%TO.P,J11,14,Pin_14*%
%TO.N,Net-(J11-Pin_14)*%
X148664000Y-105740200D03*
%TO.P,J11,15,Pin_15*%
%TO.N,Net-(J11-Pin_15)*%
X148664000Y-108280200D03*
%TO.P,J11,16,Pin_16*%
%TO.N,Net-(J11-Pin_16)*%
X148664000Y-110820200D03*
%TO.P,J11,17,Pin_17*%
%TO.N,Net-(J11-Pin_17)*%
X148664000Y-113360200D03*
%TO.P,J11,18,Pin_18*%
%TO.N,Net-(J11-Pin_18)*%
X148664000Y-115900200D03*
%TO.P,J11,19,Pin_19*%
%TO.N,Net-(J11-Pin_19)*%
X148664000Y-118440200D03*
%TO.P,J11,20,Pin_20*%
%TO.N,Net-(J11-Pin_20)*%
X148664000Y-120980200D03*
%TO.P,J11,21,Pin_21*%
%TO.N,GND*%
X148664000Y-123520200D03*
%TO.P,J11,22,Pin_22*%
X148664000Y-126060200D03*
%TD*%
D21*
%TO.P,C1,1*%
%TO.N,VCC*%
X181401323Y-108102400D03*
D22*
%TO.P,C1,2*%
%TO.N,GND*%
X186401323Y-108102400D03*
%TD*%
D23*
%TO.P,U1,1,Vin*%
%TO.N,VCC*%
X192024000Y-142951200D03*
D24*
%TO.P,U1,2,GND*%
%TO.N,GND*%
X209804000Y-142951200D03*
%TO.P,U1,3,GND*%
X209804000Y-102311200D03*
%TO.P,U1,4,Vout*%
%TO.N,+5V*%
X192024000Y-102311200D03*
%TD*%
D25*
%TO.N,GND*%
X188061600Y-135893900D03*
X119151400Y-127025400D03*
%TO.N,+3V3*%
X151282400Y-74244200D03*
%TO.N,/GPIO1*%
X124891800Y-128422400D03*
%TD*%
D26*
%TO.N,VCC*%
X185674000Y-112375077D02*
X181401323Y-108102400D01*
X185674000Y-136601200D02*
X192024000Y-142951200D01*
X185674000Y-129692400D02*
X185674000Y-136601200D01*
X185674000Y-121742200D02*
X185674000Y-112375077D01*
X185674000Y-129692400D02*
X185674000Y-121742200D01*
D27*
%TO.N,/GPIO8*%
X102844600Y-108045860D02*
X110230260Y-100660200D01*
X102844600Y-129841000D02*
X102844600Y-108045860D01*
X113313200Y-140309600D02*
X102844600Y-129841000D01*
X115804000Y-100660200D02*
X109714000Y-100660200D01*
%TO.N,/GPIO5*%
X96113600Y-96480600D02*
X109714000Y-82880200D01*
X105813200Y-140309600D02*
X96113600Y-130610000D01*
X96113600Y-130610000D02*
X96113600Y-96480600D01*
X109714000Y-82880200D02*
X115804000Y-82880200D01*
D28*
%TO.N,+3V3*%
X177749600Y-83434400D02*
X160472600Y-83434400D01*
X109714000Y-72720200D02*
X115804000Y-72720200D01*
X160472600Y-83434400D02*
X151282400Y-74244200D01*
D27*
%TO.N,/GPIO10*%
X109714000Y-110820200D02*
X115804000Y-110820200D01*
X106835200Y-128831600D02*
X106835200Y-114215260D01*
X118313200Y-140309600D02*
X106835200Y-128831600D01*
X106835200Y-114215260D02*
X110230260Y-110820200D01*
%TO.N,/GPIO9*%
X104825800Y-113684660D02*
X110230260Y-108280200D01*
X104825800Y-129322200D02*
X104825800Y-113684660D01*
X115804000Y-108280200D02*
X109714000Y-108280200D01*
X115813200Y-140309600D02*
X104825800Y-129322200D01*
%TO.N,/GPIO4*%
X103313200Y-140309600D02*
X93776800Y-130773200D01*
X93776800Y-130773200D02*
X93776800Y-96277400D01*
X93776800Y-96277400D02*
X109714000Y-80340200D01*
X109714000Y-80340200D02*
X115804000Y-80340200D01*
%TO.N,/GPIO1*%
X142574000Y-80340200D02*
X148664000Y-80340200D01*
X120813200Y-132501000D02*
X124891800Y-128422400D01*
X120813200Y-140309600D02*
X120813200Y-132501000D01*
%TO.N,/GPIO7*%
X110813200Y-140309600D02*
X100660200Y-130156600D01*
X100660200Y-97034000D02*
X109734000Y-87960200D01*
X100660200Y-130156600D02*
X100660200Y-97034000D01*
X109714000Y-87960200D02*
X115804000Y-87960200D01*
%TO.N,/GPIO6*%
X108313200Y-140309600D02*
X98221800Y-130218200D01*
X98221800Y-96912400D02*
X109714000Y-85420200D01*
X109714000Y-85420200D02*
X115804000Y-85420200D01*
X98221800Y-130218200D02*
X98221800Y-96912400D01*
%TO.N,/GPIO12+SCL*%
X123875800Y-77419200D02*
X123875800Y-110388400D01*
X130048000Y-71247000D02*
X123875800Y-77419200D01*
X123875800Y-110388400D02*
X118364000Y-115900200D01*
X109714000Y-115900200D02*
X115804000Y-115900200D01*
X118364000Y-115900200D02*
X115804000Y-115900200D01*
X170642200Y-71247000D02*
X130048000Y-71247000D01*
X177749600Y-78354400D02*
X170642200Y-71247000D01*
%TO.N,/GPIO16*%
X118821200Y-90023000D02*
X115804000Y-93040200D01*
X123825000Y-68122800D02*
X118821200Y-73126600D01*
X118821200Y-73126600D02*
X118821200Y-90023000D01*
X172598000Y-68122800D02*
X123825000Y-68122800D01*
X109714000Y-93040200D02*
X115804000Y-93040200D01*
X177749600Y-73274400D02*
X172598000Y-68122800D01*
%TO.N,/GPIO11+SDA*%
X117957600Y-113360200D02*
X115804000Y-113360200D01*
X128092200Y-69545200D02*
X121132600Y-76504800D01*
X121132600Y-76504800D02*
X121132600Y-110185200D01*
X115804000Y-113360200D02*
X109714000Y-113360200D01*
X121132600Y-110185200D02*
X117957600Y-113360200D01*
X177749600Y-75814400D02*
X171480400Y-69545200D01*
X171480400Y-69545200D02*
X128092200Y-69545200D01*
%TO.N,/GPIO15*%
X115804000Y-90500200D02*
X109714000Y-90500200D01*
D29*
%TO.N,Net-(J10-Pin_2)*%
X109714000Y-75260200D02*
X115804000Y-75260200D01*
%TO.N,Net-(J10-Pin_14)*%
X109714000Y-105740200D02*
X115804000Y-105740200D01*
D27*
%TO.N,/GPIO17*%
X115804000Y-95580200D02*
X109714000Y-95580200D01*
D30*
%TO.N,+5V*%
X98313200Y-140309600D02*
X102732800Y-144729200D01*
X164871400Y-122685900D02*
X164316500Y-123240800D01*
X133079800Y-140656800D02*
X130292272Y-137869272D01*
X164871400Y-106153319D02*
X164871400Y-122685900D01*
X125653800Y-126873000D02*
X129087000Y-130306200D01*
X122732800Y-144729200D02*
X125972800Y-141489200D01*
X159933000Y-128600200D02*
X158227000Y-130306200D01*
X121503700Y-126873000D02*
X125653800Y-126873000D01*
X118150900Y-123520200D02*
X121503700Y-126873000D01*
X158227000Y-130306200D02*
X129087000Y-130306200D01*
X164160200Y-123414700D02*
X159933000Y-127641900D01*
X115804000Y-123520200D02*
X118150900Y-123520200D01*
X130292272Y-137869272D02*
X125972800Y-137869272D01*
X125972800Y-141489200D02*
X125972800Y-137869272D01*
X125972800Y-133420400D02*
X129087000Y-130306200D01*
X157886800Y-100370800D02*
X159088881Y-100370800D01*
X168713519Y-102311200D02*
X164871400Y-106153319D01*
X102732800Y-144729200D02*
X122732800Y-144729200D01*
X109714000Y-123520200D02*
X115804000Y-123520200D01*
X159088881Y-100370800D02*
X164871400Y-106153319D01*
X159933000Y-127641900D02*
X159933000Y-128600200D01*
X125972800Y-137869272D02*
X125972800Y-133420400D01*
X192024000Y-102311200D02*
X168713519Y-102311200D01*
D27*
%TO.N,/GPIO18*%
X109714000Y-98120200D02*
X115804000Y-98120200D01*
%TO.N,/GPIO13*%
X109714000Y-118440200D02*
X115804000Y-118440200D01*
%TO.N,/GPIO14*%
X115804000Y-120980200D02*
X109714000Y-120980200D01*
D29*
%TO.N,Net-(J10-Pin_3)*%
X109714000Y-77800200D02*
X115804000Y-77800200D01*
%TO.N,Net-(J10-Pin_13)*%
X109714000Y-103200200D02*
X115804000Y-103200200D01*
D27*
%TO.N,/GPIO2*%
X140284200Y-126365000D02*
X142519400Y-128600200D01*
X142574000Y-82880200D02*
X148664000Y-82880200D01*
X142519400Y-128600200D02*
X157433000Y-128600200D01*
X140284200Y-85170000D02*
X140284200Y-126365000D01*
X142574000Y-82880200D02*
X140284200Y-85170000D01*
D29*
%TO.N,Net-(J11-Pin_11)*%
X142574000Y-98120200D02*
X148664000Y-98120200D01*
%TO.N,Net-(J11-Pin_19)*%
X142574000Y-118440200D02*
X148664000Y-118440200D01*
%TO.N,Net-(J11-Pin_6)*%
X142574000Y-85420200D02*
X148664000Y-85420200D01*
%TO.N,Net-(J11-Pin_2)*%
X142574000Y-75260200D02*
X148664000Y-75260200D01*
%TO.N,Net-(J11-Pin_17)*%
X142574000Y-113360200D02*
X148664000Y-113360200D01*
%TO.N,Net-(J11-Pin_18)*%
X142574000Y-115900200D02*
X148664000Y-115900200D01*
%TO.N,Net-(J11-Pin_10)*%
X142574000Y-95580200D02*
X148664000Y-95580200D01*
%TO.N,Net-(J11-Pin_12)*%
X142574000Y-100660200D02*
X148664000Y-100660200D01*
%TO.N,Net-(J11-Pin_7)*%
X142574000Y-87960200D02*
X148664000Y-87960200D01*
%TO.N,Net-(J11-Pin_14)*%
X142574000Y-105740200D02*
X148664000Y-105740200D01*
%TO.N,Net-(J11-Pin_8)*%
X142574000Y-90500200D02*
X148664000Y-90500200D01*
%TO.N,Net-(J11-Pin_20)*%
X142574000Y-120980200D02*
X148664000Y-120980200D01*
%TO.N,Net-(J11-Pin_15)*%
X142574000Y-108280200D02*
X148664000Y-108280200D01*
%TO.N,Net-(J11-Pin_3)*%
X142574000Y-77800200D02*
X148664000Y-77800200D01*
%TO.N,Net-(J11-Pin_9)*%
X142574000Y-93040200D02*
X148664000Y-93040200D01*
%TO.N,Net-(J11-Pin_13)*%
X142574000Y-103200200D02*
X148664000Y-103200200D01*
%TO.N,Net-(J11-Pin_16)*%
X142574000Y-110820200D02*
X148664000Y-110820200D01*
D31*
%TO.N,Net-(J13-Pin_1)*%
X145057900Y-138678700D02*
X143079800Y-140656800D01*
X151119200Y-138678700D02*
X145057900Y-138678700D01*
%TO.N,Net-(J13-Pin_6)*%
X132176518Y-142253518D02*
X130579800Y-140656800D01*
X152544382Y-142253518D02*
X132176518Y-142253518D01*
X156119200Y-138678700D02*
X152544382Y-142253518D01*
D26*
%TO.N,Net-(D1-A)*%
X177215800Y-136474200D02*
X177215800Y-138531600D01*
X170434000Y-129692400D02*
X177215800Y-136474200D01*
%TO.N,Net-(D2-K)*%
X170434000Y-121742200D02*
X164592000Y-127584200D01*
X164592000Y-127584200D02*
X164592000Y-138597200D01*
%TD*%
M02*
