%TF.GenerationSoftware,KiCad,Pcbnew,9.0.3*%
%TF.CreationDate,2026-01-04T16:05:15+07:00*%
%TF.ProjectId,shield,73686965-6c64-42e6-9b69-6361645f7063,rev?*%
%TF.SameCoordinates,Original*%
%TF.FileFunction,Soldermask,Bot*%
%TF.FilePolarity,Negative*%
%FSLAX46Y46*%
G04 Gerber Fmt 4.6, Leading zero omitted, Abs format (unit mm)*
G04 Created by KiCad (PCBNEW 9.0.3) date 2026-01-04 16:05:15*
%MOMM*%
%LPD*%
G01*
G04 APERTURE LIST*
G04 Aperture macros list*
%AMRoundRect*
0 Rectangle with rounded corners*
0 $1 Rounding radius*
0 $2 $3 $4 $5 $6 $7 $8 $9 X,Y pos of 4 corners*
0 Add a 4 corners polygon primitive as box body*
4,1,4,$2,$3,$4,$5,$6,$7,$8,$9,$2,$3,0*
0 Add four circle primitives for the rounded corners*
1,1,$1+$1,$2,$3*
1,1,$1+$1,$4,$5*
1,1,$1+$1,$6,$7*
1,1,$1+$1,$8,$9*
0 Add four rect primitives between the rounded corners*
20,1,$1+$1,$2,$3,$4,$5,0*
20,1,$1+$1,$4,$5,$6,$7,0*
20,1,$1+$1,$6,$7,$8,$9,0*
20,1,$1+$1,$8,$9,$2,$3,0*%
G04 Aperture macros list end*
%ADD10R,1.700000X1.700000*%
%ADD11C,1.700000*%
%ADD12C,2.000000*%
%ADD13RoundRect,0.250000X-0.750000X-0.750000X0.750000X-0.750000X0.750000X0.750000X-0.750000X0.750000X0*%
%ADD14C,2.184000*%
%ADD15RoundRect,0.250000X0.600000X0.725000X-0.600000X0.725000X-0.600000X-0.725000X0.600000X-0.725000X0*%
%ADD16O,1.700000X1.950000*%
%ADD17R,2.000000X1.200000*%
%ADD18O,2.000000X1.200000*%
%ADD19O,1.924000X6.824000*%
%ADD20R,2.540000X2.540000*%
%ADD21C,2.540000*%
%ADD22RoundRect,0.250000X0.725000X-0.600000X0.725000X0.600000X-0.725000X0.600000X-0.725000X-0.600000X0*%
%ADD23O,1.950000X1.700000*%
%ADD24C,2.600000*%
%ADD25RoundRect,0.250000X-1.050000X-1.050000X1.050000X-1.050000X1.050000X1.050000X-1.050000X1.050000X0*%
G04 APERTURE END LIST*
D10*
%TO.C,J5*%
X162331000Y-89260200D03*
D11*
X162331000Y-91800200D03*
X162331000Y-94340200D03*
X162331000Y-96880200D03*
X162331000Y-99420200D03*
%TD*%
D12*
%TO.C,C1*%
X166538523Y-131038600D03*
D13*
X161538523Y-131038600D03*
%TD*%
D14*
%TO.C,U3*%
X162717600Y-103840400D03*
X162717600Y-106380400D03*
X162717600Y-108920400D03*
X162717600Y-111460400D03*
X162717600Y-114000400D03*
X162717600Y-116540400D03*
X162717600Y-119080400D03*
X162717600Y-121620400D03*
X177957600Y-121620400D03*
X177957600Y-119080400D03*
X177957600Y-116540400D03*
X177957600Y-114000400D03*
X177957600Y-111460400D03*
X177957600Y-108920400D03*
X177957600Y-106380400D03*
X177957600Y-103840400D03*
%TD*%
D11*
%TO.C,J6*%
X164287200Y-76073000D03*
X164287200Y-73533000D03*
X164287200Y-70993000D03*
D10*
X164287200Y-68453000D03*
%TD*%
D15*
%TO.C,J3*%
X137972800Y-141782800D03*
D16*
X135472800Y-141782800D03*
X132972800Y-141782800D03*
%TD*%
D17*
%TO.C,U2*%
X156768800Y-124129800D03*
D18*
X156768800Y-121589800D03*
X156768800Y-119049800D03*
X156768800Y-116509800D03*
X156768800Y-113969800D03*
X156768800Y-111429800D03*
X156768800Y-108889800D03*
X156768800Y-106349800D03*
X156768800Y-103809800D03*
X156768800Y-101269800D03*
X156768800Y-98729800D03*
X156768800Y-96189800D03*
X156768800Y-93649800D03*
X156768800Y-91109800D03*
X156768800Y-88569800D03*
X156768800Y-86029800D03*
X156768800Y-83489800D03*
X156768800Y-80949800D03*
X156768800Y-78409800D03*
X156772480Y-75872520D03*
X156772480Y-73332520D03*
X156772480Y-70792520D03*
X133908800Y-70789800D03*
X133908800Y-73329800D03*
X133908800Y-75869800D03*
X133908800Y-78409800D03*
X133908800Y-80949800D03*
X133908800Y-83489800D03*
X133908800Y-86029800D03*
X133908800Y-88569800D03*
X133908800Y-91109800D03*
X133908800Y-93649800D03*
X133908800Y-96189800D03*
X133908800Y-98729800D03*
X133908800Y-101269800D03*
X133908800Y-103809800D03*
X133908800Y-106349800D03*
X133908800Y-108889800D03*
X133908800Y-111429800D03*
X133908800Y-113969800D03*
X133908800Y-116509800D03*
X133908800Y-119049800D03*
X133908800Y-121589800D03*
X133908800Y-124129800D03*
%TD*%
D19*
%TO.C,SW1*%
X189597600Y-136525000D03*
X196697600Y-136525000D03*
%TD*%
D20*
%TO.C,U1*%
X184810400Y-123291600D03*
D21*
X202590400Y-123291600D03*
X202590400Y-82651600D03*
X184810400Y-82651600D03*
%TD*%
D22*
%TO.C,J13*%
X196655200Y-76785800D03*
D23*
X196655200Y-74285800D03*
X196655200Y-71785800D03*
X196655200Y-69285800D03*
X196655200Y-66785800D03*
X196655200Y-64285800D03*
%TD*%
D24*
%TO.C,J4*%
X182175800Y-138920969D03*
D25*
X177175800Y-138920969D03*
%TD*%
D16*
%TO.C,J1*%
X144827600Y-141901400D03*
X147327600Y-141901400D03*
X149827600Y-141901400D03*
X152327600Y-141901400D03*
X154827600Y-141901400D03*
X157327600Y-141901400D03*
X159827600Y-141901400D03*
X162327600Y-141901400D03*
X164827600Y-141901400D03*
X167327600Y-141901400D03*
D15*
X169827600Y-141901400D03*
%TD*%
M02*
