%TF.GenerationSoftware,KiCad,Pcbnew,9.0.3*%
%TF.CreationDate,2025-07-24T13:33:20+07:00*%
%TF.ProjectId,shield,73686965-6c64-42e6-9b69-6361645f7063,rev?*%
%TF.SameCoordinates,Original*%
%TF.FileFunction,Legend,Top*%
%TF.FilePolarity,Positive*%
%FSLAX46Y46*%
G04 Gerber Fmt 4.6, Leading zero omitted, Abs format (unit mm)*
G04 Created by KiCad (PCBNEW 9.0.3) date 2025-07-24 13:33:20*
%MOMM*%
%LPD*%
G01*
G04 APERTURE LIST*
%ADD10C,0.150000*%
%ADD11C,0.120000*%
G04 APERTURE END LIST*
D10*
X109704219Y-137997133D02*
X110418504Y-137997133D01*
X110418504Y-137997133D02*
X110561361Y-138044752D01*
X110561361Y-138044752D02*
X110656600Y-138139990D01*
X110656600Y-138139990D02*
X110704219Y-138282847D01*
X110704219Y-138282847D02*
X110704219Y-138378085D01*
X109799457Y-137568561D02*
X109751838Y-137520942D01*
X109751838Y-137520942D02*
X109704219Y-137425704D01*
X109704219Y-137425704D02*
X109704219Y-137187609D01*
X109704219Y-137187609D02*
X109751838Y-137092371D01*
X109751838Y-137092371D02*
X109799457Y-137044752D01*
X109799457Y-137044752D02*
X109894695Y-136997133D01*
X109894695Y-136997133D02*
X109989933Y-136997133D01*
X109989933Y-136997133D02*
X110132790Y-137044752D01*
X110132790Y-137044752D02*
X110704219Y-137616180D01*
X110704219Y-137616180D02*
X110704219Y-136997133D01*
X162926066Y-140668619D02*
X162926066Y-141382904D01*
X162926066Y-141382904D02*
X162878447Y-141525761D01*
X162878447Y-141525761D02*
X162783209Y-141621000D01*
X162783209Y-141621000D02*
X162640352Y-141668619D01*
X162640352Y-141668619D02*
X162545114Y-141668619D01*
X163307019Y-140668619D02*
X163926066Y-140668619D01*
X163926066Y-140668619D02*
X163592733Y-141049571D01*
X163592733Y-141049571D02*
X163735590Y-141049571D01*
X163735590Y-141049571D02*
X163830828Y-141097190D01*
X163830828Y-141097190D02*
X163878447Y-141144809D01*
X163878447Y-141144809D02*
X163926066Y-141240047D01*
X163926066Y-141240047D02*
X163926066Y-141478142D01*
X163926066Y-141478142D02*
X163878447Y-141573380D01*
X163878447Y-141573380D02*
X163830828Y-141621000D01*
X163830828Y-141621000D02*
X163735590Y-141668619D01*
X163735590Y-141668619D02*
X163449876Y-141668619D01*
X163449876Y-141668619D02*
X163354638Y-141621000D01*
X163354638Y-141621000D02*
X163307019Y-141573380D01*
X176673266Y-109765619D02*
X176673266Y-110479904D01*
X176673266Y-110479904D02*
X176625647Y-110622761D01*
X176625647Y-110622761D02*
X176530409Y-110718000D01*
X176530409Y-110718000D02*
X176387552Y-110765619D01*
X176387552Y-110765619D02*
X176292314Y-110765619D01*
X177054219Y-109765619D02*
X177720885Y-109765619D01*
X177720885Y-109765619D02*
X177292314Y-110765619D01*
X159528266Y-109765619D02*
X159528266Y-110479904D01*
X159528266Y-110479904D02*
X159480647Y-110622761D01*
X159480647Y-110622761D02*
X159385409Y-110718000D01*
X159385409Y-110718000D02*
X159242552Y-110765619D01*
X159242552Y-110765619D02*
X159147314Y-110765619D01*
X160433028Y-109765619D02*
X160242552Y-109765619D01*
X160242552Y-109765619D02*
X160147314Y-109813238D01*
X160147314Y-109813238D02*
X160099695Y-109860857D01*
X160099695Y-109860857D02*
X160004457Y-110003714D01*
X160004457Y-110003714D02*
X159956838Y-110194190D01*
X159956838Y-110194190D02*
X159956838Y-110575142D01*
X159956838Y-110575142D02*
X160004457Y-110670380D01*
X160004457Y-110670380D02*
X160052076Y-110718000D01*
X160052076Y-110718000D02*
X160147314Y-110765619D01*
X160147314Y-110765619D02*
X160337790Y-110765619D01*
X160337790Y-110765619D02*
X160433028Y-110718000D01*
X160433028Y-110718000D02*
X160480647Y-110670380D01*
X160480647Y-110670380D02*
X160528266Y-110575142D01*
X160528266Y-110575142D02*
X160528266Y-110337047D01*
X160528266Y-110337047D02*
X160480647Y-110241809D01*
X160480647Y-110241809D02*
X160433028Y-110194190D01*
X160433028Y-110194190D02*
X160337790Y-110146571D01*
X160337790Y-110146571D02*
X160147314Y-110146571D01*
X160147314Y-110146571D02*
X160052076Y-110194190D01*
X160052076Y-110194190D02*
X160004457Y-110241809D01*
X160004457Y-110241809D02*
X159956838Y-110337047D01*
X144808266Y-70268619D02*
X144808266Y-70982904D01*
X144808266Y-70982904D02*
X144760647Y-71125761D01*
X144760647Y-71125761D02*
X144665409Y-71221000D01*
X144665409Y-71221000D02*
X144522552Y-71268619D01*
X144522552Y-71268619D02*
X144427314Y-71268619D01*
X145332076Y-71268619D02*
X145522552Y-71268619D01*
X145522552Y-71268619D02*
X145617790Y-71221000D01*
X145617790Y-71221000D02*
X145665409Y-71173380D01*
X145665409Y-71173380D02*
X145760647Y-71030523D01*
X145760647Y-71030523D02*
X145808266Y-70840047D01*
X145808266Y-70840047D02*
X145808266Y-70459095D01*
X145808266Y-70459095D02*
X145760647Y-70363857D01*
X145760647Y-70363857D02*
X145713028Y-70316238D01*
X145713028Y-70316238D02*
X145617790Y-70268619D01*
X145617790Y-70268619D02*
X145427314Y-70268619D01*
X145427314Y-70268619D02*
X145332076Y-70316238D01*
X145332076Y-70316238D02*
X145284457Y-70363857D01*
X145284457Y-70363857D02*
X145236838Y-70459095D01*
X145236838Y-70459095D02*
X145236838Y-70697190D01*
X145236838Y-70697190D02*
X145284457Y-70792428D01*
X145284457Y-70792428D02*
X145332076Y-70840047D01*
X145332076Y-70840047D02*
X145427314Y-70887666D01*
X145427314Y-70887666D02*
X145617790Y-70887666D01*
X145617790Y-70887666D02*
X145713028Y-70840047D01*
X145713028Y-70840047D02*
X145760647Y-70792428D01*
X145760647Y-70792428D02*
X145808266Y-70697190D01*
X122958266Y-70268619D02*
X122958266Y-70982904D01*
X122958266Y-70982904D02*
X122910647Y-71125761D01*
X122910647Y-71125761D02*
X122815409Y-71221000D01*
X122815409Y-71221000D02*
X122672552Y-71268619D01*
X122672552Y-71268619D02*
X122577314Y-71268619D01*
X123577314Y-70697190D02*
X123482076Y-70649571D01*
X123482076Y-70649571D02*
X123434457Y-70601952D01*
X123434457Y-70601952D02*
X123386838Y-70506714D01*
X123386838Y-70506714D02*
X123386838Y-70459095D01*
X123386838Y-70459095D02*
X123434457Y-70363857D01*
X123434457Y-70363857D02*
X123482076Y-70316238D01*
X123482076Y-70316238D02*
X123577314Y-70268619D01*
X123577314Y-70268619D02*
X123767790Y-70268619D01*
X123767790Y-70268619D02*
X123863028Y-70316238D01*
X123863028Y-70316238D02*
X123910647Y-70363857D01*
X123910647Y-70363857D02*
X123958266Y-70459095D01*
X123958266Y-70459095D02*
X123958266Y-70506714D01*
X123958266Y-70506714D02*
X123910647Y-70601952D01*
X123910647Y-70601952D02*
X123863028Y-70649571D01*
X123863028Y-70649571D02*
X123767790Y-70697190D01*
X123767790Y-70697190D02*
X123577314Y-70697190D01*
X123577314Y-70697190D02*
X123482076Y-70744809D01*
X123482076Y-70744809D02*
X123434457Y-70792428D01*
X123434457Y-70792428D02*
X123386838Y-70887666D01*
X123386838Y-70887666D02*
X123386838Y-71078142D01*
X123386838Y-71078142D02*
X123434457Y-71173380D01*
X123434457Y-71173380D02*
X123482076Y-71221000D01*
X123482076Y-71221000D02*
X123577314Y-71268619D01*
X123577314Y-71268619D02*
X123767790Y-71268619D01*
X123767790Y-71268619D02*
X123863028Y-71221000D01*
X123863028Y-71221000D02*
X123910647Y-71173380D01*
X123910647Y-71173380D02*
X123958266Y-71078142D01*
X123958266Y-71078142D02*
X123958266Y-70887666D01*
X123958266Y-70887666D02*
X123910647Y-70792428D01*
X123910647Y-70792428D02*
X123863028Y-70744809D01*
X123863028Y-70744809D02*
X123767790Y-70697190D01*
X177142876Y-132108219D02*
X177142876Y-132822504D01*
X177142876Y-132822504D02*
X177095257Y-132965361D01*
X177095257Y-132965361D02*
X177000019Y-133060600D01*
X177000019Y-133060600D02*
X176857162Y-133108219D01*
X176857162Y-133108219D02*
X176761924Y-133108219D01*
X178142876Y-133108219D02*
X177571448Y-133108219D01*
X177857162Y-133108219D02*
X177857162Y-132108219D01*
X177857162Y-132108219D02*
X177761924Y-132251076D01*
X177761924Y-132251076D02*
X177666686Y-132346314D01*
X177666686Y-132346314D02*
X177571448Y-132393933D01*
X178523829Y-132203457D02*
X178571448Y-132155838D01*
X178571448Y-132155838D02*
X178666686Y-132108219D01*
X178666686Y-132108219D02*
X178904781Y-132108219D01*
X178904781Y-132108219D02*
X179000019Y-132155838D01*
X179000019Y-132155838D02*
X179047638Y-132203457D01*
X179047638Y-132203457D02*
X179095257Y-132298695D01*
X179095257Y-132298695D02*
X179095257Y-132393933D01*
X179095257Y-132393933D02*
X179047638Y-132536790D01*
X179047638Y-132536790D02*
X178476210Y-133108219D01*
X178476210Y-133108219D02*
X179095257Y-133108219D01*
X176673266Y-70268619D02*
X176673266Y-70982904D01*
X176673266Y-70982904D02*
X176625647Y-71125761D01*
X176625647Y-71125761D02*
X176530409Y-71221000D01*
X176530409Y-71221000D02*
X176387552Y-71268619D01*
X176387552Y-71268619D02*
X176292314Y-71268619D01*
X177625647Y-70268619D02*
X177149457Y-70268619D01*
X177149457Y-70268619D02*
X177101838Y-70744809D01*
X177101838Y-70744809D02*
X177149457Y-70697190D01*
X177149457Y-70697190D02*
X177244695Y-70649571D01*
X177244695Y-70649571D02*
X177482790Y-70649571D01*
X177482790Y-70649571D02*
X177578028Y-70697190D01*
X177578028Y-70697190D02*
X177625647Y-70744809D01*
X177625647Y-70744809D02*
X177673266Y-70840047D01*
X177673266Y-70840047D02*
X177673266Y-71078142D01*
X177673266Y-71078142D02*
X177625647Y-71173380D01*
X177625647Y-71173380D02*
X177578028Y-71221000D01*
X177578028Y-71221000D02*
X177482790Y-71268619D01*
X177482790Y-71268619D02*
X177244695Y-71268619D01*
X177244695Y-71268619D02*
X177149457Y-71221000D01*
X177149457Y-71221000D02*
X177101838Y-71173380D01*
X171198380Y-125374066D02*
X171246000Y-125421685D01*
X171246000Y-125421685D02*
X171293619Y-125564542D01*
X171293619Y-125564542D02*
X171293619Y-125659780D01*
X171293619Y-125659780D02*
X171246000Y-125802637D01*
X171246000Y-125802637D02*
X171150761Y-125897875D01*
X171150761Y-125897875D02*
X171055523Y-125945494D01*
X171055523Y-125945494D02*
X170865047Y-125993113D01*
X170865047Y-125993113D02*
X170722190Y-125993113D01*
X170722190Y-125993113D02*
X170531714Y-125945494D01*
X170531714Y-125945494D02*
X170436476Y-125897875D01*
X170436476Y-125897875D02*
X170341238Y-125802637D01*
X170341238Y-125802637D02*
X170293619Y-125659780D01*
X170293619Y-125659780D02*
X170293619Y-125564542D01*
X170293619Y-125564542D02*
X170341238Y-125421685D01*
X170341238Y-125421685D02*
X170388857Y-125374066D01*
X171293619Y-124421685D02*
X171293619Y-124993113D01*
X171293619Y-124707399D02*
X170293619Y-124707399D01*
X170293619Y-124707399D02*
X170436476Y-124802637D01*
X170436476Y-124802637D02*
X170531714Y-124897875D01*
X170531714Y-124897875D02*
X170579333Y-124993113D01*
X116392076Y-70268619D02*
X116392076Y-70982904D01*
X116392076Y-70982904D02*
X116344457Y-71125761D01*
X116344457Y-71125761D02*
X116249219Y-71221000D01*
X116249219Y-71221000D02*
X116106362Y-71268619D01*
X116106362Y-71268619D02*
X116011124Y-71268619D01*
X117392076Y-71268619D02*
X116820648Y-71268619D01*
X117106362Y-71268619D02*
X117106362Y-70268619D01*
X117106362Y-70268619D02*
X117011124Y-70411476D01*
X117011124Y-70411476D02*
X116915886Y-70506714D01*
X116915886Y-70506714D02*
X116820648Y-70554333D01*
X118011124Y-70268619D02*
X118106362Y-70268619D01*
X118106362Y-70268619D02*
X118201600Y-70316238D01*
X118201600Y-70316238D02*
X118249219Y-70363857D01*
X118249219Y-70363857D02*
X118296838Y-70459095D01*
X118296838Y-70459095D02*
X118344457Y-70649571D01*
X118344457Y-70649571D02*
X118344457Y-70887666D01*
X118344457Y-70887666D02*
X118296838Y-71078142D01*
X118296838Y-71078142D02*
X118249219Y-71173380D01*
X118249219Y-71173380D02*
X118201600Y-71221000D01*
X118201600Y-71221000D02*
X118106362Y-71268619D01*
X118106362Y-71268619D02*
X118011124Y-71268619D01*
X118011124Y-71268619D02*
X117915886Y-71221000D01*
X117915886Y-71221000D02*
X117868267Y-71173380D01*
X117868267Y-71173380D02*
X117820648Y-71078142D01*
X117820648Y-71078142D02*
X117773029Y-70887666D01*
X117773029Y-70887666D02*
X117773029Y-70649571D01*
X117773029Y-70649571D02*
X117820648Y-70459095D01*
X117820648Y-70459095D02*
X117868267Y-70363857D01*
X117868267Y-70363857D02*
X117915886Y-70316238D01*
X117915886Y-70316238D02*
X118011124Y-70268619D01*
X134406066Y-140668619D02*
X134406066Y-141382904D01*
X134406066Y-141382904D02*
X134358447Y-141525761D01*
X134358447Y-141525761D02*
X134263209Y-141621000D01*
X134263209Y-141621000D02*
X134120352Y-141668619D01*
X134120352Y-141668619D02*
X134025114Y-141668619D01*
X135406066Y-141668619D02*
X134834638Y-141668619D01*
X135120352Y-141668619D02*
X135120352Y-140668619D01*
X135120352Y-140668619D02*
X135025114Y-140811476D01*
X135025114Y-140811476D02*
X134929876Y-140906714D01*
X134929876Y-140906714D02*
X134834638Y-140954333D01*
X150422076Y-70268619D02*
X150422076Y-70982904D01*
X150422076Y-70982904D02*
X150374457Y-71125761D01*
X150374457Y-71125761D02*
X150279219Y-71221000D01*
X150279219Y-71221000D02*
X150136362Y-71268619D01*
X150136362Y-71268619D02*
X150041124Y-71268619D01*
X151422076Y-71268619D02*
X150850648Y-71268619D01*
X151136362Y-71268619D02*
X151136362Y-70268619D01*
X151136362Y-70268619D02*
X151041124Y-70411476D01*
X151041124Y-70411476D02*
X150945886Y-70506714D01*
X150945886Y-70506714D02*
X150850648Y-70554333D01*
X152374457Y-71268619D02*
X151803029Y-71268619D01*
X152088743Y-71268619D02*
X152088743Y-70268619D01*
X152088743Y-70268619D02*
X151993505Y-70411476D01*
X151993505Y-70411476D02*
X151898267Y-70506714D01*
X151898267Y-70506714D02*
X151803029Y-70554333D01*
X159528266Y-70268619D02*
X159528266Y-70982904D01*
X159528266Y-70982904D02*
X159480647Y-71125761D01*
X159480647Y-71125761D02*
X159385409Y-71221000D01*
X159385409Y-71221000D02*
X159242552Y-71268619D01*
X159242552Y-71268619D02*
X159147314Y-71268619D01*
X160433028Y-70601952D02*
X160433028Y-71268619D01*
X160194933Y-70221000D02*
X159956838Y-70935285D01*
X159956838Y-70935285D02*
X160575885Y-70935285D01*
D11*
%TO.C,J2*%
X106209400Y-136333800D02*
X95989400Y-136333800D01*
X106209400Y-136333800D02*
X106209400Y-138993800D01*
X95989400Y-136333800D02*
X95989400Y-138993800D01*
X108809400Y-137663800D02*
X108809400Y-138993800D01*
X108809400Y-138993800D02*
X107479400Y-138993800D01*
X106209400Y-138993800D02*
X95989400Y-138993800D01*
%TO.C,J3*%
X158199400Y-134153800D02*
X158199400Y-140123800D01*
X158199400Y-140123800D02*
X168319400Y-140123800D01*
X158209400Y-137863800D02*
X158959400Y-137863800D01*
X158209400Y-139363800D02*
X158209400Y-140113800D01*
X158209400Y-140113800D02*
X160009400Y-140113800D01*
X158959400Y-134913800D02*
X163259400Y-134913800D01*
X158959400Y-137863800D02*
X158959400Y-134913800D01*
X160009400Y-139363800D02*
X158209400Y-139363800D01*
X160009400Y-140113800D02*
X160009400Y-139363800D01*
X161509400Y-139363800D02*
X161509400Y-140113800D01*
X161509400Y-140113800D02*
X165009400Y-140113800D01*
X165009400Y-139363800D02*
X161509400Y-139363800D01*
X165009400Y-140113800D02*
X165009400Y-139363800D01*
X166509400Y-139363800D02*
X166509400Y-140113800D01*
X166509400Y-140113800D02*
X168309400Y-140113800D01*
X167359400Y-140413800D02*
X168609400Y-140413800D01*
X167559400Y-134913800D02*
X163259400Y-134913800D01*
X167559400Y-137863800D02*
X167559400Y-134913800D01*
X168309400Y-137863800D02*
X167559400Y-137863800D01*
X168309400Y-139363800D02*
X166509400Y-139363800D01*
X168309400Y-140113800D02*
X168309400Y-139363800D01*
X168319400Y-134153800D02*
X158199400Y-134153800D01*
X168319400Y-140123800D02*
X168319400Y-134153800D01*
X168609400Y-140413800D02*
X168609400Y-139163800D01*
%TO.C,J7*%
X178336600Y-114290800D02*
X178336600Y-114410800D01*
X178336600Y-111750800D02*
X178336600Y-113080800D01*
X177006600Y-111750800D02*
X178336600Y-111750800D01*
X175676600Y-114410800D02*
X178336600Y-114410800D01*
X175676600Y-114290800D02*
X175676600Y-114410800D01*
%TO.C,J6*%
X161191600Y-114290800D02*
X161191600Y-114410800D01*
X161191600Y-111750800D02*
X161191600Y-113080800D01*
X159861600Y-111750800D02*
X161191600Y-111750800D01*
X158531600Y-114410800D02*
X161191600Y-114410800D01*
X158531600Y-114290800D02*
X158531600Y-114410800D01*
%TO.C,J9*%
X146471600Y-74853800D02*
X146471600Y-128253800D01*
X146471600Y-72253800D02*
X146471600Y-73583800D01*
X145141600Y-72253800D02*
X146471600Y-72253800D01*
X143811600Y-128253800D02*
X146471600Y-128253800D01*
X143811600Y-74853800D02*
X146471600Y-74853800D01*
X143811600Y-74853800D02*
X143811600Y-128253800D01*
%TO.C,J8*%
X124621600Y-74853800D02*
X124621600Y-128253800D01*
X124621600Y-72253800D02*
X124621600Y-73583800D01*
X123291600Y-72253800D02*
X124621600Y-72253800D01*
X121961600Y-128253800D02*
X124621600Y-128253800D01*
X121961600Y-74853800D02*
X124621600Y-74853800D01*
X121961600Y-74853800D02*
X121961600Y-128253800D01*
%TO.C,J12*%
X173052400Y-134153400D02*
X173052400Y-135453400D01*
X173352400Y-134453400D02*
X175352400Y-134453400D01*
X173352400Y-148953400D02*
X173352400Y-134453400D01*
X174752400Y-134153400D02*
X173052400Y-134153400D01*
X180552400Y-134453400D02*
X182552400Y-134453400D01*
X182552400Y-134453400D02*
X182552400Y-135753400D01*
X182552400Y-140353400D02*
X182552400Y-148953400D01*
X182552400Y-148953400D02*
X173352400Y-148953400D01*
%TO.C,J5*%
X175676600Y-74793800D02*
X175676600Y-74913800D01*
X175676600Y-74913800D02*
X178336600Y-74913800D01*
X177006600Y-72253800D02*
X178336600Y-72253800D01*
X178336600Y-72253800D02*
X178336600Y-73583800D01*
X178336600Y-74793800D02*
X178336600Y-74913800D01*
%TO.C,C1*%
X174213800Y-130687046D02*
X174213800Y-129687046D01*
X173713800Y-130187046D02*
X174713800Y-130187046D01*
X172008800Y-125207400D02*
X182168800Y-125207400D01*
X172008800Y-125167400D02*
X182168800Y-125167400D01*
X172009800Y-125127400D02*
X182167800Y-125127400D01*
X172009800Y-125087400D02*
X182167800Y-125087400D01*
X172011800Y-125047400D02*
X182165800Y-125047400D01*
X172012800Y-125007400D02*
X182164800Y-125007400D01*
X172014800Y-124967400D02*
X182162800Y-124967400D01*
X172016800Y-124927400D02*
X182160800Y-124927400D01*
X172018800Y-124887400D02*
X182158800Y-124887400D01*
X172021800Y-124847400D02*
X182155800Y-124847400D01*
X172024800Y-124807400D02*
X182152800Y-124807400D01*
X172027800Y-124767400D02*
X182149800Y-124767400D01*
X172031800Y-124727400D02*
X182145800Y-124727400D01*
X172034800Y-124687400D02*
X182142800Y-124687400D01*
X172039800Y-124647400D02*
X182137800Y-124647400D01*
X172043800Y-124607400D02*
X182133800Y-124607400D01*
X172048800Y-124567400D02*
X182128800Y-124567400D01*
X172053800Y-124527400D02*
X182123800Y-124527400D01*
X172059800Y-124487400D02*
X182117800Y-124487400D01*
X172065800Y-124447400D02*
X182111800Y-124447400D01*
X172071800Y-124407400D02*
X182105800Y-124407400D01*
X172077800Y-124367400D02*
X182099800Y-124367400D01*
X172084800Y-124327400D02*
X182092800Y-124327400D01*
X172091800Y-124287400D02*
X182085800Y-124287400D01*
X172099800Y-124247400D02*
X182077800Y-124247400D01*
X172107800Y-124207400D02*
X182069800Y-124207400D01*
X172115800Y-124167400D02*
X182061800Y-124167400D01*
X172123800Y-124127400D02*
X182053800Y-124127400D01*
X172132800Y-124087400D02*
X182044800Y-124087400D01*
X172141800Y-124047400D02*
X182035800Y-124047400D01*
X172151800Y-124007400D02*
X182025800Y-124007400D01*
X172160800Y-123967400D02*
X182016800Y-123967400D01*
X172171800Y-123927400D02*
X175848800Y-123927400D01*
X178328800Y-123927400D02*
X182005800Y-123927400D01*
X172181800Y-123887400D02*
X175848800Y-123887400D01*
X178328800Y-123887400D02*
X181995800Y-123887400D01*
X172192800Y-123847400D02*
X175848800Y-123847400D01*
X178328800Y-123847400D02*
X181984800Y-123847400D01*
X172203800Y-123807400D02*
X175848800Y-123807400D01*
X178328800Y-123807400D02*
X181973800Y-123807400D01*
X172215800Y-123767400D02*
X175848800Y-123767400D01*
X178328800Y-123767400D02*
X181961800Y-123767400D01*
X172227800Y-123727400D02*
X175848800Y-123727400D01*
X178328800Y-123727400D02*
X181949800Y-123727400D01*
X172239800Y-123687400D02*
X175848800Y-123687400D01*
X178328800Y-123687400D02*
X181937800Y-123687400D01*
X172251800Y-123647400D02*
X175848800Y-123647400D01*
X178328800Y-123647400D02*
X181925800Y-123647400D01*
X172264800Y-123607400D02*
X175848800Y-123607400D01*
X178328800Y-123607400D02*
X181912800Y-123607400D01*
X172278800Y-123567400D02*
X175848800Y-123567400D01*
X178328800Y-123567400D02*
X181898800Y-123567400D01*
X172291800Y-123527400D02*
X175848800Y-123527400D01*
X178328800Y-123527400D02*
X181885800Y-123527400D01*
X172306800Y-123487400D02*
X175848800Y-123487400D01*
X178328800Y-123487400D02*
X181870800Y-123487400D01*
X172320800Y-123447400D02*
X175848800Y-123447400D01*
X178328800Y-123447400D02*
X181856800Y-123447400D01*
X172335800Y-123407400D02*
X175848800Y-123407400D01*
X178328800Y-123407400D02*
X181841800Y-123407400D01*
X172350800Y-123367400D02*
X175848800Y-123367400D01*
X178328800Y-123367400D02*
X181826800Y-123367400D01*
X172366800Y-123327400D02*
X175848800Y-123327400D01*
X178328800Y-123327400D02*
X181810800Y-123327400D01*
X172382800Y-123287400D02*
X175848800Y-123287400D01*
X178328800Y-123287400D02*
X181794800Y-123287400D01*
X172398800Y-123247400D02*
X175848800Y-123247400D01*
X178328800Y-123247400D02*
X181778800Y-123247400D01*
X172415800Y-123207400D02*
X175848800Y-123207400D01*
X178328800Y-123207400D02*
X181761800Y-123207400D01*
X172432800Y-123167400D02*
X175848800Y-123167400D01*
X178328800Y-123167400D02*
X181744800Y-123167400D01*
X172450800Y-123127400D02*
X175848800Y-123127400D01*
X178328800Y-123127400D02*
X181726800Y-123127400D01*
X172468800Y-123087400D02*
X175848800Y-123087400D01*
X178328800Y-123087400D02*
X181708800Y-123087400D01*
X172486800Y-123047400D02*
X175848800Y-123047400D01*
X178328800Y-123047400D02*
X181690800Y-123047400D01*
X172505800Y-123007400D02*
X175848800Y-123007400D01*
X178328800Y-123007400D02*
X181671800Y-123007400D01*
X172524800Y-122967400D02*
X175848800Y-122967400D01*
X178328800Y-122967400D02*
X181652800Y-122967400D01*
X172544800Y-122927400D02*
X175848800Y-122927400D01*
X178328800Y-122927400D02*
X181632800Y-122927400D01*
X172564800Y-122887400D02*
X175848800Y-122887400D01*
X178328800Y-122887400D02*
X181612800Y-122887400D01*
X172584800Y-122847400D02*
X175848800Y-122847400D01*
X178328800Y-122847400D02*
X181592800Y-122847400D01*
X172605800Y-122807400D02*
X175848800Y-122807400D01*
X178328800Y-122807400D02*
X181571800Y-122807400D01*
X172627800Y-122767400D02*
X175848800Y-122767400D01*
X178328800Y-122767400D02*
X181549800Y-122767400D01*
X172649800Y-122727400D02*
X175848800Y-122727400D01*
X178328800Y-122727400D02*
X181527800Y-122727400D01*
X172671800Y-122687400D02*
X175848800Y-122687400D01*
X178328800Y-122687400D02*
X181505800Y-122687400D01*
X172694800Y-122647400D02*
X175848800Y-122647400D01*
X178328800Y-122647400D02*
X181482800Y-122647400D01*
X172717800Y-122607400D02*
X175848800Y-122607400D01*
X178328800Y-122607400D02*
X181459800Y-122607400D01*
X172741800Y-122567400D02*
X175848800Y-122567400D01*
X178328800Y-122567400D02*
X181435800Y-122567400D01*
X172765800Y-122527400D02*
X175848800Y-122527400D01*
X178328800Y-122527400D02*
X181411800Y-122527400D01*
X172790800Y-122487400D02*
X175848800Y-122487400D01*
X178328800Y-122487400D02*
X181386800Y-122487400D01*
X172816800Y-122447400D02*
X175848800Y-122447400D01*
X178328800Y-122447400D02*
X181360800Y-122447400D01*
X172841800Y-122407400D02*
X175848800Y-122407400D01*
X178328800Y-122407400D02*
X181335800Y-122407400D01*
X172868800Y-122367400D02*
X175848800Y-122367400D01*
X178328800Y-122367400D02*
X181308800Y-122367400D01*
X172895800Y-122327400D02*
X175848800Y-122327400D01*
X178328800Y-122327400D02*
X181281800Y-122327400D01*
X172922800Y-122287400D02*
X175848800Y-122287400D01*
X178328800Y-122287400D02*
X181254800Y-122287400D01*
X172950800Y-122247400D02*
X175848800Y-122247400D01*
X178328800Y-122247400D02*
X181226800Y-122247400D01*
X172979800Y-122207400D02*
X175848800Y-122207400D01*
X178328800Y-122207400D02*
X181197800Y-122207400D01*
X173008800Y-122167400D02*
X175848800Y-122167400D01*
X178328800Y-122167400D02*
X181168800Y-122167400D01*
X173038800Y-122127400D02*
X175848800Y-122127400D01*
X178328800Y-122127400D02*
X181138800Y-122127400D01*
X173068800Y-122087400D02*
X175848800Y-122087400D01*
X178328800Y-122087400D02*
X181108800Y-122087400D01*
X173100800Y-122047400D02*
X175848800Y-122047400D01*
X178328800Y-122047400D02*
X181076800Y-122047400D01*
X173131800Y-122007400D02*
X175848800Y-122007400D01*
X178328800Y-122007400D02*
X181045800Y-122007400D01*
X173164800Y-121967400D02*
X175848800Y-121967400D01*
X178328800Y-121967400D02*
X181012800Y-121967400D01*
X173197800Y-121927400D02*
X175848800Y-121927400D01*
X178328800Y-121927400D02*
X180979800Y-121927400D01*
X173230800Y-121887400D02*
X175848800Y-121887400D01*
X178328800Y-121887400D02*
X180946800Y-121887400D01*
X173265800Y-121847400D02*
X175848800Y-121847400D01*
X178328800Y-121847400D02*
X180911800Y-121847400D01*
X173300800Y-121807400D02*
X175848800Y-121807400D01*
X178328800Y-121807400D02*
X180876800Y-121807400D01*
X173336800Y-121767400D02*
X175848800Y-121767400D01*
X178328800Y-121767400D02*
X180840800Y-121767400D01*
X173372800Y-121727400D02*
X175848800Y-121727400D01*
X178328800Y-121727400D02*
X180804800Y-121727400D01*
X173410800Y-121687400D02*
X175848800Y-121687400D01*
X178328800Y-121687400D02*
X180766800Y-121687400D01*
X173448800Y-121647400D02*
X175848800Y-121647400D01*
X178328800Y-121647400D02*
X180728800Y-121647400D01*
X173487800Y-121607400D02*
X175848800Y-121607400D01*
X178328800Y-121607400D02*
X180689800Y-121607400D01*
X173527800Y-121567400D02*
X175848800Y-121567400D01*
X178328800Y-121567400D02*
X180649800Y-121567400D01*
X173568800Y-121527400D02*
X175848800Y-121527400D01*
X178328800Y-121527400D02*
X180608800Y-121527400D01*
X173610800Y-121487400D02*
X175848800Y-121487400D01*
X178328800Y-121487400D02*
X180566800Y-121487400D01*
X173653800Y-121447400D02*
X180523800Y-121447400D01*
X173697800Y-121407400D02*
X180479800Y-121407400D01*
X173741800Y-121367400D02*
X180435800Y-121367400D01*
X173787800Y-121327400D02*
X180389800Y-121327400D01*
X173834800Y-121287400D02*
X180342800Y-121287400D01*
X173883800Y-121247400D02*
X180293800Y-121247400D01*
X173932800Y-121207400D02*
X180244800Y-121207400D01*
X173983800Y-121167400D02*
X180193800Y-121167400D01*
X174035800Y-121127400D02*
X180141800Y-121127400D01*
X174088800Y-121087400D02*
X180088800Y-121087400D01*
X174143800Y-121047400D02*
X180033800Y-121047400D01*
X174200800Y-121007400D02*
X179976800Y-121007400D01*
X174258800Y-120967400D02*
X179918800Y-120967400D01*
X174318800Y-120927400D02*
X179858800Y-120927400D01*
X174380800Y-120887400D02*
X179796800Y-120887400D01*
X174444800Y-120847400D02*
X179732800Y-120847400D01*
X174510800Y-120807400D02*
X179666800Y-120807400D01*
X174578800Y-120767400D02*
X179598800Y-120767400D01*
X174649800Y-120727400D02*
X179527800Y-120727400D01*
X174723800Y-120687400D02*
X179453800Y-120687400D01*
X174800800Y-120647400D02*
X179376800Y-120647400D01*
X174880800Y-120607400D02*
X179296800Y-120607400D01*
X174964800Y-120567400D02*
X179212800Y-120567400D01*
X175051800Y-120527400D02*
X179125800Y-120527400D01*
X175144800Y-120487400D02*
X179032800Y-120487400D01*
X175242800Y-120447400D02*
X178934800Y-120447400D01*
X175346800Y-120407400D02*
X178830800Y-120407400D01*
X175458800Y-120367400D02*
X178718800Y-120367400D01*
X175579800Y-120327400D02*
X178597800Y-120327400D01*
X175711800Y-120287400D02*
X178465800Y-120287400D01*
X175858800Y-120247400D02*
X178318800Y-120247400D01*
X176026800Y-120207400D02*
X178150800Y-120207400D01*
X176226800Y-120167400D02*
X177950800Y-120167400D01*
X176489800Y-120127400D02*
X177687800Y-120127400D01*
X182208800Y-125207400D02*
G75*
G02*
X171968800Y-125207400I-5120000J0D01*
G01*
X171968800Y-125207400D02*
G75*
G02*
X182208800Y-125207400I5120000J0D01*
G01*
%TO.C,J10*%
X115871600Y-74853800D02*
X115871600Y-128253800D01*
X115871600Y-74853800D02*
X118531600Y-74853800D01*
X115871600Y-128253800D02*
X118531600Y-128253800D01*
X117201600Y-72253800D02*
X118531600Y-72253800D01*
X118531600Y-72253800D02*
X118531600Y-73583800D01*
X118531600Y-74853800D02*
X118531600Y-128253800D01*
%TO.C,J1*%
X150089400Y-140413800D02*
X150089400Y-139163800D01*
X149799400Y-140123800D02*
X149799400Y-134153800D01*
X149799400Y-134153800D02*
X119679400Y-134153800D01*
X149789400Y-140113800D02*
X149789400Y-139363800D01*
X149789400Y-139363800D02*
X147989400Y-139363800D01*
X149789400Y-137863800D02*
X149039400Y-137863800D01*
X149039400Y-137863800D02*
X149039400Y-134913800D01*
X149039400Y-134913800D02*
X134739400Y-134913800D01*
X148839400Y-140413800D02*
X150089400Y-140413800D01*
X147989400Y-140113800D02*
X149789400Y-140113800D01*
X147989400Y-139363800D02*
X147989400Y-140113800D01*
X146489400Y-140113800D02*
X146489400Y-139363800D01*
X146489400Y-139363800D02*
X122989400Y-139363800D01*
X122989400Y-140113800D02*
X146489400Y-140113800D01*
X122989400Y-139363800D02*
X122989400Y-140113800D01*
X121489400Y-140113800D02*
X121489400Y-139363800D01*
X121489400Y-139363800D02*
X119689400Y-139363800D01*
X120439400Y-137863800D02*
X120439400Y-134913800D01*
X120439400Y-134913800D02*
X134739400Y-134913800D01*
X119689400Y-140113800D02*
X121489400Y-140113800D01*
X119689400Y-139363800D02*
X119689400Y-140113800D01*
X119689400Y-137863800D02*
X120439400Y-137863800D01*
X119679400Y-140123800D02*
X149799400Y-140123800D01*
X119679400Y-134153800D02*
X119679400Y-140123800D01*
%TO.C,J11*%
X149901600Y-74853800D02*
X149901600Y-128253800D01*
X149901600Y-74853800D02*
X152561600Y-74853800D01*
X149901600Y-128253800D02*
X152561600Y-128253800D01*
X151231600Y-72253800D02*
X152561600Y-72253800D01*
X152561600Y-72253800D02*
X152561600Y-73583800D01*
X152561600Y-74853800D02*
X152561600Y-128253800D01*
%TO.C,J4*%
X158531600Y-74793800D02*
X158531600Y-74913800D01*
X158531600Y-74913800D02*
X161191600Y-74913800D01*
X159861600Y-72253800D02*
X161191600Y-72253800D01*
X161191600Y-72253800D02*
X161191600Y-73583800D01*
X161191600Y-74793800D02*
X161191600Y-74913800D01*
%TD*%
M02*
