%TF.GenerationSoftware,KiCad,Pcbnew,9.0.3*%
%TF.CreationDate,2025-07-24T13:33:20+07:00*%
%TF.ProjectId,shield,73686965-6c64-42e6-9b69-6361645f7063,rev?*%
%TF.SameCoordinates,Original*%
%TF.FileFunction,Copper,L1,Top*%
%TF.FilePolarity,Positive*%
%FSLAX46Y46*%
G04 Gerber Fmt 4.6, Leading zero omitted, Abs format (unit mm)*
G04 Created by KiCad (PCBNEW 9.0.3) date 2025-07-24 13:33:20*
%MOMM*%
%LPD*%
G01*
G04 APERTURE LIST*
G04 Aperture macros list*
%AMRoundRect*
0 Rectangle with rounded corners*
0 $1 Rounding radius*
0 $2 $3 $4 $5 $6 $7 $8 $9 X,Y pos of 4 corners*
0 Add a 4 corners polygon primitive as box body*
4,1,4,$2,$3,$4,$5,$6,$7,$8,$9,$2,$3,0*
0 Add four circle primitives for the rounded corners*
1,1,$1+$1,$2,$3*
1,1,$1+$1,$4,$5*
1,1,$1+$1,$6,$7*
1,1,$1+$1,$8,$9*
0 Add four rect primitives between the rounded corners*
20,1,$1+$1,$2,$3,$4,$5,0*
20,1,$1+$1,$4,$5,$6,$7,0*
20,1,$1+$1,$6,$7,$8,$9,0*
20,1,$1+$1,$8,$9,$2,$3,0*%
G04 Aperture macros list end*
%ADD10C,0.300000*%
%TA.AperFunction,NonConductor*%
%ADD11C,0.300000*%
%TD*%
%TA.AperFunction,NonConductor*%
%ADD12C,0.200000*%
%TD*%
%TA.AperFunction,ComponentPad*%
%ADD13R,1.700000X1.700000*%
%TD*%
%TA.AperFunction,ComponentPad*%
%ADD14C,1.700000*%
%TD*%
%TA.AperFunction,ComponentPad*%
%ADD15O,1.700000X1.950000*%
%TD*%
%TA.AperFunction,ComponentPad*%
%ADD16RoundRect,0.250000X0.600000X0.725000X-0.600000X0.725000X-0.600000X-0.725000X0.600000X-0.725000X0*%
%TD*%
%TA.AperFunction,ComponentPad*%
%ADD17R,4.600000X2.000000*%
%TD*%
%TA.AperFunction,ComponentPad*%
%ADD18O,4.200000X2.000000*%
%TD*%
%TA.AperFunction,ComponentPad*%
%ADD19O,2.000000X4.200000*%
%TD*%
%TA.AperFunction,ComponentPad*%
%ADD20RoundRect,0.250000X0.750000X-0.750000X0.750000X0.750000X-0.750000X0.750000X-0.750000X-0.750000X0*%
%TD*%
%TA.AperFunction,ComponentPad*%
%ADD21C,2.000000*%
%TD*%
G04 APERTURE END LIST*
D10*
D11*
X112287972Y-145995128D02*
X111430829Y-145995128D01*
X111859400Y-145995128D02*
X111859400Y-144495128D01*
X111859400Y-144495128D02*
X111716543Y-144709414D01*
X111716543Y-144709414D02*
X111573686Y-144852271D01*
X111573686Y-144852271D02*
X111430829Y-144923700D01*
X113216543Y-144495128D02*
X113359400Y-144495128D01*
X113359400Y-144495128D02*
X113502257Y-144566557D01*
X113502257Y-144566557D02*
X113573686Y-144637985D01*
X113573686Y-144637985D02*
X113645114Y-144780842D01*
X113645114Y-144780842D02*
X113716543Y-145066557D01*
X113716543Y-145066557D02*
X113716543Y-145423700D01*
X113716543Y-145423700D02*
X113645114Y-145709414D01*
X113645114Y-145709414D02*
X113573686Y-145852271D01*
X113573686Y-145852271D02*
X113502257Y-145923700D01*
X113502257Y-145923700D02*
X113359400Y-145995128D01*
X113359400Y-145995128D02*
X113216543Y-145995128D01*
X113216543Y-145995128D02*
X113073686Y-145923700D01*
X113073686Y-145923700D02*
X113002257Y-145852271D01*
X113002257Y-145852271D02*
X112930828Y-145709414D01*
X112930828Y-145709414D02*
X112859400Y-145423700D01*
X112859400Y-145423700D02*
X112859400Y-145066557D01*
X112859400Y-145066557D02*
X112930828Y-144780842D01*
X112930828Y-144780842D02*
X113002257Y-144637985D01*
X113002257Y-144637985D02*
X113073686Y-144566557D01*
X113073686Y-144566557D02*
X113216543Y-144495128D01*
X114359399Y-145852271D02*
X114430828Y-145923700D01*
X114430828Y-145923700D02*
X114359399Y-145995128D01*
X114359399Y-145995128D02*
X114287971Y-145923700D01*
X114287971Y-145923700D02*
X114359399Y-145852271D01*
X114359399Y-145852271D02*
X114359399Y-145995128D01*
X115859400Y-145995128D02*
X115002257Y-145995128D01*
X115430828Y-145995128D02*
X115430828Y-144495128D01*
X115430828Y-144495128D02*
X115287971Y-144709414D01*
X115287971Y-144709414D02*
X115145114Y-144852271D01*
X115145114Y-144852271D02*
X115002257Y-144923700D01*
X117145114Y-144495128D02*
X116859399Y-144495128D01*
X116859399Y-144495128D02*
X116716542Y-144566557D01*
X116716542Y-144566557D02*
X116645114Y-144637985D01*
X116645114Y-144637985D02*
X116502256Y-144852271D01*
X116502256Y-144852271D02*
X116430828Y-145137985D01*
X116430828Y-145137985D02*
X116430828Y-145709414D01*
X116430828Y-145709414D02*
X116502256Y-145852271D01*
X116502256Y-145852271D02*
X116573685Y-145923700D01*
X116573685Y-145923700D02*
X116716542Y-145995128D01*
X116716542Y-145995128D02*
X117002256Y-145995128D01*
X117002256Y-145995128D02*
X117145114Y-145923700D01*
X117145114Y-145923700D02*
X117216542Y-145852271D01*
X117216542Y-145852271D02*
X117287971Y-145709414D01*
X117287971Y-145709414D02*
X117287971Y-145352271D01*
X117287971Y-145352271D02*
X117216542Y-145209414D01*
X117216542Y-145209414D02*
X117145114Y-145137985D01*
X117145114Y-145137985D02*
X117002256Y-145066557D01*
X117002256Y-145066557D02*
X116716542Y-145066557D01*
X116716542Y-145066557D02*
X116573685Y-145137985D01*
X116573685Y-145137985D02*
X116502256Y-145209414D01*
X116502256Y-145209414D02*
X116430828Y-145352271D01*
D12*
X109279400Y-139913800D02*
X109279400Y-147703220D01*
X119439400Y-147703220D02*
X119439400Y-141013800D01*
X109279400Y-147116800D02*
X119439400Y-147116800D01*
X109279400Y-147116800D02*
X110405904Y-146530379D01*
X109279400Y-147116800D02*
X110405904Y-147703221D01*
X119439400Y-147116800D02*
X118312896Y-147703221D01*
X119439400Y-147116800D02*
X118312896Y-146530379D01*
D10*
D11*
X151713686Y-142361528D02*
X152713686Y-142361528D01*
X152713686Y-142361528D02*
X152070829Y-143861528D01*
X153285114Y-143718671D02*
X153356543Y-143790100D01*
X153356543Y-143790100D02*
X153285114Y-143861528D01*
X153285114Y-143861528D02*
X153213686Y-143790100D01*
X153213686Y-143790100D02*
X153285114Y-143718671D01*
X153285114Y-143718671D02*
X153285114Y-143861528D01*
X154642258Y-142361528D02*
X154356543Y-142361528D01*
X154356543Y-142361528D02*
X154213686Y-142432957D01*
X154213686Y-142432957D02*
X154142258Y-142504385D01*
X154142258Y-142504385D02*
X153999400Y-142718671D01*
X153999400Y-142718671D02*
X153927972Y-143004385D01*
X153927972Y-143004385D02*
X153927972Y-143575814D01*
X153927972Y-143575814D02*
X153999400Y-143718671D01*
X153999400Y-143718671D02*
X154070829Y-143790100D01*
X154070829Y-143790100D02*
X154213686Y-143861528D01*
X154213686Y-143861528D02*
X154499400Y-143861528D01*
X154499400Y-143861528D02*
X154642258Y-143790100D01*
X154642258Y-143790100D02*
X154713686Y-143718671D01*
X154713686Y-143718671D02*
X154785115Y-143575814D01*
X154785115Y-143575814D02*
X154785115Y-143218671D01*
X154785115Y-143218671D02*
X154713686Y-143075814D01*
X154713686Y-143075814D02*
X154642258Y-143004385D01*
X154642258Y-143004385D02*
X154499400Y-142932957D01*
X154499400Y-142932957D02*
X154213686Y-142932957D01*
X154213686Y-142932957D02*
X154070829Y-143004385D01*
X154070829Y-143004385D02*
X153999400Y-143075814D01*
X153999400Y-143075814D02*
X153927972Y-143218671D01*
X155356543Y-142504385D02*
X155427971Y-142432957D01*
X155427971Y-142432957D02*
X155570829Y-142361528D01*
X155570829Y-142361528D02*
X155927971Y-142361528D01*
X155927971Y-142361528D02*
X156070829Y-142432957D01*
X156070829Y-142432957D02*
X156142257Y-142504385D01*
X156142257Y-142504385D02*
X156213686Y-142647242D01*
X156213686Y-142647242D02*
X156213686Y-142790100D01*
X156213686Y-142790100D02*
X156142257Y-143004385D01*
X156142257Y-143004385D02*
X155285114Y-143861528D01*
X155285114Y-143861528D02*
X156213686Y-143861528D01*
D12*
X157809400Y-141013800D02*
X157809400Y-145569620D01*
X150189400Y-145569620D02*
X150189400Y-141013800D01*
X157809400Y-144983200D02*
X150189400Y-144983200D01*
X157809400Y-144983200D02*
X156682896Y-145569621D01*
X157809400Y-144983200D02*
X156682896Y-144396779D01*
X150189400Y-144983200D02*
X151315904Y-144396779D01*
X150189400Y-144983200D02*
X151315904Y-145569621D01*
D10*
D11*
X181528328Y-97046584D02*
X181528328Y-96118012D01*
X181528328Y-96118012D02*
X182099757Y-96618012D01*
X182099757Y-96618012D02*
X182099757Y-96403727D01*
X182099757Y-96403727D02*
X182171185Y-96260870D01*
X182171185Y-96260870D02*
X182242614Y-96189441D01*
X182242614Y-96189441D02*
X182385471Y-96118012D01*
X182385471Y-96118012D02*
X182742614Y-96118012D01*
X182742614Y-96118012D02*
X182885471Y-96189441D01*
X182885471Y-96189441D02*
X182956900Y-96260870D01*
X182956900Y-96260870D02*
X183028328Y-96403727D01*
X183028328Y-96403727D02*
X183028328Y-96832298D01*
X183028328Y-96832298D02*
X182956900Y-96975155D01*
X182956900Y-96975155D02*
X182885471Y-97046584D01*
X183028328Y-95403727D02*
X183028328Y-95118013D01*
X183028328Y-95118013D02*
X182956900Y-94975156D01*
X182956900Y-94975156D02*
X182885471Y-94903727D01*
X182885471Y-94903727D02*
X182671185Y-94760870D01*
X182671185Y-94760870D02*
X182385471Y-94689441D01*
X182385471Y-94689441D02*
X181814042Y-94689441D01*
X181814042Y-94689441D02*
X181671185Y-94760870D01*
X181671185Y-94760870D02*
X181599757Y-94832299D01*
X181599757Y-94832299D02*
X181528328Y-94975156D01*
X181528328Y-94975156D02*
X181528328Y-95260870D01*
X181528328Y-95260870D02*
X181599757Y-95403727D01*
X181599757Y-95403727D02*
X181671185Y-95475156D01*
X181671185Y-95475156D02*
X181814042Y-95546584D01*
X181814042Y-95546584D02*
X182171185Y-95546584D01*
X182171185Y-95546584D02*
X182314042Y-95475156D01*
X182314042Y-95475156D02*
X182385471Y-95403727D01*
X182385471Y-95403727D02*
X182456900Y-95260870D01*
X182456900Y-95260870D02*
X182456900Y-94975156D01*
X182456900Y-94975156D02*
X182385471Y-94832299D01*
X182385471Y-94832299D02*
X182314042Y-94760870D01*
X182314042Y-94760870D02*
X182171185Y-94689441D01*
X182885471Y-94046585D02*
X182956900Y-93975156D01*
X182956900Y-93975156D02*
X183028328Y-94046585D01*
X183028328Y-94046585D02*
X182956900Y-94118013D01*
X182956900Y-94118013D02*
X182885471Y-94046585D01*
X182885471Y-94046585D02*
X183028328Y-94046585D01*
X182028328Y-92689442D02*
X183028328Y-92689442D01*
X181456900Y-93046584D02*
X182528328Y-93403727D01*
X182528328Y-93403727D02*
X182528328Y-92475156D01*
X183028328Y-91832299D02*
X183028328Y-91546585D01*
X183028328Y-91546585D02*
X182956900Y-91403728D01*
X182956900Y-91403728D02*
X182885471Y-91332299D01*
X182885471Y-91332299D02*
X182671185Y-91189442D01*
X182671185Y-91189442D02*
X182385471Y-91118013D01*
X182385471Y-91118013D02*
X181814042Y-91118013D01*
X181814042Y-91118013D02*
X181671185Y-91189442D01*
X181671185Y-91189442D02*
X181599757Y-91260871D01*
X181599757Y-91260871D02*
X181528328Y-91403728D01*
X181528328Y-91403728D02*
X181528328Y-91689442D01*
X181528328Y-91689442D02*
X181599757Y-91832299D01*
X181599757Y-91832299D02*
X181671185Y-91903728D01*
X181671185Y-91903728D02*
X181814042Y-91975156D01*
X181814042Y-91975156D02*
X182171185Y-91975156D01*
X182171185Y-91975156D02*
X182314042Y-91903728D01*
X182314042Y-91903728D02*
X182385471Y-91832299D01*
X182385471Y-91832299D02*
X182456900Y-91689442D01*
X182456900Y-91689442D02*
X182456900Y-91403728D01*
X182456900Y-91403728D02*
X182385471Y-91260871D01*
X182385471Y-91260871D02*
X182314042Y-91189442D01*
X182314042Y-91189442D02*
X182171185Y-91118013D01*
X181528328Y-90618014D02*
X181528328Y-89618014D01*
X181528328Y-89618014D02*
X183028328Y-90260871D01*
D12*
X177506600Y-73583800D02*
X184736420Y-73583800D01*
X184736420Y-113080800D02*
X177506600Y-113080800D01*
X184150000Y-73583800D02*
X184150000Y-113080800D01*
X184150000Y-73583800D02*
X184736421Y-74710304D01*
X184150000Y-73583800D02*
X183563579Y-74710304D01*
X184150000Y-113080800D02*
X183563579Y-111954296D01*
X184150000Y-113080800D02*
X184736421Y-111954296D01*
D10*
D11*
X165648387Y-62352928D02*
X164791244Y-62352928D01*
X165219815Y-62352928D02*
X165219815Y-60852928D01*
X165219815Y-60852928D02*
X165076958Y-61067214D01*
X165076958Y-61067214D02*
X164934101Y-61210071D01*
X164934101Y-61210071D02*
X164791244Y-61281500D01*
X166148386Y-60852928D02*
X167148386Y-60852928D01*
X167148386Y-60852928D02*
X166505529Y-62352928D01*
X167719814Y-62210071D02*
X167791243Y-62281500D01*
X167791243Y-62281500D02*
X167719814Y-62352928D01*
X167719814Y-62352928D02*
X167648386Y-62281500D01*
X167648386Y-62281500D02*
X167719814Y-62210071D01*
X167719814Y-62210071D02*
X167719814Y-62352928D01*
X169219815Y-62352928D02*
X168362672Y-62352928D01*
X168791243Y-62352928D02*
X168791243Y-60852928D01*
X168791243Y-60852928D02*
X168648386Y-61067214D01*
X168648386Y-61067214D02*
X168505529Y-61210071D01*
X168505529Y-61210071D02*
X168362672Y-61281500D01*
X170505529Y-61352928D02*
X170505529Y-62352928D01*
X170148386Y-60781500D02*
X169791243Y-61852928D01*
X169791243Y-61852928D02*
X170719814Y-61852928D01*
X172005528Y-60852928D02*
X171291242Y-60852928D01*
X171291242Y-60852928D02*
X171219814Y-61567214D01*
X171219814Y-61567214D02*
X171291242Y-61495785D01*
X171291242Y-61495785D02*
X171434100Y-61424357D01*
X171434100Y-61424357D02*
X171791242Y-61424357D01*
X171791242Y-61424357D02*
X171934100Y-61495785D01*
X171934100Y-61495785D02*
X172005528Y-61567214D01*
X172005528Y-61567214D02*
X172076957Y-61710071D01*
X172076957Y-61710071D02*
X172076957Y-62067214D01*
X172076957Y-62067214D02*
X172005528Y-62210071D01*
X172005528Y-62210071D02*
X171934100Y-62281500D01*
X171934100Y-62281500D02*
X171791242Y-62352928D01*
X171791242Y-62352928D02*
X171434100Y-62352928D01*
X171434100Y-62352928D02*
X171291242Y-62281500D01*
X171291242Y-62281500D02*
X171219814Y-62210071D01*
D12*
X159861600Y-73083800D02*
X159861600Y-62888180D01*
X177006600Y-62888180D02*
X177006600Y-73083800D01*
X159861600Y-63474600D02*
X177006600Y-63474600D01*
X159861600Y-63474600D02*
X160988104Y-62888179D01*
X159861600Y-63474600D02*
X160988104Y-64061021D01*
X177006600Y-63474600D02*
X175880096Y-64061021D01*
X177006600Y-63474600D02*
X175880096Y-62888179D01*
D10*
D11*
X154093029Y-61183128D02*
X153378743Y-61183128D01*
X153378743Y-61183128D02*
X153307315Y-61897414D01*
X153307315Y-61897414D02*
X153378743Y-61825985D01*
X153378743Y-61825985D02*
X153521601Y-61754557D01*
X153521601Y-61754557D02*
X153878743Y-61754557D01*
X153878743Y-61754557D02*
X154021601Y-61825985D01*
X154021601Y-61825985D02*
X154093029Y-61897414D01*
X154093029Y-61897414D02*
X154164458Y-62040271D01*
X154164458Y-62040271D02*
X154164458Y-62397414D01*
X154164458Y-62397414D02*
X154093029Y-62540271D01*
X154093029Y-62540271D02*
X154021601Y-62611700D01*
X154021601Y-62611700D02*
X153878743Y-62683128D01*
X153878743Y-62683128D02*
X153521601Y-62683128D01*
X153521601Y-62683128D02*
X153378743Y-62611700D01*
X153378743Y-62611700D02*
X153307315Y-62540271D01*
X154807314Y-62540271D02*
X154878743Y-62611700D01*
X154878743Y-62611700D02*
X154807314Y-62683128D01*
X154807314Y-62683128D02*
X154735886Y-62611700D01*
X154735886Y-62611700D02*
X154807314Y-62540271D01*
X154807314Y-62540271D02*
X154807314Y-62683128D01*
X155807315Y-61183128D02*
X155950172Y-61183128D01*
X155950172Y-61183128D02*
X156093029Y-61254557D01*
X156093029Y-61254557D02*
X156164458Y-61325985D01*
X156164458Y-61325985D02*
X156235886Y-61468842D01*
X156235886Y-61468842D02*
X156307315Y-61754557D01*
X156307315Y-61754557D02*
X156307315Y-62111700D01*
X156307315Y-62111700D02*
X156235886Y-62397414D01*
X156235886Y-62397414D02*
X156164458Y-62540271D01*
X156164458Y-62540271D02*
X156093029Y-62611700D01*
X156093029Y-62611700D02*
X155950172Y-62683128D01*
X155950172Y-62683128D02*
X155807315Y-62683128D01*
X155807315Y-62683128D02*
X155664458Y-62611700D01*
X155664458Y-62611700D02*
X155593029Y-62540271D01*
X155593029Y-62540271D02*
X155521600Y-62397414D01*
X155521600Y-62397414D02*
X155450172Y-62111700D01*
X155450172Y-62111700D02*
X155450172Y-61754557D01*
X155450172Y-61754557D02*
X155521600Y-61468842D01*
X155521600Y-61468842D02*
X155593029Y-61325985D01*
X155593029Y-61325985D02*
X155664458Y-61254557D01*
X155664458Y-61254557D02*
X155807315Y-61183128D01*
X157164457Y-61825985D02*
X157021600Y-61754557D01*
X157021600Y-61754557D02*
X156950171Y-61683128D01*
X156950171Y-61683128D02*
X156878743Y-61540271D01*
X156878743Y-61540271D02*
X156878743Y-61468842D01*
X156878743Y-61468842D02*
X156950171Y-61325985D01*
X156950171Y-61325985D02*
X157021600Y-61254557D01*
X157021600Y-61254557D02*
X157164457Y-61183128D01*
X157164457Y-61183128D02*
X157450171Y-61183128D01*
X157450171Y-61183128D02*
X157593029Y-61254557D01*
X157593029Y-61254557D02*
X157664457Y-61325985D01*
X157664457Y-61325985D02*
X157735886Y-61468842D01*
X157735886Y-61468842D02*
X157735886Y-61540271D01*
X157735886Y-61540271D02*
X157664457Y-61683128D01*
X157664457Y-61683128D02*
X157593029Y-61754557D01*
X157593029Y-61754557D02*
X157450171Y-61825985D01*
X157450171Y-61825985D02*
X157164457Y-61825985D01*
X157164457Y-61825985D02*
X157021600Y-61897414D01*
X157021600Y-61897414D02*
X156950171Y-61968842D01*
X156950171Y-61968842D02*
X156878743Y-62111700D01*
X156878743Y-62111700D02*
X156878743Y-62397414D01*
X156878743Y-62397414D02*
X156950171Y-62540271D01*
X156950171Y-62540271D02*
X157021600Y-62611700D01*
X157021600Y-62611700D02*
X157164457Y-62683128D01*
X157164457Y-62683128D02*
X157450171Y-62683128D01*
X157450171Y-62683128D02*
X157593029Y-62611700D01*
X157593029Y-62611700D02*
X157664457Y-62540271D01*
X157664457Y-62540271D02*
X157735886Y-62397414D01*
X157735886Y-62397414D02*
X157735886Y-62111700D01*
X157735886Y-62111700D02*
X157664457Y-61968842D01*
X157664457Y-61968842D02*
X157593029Y-61897414D01*
X157593029Y-61897414D02*
X157450171Y-61825985D01*
D12*
X152981600Y-71283800D02*
X152981600Y-63218380D01*
X158061600Y-63218380D02*
X158061600Y-71283800D01*
X152981600Y-63804800D02*
X158061600Y-63804800D01*
X152981600Y-63804800D02*
X154108104Y-63218379D01*
X152981600Y-63804800D02*
X154108104Y-64391221D01*
X158061600Y-63804800D02*
X156935096Y-64391221D01*
X158061600Y-63804800D02*
X156935096Y-63218379D01*
D10*
D11*
X87573728Y-132652370D02*
X87573728Y-133366656D01*
X87573728Y-133366656D02*
X88288014Y-133438084D01*
X88288014Y-133438084D02*
X88216585Y-133366656D01*
X88216585Y-133366656D02*
X88145157Y-133223799D01*
X88145157Y-133223799D02*
X88145157Y-132866656D01*
X88145157Y-132866656D02*
X88216585Y-132723799D01*
X88216585Y-132723799D02*
X88288014Y-132652370D01*
X88288014Y-132652370D02*
X88430871Y-132580941D01*
X88430871Y-132580941D02*
X88788014Y-132580941D01*
X88788014Y-132580941D02*
X88930871Y-132652370D01*
X88930871Y-132652370D02*
X89002300Y-132723799D01*
X89002300Y-132723799D02*
X89073728Y-132866656D01*
X89073728Y-132866656D02*
X89073728Y-133223799D01*
X89073728Y-133223799D02*
X89002300Y-133366656D01*
X89002300Y-133366656D02*
X88930871Y-133438084D01*
X88930871Y-131938085D02*
X89002300Y-131866656D01*
X89002300Y-131866656D02*
X89073728Y-131938085D01*
X89073728Y-131938085D02*
X89002300Y-132009513D01*
X89002300Y-132009513D02*
X88930871Y-131938085D01*
X88930871Y-131938085D02*
X89073728Y-131938085D01*
X87573728Y-130938084D02*
X87573728Y-130795227D01*
X87573728Y-130795227D02*
X87645157Y-130652370D01*
X87645157Y-130652370D02*
X87716585Y-130580942D01*
X87716585Y-130580942D02*
X87859442Y-130509513D01*
X87859442Y-130509513D02*
X88145157Y-130438084D01*
X88145157Y-130438084D02*
X88502300Y-130438084D01*
X88502300Y-130438084D02*
X88788014Y-130509513D01*
X88788014Y-130509513D02*
X88930871Y-130580942D01*
X88930871Y-130580942D02*
X89002300Y-130652370D01*
X89002300Y-130652370D02*
X89073728Y-130795227D01*
X89073728Y-130795227D02*
X89073728Y-130938084D01*
X89073728Y-130938084D02*
X89002300Y-131080942D01*
X89002300Y-131080942D02*
X88930871Y-131152370D01*
X88930871Y-131152370D02*
X88788014Y-131223799D01*
X88788014Y-131223799D02*
X88502300Y-131295227D01*
X88502300Y-131295227D02*
X88145157Y-131295227D01*
X88145157Y-131295227D02*
X87859442Y-131223799D01*
X87859442Y-131223799D02*
X87716585Y-131152370D01*
X87716585Y-131152370D02*
X87645157Y-131080942D01*
X87645157Y-131080942D02*
X87573728Y-130938084D01*
X88216585Y-129580942D02*
X88145157Y-129723799D01*
X88145157Y-129723799D02*
X88073728Y-129795228D01*
X88073728Y-129795228D02*
X87930871Y-129866656D01*
X87930871Y-129866656D02*
X87859442Y-129866656D01*
X87859442Y-129866656D02*
X87716585Y-129795228D01*
X87716585Y-129795228D02*
X87645157Y-129723799D01*
X87645157Y-129723799D02*
X87573728Y-129580942D01*
X87573728Y-129580942D02*
X87573728Y-129295228D01*
X87573728Y-129295228D02*
X87645157Y-129152371D01*
X87645157Y-129152371D02*
X87716585Y-129080942D01*
X87716585Y-129080942D02*
X87859442Y-129009513D01*
X87859442Y-129009513D02*
X87930871Y-129009513D01*
X87930871Y-129009513D02*
X88073728Y-129080942D01*
X88073728Y-129080942D02*
X88145157Y-129152371D01*
X88145157Y-129152371D02*
X88216585Y-129295228D01*
X88216585Y-129295228D02*
X88216585Y-129580942D01*
X88216585Y-129580942D02*
X88288014Y-129723799D01*
X88288014Y-129723799D02*
X88359442Y-129795228D01*
X88359442Y-129795228D02*
X88502300Y-129866656D01*
X88502300Y-129866656D02*
X88788014Y-129866656D01*
X88788014Y-129866656D02*
X88930871Y-129795228D01*
X88930871Y-129795228D02*
X89002300Y-129723799D01*
X89002300Y-129723799D02*
X89073728Y-129580942D01*
X89073728Y-129580942D02*
X89073728Y-129295228D01*
X89073728Y-129295228D02*
X89002300Y-129152371D01*
X89002300Y-129152371D02*
X88930871Y-129080942D01*
X88930871Y-129080942D02*
X88788014Y-129009513D01*
X88788014Y-129009513D02*
X88502300Y-129009513D01*
X88502300Y-129009513D02*
X88359442Y-129080942D01*
X88359442Y-129080942D02*
X88288014Y-129152371D01*
X88288014Y-129152371D02*
X88216585Y-129295228D01*
D12*
X114901600Y-128683800D02*
X89608980Y-128683800D01*
X89608980Y-133763800D02*
X118789400Y-133763800D01*
X90195400Y-128683800D02*
X90195400Y-133763800D01*
X90195400Y-128683800D02*
X90781821Y-129810304D01*
X90195400Y-128683800D02*
X89608979Y-129810304D01*
X90195400Y-133763800D02*
X89608979Y-132637296D01*
X90195400Y-133763800D02*
X90781821Y-132637296D01*
D10*
D11*
X145947315Y-61579985D02*
X146018743Y-61508557D01*
X146018743Y-61508557D02*
X146161601Y-61437128D01*
X146161601Y-61437128D02*
X146518743Y-61437128D01*
X146518743Y-61437128D02*
X146661601Y-61508557D01*
X146661601Y-61508557D02*
X146733029Y-61579985D01*
X146733029Y-61579985D02*
X146804458Y-61722842D01*
X146804458Y-61722842D02*
X146804458Y-61865700D01*
X146804458Y-61865700D02*
X146733029Y-62079985D01*
X146733029Y-62079985D02*
X145875886Y-62937128D01*
X145875886Y-62937128D02*
X146804458Y-62937128D01*
X147447314Y-62794271D02*
X147518743Y-62865700D01*
X147518743Y-62865700D02*
X147447314Y-62937128D01*
X147447314Y-62937128D02*
X147375886Y-62865700D01*
X147375886Y-62865700D02*
X147447314Y-62794271D01*
X147447314Y-62794271D02*
X147447314Y-62937128D01*
X148875886Y-61437128D02*
X148161600Y-61437128D01*
X148161600Y-61437128D02*
X148090172Y-62151414D01*
X148090172Y-62151414D02*
X148161600Y-62079985D01*
X148161600Y-62079985D02*
X148304458Y-62008557D01*
X148304458Y-62008557D02*
X148661600Y-62008557D01*
X148661600Y-62008557D02*
X148804458Y-62079985D01*
X148804458Y-62079985D02*
X148875886Y-62151414D01*
X148875886Y-62151414D02*
X148947315Y-62294271D01*
X148947315Y-62294271D02*
X148947315Y-62651414D01*
X148947315Y-62651414D02*
X148875886Y-62794271D01*
X148875886Y-62794271D02*
X148804458Y-62865700D01*
X148804458Y-62865700D02*
X148661600Y-62937128D01*
X148661600Y-62937128D02*
X148304458Y-62937128D01*
X148304458Y-62937128D02*
X148161600Y-62865700D01*
X148161600Y-62865700D02*
X148090172Y-62794271D01*
X150233029Y-61937128D02*
X150233029Y-62937128D01*
X149875886Y-61365700D02*
X149518743Y-62437128D01*
X149518743Y-62437128D02*
X150447314Y-62437128D01*
D12*
X149431600Y-71283800D02*
X149431600Y-63472380D01*
X146891600Y-63472380D02*
X146891600Y-71283800D01*
X149431600Y-64058800D02*
X146891600Y-64058800D01*
X149431600Y-64058800D02*
X148305096Y-64645221D01*
X149431600Y-64058800D02*
X148305096Y-63472379D01*
X146891600Y-64058800D02*
X148018104Y-63472379D01*
X146891600Y-64058800D02*
X148018104Y-64645221D01*
D10*
D11*
X118007315Y-62189585D02*
X118078743Y-62118157D01*
X118078743Y-62118157D02*
X118221601Y-62046728D01*
X118221601Y-62046728D02*
X118578743Y-62046728D01*
X118578743Y-62046728D02*
X118721601Y-62118157D01*
X118721601Y-62118157D02*
X118793029Y-62189585D01*
X118793029Y-62189585D02*
X118864458Y-62332442D01*
X118864458Y-62332442D02*
X118864458Y-62475300D01*
X118864458Y-62475300D02*
X118793029Y-62689585D01*
X118793029Y-62689585D02*
X117935886Y-63546728D01*
X117935886Y-63546728D02*
X118864458Y-63546728D01*
X119507314Y-63403871D02*
X119578743Y-63475300D01*
X119578743Y-63475300D02*
X119507314Y-63546728D01*
X119507314Y-63546728D02*
X119435886Y-63475300D01*
X119435886Y-63475300D02*
X119507314Y-63403871D01*
X119507314Y-63403871D02*
X119507314Y-63546728D01*
X120935886Y-62046728D02*
X120221600Y-62046728D01*
X120221600Y-62046728D02*
X120150172Y-62761014D01*
X120150172Y-62761014D02*
X120221600Y-62689585D01*
X120221600Y-62689585D02*
X120364458Y-62618157D01*
X120364458Y-62618157D02*
X120721600Y-62618157D01*
X120721600Y-62618157D02*
X120864458Y-62689585D01*
X120864458Y-62689585D02*
X120935886Y-62761014D01*
X120935886Y-62761014D02*
X121007315Y-62903871D01*
X121007315Y-62903871D02*
X121007315Y-63261014D01*
X121007315Y-63261014D02*
X120935886Y-63403871D01*
X120935886Y-63403871D02*
X120864458Y-63475300D01*
X120864458Y-63475300D02*
X120721600Y-63546728D01*
X120721600Y-63546728D02*
X120364458Y-63546728D01*
X120364458Y-63546728D02*
X120221600Y-63475300D01*
X120221600Y-63475300D02*
X120150172Y-63403871D01*
X122293029Y-62546728D02*
X122293029Y-63546728D01*
X121935886Y-61975300D02*
X121578743Y-63046728D01*
X121578743Y-63046728D02*
X122507314Y-63046728D01*
D12*
X118951600Y-71283800D02*
X118951600Y-64081980D01*
X121491600Y-64081980D02*
X121491600Y-71283800D01*
X118951600Y-64668400D02*
X121491600Y-64668400D01*
X118951600Y-64668400D02*
X120078104Y-64081979D01*
X118951600Y-64668400D02*
X120078104Y-65254821D01*
X121491600Y-64668400D02*
X120365096Y-65254821D01*
X121491600Y-64668400D02*
X120365096Y-64081979D01*
D10*
D11*
X131977315Y-65415385D02*
X132048743Y-65343957D01*
X132048743Y-65343957D02*
X132191601Y-65272528D01*
X132191601Y-65272528D02*
X132548743Y-65272528D01*
X132548743Y-65272528D02*
X132691601Y-65343957D01*
X132691601Y-65343957D02*
X132763029Y-65415385D01*
X132763029Y-65415385D02*
X132834458Y-65558242D01*
X132834458Y-65558242D02*
X132834458Y-65701100D01*
X132834458Y-65701100D02*
X132763029Y-65915385D01*
X132763029Y-65915385D02*
X131905886Y-66772528D01*
X131905886Y-66772528D02*
X132834458Y-66772528D01*
X134191600Y-65272528D02*
X133477314Y-65272528D01*
X133477314Y-65272528D02*
X133405886Y-65986814D01*
X133405886Y-65986814D02*
X133477314Y-65915385D01*
X133477314Y-65915385D02*
X133620172Y-65843957D01*
X133620172Y-65843957D02*
X133977314Y-65843957D01*
X133977314Y-65843957D02*
X134120172Y-65915385D01*
X134120172Y-65915385D02*
X134191600Y-65986814D01*
X134191600Y-65986814D02*
X134263029Y-66129671D01*
X134263029Y-66129671D02*
X134263029Y-66486814D01*
X134263029Y-66486814D02*
X134191600Y-66629671D01*
X134191600Y-66629671D02*
X134120172Y-66701100D01*
X134120172Y-66701100D02*
X133977314Y-66772528D01*
X133977314Y-66772528D02*
X133620172Y-66772528D01*
X133620172Y-66772528D02*
X133477314Y-66701100D01*
X133477314Y-66701100D02*
X133405886Y-66629671D01*
X134905885Y-66629671D02*
X134977314Y-66701100D01*
X134977314Y-66701100D02*
X134905885Y-66772528D01*
X134905885Y-66772528D02*
X134834457Y-66701100D01*
X134834457Y-66701100D02*
X134905885Y-66629671D01*
X134905885Y-66629671D02*
X134905885Y-66772528D01*
X136263029Y-65772528D02*
X136263029Y-66772528D01*
X135905886Y-65201100D02*
X135548743Y-66272528D01*
X135548743Y-66272528D02*
X136477314Y-66272528D01*
D12*
X121491600Y-71283800D02*
X121491600Y-67307780D01*
X146891600Y-71283800D02*
X146891600Y-67307780D01*
X121491600Y-67894200D02*
X146891600Y-67894200D01*
X121491600Y-67894200D02*
X122618104Y-67307779D01*
X121491600Y-67894200D02*
X122618104Y-68480621D01*
X146891600Y-67894200D02*
X145765096Y-68480621D01*
X146891600Y-67894200D02*
X145765096Y-67307779D01*
D13*
%TO.P,J2,1,Pin_1*%
%TO.N,+3V3*%
X107479400Y-137663800D03*
D14*
%TO.P,J2,2,Pin_2*%
%TO.N,GND*%
X104939400Y-137663800D03*
%TO.P,J2,3,Pin_3*%
%TO.N,/GPIO12+SCL*%
X102399400Y-137663800D03*
%TO.P,J2,4,Pin_4*%
%TO.N,/GPIO11+SDA*%
X99859400Y-137663800D03*
%TO.P,J2,5,Pin_5*%
%TO.N,/GPIO16*%
X97319400Y-137663800D03*
%TD*%
D15*
%TO.P,J3,3,Pin_3*%
%TO.N,GND*%
X160759400Y-137663800D03*
%TO.P,J3,2,Pin_2*%
%TO.N,Net-(J3-Pin_2)*%
X163259400Y-137663800D03*
D16*
%TO.P,J3,1,Pin_1*%
%TO.N,/GPIO15*%
X165759400Y-137663800D03*
%TD*%
D13*
%TO.P,J7,1,Pin_1*%
%TO.N,GND*%
X177006600Y-113080800D03*
%TD*%
%TO.P,J6,1,Pin_1*%
%TO.N,Net-(J3-Pin_2)*%
X159861600Y-113080800D03*
%TD*%
D14*
%TO.P,J9,22,Pin_22*%
%TO.N,GND*%
X145141600Y-126923800D03*
%TO.P,J9,21,Pin_21*%
X145141600Y-124383800D03*
%TO.P,J9,20,Pin_20*%
%TO.N,Net-(J11-Pin_20)*%
X145141600Y-121843800D03*
%TO.P,J9,19,Pin_19*%
%TO.N,Net-(J11-Pin_19)*%
X145141600Y-119303800D03*
%TO.P,J9,18,Pin_18*%
%TO.N,Net-(J11-Pin_18)*%
X145141600Y-116763800D03*
%TO.P,J9,17,Pin_17*%
%TO.N,Net-(J11-Pin_17)*%
X145141600Y-114223800D03*
%TO.P,J9,16,Pin_16*%
%TO.N,Net-(J11-Pin_16)*%
X145141600Y-111683800D03*
%TO.P,J9,15,Pin_15*%
%TO.N,Net-(J11-Pin_15)*%
X145141600Y-109143800D03*
%TO.P,J9,14,Pin_14*%
%TO.N,Net-(J11-Pin_14)*%
X145141600Y-106603800D03*
%TO.P,J9,13,Pin_13*%
%TO.N,Net-(J11-Pin_13)*%
X145141600Y-104063800D03*
%TO.P,J9,12,Pin_12*%
%TO.N,Net-(J11-Pin_12)*%
X145141600Y-101523800D03*
%TO.P,J9,11,Pin_11*%
%TO.N,Net-(J11-Pin_11)*%
X145141600Y-98983800D03*
%TO.P,J9,10,Pin_10*%
%TO.N,Net-(J11-Pin_10)*%
X145141600Y-96443800D03*
%TO.P,J9,9,Pin_9*%
%TO.N,Net-(J11-Pin_9)*%
X145141600Y-93903800D03*
%TO.P,J9,8,Pin_8*%
%TO.N,Net-(J11-Pin_8)*%
X145141600Y-91363800D03*
%TO.P,J9,7,Pin_7*%
%TO.N,Net-(J11-Pin_7)*%
X145141600Y-88823800D03*
%TO.P,J9,6,Pin_6*%
%TO.N,Net-(J11-Pin_6)*%
X145141600Y-86283800D03*
%TO.P,J9,5,Pin_5*%
%TO.N,/GPIO2*%
X145141600Y-83743800D03*
%TO.P,J9,4,Pin_4*%
%TO.N,/GPIO1*%
X145141600Y-81203800D03*
%TO.P,J9,3,Pin_3*%
%TO.N,Net-(J11-Pin_3)*%
X145141600Y-78663800D03*
%TO.P,J9,2,Pin_2*%
%TO.N,Net-(J11-Pin_2)*%
X145141600Y-76123800D03*
D13*
%TO.P,J9,1,Pin_1*%
%TO.N,GND*%
X145141600Y-73583800D03*
%TD*%
D14*
%TO.P,J8,22,Pin_22*%
%TO.N,GND*%
X123291600Y-126923800D03*
%TO.P,J8,21,Pin_21*%
%TO.N,+5V*%
X123291600Y-124383800D03*
%TO.P,J8,20,Pin_20*%
%TO.N,/GPIO14*%
X123291600Y-121843800D03*
%TO.P,J8,19,Pin_19*%
%TO.N,/GPIO13*%
X123291600Y-119303800D03*
%TO.P,J8,18,Pin_18*%
%TO.N,/GPIO12+SCL*%
X123291600Y-116763800D03*
%TO.P,J8,17,Pin_17*%
%TO.N,/GPIO11+SDA*%
X123291600Y-114223800D03*
%TO.P,J8,16,Pin_16*%
%TO.N,/GPIO10*%
X123291600Y-111683800D03*
%TO.P,J8,15,Pin_15*%
%TO.N,/GPIO9*%
X123291600Y-109143800D03*
%TO.P,J8,14,Pin_14*%
%TO.N,Net-(J10-Pin_14)*%
X123291600Y-106603800D03*
%TO.P,J8,13,Pin_13*%
%TO.N,Net-(J10-Pin_13)*%
X123291600Y-104063800D03*
%TO.P,J8,12,Pin_12*%
%TO.N,/GPIO8*%
X123291600Y-101523800D03*
%TO.P,J8,11,Pin_11*%
%TO.N,/GPIO18*%
X123291600Y-98983800D03*
%TO.P,J8,10,Pin_10*%
%TO.N,/GPIO17*%
X123291600Y-96443800D03*
%TO.P,J8,9,Pin_9*%
%TO.N,/GPIO16*%
X123291600Y-93903800D03*
%TO.P,J8,8,Pin_8*%
%TO.N,/GPIO15*%
X123291600Y-91363800D03*
%TO.P,J8,7,Pin_7*%
%TO.N,/GPIO7*%
X123291600Y-88823800D03*
%TO.P,J8,6,Pin_6*%
%TO.N,/GPIO6*%
X123291600Y-86283800D03*
%TO.P,J8,5,Pin_5*%
%TO.N,/GPIO5*%
X123291600Y-83743800D03*
%TO.P,J8,4,Pin_4*%
%TO.N,/GPIO4*%
X123291600Y-81203800D03*
%TO.P,J8,3,Pin_3*%
%TO.N,Net-(J10-Pin_3)*%
X123291600Y-78663800D03*
%TO.P,J8,2,Pin_2*%
%TO.N,Net-(J10-Pin_2)*%
X123291600Y-76123800D03*
D13*
%TO.P,J8,1,Pin_1*%
%TO.N,+3V3*%
X123291600Y-73583800D03*
%TD*%
D17*
%TO.P,J12,1*%
%TO.N,VCC*%
X177952400Y-135153400D03*
D18*
%TO.P,J12,2*%
%TO.N,GND*%
X177952400Y-141453400D03*
D19*
%TO.P,J12,3*%
%TO.N,N/C*%
X182752400Y-138053400D03*
%TD*%
D13*
%TO.P,J5,1,Pin_1*%
%TO.N,GND*%
X177006600Y-73583800D03*
%TD*%
D20*
%TO.P,C1,1*%
%TO.N,VCC*%
X177088800Y-127707400D03*
D21*
%TO.P,C1,2*%
%TO.N,GND*%
X177088800Y-122707400D03*
%TD*%
D13*
%TO.P,J10,1,Pin_1*%
%TO.N,+3V3*%
X117201600Y-73583800D03*
D14*
%TO.P,J10,2,Pin_2*%
%TO.N,Net-(J10-Pin_2)*%
X117201600Y-76123800D03*
%TO.P,J10,3,Pin_3*%
%TO.N,Net-(J10-Pin_3)*%
X117201600Y-78663800D03*
%TO.P,J10,4,Pin_4*%
%TO.N,/GPIO4*%
X117201600Y-81203800D03*
%TO.P,J10,5,Pin_5*%
%TO.N,/GPIO5*%
X117201600Y-83743800D03*
%TO.P,J10,6,Pin_6*%
%TO.N,/GPIO6*%
X117201600Y-86283800D03*
%TO.P,J10,7,Pin_7*%
%TO.N,/GPIO7*%
X117201600Y-88823800D03*
%TO.P,J10,8,Pin_8*%
%TO.N,/GPIO15*%
X117201600Y-91363800D03*
%TO.P,J10,9,Pin_9*%
%TO.N,/GPIO16*%
X117201600Y-93903800D03*
%TO.P,J10,10,Pin_10*%
%TO.N,/GPIO17*%
X117201600Y-96443800D03*
%TO.P,J10,11,Pin_11*%
%TO.N,/GPIO18*%
X117201600Y-98983800D03*
%TO.P,J10,12,Pin_12*%
%TO.N,/GPIO8*%
X117201600Y-101523800D03*
%TO.P,J10,13,Pin_13*%
%TO.N,Net-(J10-Pin_13)*%
X117201600Y-104063800D03*
%TO.P,J10,14,Pin_14*%
%TO.N,Net-(J10-Pin_14)*%
X117201600Y-106603800D03*
%TO.P,J10,15,Pin_15*%
%TO.N,/GPIO9*%
X117201600Y-109143800D03*
%TO.P,J10,16,Pin_16*%
%TO.N,/GPIO10*%
X117201600Y-111683800D03*
%TO.P,J10,17,Pin_17*%
%TO.N,/GPIO11+SDA*%
X117201600Y-114223800D03*
%TO.P,J10,18,Pin_18*%
%TO.N,/GPIO12+SCL*%
X117201600Y-116763800D03*
%TO.P,J10,19,Pin_19*%
%TO.N,/GPIO13*%
X117201600Y-119303800D03*
%TO.P,J10,20,Pin_20*%
%TO.N,/GPIO14*%
X117201600Y-121843800D03*
%TO.P,J10,21,Pin_21*%
%TO.N,+5V*%
X117201600Y-124383800D03*
%TO.P,J10,22,Pin_22*%
%TO.N,GND*%
X117201600Y-126923800D03*
%TD*%
D16*
%TO.P,J1,1,Pin_1*%
%TO.N,/GPIO4*%
X147239400Y-137663800D03*
D15*
%TO.P,J1,2,Pin_2*%
%TO.N,/GPIO5*%
X144739400Y-137663800D03*
%TO.P,J1,3,Pin_3*%
%TO.N,/GPIO6*%
X142239400Y-137663800D03*
%TO.P,J1,4,Pin_4*%
%TO.N,/GPIO7*%
X139739400Y-137663800D03*
%TO.P,J1,5,Pin_5*%
%TO.N,/GPIO8*%
X137239400Y-137663800D03*
%TO.P,J1,6,Pin_6*%
%TO.N,/GPIO9*%
X134739400Y-137663800D03*
%TO.P,J1,7,Pin_7*%
%TO.N,/GPIO10*%
X132239400Y-137663800D03*
%TO.P,J1,8,Pin_8*%
%TO.N,/GPIO1*%
X129739400Y-137663800D03*
%TO.P,J1,9,Pin_9*%
%TO.N,unconnected-(J1-Pin_9-Pad9)*%
X127239400Y-137663800D03*
%TO.P,J1,10,Pin_10*%
%TO.N,+3V3*%
X124739400Y-137663800D03*
%TO.P,J1,11,Pin_11*%
%TO.N,GND*%
X122239400Y-137663800D03*
%TD*%
D13*
%TO.P,J11,1,Pin_1*%
%TO.N,GND*%
X151231600Y-73583800D03*
D14*
%TO.P,J11,2,Pin_2*%
%TO.N,Net-(J11-Pin_2)*%
X151231600Y-76123800D03*
%TO.P,J11,3,Pin_3*%
%TO.N,Net-(J11-Pin_3)*%
X151231600Y-78663800D03*
%TO.P,J11,4,Pin_4*%
%TO.N,/GPIO1*%
X151231600Y-81203800D03*
%TO.P,J11,5,Pin_5*%
%TO.N,/GPIO2*%
X151231600Y-83743800D03*
%TO.P,J11,6,Pin_6*%
%TO.N,Net-(J11-Pin_6)*%
X151231600Y-86283800D03*
%TO.P,J11,7,Pin_7*%
%TO.N,Net-(J11-Pin_7)*%
X151231600Y-88823800D03*
%TO.P,J11,8,Pin_8*%
%TO.N,Net-(J11-Pin_8)*%
X151231600Y-91363800D03*
%TO.P,J11,9,Pin_9*%
%TO.N,Net-(J11-Pin_9)*%
X151231600Y-93903800D03*
%TO.P,J11,10,Pin_10*%
%TO.N,Net-(J11-Pin_10)*%
X151231600Y-96443800D03*
%TO.P,J11,11,Pin_11*%
%TO.N,Net-(J11-Pin_11)*%
X151231600Y-98983800D03*
%TO.P,J11,12,Pin_12*%
%TO.N,Net-(J11-Pin_12)*%
X151231600Y-101523800D03*
%TO.P,J11,13,Pin_13*%
%TO.N,Net-(J11-Pin_13)*%
X151231600Y-104063800D03*
%TO.P,J11,14,Pin_14*%
%TO.N,Net-(J11-Pin_14)*%
X151231600Y-106603800D03*
%TO.P,J11,15,Pin_15*%
%TO.N,Net-(J11-Pin_15)*%
X151231600Y-109143800D03*
%TO.P,J11,16,Pin_16*%
%TO.N,Net-(J11-Pin_16)*%
X151231600Y-111683800D03*
%TO.P,J11,17,Pin_17*%
%TO.N,Net-(J11-Pin_17)*%
X151231600Y-114223800D03*
%TO.P,J11,18,Pin_18*%
%TO.N,Net-(J11-Pin_18)*%
X151231600Y-116763800D03*
%TO.P,J11,19,Pin_19*%
%TO.N,Net-(J11-Pin_19)*%
X151231600Y-119303800D03*
%TO.P,J11,20,Pin_20*%
%TO.N,Net-(J11-Pin_20)*%
X151231600Y-121843800D03*
%TO.P,J11,21,Pin_21*%
%TO.N,GND*%
X151231600Y-124383800D03*
%TO.P,J11,22,Pin_22*%
X151231600Y-126923800D03*
%TD*%
D13*
%TO.P,J4,1,Pin_1*%
%TO.N,VCC*%
X159861600Y-73583800D03*
%TD*%
M02*
