%TF.GenerationSoftware,KiCad,Pcbnew,9.0.3*%
%TF.CreationDate,2025-07-24T13:33:21+07:00*%
%TF.ProjectId,shield,73686965-6c64-42e6-9b69-6361645f7063,rev?*%
%TF.SameCoordinates,Original*%
%TF.FileFunction,Soldermask,Top*%
%TF.FilePolarity,Negative*%
%FSLAX46Y46*%
G04 Gerber Fmt 4.6, Leading zero omitted, Abs format (unit mm)*
G04 Created by KiCad (PCBNEW 9.0.3) date 2025-07-24 13:33:21*
%MOMM*%
%LPD*%
G01*
G04 APERTURE LIST*
G04 Aperture macros list*
%AMRoundRect*
0 Rectangle with rounded corners*
0 $1 Rounding radius*
0 $2 $3 $4 $5 $6 $7 $8 $9 X,Y pos of 4 corners*
0 Add a 4 corners polygon primitive as box body*
4,1,4,$2,$3,$4,$5,$6,$7,$8,$9,$2,$3,0*
0 Add four circle primitives for the rounded corners*
1,1,$1+$1,$2,$3*
1,1,$1+$1,$4,$5*
1,1,$1+$1,$6,$7*
1,1,$1+$1,$8,$9*
0 Add four rect primitives between the rounded corners*
20,1,$1+$1,$2,$3,$4,$5,0*
20,1,$1+$1,$4,$5,$6,$7,0*
20,1,$1+$1,$6,$7,$8,$9,0*
20,1,$1+$1,$8,$9,$2,$3,0*%
G04 Aperture macros list end*
%ADD10R,1.700000X1.700000*%
%ADD11C,1.700000*%
%ADD12O,1.700000X1.950000*%
%ADD13RoundRect,0.250000X0.600000X0.725000X-0.600000X0.725000X-0.600000X-0.725000X0.600000X-0.725000X0*%
%ADD14R,4.600000X2.000000*%
%ADD15O,4.200000X2.000000*%
%ADD16O,2.000000X4.200000*%
%ADD17RoundRect,0.250000X0.750000X-0.750000X0.750000X0.750000X-0.750000X0.750000X-0.750000X-0.750000X0*%
%ADD18C,2.000000*%
G04 APERTURE END LIST*
D10*
%TO.C,J2*%
X107479400Y-137663800D03*
D11*
X104939400Y-137663800D03*
X102399400Y-137663800D03*
X99859400Y-137663800D03*
X97319400Y-137663800D03*
%TD*%
D12*
%TO.C,J3*%
X160759400Y-137663800D03*
X163259400Y-137663800D03*
D13*
X165759400Y-137663800D03*
%TD*%
D10*
%TO.C,J7*%
X177006600Y-113080800D03*
%TD*%
%TO.C,J6*%
X159861600Y-113080800D03*
%TD*%
D11*
%TO.C,J9*%
X145141600Y-126923800D03*
X145141600Y-124383800D03*
X145141600Y-121843800D03*
X145141600Y-119303800D03*
X145141600Y-116763800D03*
X145141600Y-114223800D03*
X145141600Y-111683800D03*
X145141600Y-109143800D03*
X145141600Y-106603800D03*
X145141600Y-104063800D03*
X145141600Y-101523800D03*
X145141600Y-98983800D03*
X145141600Y-96443800D03*
X145141600Y-93903800D03*
X145141600Y-91363800D03*
X145141600Y-88823800D03*
X145141600Y-86283800D03*
X145141600Y-83743800D03*
X145141600Y-81203800D03*
X145141600Y-78663800D03*
X145141600Y-76123800D03*
D10*
X145141600Y-73583800D03*
%TD*%
D11*
%TO.C,J8*%
X123291600Y-126923800D03*
X123291600Y-124383800D03*
X123291600Y-121843800D03*
X123291600Y-119303800D03*
X123291600Y-116763800D03*
X123291600Y-114223800D03*
X123291600Y-111683800D03*
X123291600Y-109143800D03*
X123291600Y-106603800D03*
X123291600Y-104063800D03*
X123291600Y-101523800D03*
X123291600Y-98983800D03*
X123291600Y-96443800D03*
X123291600Y-93903800D03*
X123291600Y-91363800D03*
X123291600Y-88823800D03*
X123291600Y-86283800D03*
X123291600Y-83743800D03*
X123291600Y-81203800D03*
X123291600Y-78663800D03*
X123291600Y-76123800D03*
D10*
X123291600Y-73583800D03*
%TD*%
D14*
%TO.C,J12*%
X177952400Y-135153400D03*
D15*
X177952400Y-141453400D03*
D16*
X182752400Y-138053400D03*
%TD*%
D10*
%TO.C,J5*%
X177006600Y-73583800D03*
%TD*%
D17*
%TO.C,C1*%
X177088800Y-127707400D03*
D18*
X177088800Y-122707400D03*
%TD*%
D10*
%TO.C,J10*%
X117201600Y-73583800D03*
D11*
X117201600Y-76123800D03*
X117201600Y-78663800D03*
X117201600Y-81203800D03*
X117201600Y-83743800D03*
X117201600Y-86283800D03*
X117201600Y-88823800D03*
X117201600Y-91363800D03*
X117201600Y-93903800D03*
X117201600Y-96443800D03*
X117201600Y-98983800D03*
X117201600Y-101523800D03*
X117201600Y-104063800D03*
X117201600Y-106603800D03*
X117201600Y-109143800D03*
X117201600Y-111683800D03*
X117201600Y-114223800D03*
X117201600Y-116763800D03*
X117201600Y-119303800D03*
X117201600Y-121843800D03*
X117201600Y-124383800D03*
X117201600Y-126923800D03*
%TD*%
D13*
%TO.C,J1*%
X147239400Y-137663800D03*
D12*
X144739400Y-137663800D03*
X142239400Y-137663800D03*
X139739400Y-137663800D03*
X137239400Y-137663800D03*
X134739400Y-137663800D03*
X132239400Y-137663800D03*
X129739400Y-137663800D03*
X127239400Y-137663800D03*
X124739400Y-137663800D03*
X122239400Y-137663800D03*
%TD*%
D10*
%TO.C,J11*%
X151231600Y-73583800D03*
D11*
X151231600Y-76123800D03*
X151231600Y-78663800D03*
X151231600Y-81203800D03*
X151231600Y-83743800D03*
X151231600Y-86283800D03*
X151231600Y-88823800D03*
X151231600Y-91363800D03*
X151231600Y-93903800D03*
X151231600Y-96443800D03*
X151231600Y-98983800D03*
X151231600Y-101523800D03*
X151231600Y-104063800D03*
X151231600Y-106603800D03*
X151231600Y-109143800D03*
X151231600Y-111683800D03*
X151231600Y-114223800D03*
X151231600Y-116763800D03*
X151231600Y-119303800D03*
X151231600Y-121843800D03*
X151231600Y-124383800D03*
X151231600Y-126923800D03*
%TD*%
D10*
%TO.C,J4*%
X159861600Y-73583800D03*
%TD*%
M02*
